<svg width="480" height="591" viewBox="0 0 480 591" fill="none" xmlns="http://www.w3.org/2000/svg">
<path d="M46.0996 179.79V585.47H193.62V373.41C193.62 347.954 214.263 327.31 239.72 327.31C265.176 327.31 285.82 347.954 285.82 373.41V585.47H433.34V179.79H46.0996Z" fill="#FDD3B0"/>
<path d="M387.24 69.15H92.2002V152.13H387.24V69.15Z" fill="#FED9B3"/>
<path d="M290.43 110.64H189.01C186.466 110.64 184.4 112.705 184.4 115.25V133.69C184.4 136.235 186.466 138.3 189.01 138.3H198.23C200.775 138.3 202.84 140.365 202.84 142.91C202.84 145.455 204.906 147.52 207.45 147.52H271.99C274.535 147.52 276.6 145.455 276.6 142.91C276.6 140.365 278.666 138.3 281.21 138.3H290.43C292.975 138.3 295.04 136.235 295.04 133.69V115.25C295.04 112.705 292.975 110.64 290.43 110.64Z" fill="#F0B895"/>
<path d="M147.52 147.705C157.704 147.705 165.96 139.449 165.96 129.265C165.96 119.08 157.704 110.825 147.52 110.825C137.336 110.825 129.08 119.08 129.08 129.265C129.08 139.449 137.336 147.705 147.52 147.705Z" fill="#F0B895"/>
<path d="M331.92 147.705C342.105 147.705 350.36 139.449 350.36 129.265C350.36 119.08 342.105 110.825 331.92 110.825C321.736 110.825 313.48 119.08 313.48 129.265C313.48 139.449 321.736 147.705 331.92 147.705Z" fill="#F0B895"/>
<path d="M331.92 50.71H147.52V69.15H331.92V50.71Z" fill="#FED9B3"/>
<path d="M414.9 152.13H64.54V179.79H414.9V152.13Z" fill="#FED9B3"/>
<path d="M433.34 179.79H414.9V585.47H433.34V179.79Z" fill="#FCF2E8"/>
<path d="M276.6 4.60999H202.84V23.05H276.6V4.60999Z" fill="#FED9B3"/>
<path d="M156.74 271.99H138.3V585.47H156.74V271.99Z" fill="#FCF2E8"/>
<path d="M156.74 271.99H46.0996V285.82H156.74V271.99Z" fill="#F0B895"/>
<path d="M155.588 299.65V585.47H193.62V373.41C193.62 347.954 214.264 327.31 239.72 327.31C265.177 327.31 285.82 347.954 285.82 373.41V585.47H323.853V299.65H155.588Z" fill="#F0B895"/>
<path d="M433.34 271.99H322.7V285.82H433.34V271.99Z" fill="#F0B895"/>
<path d="M239.72 308.87C204.075 308.87 175.18 337.765 175.18 373.41H193.62C193.62 347.954 214.263 327.31 239.72 327.31C265.176 327.31 285.82 347.954 285.82 373.41H304.26C304.26 337.765 275.364 308.87 239.72 308.87Z" fill="#BC856E"/>
<path d="M308.87 378.02H281.21V373.41C281.21 350.535 262.595 331.92 239.72 331.92C216.845 331.92 198.23 350.535 198.23 373.41V378.02H170.57V373.41C170.57 335.276 201.586 304.26 239.72 304.26C277.854 304.26 308.87 335.276 308.87 373.41V378.02ZM290.227 368.8H299.484C297.115 337.895 271.225 313.48 239.73 313.48C208.234 313.48 182.335 337.895 179.975 368.8H189.232C191.564 342.984 213.323 322.7 239.739 322.7C266.154 322.7 287.895 342.984 290.227 368.8Z" fill="#594454"/>
<path d="M322.7 299.65H156.74V313.48H322.7V299.65Z" fill="#BC856E"/>
<path d="M327.31 299.65H308.87V585.47H327.31V299.65Z" fill="#BC856E"/>
<path d="M170.57 299.65H152.13V585.47H170.57V299.65Z" fill="#BC856E"/>
<path d="M119.86 391.85H82.9805V419.51H119.86V391.85Z" fill="#DEA683"/>
<path d="M138.3 373.41H64.54V391.85H138.3V373.41Z" fill="#F0B895"/>
<path d="M414.9 373.41H341.14V391.85H414.9V373.41Z" fill="#F0B895"/>
<path d="M138.3 465.61H46.8652V484.05H138.3V465.61Z" fill="#F0B895"/>
<path d="M414.9 465.61H323.853V484.05H414.9V465.61Z" fill="#F0B895"/>
<path d="M396.46 391.85H359.58V419.51H396.46V391.85Z" fill="#DEA683"/>
<path d="M276.6 124.47H295.04V96.81H184.4V124.47H202.84V133.69H276.6V124.47Z" fill="#DEA683"/>
<path d="M147.52 133.875C157.704 133.875 165.96 125.619 165.96 115.435C165.96 105.25 157.704 96.9946 147.52 96.9946C137.336 96.9946 129.08 105.25 129.08 115.435C129.08 125.619 137.336 133.875 147.52 133.875Z" fill="#DEA683"/>
<path d="M101.42 318.09C109.058 318.09 115.25 311.898 115.25 304.26C115.25 296.622 109.058 290.43 101.42 290.43C93.7817 290.43 87.5898 296.622 87.5898 304.26C87.5898 311.898 93.7817 318.09 101.42 318.09Z" fill="#DEA683"/>
<path d="M378.02 318.09C385.659 318.09 391.85 311.898 391.85 304.26C391.85 296.622 385.659 290.43 378.02 290.43C370.382 290.43 364.19 296.622 364.19 304.26C364.19 311.898 370.382 318.09 378.02 318.09Z" fill="#DEA683"/>
<path d="M331.92 133.875C342.105 133.875 350.36 125.619 350.36 115.435C350.36 105.25 342.105 96.9946 331.92 96.9946C321.736 96.9946 313.48 105.25 313.48 115.435C313.48 125.619 321.736 133.875 331.92 133.875Z" fill="#DEA683"/>
<path d="M396.46 557.81H359.58V585.47H396.46V557.81Z" fill="#DEA683"/>
<path d="M414.9 152.13H396.46V179.79H414.9V152.13Z" fill="#FCF2E8"/>
<path d="M387.24 69.15H368.8V152.13H387.24V69.15Z" fill="#FCF2E8"/>
<path d="M331.92 50.71H313.48V69.15H331.92V50.71Z" fill="#FCF2E8"/>
<path d="M276.6 4.60999H258.16V23.05H276.6V4.60999Z" fill="#FCF2E8"/>
<path d="M304.26 50.71H175.18C175.18 35.4324 187.562 23.05 202.84 23.05H276.6C291.877 23.05 304.26 35.4324 304.26 50.71Z" fill="#FED9B3"/>
<path d="M308.87 55.32H170.57V50.71C170.57 32.9154 185.046 18.44 202.84 18.44H276.6C294.395 18.44 308.87 32.9154 308.87 50.71V55.32ZM180.251 46.1H299.189C297.05 35.5892 287.729 27.66 276.6 27.66H202.84C191.712 27.66 182.39 35.5892 180.251 46.1Z" fill="#594454"/>
<path d="M276.6 23.05H258.16C273.438 23.05 285.82 35.4324 285.82 50.71H304.26C304.26 35.4324 291.878 23.05 276.6 23.05Z" fill="#FCF2E8"/>
<path d="M433.34 590.08H46.1002C43.5555 590.08 41.4902 588.015 41.4902 585.47V179.79C41.4902 177.245 43.5555 175.18 46.1002 175.18H433.34C435.885 175.18 437.95 177.245 437.95 179.79V585.47C437.95 588.015 435.885 590.08 433.34 590.08ZM50.7102 580.86H428.73V184.4H50.7102V580.86Z" fill="#594454"/>
<path d="M414.9 184.4H64.5397C61.995 184.4 59.9297 182.335 59.9297 179.79V152.13C59.9297 149.585 61.995 147.52 64.5397 147.52H414.9C417.444 147.52 419.51 149.585 419.51 152.13V179.79C419.51 182.335 417.444 184.4 414.9 184.4ZM69.1497 175.18H410.29V156.74H69.1497V175.18Z" fill="#594454"/>
<path d="M387.24 156.74H92.1998C89.6551 156.74 87.5898 154.675 87.5898 152.13V69.15C87.5898 66.6053 89.6551 64.54 92.1998 64.54H387.24C389.785 64.54 391.85 66.6053 391.85 69.15V152.13C391.85 154.675 389.785 156.74 387.24 156.74ZM96.8098 147.52H382.63V73.76H96.8098V147.52Z" fill="#594454"/>
<path d="M331.92 73.76H147.52C144.975 73.76 142.91 71.6947 142.91 69.15V50.71C142.91 48.1653 144.975 46.1 147.52 46.1H331.92C334.465 46.1 336.53 48.1653 336.53 50.71V69.15C336.53 71.6947 334.465 73.76 331.92 73.76ZM152.13 64.54H327.31V55.32H152.13V64.54ZM276.6 138.3H202.84C200.295 138.3 198.23 136.235 198.23 133.69V129.08H184.4C181.855 129.08 179.79 127.015 179.79 124.47V96.81C179.79 94.2653 181.855 92.2 184.4 92.2H295.04C297.585 92.2 299.65 94.2653 299.65 96.81V124.47C299.65 127.015 297.585 129.08 295.04 129.08H281.21V133.69C281.21 136.235 279.145 138.3 276.6 138.3ZM207.45 129.08H271.99V124.47C271.99 121.925 274.055 119.86 276.6 119.86H290.43V101.42H189.01V119.86H202.84C205.385 119.86 207.45 121.925 207.45 124.47V129.08Z" fill="#594454"/>
<path d="M308.87 55.32H170.57V50.71C170.57 32.9154 185.046 18.44 202.84 18.44H276.6C294.395 18.44 308.87 32.9154 308.87 50.71V55.32ZM180.251 46.1H299.189C297.05 35.5892 287.729 27.66 276.6 27.66H202.84C191.712 27.66 182.39 35.5892 180.251 46.1Z" fill="#594454"/>
<path d="M276.6 27.66H202.84C200.296 27.66 198.23 25.5947 198.23 23.05V4.61C198.23 2.06528 200.296 0 202.84 0H276.6C279.145 0 281.21 2.06528 281.21 4.61V23.05C281.21 25.5947 279.145 27.66 276.6 27.66ZM207.45 18.44H271.99V9.22H207.45V18.44ZM304.26 378.02C301.716 378.02 299.65 375.955 299.65 373.41C299.65 340.366 272.765 313.48 239.72 313.48C206.676 313.48 179.79 340.366 179.79 373.41C179.79 375.955 177.725 378.02 175.18 378.02C172.636 378.02 170.57 375.955 170.57 373.41C170.57 335.276 201.586 304.26 239.72 304.26C277.854 304.26 308.87 335.276 308.87 373.41C308.87 375.955 306.805 378.02 304.26 378.02ZM433.34 590.08H322.7C320.156 590.08 318.09 588.015 318.09 585.47V271.99C318.09 269.445 320.156 267.38 322.7 267.38H433.34C435.885 267.38 437.95 269.445 437.95 271.99V585.47C437.95 588.015 435.885 590.08 433.34 590.08ZM327.31 580.86H428.73V276.6H327.31V580.86ZM156.74 590.08H46.1002C43.5555 590.08 41.4902 588.015 41.4902 585.47V271.99C41.4902 269.445 43.5555 267.38 46.1002 267.38H156.74C159.285 267.38 161.35 269.445 161.35 271.99V585.47C161.35 588.015 159.285 590.08 156.74 590.08ZM50.7102 580.86H152.13V276.6H50.7102V580.86Z" fill="#594454"/>
<path d="M87.59 336.53H64.54V354.97H87.59V336.53Z" fill="#DEA683"/>
<path d="M138.3 336.53H115.25V354.97H138.3V336.53Z" fill="#DEA683"/>
<path d="M364.19 336.53H341.14V354.97H364.19V336.53Z" fill="#DEA683"/>
<path d="M414.9 336.53H391.85V354.97H414.9V336.53Z" fill="#DEA683"/>
<path d="M138.3 590.08H64.5397C61.995 590.08 59.9297 588.015 59.9297 585.47V336.53C59.9297 333.985 61.995 331.92 64.5397 331.92H138.3C140.844 331.92 142.91 333.985 142.91 336.53V585.47C142.91 588.015 140.844 590.08 138.3 590.08ZM69.1497 580.86H133.69V341.14H69.1497V580.86Z" fill="#594454"/>
<path d="M115.25 359.58H87.5895C85.0448 359.58 82.9795 357.515 82.9795 354.97V336.53C82.9795 333.985 85.0448 331.92 87.5895 331.92H115.25C117.794 331.92 119.86 333.985 119.86 336.53V354.97C119.86 357.515 117.794 359.58 115.25 359.58ZM92.1995 350.36H110.64V341.14H92.1995V350.36ZM119.86 424.12H82.9795C80.4348 424.12 78.3695 422.055 78.3695 419.51V391.85C78.3695 389.305 80.4348 387.24 82.9795 387.24H119.86C122.404 387.24 124.47 389.305 124.47 391.85V419.51C124.47 422.055 122.404 424.12 119.86 424.12ZM87.5895 414.9H115.25V396.46H87.5895V414.9ZM152.13 562.42H36.8795C34.3348 562.42 32.2695 560.355 32.2695 557.81C32.2695 555.265 34.3348 553.2 36.8795 553.2H152.13C154.674 553.2 156.74 555.265 156.74 557.81C156.74 560.355 154.674 562.42 152.13 562.42Z" fill="#594454"/>
<path d="M152.13 396.46H46.1002C43.5555 396.46 41.4902 394.395 41.4902 391.85C41.4902 389.305 43.5555 387.24 46.1002 387.24H152.13C154.675 387.24 156.74 389.305 156.74 391.85C156.74 394.395 154.675 396.46 152.13 396.46ZM138.3 359.58H64.5402C61.9955 359.58 59.9302 357.515 59.9302 354.97C59.9302 352.425 61.9955 350.36 64.5402 350.36H138.3C140.845 350.36 142.91 352.425 142.91 354.97C142.91 357.515 140.845 359.58 138.3 359.58ZM391.85 359.58H364.19C361.646 359.58 359.58 357.515 359.58 354.97V336.53C359.58 333.985 361.646 331.92 364.19 331.92H391.85C394.395 331.92 396.46 333.985 396.46 336.53V354.97C396.46 357.515 394.395 359.58 391.85 359.58ZM368.8 350.36H387.24V341.14H368.8V350.36Z" fill="#594454"/>
<path d="M414.9 359.58H341.14C338.596 359.58 336.53 357.515 336.53 354.97C336.53 352.425 338.596 350.36 341.14 350.36H414.9C417.445 350.36 419.51 352.425 419.51 354.97C419.51 357.515 417.445 359.58 414.9 359.58ZM147.52 138.494C134.806 138.494 124.47 128.158 124.47 115.444C124.47 102.729 134.806 92.3936 147.52 92.3936C160.235 92.3936 170.57 102.729 170.57 115.444C170.57 128.158 160.235 138.494 147.52 138.494ZM147.52 101.614C139.896 101.614 133.69 107.819 133.69 115.444C133.69 123.069 139.896 129.274 147.52 129.274C155.145 129.274 161.35 123.069 161.35 115.444C161.35 107.819 155.145 101.614 147.52 101.614ZM101.42 322.7C91.2508 322.7 82.9805 314.43 82.9805 304.26C82.9805 294.09 91.2508 285.82 101.42 285.82C111.59 285.82 119.86 294.09 119.86 304.26C119.86 314.43 111.59 322.7 101.42 322.7ZM101.42 295.04C96.331 295.04 92.2005 299.171 92.2005 304.26C92.2005 309.349 96.331 313.48 101.42 313.48C106.51 313.48 110.64 309.349 110.64 304.26C110.64 299.171 106.51 295.04 101.42 295.04Z" fill="#594454"/>
<path d="M414.9 590.08H341.14C338.596 590.08 336.53 588.015 336.53 585.47V336.53C336.53 333.985 338.596 331.92 341.14 331.92H414.9C417.445 331.92 419.51 333.985 419.51 336.53V585.47C419.51 588.015 417.445 590.08 414.9 590.08ZM345.75 580.86H410.29V341.14H345.75V580.86Z" fill="#594454"/>
<path d="M396.46 590.08H359.58C357.035 590.08 354.97 588.015 354.97 585.47V557.81C354.97 555.265 357.035 553.2 359.58 553.2H396.46C399.004 553.2 401.07 555.265 401.07 557.81V585.47C401.07 588.015 399.004 590.08 396.46 590.08ZM364.19 580.86H391.85V562.42H364.19V580.86ZM396.46 424.12H359.58C357.035 424.12 354.97 422.055 354.97 419.51V391.85C354.97 389.305 357.035 387.24 359.58 387.24H396.46C399.004 387.24 401.07 389.305 401.07 391.85V419.51C401.07 422.055 399.004 424.12 396.46 424.12ZM364.19 414.9H391.85V396.46H364.19V414.9Z" fill="#594454"/>
<path d="M442.56 562.42H325.005C322.46 562.42 320.395 560.355 320.395 557.81C320.395 555.265 322.46 553.2 325.005 553.2H442.56C445.105 553.2 447.17 555.265 447.17 557.81C447.17 560.355 445.105 562.42 442.56 562.42ZM428.73 396.46H322.7C320.155 396.46 318.09 394.395 318.09 391.85C318.09 389.305 320.155 387.24 322.7 387.24H428.73C431.275 387.24 433.34 389.305 433.34 391.85C433.34 394.395 431.275 396.46 428.73 396.46ZM378.02 322.7C367.85 322.7 359.58 314.43 359.58 304.26C359.58 294.09 367.85 285.82 378.02 285.82C388.19 285.82 396.46 294.09 396.46 304.26C396.46 314.43 388.19 322.7 378.02 322.7ZM378.02 295.04C372.931 295.04 368.8 299.171 368.8 304.26C368.8 309.349 372.931 313.48 378.02 313.48C383.11 313.48 387.24 309.349 387.24 304.26C387.24 299.171 383.11 295.04 378.02 295.04ZM331.92 138.494C319.206 138.494 308.87 128.158 308.87 115.444C308.87 102.729 319.206 92.3936 331.92 92.3936C344.634 92.3936 354.97 102.729 354.97 115.444C354.97 128.158 344.634 138.494 331.92 138.494ZM331.92 101.614C324.295 101.614 318.09 107.819 318.09 115.444C318.09 123.069 324.295 129.274 331.92 129.274C339.545 129.274 345.75 123.069 345.75 115.444C345.75 107.819 339.545 101.614 331.92 101.614Z" fill="#594454"/>
<path d="M18.4404 216.67H461L433.34 271.99H46.1004L18.4404 216.67Z" fill="#DEA683"/>
<path d="M451.78 235.11L27.6689 235.128L46.0997 271.99H433.34L451.78 235.11Z" fill="#DEA683"/>
<path d="M27.6689 235.128L34.5839 248.958L444.865 248.94L451.78 235.11L27.6689 235.128Z" fill="#BC856E"/>
<path d="M73.7602 274.443C71.2155 274.443 69.1502 272.377 69.1502 269.833V235.11C69.1502 232.565 71.2155 230.5 73.7602 230.5C76.305 230.5 78.3702 232.565 78.3702 235.11V269.833C78.3702 272.377 76.305 274.443 73.7602 274.443ZM46.1002 274.443C43.5555 274.443 41.4902 272.377 41.4902 269.833V235.11C41.4902 232.565 43.5555 230.5 46.1002 230.5C48.645 230.5 50.7102 232.565 50.7102 235.11V269.833C50.7102 272.377 48.645 274.443 46.1002 274.443ZM101.42 274.443C98.8755 274.443 96.8102 272.377 96.8102 269.833V235.11C96.8102 232.565 98.8755 230.5 101.42 230.5C103.965 230.5 106.03 232.565 106.03 235.11V269.833C106.03 272.377 103.965 274.443 101.42 274.443ZM129.08 274.443C126.536 274.443 124.47 272.377 124.47 269.833V235.11C124.47 232.565 126.536 230.5 129.08 230.5C131.625 230.5 133.69 232.565 133.69 235.11V269.833C133.69 272.377 131.625 274.443 129.08 274.443ZM156.74 274.443C154.196 274.443 152.13 272.377 152.13 269.833V235.11C152.13 232.565 154.196 230.5 156.74 230.5C159.285 230.5 161.35 232.565 161.35 235.11V269.833C161.35 272.377 159.285 274.443 156.74 274.443ZM184.4 274.443C181.856 274.443 179.79 272.377 179.79 269.833V235.11C179.79 232.565 181.856 230.5 184.4 230.5C186.945 230.5 189.01 232.565 189.01 235.11V269.833C189.01 272.377 186.945 274.443 184.4 274.443ZM212.06 274.443C209.516 274.443 207.45 272.377 207.45 269.833V235.11C207.45 232.565 209.516 230.5 212.06 230.5C214.605 230.5 216.67 232.565 216.67 235.11V269.833C216.67 272.377 214.605 274.443 212.06 274.443ZM239.72 274.443C237.176 274.443 235.11 272.377 235.11 269.833V235.11C235.11 232.565 237.176 230.5 239.72 230.5C242.265 230.5 244.33 232.565 244.33 235.11V269.833C244.33 272.377 242.265 274.443 239.72 274.443ZM267.38 274.443C264.836 274.443 262.77 272.377 262.77 269.833V235.11C262.77 232.565 264.836 230.5 267.38 230.5C269.925 230.5 271.99 232.565 271.99 235.11V269.833C271.99 272.377 269.925 274.443 267.38 274.443ZM295.04 274.443C292.496 274.443 290.43 272.377 290.43 269.833V235.11C290.43 232.565 292.496 230.5 295.04 230.5C297.585 230.5 299.65 232.565 299.65 235.11V269.833C299.65 272.377 297.585 274.443 295.04 274.443ZM322.7 274.443C320.156 274.443 318.09 272.377 318.09 269.833V235.11C318.09 232.565 320.156 230.5 322.7 230.5C325.245 230.5 327.31 232.565 327.31 235.11V269.833C327.31 272.377 325.245 274.443 322.7 274.443ZM350.36 274.443C347.816 274.443 345.75 272.377 345.75 269.833V235.11C345.75 232.565 347.816 230.5 350.36 230.5C352.905 230.5 354.97 232.565 354.97 235.11V269.833C354.97 272.377 352.905 274.443 350.36 274.443ZM378.02 274.443C375.476 274.443 373.41 272.377 373.41 269.833V235.11C373.41 232.565 375.476 230.5 378.02 230.5C380.565 230.5 382.63 232.565 382.63 235.11V269.833C382.63 272.377 380.565 274.443 378.02 274.443ZM405.68 274.443C403.136 274.443 401.07 272.377 401.07 269.833V235.11C401.07 232.565 403.136 230.5 405.68 230.5C408.225 230.5 410.29 232.565 410.29 235.11V269.833C410.29 272.377 408.225 274.443 405.68 274.443ZM433.34 274.443C430.796 274.443 428.73 272.377 428.73 269.833V235.11C428.73 232.565 430.796 230.5 433.34 230.5C435.885 230.5 437.95 232.565 437.95 235.11V269.833C437.95 272.377 435.885 274.443 433.34 274.443Z" fill="#594454"/>
<path d="M460.999 216.67L451.779 235.11L27.6687 235.128L18.4395 216.67H460.999Z" fill="#FDD3B0"/>
<path d="M24.8197 239.738L10.9805 212.06H468.449L454.619 239.72L24.8197 239.738ZM25.8984 221.28L30.5177 230.518L448.93 230.5L453.54 221.28H25.8984Z" fill="#FDD3B0"/>
<path d="M447.171 239.72H30.3346C27.7899 239.72 25.7246 237.655 25.7246 235.11C25.7246 232.565 27.7899 230.5 30.3346 230.5H447.171C449.716 230.5 451.781 232.565 451.781 235.11C451.781 237.655 449.716 239.72 447.171 239.72Z" fill="#594454"/>
<path d="M433.341 276.6H46.1012C44.3587 276.6 42.7636 275.613 41.9799 274.055L14.3199 218.735C13.61 217.306 13.6837 215.61 14.5135 214.254C15.3618 212.89 16.8462 212.06 18.4412 212.06H461.001C462.596 212.06 464.081 212.89 464.929 214.245C465.768 215.6 465.842 217.297 465.123 218.726L437.463 274.046C436.679 275.613 435.084 276.6 433.341 276.6ZM48.9502 267.38H430.501L453.551 221.28H25.9002L48.9502 267.38Z" fill="#594454"/>
<path d="M28.2412 437.95H175.18L156.74 465.61H46.6812L28.2412 437.95Z" fill="#DEA683"/>
<path d="M304.841 437.95H451.78L433.34 465.61H323.281L304.841 437.95Z" fill="#DEA683"/>
<path d="M433.34 465.61L451.78 437.95H433.34L414.9 465.61H433.34Z" fill="#EEE1CC"/>
<path d="M156.74 465.61L175.18 437.95H156.74L138.3 465.61H156.74Z" fill="#EEE1CC"/>
<path d="M156.741 470.22H46.6823C45.1426 470.22 43.7043 469.446 42.8468 468.164L24.4068 440.504C23.4571 439.093 23.3742 437.268 24.1855 435.765C24.9784 434.28 26.5366 433.34 28.2423 433.34H175.181C176.887 433.34 178.445 434.28 179.238 435.774C180.05 437.277 179.957 439.093 179.017 440.513L160.577 468.173C159.72 469.446 158.281 470.22 156.741 470.22ZM49.1441 461H154.271L166.561 442.56H36.8538L49.1441 461ZM433.341 470.22H323.282C321.743 470.22 320.304 469.446 319.447 468.164L301.007 440.504C300.057 439.093 299.974 437.268 300.786 435.765C301.578 434.28 303.137 433.34 304.842 433.34H451.781C453.487 433.34 455.045 434.28 455.838 435.774C456.65 437.277 456.557 439.093 455.617 440.513L437.177 468.173C436.32 469.446 434.881 470.22 433.341 470.22ZM325.744 461H430.871L443.161 442.56H313.454L325.744 461Z" fill="#594454"/>
<path d="M119.86 557.81H82.9805V585.47H119.86V557.81Z" fill="#DEA683"/>
<path d="M119.86 590.08H82.9801C80.4354 590.08 78.3701 588.015 78.3701 585.47V557.81C78.3701 555.265 80.4354 553.2 82.9801 553.2H119.86C122.405 553.2 124.47 555.265 124.47 557.81V585.47C124.47 588.015 122.405 590.08 119.86 590.08ZM87.5901 580.86H115.25V562.42H87.5901V580.86ZM285.82 590.08H193.62C191.075 590.08 189.01 588.015 189.01 585.47V373.41C189.01 345.455 211.765 322.7 239.72 322.7C267.675 322.7 290.43 345.455 290.43 373.41V585.47C290.43 588.015 288.365 590.08 285.82 590.08ZM198.23 580.86H281.21V373.41C281.21 350.535 262.595 331.92 239.72 331.92C216.845 331.92 198.23 350.535 198.23 373.41V580.86Z" fill="#594454"/>
<path d="M202.84 442.56H168.265C165.72 442.56 163.655 440.495 163.655 437.95C163.655 435.405 165.72 433.34 168.265 433.34H202.84C205.384 433.34 207.45 435.405 207.45 437.95C207.45 440.495 205.384 442.56 202.84 442.56ZM311.175 442.56H276.6C274.055 442.56 271.99 440.495 271.99 437.95C271.99 435.405 274.055 433.34 276.6 433.34H311.175C313.719 433.34 315.785 435.405 315.785 437.95C315.785 440.495 313.719 442.56 311.175 442.56ZM202.84 378.02H36.8795C34.3348 378.02 32.2695 375.955 32.2695 373.41C32.2695 370.865 34.3348 368.8 36.8795 368.8H202.84C205.384 368.8 207.45 370.865 207.45 373.41C207.45 375.955 205.384 378.02 202.84 378.02ZM442.56 378.02H276.6C274.055 378.02 271.99 375.955 271.99 373.41C271.99 370.865 274.055 368.8 276.6 368.8H442.56C445.104 368.8 447.17 370.865 447.17 373.41C447.17 375.955 445.104 378.02 442.56 378.02Z" fill="#594454"/>
<path d="M248.94 299.65H322.7V271.99H156.74V299.65H230.5V336.53H248.94V299.65Z" fill="#FDD3B0"/>
<path d="M322.7 271.99H156.74V285.82H322.7V271.99Z" fill="#F0B895"/>
<path d="M248.94 341.14H230.5C227.955 341.14 225.89 339.075 225.89 336.53V304.26H156.74C154.195 304.26 152.13 302.195 152.13 299.65V271.99C152.13 269.445 154.195 267.38 156.74 267.38H322.7C325.245 267.38 327.31 269.445 327.31 271.99V299.65C327.31 302.195 325.245 304.26 322.7 304.26H253.55V336.53C253.55 339.075 251.485 341.14 248.94 341.14ZM235.11 331.92H244.33V299.65C244.33 297.105 246.395 295.04 248.94 295.04H318.09V276.6H161.35V295.04H230.5C233.045 295.04 235.11 297.105 235.11 299.65V331.92Z" fill="#594454"/>
<path d="M474.83 590.08H4.61C2.06528 590.08 0 588.015 0 585.47C0 582.925 2.06528 580.86 4.61 580.86H474.83C477.375 580.86 479.44 582.925 479.44 585.47C479.44 588.015 477.375 590.08 474.83 590.08Z" fill="#594454"/>
</svg>
