<svg width="654" height="403" viewBox="0 0 654 403" fill="none" xmlns="http://www.w3.org/2000/svg">
<path d="M606.257 250.885L609.337 391.534H559.835L562.914 250.885H606.257Z" fill="#B8C0CE"/>
<path d="M604.459 168.861L606.258 250.885H562.915L564.714 168.861H604.459Z" fill="#DADDE2"/>
<path d="M602.732 89.7156L604.459 168.861H564.714L566.441 89.7156H602.732Z" fill="#DADDE2"/>
<path d="M602.1 60.8058L602.733 89.7156H566.441L567.074 60.8058C567.276 51.2796 575.061 43.6672 584.587 43.6672C594.113 43.6672 601.884 51.2796 602.1 60.8058Z" fill="#DADDE2"/>
<path d="M505.527 248.496V391.534H398.522V248.496H428.31H494.792H505.527Z" fill="#DADDE2"/>
<path d="M461.551 182.719C479.999 182.719 494.95 197.685 494.95 216.133C494.95 217.255 494.907 218.363 494.792 219.442V216.133H428.31V219.543C428.195 218.435 428.137 217.284 428.137 216.133C428.137 197.685 443.103 182.719 461.551 182.719Z" fill="#DADDE2"/>
<path d="M494.792 219.442V248.496H428.31V219.543V216.133H494.792V219.442Z" fill="#B8C0CE"/>
<path d="M327.349 51.4379L330.357 54.4454C343.97 68.0585 358.95 80.1749 374.649 91.2985C396.191 106.581 410.092 131.951 409.459 160.515C409.142 174.66 405.199 188 398.522 199.598V199.426H255.485V199.728C248.506 187.626 244.52 173.595 244.52 158.63C244.52 130.209 258.895 105.142 280.783 90.32C296.238 79.8296 310.441 67.6555 323.636 54.4454L327.004 51.0925L327.349 51.4379Z" fill="#DADDE2"/>
<path d="M398.522 248.496V391.534H362.461V321.598C362.461 321.583 362.461 321.555 362.461 321.555C362.461 285.176 327.004 278.226 327.004 278.226C327.004 278.226 291.532 285.176 291.532 321.555C291.532 321.555 291.532 321.583 291.532 321.598V391.534H255.485V248.496H398.522Z" fill="#DADDE2"/>
<path d="M398.522 199.598V248.496H255.485V199.728V199.426H398.522V199.598Z" fill="#B8C0CE"/>
<path d="M362.461 321.598V391.534H291.532V321.598C291.532 321.583 291.532 321.555 291.532 321.555C291.532 285.176 327.003 278.226 327.003 278.226C327.003 278.226 362.461 285.176 362.461 321.555C362.461 321.555 362.461 321.583 362.461 321.598Z" fill="#B8C0CE"/>
<path d="M255.484 248.496V391.534H148.465V248.496H159.214H225.697H255.484Z" fill="#DADDE2"/>
<path d="M192.456 182.719C210.904 182.719 225.855 197.685 225.855 216.133C225.855 217.255 225.812 218.363 225.697 219.442V216.133H159.215V219.543C159.1 218.435 159.042 217.284 159.042 216.133C159.042 197.685 174.008 182.719 192.456 182.719Z" fill="#DADDE2"/>
<path d="M225.697 219.442V248.496H159.215V219.543V216.133H225.697V219.442Z" fill="#B8C0CE"/>
<path d="M91.0924 250.885L94.1719 391.534H44.6699L47.7494 250.885H91.0924Z" fill="#B8C0CE"/>
<path d="M89.2933 168.861L91.092 250.885H47.749L49.5478 168.861H89.2933Z" fill="#DADDE2"/>
<path d="M87.5665 89.7156L89.2933 168.861H49.5479L51.2747 89.7156H87.5665Z" fill="#DADDE2"/>
<path d="M86.9331 60.8058L87.5663 89.7156H51.2744L51.9076 60.8058C52.109 51.2796 59.8941 43.6672 69.4203 43.6672C78.9466 43.6672 86.7172 51.2796 86.9331 60.8058Z" fill="#DADDE2"/>
<path d="M184.538 273.189C178.576 273.189 173.745 278.022 173.745 283.982V307.006C173.745 312.967 178.576 317.799 184.538 317.799C190.5 317.799 195.33 312.967 195.33 307.006V283.982C195.33 278.022 190.5 273.189 184.538 273.189Z" fill="#39426A"/>
<path d="M219.073 273.189C213.111 273.189 208.28 278.022 208.28 283.982V307.006C208.28 312.967 213.111 317.799 219.073 317.799C225.035 317.799 229.865 312.967 229.865 307.006V283.982C229.865 278.022 225.035 273.189 219.073 273.189Z" fill="#39426A"/>
<path d="M184.538 324.994C178.576 324.994 173.745 329.826 173.745 335.786V358.811C173.745 364.771 178.576 369.603 184.538 369.603C190.5 369.603 195.33 364.771 195.33 358.811V335.786C195.33 329.826 190.5 324.994 184.538 324.994Z" fill="#39426A"/>
<path d="M219.073 324.994C213.111 324.994 208.28 329.826 208.28 335.786V358.811C208.28 364.771 213.111 369.603 219.073 369.603C225.035 369.603 229.865 364.771 229.865 358.811V335.786C229.865 329.826 225.035 324.994 219.073 324.994Z" fill="#39426A"/>
<path d="M434.925 317.799C440.887 317.799 445.717 312.967 445.717 307.006V283.982C445.717 278.022 440.887 273.189 434.925 273.189C428.963 273.189 424.132 278.022 424.132 283.982V307.006C424.132 312.968 428.965 317.799 434.925 317.799Z" fill="#39426A"/>
<path d="M469.462 317.799C475.423 317.799 480.254 312.967 480.254 307.006V283.982C480.254 278.022 475.423 273.189 469.462 273.189C463.5 273.189 458.669 278.022 458.669 283.982V307.006C458.669 312.968 463.501 317.799 469.462 317.799Z" fill="#39426A"/>
<path d="M434.925 369.603C440.887 369.603 445.717 364.771 445.717 358.811V335.786C445.717 329.826 440.887 324.994 434.925 324.994C428.963 324.994 424.132 329.826 424.132 335.786V358.811C424.132 364.772 428.965 369.603 434.925 369.603Z" fill="#39426A"/>
<path d="M469.462 369.603C475.423 369.603 480.254 364.771 480.254 358.811V335.786C480.254 329.826 475.423 324.994 469.462 324.994C463.5 324.994 458.669 329.826 458.669 335.786V358.811C458.669 364.772 463.501 369.603 469.462 369.603Z" fill="#39426A"/>
<path d="M10.7926 402.326H643.207C649.169 402.326 654 397.494 654 391.534C654 385.573 649.169 380.741 643.207 380.741H619.891L617.287 261.677H617.679C623.641 261.677 628.472 256.845 628.472 250.885C628.472 244.924 623.641 240.092 617.679 240.092H616.813L615.475 178.937C619.537 177.387 622.427 173.466 622.427 168.861C622.427 164.088 619.326 160.047 615.03 158.623L613.754 100.298C618.7 99.3124 622.427 94.9507 622.427 89.7156C622.427 84.3193 618.462 79.8613 613.289 79.0626L612.885 60.567C612.634 49.1053 605.418 39.2481 595.373 35.0447V26.3991C595.373 20.4388 590.543 15.6066 584.581 15.6066C578.619 15.6066 573.788 20.4388 573.788 26.3991V35.0447C563.745 39.2481 556.527 49.1053 556.275 60.567L555.871 79.064C550.698 79.8627 546.733 84.3208 546.733 89.717C546.733 94.9522 550.46 99.3138 555.406 100.3L554.13 158.624C549.834 160.049 546.733 164.089 546.733 168.863C546.733 173.469 549.624 177.39 553.685 178.939L552.347 240.094H551.482C545.52 240.094 540.689 244.926 540.689 250.886C540.689 256.847 545.52 261.679 551.482 261.679H551.873L549.269 380.743H516.318V248.502C516.318 242.557 511.683 237.738 505.745 237.711C505.745 237.711 505.745 223.257 505.745 216.136C505.745 195.484 491.508 178.101 472.335 173.272V168.458C472.335 162.498 467.504 157.666 461.542 157.666C455.581 157.666 450.75 162.498 450.75 168.458V173.272C431.578 178.101 417.34 195.486 417.34 216.136C417.34 220.558 417.34 237.708 417.34 237.708H409.303V202.386C416.147 189.569 419.921 175.237 420.243 160.748C420.934 129.719 406.223 100.465 380.884 82.4932C364.186 70.6573 350.152 58.9855 337.979 46.813L337.788 46.6216V11.1543C337.788 5.19389 332.957 0.361694 326.995 0.361694C321.033 0.361694 316.202 5.19389 316.202 11.1543V46.6115L315.998 46.8158C302.299 60.5267 288.796 71.8345 274.721 81.3823C249.05 98.7742 233.724 127.652 233.724 158.63C233.724 173.968 237.506 189.078 244.685 202.521V237.708H236.65C236.65 237.708 236.65 225.414 236.65 216.136C236.65 195.484 222.413 178.101 203.24 173.272V168.458C203.24 162.498 198.409 157.666 192.447 157.666C186.486 157.666 181.655 162.498 181.655 168.458V173.272C162.483 178.101 148.245 195.486 148.245 216.136C148.245 221.637 148.245 237.711 148.245 237.711C142.304 237.732 137.67 242.554 137.67 248.502V380.743H104.725L102.121 261.679H102.514C108.475 261.679 113.306 256.847 113.306 250.886C113.306 244.926 108.475 240.094 102.514 240.094H101.647L100.309 178.939C104.371 177.389 107.261 173.467 107.261 168.863C107.261 164.089 104.16 160.049 99.8644 158.624L98.588 100.3C103.534 99.3138 107.261 94.9522 107.261 89.717C107.261 84.3208 103.296 79.8627 98.1232 79.064L97.7189 60.5685C97.4685 49.1067 90.2519 39.2495 80.2076 35.0462V26.4006C80.2076 20.4402 75.3768 15.608 69.415 15.608C63.4532 15.608 58.6224 20.4402 58.6224 26.4006V35.0462C48.5796 39.2495 41.3615 49.1067 41.1096 60.5685L40.7053 79.0655C35.532 79.8642 31.5676 84.3222 31.5676 89.7185C31.5676 94.9536 35.2946 99.3152 40.2405 100.301L38.9641 158.626C34.6686 160.05 31.5676 164.091 31.5676 168.864C31.5676 173.47 34.4585 177.392 38.5194 178.94L37.1812 240.095H36.3163C30.3545 240.095 25.5237 244.927 25.5237 250.888C25.5237 256.848 30.3545 261.68 36.3163 261.68H36.7077L34.1031 380.744H10.7926C4.83076 380.744 0 385.576 0 391.537C0 397.497 4.83076 402.326 10.7926 402.326ZM351.668 380.741H302.33V321.55C302.33 298.664 320.479 291.268 327.009 289.348C333.342 291.21 351.668 298.587 351.668 321.599V380.741ZM373.253 380.741V321.55C373.253 285.755 344.357 270.631 329.077 267.636C327.706 267.367 326.293 267.367 324.924 267.636C309.643 270.632 280.745 285.755 280.745 321.599V380.741H266.274V259.293H387.723V380.741H373.253ZM577.856 61.0405C577.937 57.4127 580.953 54.4598 584.582 54.4598C588.211 54.4598 591.226 57.4113 591.307 61.039L591.698 78.923H577.465L577.856 61.0405ZM592.17 100.508L593.429 158.069H575.734L576.993 100.508H592.17ZM575.262 179.654H593.901L595.224 240.092H573.939L575.262 179.654ZM573.467 261.677H595.696L598.3 380.741H570.863L573.467 261.677ZM461.019 193.546C461.194 193.555 461.899 193.555 462.075 193.546C470.415 193.74 477.659 198.452 481.417 205.343H441.677C445.436 198.452 452.678 193.74 461.019 193.546ZM439.108 226.928H483.992V237.708H439.108V226.928ZM494.738 259.293V380.741H409.309V259.293H494.738ZM286.839 99.249C300.591 89.9199 313.779 79.0957 327.007 66.2741C339.016 77.8006 352.615 88.9098 368.405 100.101C387.887 113.92 399.199 136.411 398.668 160.269C398.45 170.056 396.147 179.74 392.017 188.638H261.921C257.606 179.278 255.314 169.032 255.314 158.628C255.314 134.821 267.096 112.625 286.839 99.249ZM266.274 210.224H387.723V237.709H266.274V210.224ZM170.013 226.928H214.898V237.708H170.013V226.928ZM191.924 193.546C192.099 193.555 192.804 193.555 192.98 193.546C201.32 193.74 208.564 198.452 212.322 205.343H172.582C176.341 198.452 183.583 193.74 191.924 193.546ZM159.261 259.293H244.689V380.741H159.261V259.293ZM62.6905 61.0405C62.7711 57.4127 65.7872 54.4598 69.4164 54.4598C73.0456 54.4598 76.0603 57.4113 76.1409 61.039L76.5323 78.923H62.2991L62.6905 61.0405ZM77.0043 100.508L78.2635 158.069H60.568L61.8271 100.508H77.0043ZM60.096 179.654H78.7355L80.0579 240.092H58.7735L60.096 179.654ZM80.5299 261.677L83.1345 380.741H55.6969L58.3015 261.677H80.5299Z" fill="#39426A"/>
</svg>
