<svg width="535" height="403" viewBox="0 0 535 403" fill="none" xmlns="http://www.w3.org/2000/svg">
<path d="M193.276 193.276V398.888H341.317V193.276H193.276ZM324.868 394.776H209.725V305.129C209.725 278.81 222.885 254.959 245.091 240.155L267.297 226.173L289.503 240.155C311.709 254.137 324.868 278.81 324.868 305.129V394.776Z" fill="#FEDAB3"/>
<path d="M382.441 217.949V398.888H420.274C420.274 398.888 420.274 355.298 420.274 341.316C420.274 322.4 437.546 316.643 437.546 316.643C437.546 316.643 453.172 322.4 453.172 341.316C453.172 355.298 453.172 398.888 453.172 398.888H498.407V217.949H382.441ZM36.1904 217.949V398.888H81.4251C81.4251 398.888 81.4251 355.298 81.4251 341.316C81.4251 322.4 98.6965 316.643 98.6965 316.643C98.6965 316.643 114.323 322.4 114.323 341.316C114.323 355.298 114.323 398.888 114.323 398.888H151.333V217.949H36.1904Z" fill="#FDD2AF"/>
<path d="M382.438 127.48H505.806V152.153H28.7852V127.48H152.152" fill="#FEDAB3"/>
<path d="M45.2341 127.48H28.7852V152.153H45.2341V127.48Z" fill="#EEB694"/>
<path d="M152.153 127.48H135.704V152.153H152.153V127.48Z" fill="#EEB694"/>
<path opacity="0.7" d="M505.805 127.48H489.356V152.153H505.805V127.48Z" fill="white"/>
<path d="M341.317 94.5817H193.276V152.153H341.317V94.5817Z" fill="#FEDAB3"/>
<path d="M193.276 94.5817V111.031H324.046V152.153H340.495V94.5817H193.276Z" fill="#EEB694"/>
<path d="M37.0107 193.275V152.153H498.405V193.275" fill="#FDD2AF"/>
<path d="M498.405 152.153H37.0107V168.602H498.405V152.153Z" fill="#EEB694"/>
<path d="M498.404 217.949H382.438V234.398H498.404V217.949Z" fill="#EEB694"/>
<path d="M152.976 217.949H37.0107V234.398H152.976V217.949Z" fill="#EEB694"/>
<path d="M341.317 193.276H193.276V209.724H341.317V193.276Z" fill="#EEB694"/>
<path opacity="0.7" d="M209.725 193.276H193.276V398.888H209.725V193.276Z" fill="white"/>
<path d="M341.316 193.276H324.867V398.888H341.316V193.276Z" fill="#EEB694"/>
<path d="M341.317 152.153H193.276V193.275H341.317V152.153Z" fill="#E8B795"/>
<path d="M341.317 152.153H193.276V168.602H341.317V152.153Z" fill="#C59878"/>
<path d="M505.806 156.265H28.7851C26.3177 156.265 24.6729 154.62 24.6729 152.153V127.48C24.6729 125.012 26.3177 123.367 28.7851 123.367H152.152C154.62 123.367 156.265 125.012 156.265 127.48C156.265 129.947 154.62 131.592 152.152 131.592H32.8973V148.041H501.693V131.592H382.438C379.971 131.592 378.326 129.947 378.326 127.48C378.326 125.012 379.971 123.367 382.438 123.367H504.983C507.45 123.367 509.095 125.012 509.095 127.48V152.153C509.918 154.62 508.273 156.265 505.806 156.265Z" fill="#594454"/>
<path d="M345.429 193.276H374.214H522.255L514.031 217.949H374.214H345.429" fill="#DDA581"/>
<path opacity="0.7" d="M498.401 152.153H481.952V193.275H498.401V152.153Z" fill="white"/>
<path opacity="0.7" d="M498.401 217.949H481.952V398.888H498.401V217.949Z" fill="white"/>
<path opacity="0.7" d="M505.807 193.276L497.582 217.949H514.031L522.256 193.276H505.807Z" fill="white"/>
<path d="M382.439 94.5817H341.316V398.888H382.439V94.5817Z" fill="#FEDAB3"/>
<path d="M189.163 217.949H152.153H20.5614L12.3369 193.276H152.153H193.276" fill="#DDA581"/>
<path d="M52.6394 217.949H36.1904V398.888H52.6394V217.949Z" fill="#EEB694"/>
<path d="M151.334 217.949H134.885V398.888H151.334V217.949Z" fill="#EEB694"/>
<path d="M53.4597 152.153H37.0107V193.275H53.4597V152.153Z" fill="#EEB694"/>
<path d="M152.153 152.153H135.704V193.275H152.153V152.153Z" fill="#EEB694"/>
<path d="M12.3369 193.276L20.5614 217.949H37.0104L28.7859 193.276H12.3369Z" fill="#B7856C"/>
<path d="M193.276 94.5817H152.153V398.888H193.276V94.5817Z" fill="#FEDAB3"/>
<path opacity="0.7" d="M382.438 94.5817H365.989V398.888H382.438V94.5817Z" fill="white"/>
<path opacity="0.7" d="M193.276 94.5817H176.827V398.888H193.276V94.5817Z" fill="white"/>
<path d="M193.276 193.276H152.153V217.949H193.276V193.276Z" fill="#E8B795"/>
<path opacity="0.7" d="M193.276 193.276H176.827V217.949H193.276V193.276Z" fill="white"/>
<path d="M382.439 193.276H341.316V217.949H382.439V193.276Z" fill="#FCC49D"/>
<path opacity="0.7" d="M382.438 193.276H365.989V217.949H382.438V193.276Z" fill="white"/>
<path d="M65.7959 301.017C65.7959 280.455 77.3102 261.539 96.2265 251.67C97.8714 250.847 99.5163 250.847 101.161 251.67C120.078 260.717 131.592 279.633 131.592 301.017H65.7959ZM403 301.017C403 280.455 414.514 261.539 433.431 251.67C435.076 250.847 436.72 250.847 438.365 251.67C457.282 260.717 468.796 279.633 468.796 301.017" fill="#DDA581"/>
<path d="M96.2265 268.119C97.8714 267.296 99.5163 267.296 101.161 268.119C114.32 274.698 124.19 287.035 129.124 301.017H131.592C131.592 280.455 120.078 261.539 101.161 251.67C99.5163 250.847 97.8714 250.847 96.2265 251.67C77.3102 260.717 65.7959 279.633 65.7959 301.017H68.2633C72.3755 287.035 82.2449 274.698 96.2265 268.119ZM433.431 268.119C435.076 267.296 436.72 267.296 438.365 268.119C451.524 274.698 461.394 287.035 466.329 301.017H468.796C468.796 280.455 457.282 261.539 438.365 251.67C436.72 250.847 435.076 250.847 433.431 251.67C414.514 260.717 403 279.633 403 301.017H405.467C409.58 287.035 419.449 274.698 433.431 268.119Z" fill="#B7856C"/>
<path d="M185.051 45.2347H160.378V94.5817H185.051V45.2347Z" fill="#FEDAB3"/>
<path d="M349.541 69.9082H185.051V94.5817H349.541V69.9082Z" fill="#FEDAB3"/>
<path d="M349.54 69.9082H333.091V94.5817H349.54V69.9082Z" fill="#EEB694"/>
<path opacity="0.7" d="M201.5 69.9082H185.051V94.5817H201.5V69.9082Z" fill="white"/>
<path d="M160.378 49.3469V32.8979C160.378 26.3183 166.135 20.5612 172.715 20.5612C179.294 20.5612 185.051 26.3183 185.051 32.8979V49.3469" fill="#FCC49D"/>
<path d="M374.214 45.2347H349.54V94.5817H374.214V45.2347Z" fill="#FEDAB3"/>
<path d="M185.051 45.2347H160.378V61.6837H185.051V45.2347Z" fill="#EEB694"/>
<path d="M374.214 45.2347H349.54V61.6837H374.214V45.2347Z" fill="#EEB694"/>
<path d="M349.54 49.3469V32.8979C349.54 26.3183 355.297 20.5612 361.877 20.5612C368.456 20.5612 374.214 26.3183 374.214 32.8979V49.3469" fill="#FCC49D"/>
<path d="M530.48 403H4.11225C1.6449 403 0 401.355 0 398.888C0 396.42 1.6449 394.776 4.11225 394.776H530.48C532.947 394.776 534.592 396.42 534.592 398.888C534.592 401.355 532.947 403 530.48 403Z" fill="#594454"/>
<path d="M497.582 403H37.0107C34.5433 403 32.8984 401.355 32.8984 398.888V217.949C32.8984 215.482 34.5433 213.837 37.0107 213.837C39.478 213.837 41.1229 215.482 41.1229 217.949V394.776H493.47V217.949C493.47 215.482 495.115 213.837 497.582 213.837C500.049 213.837 501.694 215.482 501.694 217.949V398.888C501.694 401.355 500.049 403 497.582 403ZM497.582 197.388C495.115 197.388 493.47 195.743 493.47 193.276V156.265H41.1229V193.276C41.1229 195.743 39.478 197.388 37.0107 197.388C34.5433 197.388 32.8984 195.743 32.8984 193.276V152.153C32.8984 149.686 34.5433 148.041 37.0107 148.041H497.582C500.049 148.041 501.694 149.686 501.694 152.153V193.276C501.694 195.743 500.049 197.388 497.582 197.388Z" fill="#594454"/>
<path d="M189.167 222.061H20.5651C18.9202 222.061 17.2753 221.239 16.4529 219.594L8.22836 194.92C7.40592 193.275 8.22837 192.453 9.05082 190.808C9.87327 189.986 10.6957 189.163 12.3406 189.163H193.279C195.747 189.163 197.392 190.808 197.392 193.275C197.392 195.743 195.747 197.388 193.279 197.388H18.0978L23.8549 213.837H189.167C191.635 213.837 193.279 215.482 193.279 217.949C193.279 220.416 191.635 222.061 189.167 222.061ZM514.035 222.061H345.432C342.965 222.061 341.32 220.416 341.32 217.949C341.32 215.482 342.965 213.837 345.432 213.837H510.745L516.502 197.388H345.432C342.965 197.388 341.32 195.743 341.32 193.275C341.32 190.808 342.965 189.163 345.432 189.163H522.259C523.904 189.163 524.726 189.986 525.549 190.808C526.371 191.631 526.371 193.275 526.371 194.92L518.147 219.594C517.324 221.239 515.679 222.061 514.035 222.061Z" fill="#594454"/>
<path d="M193.275 403H152.152C149.685 403 148.04 401.355 148.04 398.888V94.5816C148.04 92.1143 149.685 90.4694 152.152 90.4694H193.275C195.742 90.4694 197.387 92.1143 197.387 94.5816V398.888C197.387 401.355 195.742 403 193.275 403ZM156.265 394.775H189.162V98.6939H156.265V394.775Z" fill="#594454"/>
<path d="M185.051 98.6939H160.378C157.911 98.6939 156.266 97.049 156.266 94.5816V45.2347C156.266 42.7673 157.911 41.1224 160.378 41.1224H185.051C187.519 41.1224 189.164 42.7673 189.164 45.2347V94.5816C189.164 97.049 187.519 98.6939 185.051 98.6939ZM164.49 90.4694H180.939V49.3469H164.49V90.4694Z" fill="#594454"/>
<path d="M185.051 53.4593C182.584 53.4593 180.939 51.8144 180.939 49.3471V32.8981C180.939 27.9634 177.649 24.6736 172.714 24.6736C167.78 24.6736 164.49 27.9634 164.49 32.8981V49.3471C164.49 51.8144 162.845 53.4593 160.377 53.4593C157.91 53.4593 156.265 51.8144 156.265 49.3471V32.8981C156.265 23.8511 163.667 16.4491 172.714 16.4491C181.761 16.4491 189.163 23.8511 189.163 32.8981V49.3471C189.163 51.8144 187.518 53.4593 185.051 53.4593ZM115.143 403H82.2448C79.7775 403 78.1326 401.355 78.1326 398.888V341.316C78.1326 319.933 97.0489 313.353 97.8714 312.531C98.6938 312.531 99.5163 312.531 100.339 312.531C101.161 312.531 119.255 319.933 119.255 341.316V398.888C119.255 401.355 117.61 403 115.143 403ZM86.3571 394.776H111.031V341.316C111.031 328.98 102.806 323.223 98.6938 320.755C95.404 322.4 86.3571 328.157 86.3571 341.316V394.776ZM324.867 398.888C322.4 398.888 320.755 397.243 320.755 394.776V304.306C320.755 279.633 308.418 256.604 287.035 242.623L267.296 230.286L247.557 243.445C226.996 256.604 213.837 279.633 213.837 304.306V394.776C213.837 397.243 212.192 398.888 209.724 398.888C207.257 398.888 205.612 397.243 205.612 394.776V305.129C205.612 277.165 219.594 251.67 242.622 236.865L264.829 222.884C266.473 222.061 268.118 222.061 268.941 222.884L291.147 236.865C314.175 251.67 328.98 277.165 328.98 305.129V395.598C328.98 397.243 327.335 398.888 324.867 398.888ZM131.592 304.306H65.7958C63.3285 304.306 61.6836 302.661 61.6836 300.194C61.6836 297.727 63.3285 296.082 65.7958 296.082H131.592C134.059 296.082 135.704 297.727 135.704 300.194C135.704 302.661 134.059 304.306 131.592 304.306Z" fill="#594454"/>
<path d="M172.714 23.851C170.246 23.851 168.602 22.2061 168.602 19.7388V4.11225C168.602 1.6449 170.246 0 172.714 0C175.181 0 176.826 1.6449 176.826 4.11225V19.7388C176.826 22.2061 175.181 23.851 172.714 23.851ZM382.438 403H341.316C338.848 403 337.204 401.355 337.204 398.888V94.5816C337.204 92.1143 338.848 90.4694 341.316 90.4694H382.438C384.906 90.4694 386.551 92.1143 386.551 94.5816V398.888C386.551 401.355 384.906 403 382.438 403ZM345.428 394.776H378.326V98.6939H345.428V394.776Z" fill="#594454"/>
<path d="M374.214 98.6939H349.541C347.074 98.6939 345.429 97.049 345.429 94.5816V45.2347C345.429 42.7673 347.074 41.1224 349.541 41.1224H374.214C376.682 41.1224 378.327 42.7673 378.327 45.2347V94.5816C378.327 97.049 376.682 98.6939 374.214 98.6939ZM353.653 90.4694H370.102V49.3469H353.653V90.4694Z" fill="#594454"/>
<path d="M374.214 53.4593C371.747 53.4593 370.102 51.8144 370.102 49.3471V32.8981C370.102 27.9634 366.812 24.6736 361.878 24.6736C356.943 24.6736 353.653 27.9634 353.653 32.8981V49.3471C353.653 51.8144 352.008 53.4593 349.541 53.4593C347.074 53.4593 345.429 51.8144 345.429 49.3471V32.8981C345.429 23.8511 352.831 16.4491 361.878 16.4491C370.925 16.4491 378.327 23.8511 378.327 32.8981V49.3471C378.327 51.8144 376.682 53.4593 374.214 53.4593Z" fill="#594454"/>
<path d="M361.877 23.851C359.41 23.851 357.765 22.2061 357.765 19.7388V4.11225C357.765 1.6449 359.41 0 361.877 0C364.345 0 365.99 1.6449 365.99 4.11225V19.7388C365.99 22.2061 364.345 23.851 361.877 23.851ZM217.949 197.388C215.482 197.388 213.837 195.743 213.837 193.276V152.153C213.837 149.686 215.482 148.041 217.949 148.041C220.416 148.041 222.061 149.686 222.061 152.153V193.276C222.061 195.743 220.416 197.388 217.949 197.388ZM242.622 197.388C240.155 197.388 238.51 195.743 238.51 193.276V152.153C238.51 149.686 240.155 148.041 242.622 148.041C245.09 148.041 246.735 149.686 246.735 152.153V193.276C246.735 195.743 245.09 197.388 242.622 197.388ZM267.296 197.388C264.829 197.388 263.184 195.743 263.184 193.276V152.153C263.184 149.686 264.829 148.041 267.296 148.041C269.763 148.041 271.408 149.686 271.408 152.153V193.276C271.408 195.743 269.763 197.388 267.296 197.388ZM291.969 197.388C289.502 197.388 287.857 195.743 287.857 193.276V152.153C287.857 149.686 289.502 148.041 291.969 148.041C294.437 148.041 296.082 149.686 296.082 152.153V193.276C296.082 195.743 294.437 197.388 291.969 197.388ZM316.643 197.388C314.175 197.388 312.531 195.743 312.531 193.276V152.153C312.531 149.686 314.175 148.041 316.643 148.041C319.11 148.041 320.755 149.686 320.755 152.153V193.276C320.755 195.743 319.11 197.388 316.643 197.388ZM131.592 403C129.124 403 127.48 401.355 127.48 398.888V301.016C127.48 281.278 116.788 264.006 99.5163 255.782C98.6938 255.782 98.6938 255.782 97.8714 255.782C80.5999 264.829 69.9081 282.1 69.9081 301.016V398.888C69.9081 401.355 68.2632 403 65.7958 403C63.3285 403 61.6836 401.355 61.6836 398.888V301.016C61.6836 278.81 74.0203 258.249 94.5816 248.38C97.0489 246.735 100.339 246.735 103.628 248.38C124.19 258.249 136.526 278.81 136.526 301.016V398.888C135.704 401.355 134.059 403 131.592 403ZM452.347 403H419.449C416.982 403 415.337 401.355 415.337 398.888V341.316C415.337 319.933 434.253 313.353 435.075 312.531C435.898 312.531 436.72 312.531 437.543 312.531C438.365 312.531 456.459 319.933 456.459 341.316V398.888C456.459 401.355 454.814 403 452.347 403ZM423.561 394.776H448.235V341.316C448.235 328.98 440.01 323.222 435.898 320.755C432.608 322.4 423.561 328.157 423.561 341.316V394.776ZM468.796 304.306H403.822C401.355 304.306 399.71 302.661 399.71 300.194C399.71 297.727 401.355 296.082 403.822 296.082H468.796C471.263 296.082 472.908 297.727 472.908 300.194C472.908 302.661 470.441 304.306 468.796 304.306Z" fill="#594454"/>
<path d="M468.796 403C466.328 403 464.683 401.355 464.683 398.888V301.016C464.683 281.278 453.992 264.006 436.72 255.782C435.898 255.782 435.898 255.782 435.075 255.782C417.804 264.829 407.112 282.1 407.112 301.016V398.888C407.112 401.355 405.467 403 403 403C400.532 403 398.887 401.355 398.887 398.888V301.016C398.887 278.81 411.224 258.249 431.785 248.38C434.253 246.735 437.543 246.735 440.832 248.38C461.394 258.249 473.73 278.81 473.73 301.016V398.888C472.908 401.355 471.263 403 468.796 403ZM343.783 98.6939H193.275C190.808 98.6939 189.163 97.049 189.163 94.5816C189.163 92.1143 190.808 90.4694 193.275 90.4694H343.783C346.251 90.4694 347.896 92.1143 347.896 94.5816C347.896 97.049 346.251 98.6939 343.783 98.6939ZM343.783 197.388H193.275C190.808 197.388 189.163 195.743 189.163 193.275C189.163 190.808 190.808 189.163 193.275 189.163H343.783C346.251 189.163 347.896 190.808 347.896 193.275C347.896 195.743 346.251 197.388 343.783 197.388ZM345.428 74.0204H185.051C182.583 74.0204 180.938 72.3755 180.938 69.9081C180.938 67.4408 182.583 65.7959 185.051 65.7959H345.428C347.896 65.7959 349.541 67.4408 349.541 69.9081C349.541 72.3755 347.896 74.0204 345.428 74.0204Z" fill="#594454"/>
</svg>
