<svg width="336" height="283" viewBox="0 0 336 283" fill="none" xmlns="http://www.w3.org/2000/svg">
<path d="M147.677 7.07804C147.658 7.0442 147.642 7.00882 147.627 6.97304L147.65 6.94971C147.663 6.99171 147.672 7.03448 147.677 7.07804Z" fill="#9CD3F3"/>
<path d="M147.77 7.54513C147.734 7.41796 147.708 7.28769 147.692 7.15625C147.756 7.27563 147.783 7.41057 147.77 7.54513Z" fill="#9CD3F3"/>
<path d="M165.239 141.446C165.142 141.668 165.06 141.886 164.963 142.115C157.784 159.595 152.776 180.509 151.613 205.537C131.683 156.717 98.6209 133.085 69.1714 121.738C69.7003 105.425 71.9674 77.0563 81.2265 59.627C81.2265 59.627 96.9059 63.294 116.641 78.7557C132.212 90.9547 150.33 110.519 165.239 141.446Z" fill="#9CD3F3"/>
<path d="M168.18 141.182L167.507 141.03C167.604 140.797 167.69 140.575 167.783 140.35C167.915 140.622 168.052 140.929 168.18 141.182Z" fill="#9CD3F3"/>
<path d="M168.18 141.182L167.507 141.03C167.604 140.797 167.69 140.575 167.783 140.35C167.915 140.622 168.052 140.929 168.18 141.182Z" fill="#9CD3F3"/>
<path d="M155.292 253.24C155.102 253.24 154.904 253.24 154.717 253.24C80.3562 253.24 18.7584 196.888 7.72198 123.266C6.97923 116.982 6.86646 113.23 6.86646 113.23C6.86646 113.23 33.6989 110.507 64.8089 122.753C92.3996 133.614 123.362 156.227 142.024 202.939V202.974C142.137 203.254 142.249 203.53 142.351 203.822C147.927 217.957 152.368 234.286 155.269 253.135C155.281 253.17 155.292 253.205 155.292 253.24Z" fill="#9CD3F3"/>
<path d="M328.392 115.485C321.287 198.871 253.642 264.346 171.162 264.681C171.208 260.893 172.394 218.09 198.231 179.284C209.78 161.772 225.294 147.23 243.516 136.838C244.033 136.539 244.535 136.255 245.071 135.971C245.705 135.609 246.354 135.263 247.016 134.917C247.183 134.82 247.362 134.73 247.544 134.633C248.178 134.299 248.812 133.964 249.462 133.641C249.796 133.47 250.13 133.295 250.48 133.136C251.173 132.778 251.88 132.428 252.588 132.094C253.296 131.759 253.918 131.464 254.591 131.157L254.828 131.044C255.334 130.807 255.835 130.585 256.349 130.363C256.986 130.064 257.62 129.792 258.266 129.519C260.148 128.703 262.088 127.925 264.068 127.186L264.752 126.926C265.588 126.603 266.428 126.296 267.28 125.996C284.39 119.93 304.592 116.076 328.392 115.485Z" fill="#9CD3F3"/>
<path d="M216.134 76.7995C199.284 89.5623 180.304 109.679 167.782 140.349C152.884 108.812 134.817 88.8546 119.277 76.4145C128.455 59.304 149.256 24.5269 168.178 8.26025C168.178 8.26025 196.827 36.5587 216.134 76.7995Z" fill="#9CD3F3"/>
<path d="M265.581 122.741C264.749 123.033 263.924 123.336 263.1 123.651L262.431 123.908C260.487 124.635 258.589 125.401 256.742 126.202C256.108 126.471 255.486 126.735 254.864 127.027C254.358 127.248 253.864 127.466 253.37 127.695L253.133 127.804C252.476 128.108 251.819 128.411 251.189 128.73C250.559 129.049 249.801 129.395 249.116 129.749C248.778 129.904 248.447 130.075 248.121 130.247C247.483 130.562 246.861 130.888 246.238 131.219C246.063 131.316 245.885 131.398 245.721 131.495C245.087 131.837 244.454 132.175 243.827 132.529C243.31 132.809 242.816 133.085 242.311 133.377C224.43 143.57 209.203 157.835 197.866 175.014C172.527 213.077 171.361 255.068 171.314 258.781L171.256 258.672C168.222 238.964 163.583 221.893 157.75 207.115L158.209 205.611L157.412 206.229C157.412 206.229 157.412 206.229 157.412 206.205C158.551 181.17 163.451 160.237 170.482 142.764L171.139 142.908L170.75 142.096C183.035 112.008 201.654 92.2768 218.193 79.7589C237.672 65.0205 254.277 60.249 254.277 60.249C263.135 71.1997 265.157 104.697 265.581 122.741Z" fill="#9CD3F3"/>
<path d="M153.406 209.897V209.857C153.406 209.857 153.406 209.881 153.406 209.897Z" stroke="#CCDDE2" stroke-width="1.54383" stroke-miterlimit="10"/>
<path d="M167.779 140.731C167.678 140.968 167.588 141.201 167.487 141.45C159.908 160.295 154.623 182.869 153.39 209.869C132.352 157.203 97.443 131.705 66.3369 119.467C66.893 101.867 69.2885 71.266 79.0726 52.46C79.0726 52.46 95.627 56.4148 116.467 73.0976C132.908 86.2571 152.037 107.365 167.779 140.731Z" stroke="#CCDDE2" stroke-width="1.54383" stroke-miterlimit="10"/>
<path d="M168.199 141.61L167.487 141.45C167.588 141.202 167.678 140.968 167.779 140.731C167.919 141.019 168.051 141.318 168.199 141.61Z" stroke="#CCDDE2" stroke-width="1.54383" stroke-miterlimit="10"/>
<path d="M153.406 209.897V209.857C153.406 209.857 153.406 209.881 153.406 209.897Z" stroke="#CCDDE2" stroke-width="1.54383" stroke-miterlimit="10"/>
<path d="M168.199 141.61L167.487 141.45C167.588 141.202 167.678 140.968 167.779 140.731C167.919 141.019 168.051 141.318 168.199 141.61Z" stroke="#CCDDE2" stroke-width="1.54383" stroke-miterlimit="10"/>
<path opacity="0.9" d="M39.5318 204.37C38.159 202.694 36.8096 200.979 35.5108 199.237C18.0266 175.976 6.50912 148.785 1.9664 120.043C0.834771 113 1.00976 108.73 1.00976 108.73C1.00976 108.73 31.2448 105.666 66.3408 119.467C97.4508 131.709 132.348 157.188 153.39 209.869V209.912C153.519 210.227 153.651 210.542 153.756 210.868C160.056 226.812 165.057 245.214 168.331 266.477C168.331 266.516 168.331 266.555 168.331 266.598C168.109 266.598 167.899 266.598 167.678 266.598C124.291 266.536 84.7229 249.231 54.8884 220.96C51.7774 218.016 48.7481 214.94 45.8549 211.755" stroke="#CCDDE2" stroke-width="1.54383" stroke-miterlimit="10"/>
<path d="M153.406 209.897V209.857C153.406 209.857 153.406 209.881 153.406 209.897Z" stroke="#CCDDE2" stroke-width="1.54383" stroke-miterlimit="10"/>
<path opacity="0.9" d="M334.73 108.742C327.213 196.958 255.66 266.213 168.4 266.567C168.45 262.562 169.707 217.281 197.033 176.228C209.254 157.704 225.669 142.322 244.946 131.328C245.494 131.013 246.027 130.714 246.583 130.414C247.256 130.025 247.94 129.668 248.625 129.298C248.8 129.193 248.99 129.104 249.181 128.999C249.854 128.645 250.526 128.291 251.211 127.953C251.565 127.766 251.919 127.564 252.288 127.412C253.023 127.023 253.77 126.669 254.52 126.315C255.271 125.962 255.924 125.647 256.636 125.32L256.888 125.199C257.421 124.95 257.954 124.717 258.498 124.48C259.171 124.165 259.84 123.877 260.524 123.589C262.515 122.726 264.569 121.902 266.661 121.116L267.384 120.84C268.271 120.502 269.157 120.171 270.06 119.86C288.185 113.428 309.558 109.368 334.73 108.742Z" stroke="#CCDDE2" stroke-width="1.54383" stroke-miterlimit="10"/>
<path d="M218.928 73.5057C201.106 87.0036 181.024 108.283 167.779 140.731C152.038 107.365 132.909 86.257 116.467 73.0974C126.189 54.9875 148.184 18.2077 168.188 1C168.199 1 198.481 30.9356 218.928 73.5057Z" stroke="#CCDDE2" stroke-width="1.54383" stroke-miterlimit="10"/>
<path d="M51.0891 169.827V169.889C51.093 169.863 51.093 169.837 51.0891 169.811C51.0891 169.784 51.0891 169.757 51.0891 169.706C51.0829 169.662 51.0829 169.618 51.0891 169.574C51.0829 169.658 51.0829 169.743 51.0891 169.827Z" stroke="#CCDDE2" stroke-width="1.54383" stroke-miterlimit="10"/>
<path d="M270.06 119.86C269.158 120.171 268.272 120.501 267.385 120.84L266.662 121.116C264.57 121.894 262.516 122.726 260.525 123.589C259.841 123.877 259.172 124.165 258.499 124.48C257.955 124.717 257.422 124.95 256.889 125.199L256.637 125.32C255.925 125.646 255.217 125.973 254.521 126.315C253.825 126.657 253.024 127.034 252.289 127.412C251.9 127.583 251.566 127.766 251.212 127.952C250.527 128.291 249.855 128.644 249.182 128.998C248.991 129.103 248.793 129.193 248.626 129.298C247.941 129.667 247.257 130.033 246.584 130.414C246.028 130.713 245.495 131.013 244.947 131.328C225.67 142.322 209.255 157.704 197.034 176.227C169.707 217.281 168.451 262.557 168.401 266.567L168.335 266.45C165.064 245.198 160.059 226.785 153.771 210.841L154.265 209.219L153.406 209.888C153.406 209.888 153.406 209.888 153.406 209.861C154.638 182.861 159.923 160.287 167.502 141.442L168.214 141.602C168.074 141.31 167.934 141.011 167.794 140.723C181.039 108.275 201.121 86.9959 218.943 73.4981C239.942 57.6009 257.858 52.4521 257.858 52.4521C267.424 64.2739 269.602 100.4 270.06 119.86Z" stroke="#CCDDE2" stroke-width="1.54383" stroke-miterlimit="10"/>
<path d="M162.857 159.094L172.689 142.426C177.188 134.797 185.711 130.478 194.524 131.359L195.975 131.504C198.678 131.774 201.275 132.696 203.543 134.19C206.163 135.915 208.248 138.34 209.561 141.189L215.606 154.302L225.843 174.733L231.278 186.233C233.632 191.214 234.853 196.655 234.853 202.164V205.722C234.853 207.856 234.468 209.973 233.716 211.971C231.614 217.555 232.46 223.822 235.969 228.649L246.704 243.417C247.991 245.186 249.077 247.093 249.944 249.101L250.94 251.409C251.884 253.596 252.371 255.953 252.371 258.336C252.371 261.625 251.443 264.847 249.694 267.633L249.412 268.08C247.48 271.157 244.72 273.626 241.449 275.205L234.843 278.392C228.77 281.323 222.114 282.844 215.371 282.844H201.703C198.27 282.844 194.847 282.491 191.487 281.79L180.344 279.464C177.919 278.958 175.535 278.272 173.212 277.413L161.034 272.908C158.787 272.077 156.41 271.651 154.014 271.651C149.353 271.651 144.835 273.26 141.223 276.206L140.877 276.489C139.079 277.956 137.055 279.122 134.884 279.941L133.722 280.38C129.432 282 124.82 282.583 120.262 282.083L103.99 280.296H94.8212C92.2923 280.296 89.767 280.104 87.267 279.722L83.7075 279.178C81.6422 278.863 79.6115 278.352 77.6427 277.652L75.0205 276.72C71.4596 275.455 68.2796 273.303 65.7803 270.469L63.172 267.51C62.4869 266.733 62.0021 265.801 61.7597 264.794C61.2525 262.687 61.8532 260.467 63.3534 258.904L63.8156 258.423C64.7663 257.432 65.4299 256.201 65.7356 254.863L66.1669 252.974C66.4465 251.75 66.8831 250.567 67.4658 249.454L70.0501 244.522C73.6416 237.667 79.1331 231.993 85.8667 228.178C88.5667 226.649 91.0808 224.812 93.359 222.705L99.6221 216.913L130.7 192.842L154.66 169.526C157.844 166.428 160.6 162.92 162.857 159.094Z" fill="#4FB9F6"/>
<path d="M210.224 153.957L212.249 150.055C213.363 147.909 213.201 145.323 211.829 143.331C210.12 140.85 206.936 139.858 204.119 140.929L202.945 141.375C201.756 141.827 200.689 142.551 199.83 143.49L190.853 153.301L181.161 164.267L166.601 177.781L148.036 193.024L137.181 202.088C135.048 203.869 132.77 205.469 130.371 206.871L110.861 218.278L99.8953 224.466L87.0183 232.474L76.6895 240.755L69.3777 248.282C69.099 248.569 68.8891 248.916 68.7639 249.296L68.616 249.744C67.8622 252.031 70.4733 253.947 72.4288 252.543C72.5992 252.42 72.7533 252.277 72.8877 252.116L76.7309 247.509C78.7614 245.075 81.0199 242.841 83.4756 240.837L87.3099 237.707C90.2006 235.348 93.3462 233.32 96.688 231.661L104.673 227.697L120.69 221.144L137.571 212.636L163.87 195.208L181.161 183.742L192.933 174.477C196.325 171.807 199.357 168.71 201.953 165.262L208.994 155.91C209.458 155.294 209.869 154.641 210.224 153.957Z" fill="#168ED4"/>
<path d="M195.807 189.152L195.718 189.188C193.102 190.248 191.953 193.321 193.234 195.837C193.375 196.115 193.489 196.406 193.575 196.706L194.15 198.733C195.127 202.172 195.397 205.773 194.944 209.319L194.311 214.274L193.177 220.944C192.661 223.978 192.524 227.064 192.77 230.132L193.279 236.477C193.389 237.855 193.809 239.192 194.506 240.386L194.647 240.627C196.653 244.063 200.706 245.738 204.553 244.72L204.937 244.618C205.494 244.471 206.028 244.244 206.522 243.946L207.989 243.06C209.522 242.135 210.225 240.281 209.691 238.571L207.746 231.132C206.441 226.142 205.917 220.979 206.191 215.829L206.686 206.543C206.778 204.817 206.657 203.087 206.327 201.391L205.189 195.544C204.753 193.306 203.375 191.364 201.407 190.214L200.124 189.463C198.811 188.696 197.217 188.581 195.807 189.152Z" fill="#168ED4"/>
<path d="M162.693 257.268L158.824 258.32C157.216 258.757 155.84 259.801 154.986 261.232C152.424 265.523 155.516 270.969 160.513 270.969H161.322L173.107 269.33L181.564 267.045C184.894 266.145 188.105 264.856 191.133 263.204L195.962 260.571C196.376 260.345 196.756 260.062 197.092 259.73L202.07 254.801C203.432 253.452 202.477 251.13 200.56 251.13C200.429 251.13 200.298 251.142 200.169 251.166L194.215 252.268C191.77 252.721 189.387 253.463 187.118 254.478L186.72 254.656C181.888 256.816 176.568 257.65 171.307 257.071L168.778 256.793C166.738 256.569 164.674 256.73 162.693 257.268Z" fill="#168ED4"/>
<path d="M141.757 252.358L147.186 244.876C147.418 244.558 147.699 244.28 148.02 244.052C150.181 242.522 150.009 239.262 147.698 237.969L146.034 237.038C144.691 236.286 143.068 236.224 141.671 236.87L137.193 238.94C136.415 239.3 135.67 239.729 134.968 240.221L125.912 246.56C123.859 247.997 121.917 249.586 120.102 251.314L111.362 259.639L99.175 270.593C98.8974 270.843 98.5982 271.067 98.281 271.264L91.5284 275.452C89.719 276.574 90.0198 279.293 92.0307 279.992C92.1773 280.043 92.3282 280.081 92.4816 280.104L98.0326 280.948C100.747 281.361 103.506 281.379 106.225 281.002C108.519 280.685 110.765 280.088 112.914 279.227L114.368 278.644C118.554 276.966 122.437 274.614 125.862 271.681L128.607 269.33L133.088 264.464C135.041 262.343 136.808 260.057 138.367 257.631L141.757 252.358Z" fill="#168ED4"/>
<path d="M177.111 244.942L172.152 245.943L167.966 257.272H172.152H182.026H190.489L200.499 254.269L207.006 251.63H213.786C214.732 251.63 217.85 250.69 219.291 250.22L220.065 247.353L217.744 245.943H214.696L213.786 243.394H210.737L209.417 242.075L206.005 241.529C204.427 241.711 201.118 242.075 200.499 242.075C199.88 242.075 197.087 241.711 195.767 241.529L191.399 238.799L188.532 237.024H185.347C184.437 237.767 182.39 239.427 181.48 240.118C180.57 240.81 178.188 243.622 177.111 244.942Z" fill="#F7F6F6"/>
<path d="M174.336 192.433L170.832 194.071L172.288 194.708H175.701L179.568 195.572L182.481 200.35L184.665 202.716L178.431 204.127H174.927L171.606 201.442L170.832 198.393L168.967 194.071L167.829 195.572L167.374 201.442L168.967 204.127L166.464 203.581L160.367 201.988L162.414 205.492L167.829 208.131L174.336 209.041L178.431 211.452H185.347L190.853 209.041L194.902 208.131V201.988L192.946 197.62L188.532 196.619L184.665 193.434L179.068 191.113L174.336 192.433Z" fill="#F7F6F6"/>
<path d="M163.961 118.948L157.864 116.354V119.994C157.864 121.195 155.741 124.651 154.679 126.228L147.672 131.643L137.343 133.281H130.973L126.104 136.739L120.644 146.613C118.839 148.964 115.229 153.793 115.229 154.302C115.229 154.812 113.167 159.611 112.135 161.947L108.677 167.589L103.99 179.465L102.898 192.433V197.62L101.988 204.127V211.452L106.311 216.003H111.043L119.188 213.272L130.973 208.131L140.437 201.988L149.947 192.433L157.955 185.516L165.008 181.103L168.967 176.553L170.195 168.726L171.151 164.995L172.288 163.994L179.068 154.939L187.44 142.699L194.129 130.505L188.396 127.138L185.347 122.588L184.119 118.083L183.527 113.897L176.383 118.083L169.695 119.994L163.961 118.948Z" fill="#F7F6F6"/>
<g filter="url(#filter0_d)">
<path d="M155.361 114.67L150.538 110.438V111.458C150.538 111.829 150.415 112.19 150.187 112.483C149.662 113.157 148.714 113.327 147.988 112.877L147.357 112.485C146.883 112.191 146.521 111.746 146.329 111.222L145.72 109.555C145.298 108.402 145.162 107.156 145.321 105.938C145.518 104.428 145.265 102.885 144.591 101.52L144.226 100.78C144.006 100.333 143.818 99.8721 143.663 99.399L142.484 95.7868L141.706 91.5028C141.62 91.0314 141.667 90.5454 141.842 90.0993L142.154 89.3027C142.354 88.7951 142.843 88.4611 143.389 88.4611C143.715 88.4611 144.029 88.5813 144.272 88.7988L145.624 90.0081V80.9533C145.624 80.8949 145.643 80.7576 145.676 80.5578C146.454 75.8784 149.389 71.8483 153.351 69.2393C155.428 67.8719 157.763 66.9454 160.212 66.5173L161.088 66.3641C162.364 66.141 163.657 66.0288 164.953 66.0288H173.517L182.003 66.419C184.256 66.5226 186.54 66.7628 188.587 67.7091C189.621 68.1874 190.443 68.7379 190.443 69.2594C190.443 70.579 193.264 75.2201 192.673 77.2222C192.582 77.5297 192.519 77.9015 192.477 78.3118C192.122 81.8273 192.3 85.4048 191.571 88.8621L191.444 89.4621L192.201 88.8454C192.506 88.5968 192.888 88.4611 193.281 88.4611C193.915 88.4611 194.496 88.8112 194.793 89.371L194.891 89.5563C195.048 89.853 195.13 90.1836 195.13 90.5194V92.4148C195.13 93.2638 195.018 94.109 194.798 94.9289L194.648 95.4861C194.425 96.318 194.067 97.1079 193.589 97.8247L193.443 98.044C192.935 98.8061 192.59 99.6649 192.429 100.567C192.289 101.348 192.29 102.147 192.432 102.928L192.521 103.415C192.622 103.971 192.673 104.534 192.673 105.098V106.662V109.129C192.673 109.571 192.572 110.008 192.377 110.405L192.287 110.59C191.855 111.472 190.958 112.031 189.976 112.031C189.422 112.031 188.884 111.853 188.44 111.522L187.258 110.643C186.032 112.631 184.347 114.296 182.344 115.498L180.884 116.374C179.797 117.027 178.654 117.582 177.469 118.034L173.881 119.402L170.497 120.424C169.844 120.621 169.166 120.722 168.483 120.722C167.6 120.722 166.725 120.554 165.904 120.226L162.707 118.952C161.03 118.283 159.432 117.435 157.939 116.421L155.361 114.67Z" fill="white"/>
</g>
<path d="M144.588 89.1432L144.059 89.4781C143.982 89.5272 143.892 89.5533 143.8 89.5533C143.743 89.5533 143.686 89.543 143.632 89.523L142.994 89.2862C142.418 89.0724 141.896 88.7371 141.462 88.303L141.239 88.0802C141.069 87.9103 140.878 87.7634 140.67 87.6433L140.61 87.6089C140.087 87.3072 139.688 86.8302 139.482 86.2623C139.304 85.7685 139.282 85.2318 139.419 84.7251L139.556 84.2213C139.714 83.6375 139.669 83.0173 139.429 82.4623C139.283 82.1273 139.208 81.7662 139.208 81.4011V80.9182C139.208 80.3394 139.309 79.7651 139.506 79.2207L139.8 78.4054L140.006 77.8321C140.141 77.4588 140.21 77.0649 140.21 76.6681C140.21 75.7963 140.541 74.9571 141.136 74.3204L141.529 73.9007L142.479 73.0041C142.866 72.6378 142.904 72.0339 142.566 71.6218C142.298 71.2955 142.26 70.8375 142.47 70.4715L143.059 69.4474C143.131 69.3224 143.213 69.2033 143.303 69.0912L143.559 68.7761C143.812 68.4625 144.029 68.1202 144.203 67.7562C144.361 67.4247 144.555 67.1111 144.78 66.8207L146.17 65.0279C146.653 64.5153 147.053 63.9311 147.356 63.2959L147.4 63.2036C148.023 61.8998 149.071 60.8814 150.18 59.9559C150.272 59.8791 150.348 59.8092 150.402 59.7498C150.565 59.5681 150.804 59.53 151.035 59.5562C151.41 59.5987 151.82 59.5829 152.102 59.3333C152.294 59.1641 152.404 58.9208 152.404 58.6651V58.5667V58.5513C152.404 57.6933 152.601 56.8468 152.979 56.0768L153.222 55.5828C153.549 54.9174 154.065 54.3628 154.705 53.9883L155.413 53.5735C155.528 53.5061 155.659 53.4705 155.793 53.4705C156.208 53.4705 156.545 53.134 156.545 52.7188V52.6097C156.545 52.4873 156.571 52.3663 156.621 52.2548L156.88 51.6836C157.217 50.938 157.853 50.3693 158.632 50.1174C158.847 50.0477 159.054 49.9529 159.248 49.835L159.27 49.8215C159.75 49.5295 160.142 49.1137 160.405 48.6178L160.655 48.147C160.735 47.9975 160.776 47.8308 160.776 47.6615C160.776 47.1956 161.088 46.7872 161.537 46.6637L161.686 46.6225C162.224 46.4747 162.596 45.986 162.596 45.4285V45.2693C162.596 44.9799 162.683 44.6972 162.845 44.4576L163.366 43.6884C163.489 43.5071 163.641 43.3471 163.815 43.2146L164.455 42.7283C164.601 42.6173 164.796 42.5888 164.968 42.6515C165.317 42.7782 165.69 42.5221 165.69 42.1513C165.69 42.0841 165.678 42.0176 165.653 41.9551L165.535 41.6554C165.214 40.8425 165.398 39.9171 166.005 39.2888L166.078 39.2132C166.243 39.0424 166.433 38.8971 166.641 38.7822L166.829 38.6782C167.596 38.2542 168.524 38.2396 169.304 38.6392C169.709 38.8466 170.054 39.1552 170.304 39.535L170.829 40.3323C171.039 40.6512 171.151 41.0246 171.151 41.4063C171.151 41.8242 171.285 42.231 171.533 42.567L172.42 43.7675C172.605 44.0173 172.77 44.2806 172.915 44.5553L173.299 45.282C173.472 45.6104 173.716 45.8963 174.013 46.1192L174.486 46.4736C174.821 46.7249 175.018 47.1193 175.018 47.5382C175.018 48.0493 175.311 48.5154 175.772 48.7371L175.967 48.831C176.152 48.9202 176.319 49.0426 176.46 49.1922L177.703 50.5129L178.819 52.0249C179.013 52.2883 179.259 52.5098 179.54 52.6763L179.556 52.6854C179.921 52.9015 180.338 53.0155 180.763 53.0155C181.369 53.0155 181.952 53.2473 182.393 53.6635L182.701 53.9547C183.123 54.3527 183.43 54.8562 183.591 55.4129C183.758 55.9876 184.079 56.5051 184.521 56.9084L184.579 56.9613C184.787 57.1512 185.017 57.3155 185.264 57.4507L185.721 57.7007C186.733 58.2543 187.477 59.194 187.785 60.3056C187.858 60.5714 187.957 60.8295 188.081 61.0762L188.175 61.2645C188.442 61.7991 188.783 62.2938 189.186 62.7344L190.58 64.2544L191.755 65.3119C192.183 65.6971 192.556 66.1391 192.864 66.6256C193.13 67.0454 193.345 67.4951 193.506 67.9654L193.766 68.7285C193.886 69.0802 194.062 69.41 194.288 69.7048L194.5 69.9806C194.82 70.3983 194.993 70.9098 194.993 71.4361V71.7668C194.993 72.5111 195.432 73.1855 196.112 73.4878C196.692 73.7455 197.103 74.2779 197.205 74.9041L197.347 75.768C197.437 76.3186 197.189 76.8697 196.717 77.1672C196.017 77.609 195.856 78.5623 196.374 79.2092L196.65 79.5548C196.903 79.8711 197.041 80.2641 197.041 80.6692V81.12C197.041 81.6573 196.842 82.1755 196.483 82.5748L196.386 82.6828C195.802 83.3311 195.712 84.285 196.164 85.0312C196.351 85.3403 196.449 85.6946 196.449 86.0559V86.267C196.449 87.2324 195.941 88.1264 195.111 88.6192L194.993 88.6888C193.856 89.2573 192.602 89.5533 191.331 89.5533H191.035C190.707 89.5533 190.595 88.9769 190.58 88.6888V87.3322C190.58 86.8142 190.496 86.2997 190.332 85.8083L190.155 85.2767C190.105 85.1257 190.03 84.984 189.934 84.8574C189.581 84.3943 189.54 83.7648 189.83 83.2599L190.271 82.4929C190.46 82.1623 190.45 81.7533 190.242 81.4333C190.136 81.2686 190.079 81.0766 190.079 80.8805V79.6324C190.079 79.3929 190.124 79.1555 190.212 78.9325C190.442 78.3461 190.369 77.684 190.017 77.1618L189.507 76.4068C189.403 76.253 189.311 76.0916 189.232 75.9238L188.803 75.0139C188.654 74.7004 188.578 74.3579 188.578 74.0112V73.709C188.578 73.2508 188.388 72.8132 188.053 72.5006C187.948 72.4031 187.831 72.3195 187.705 72.252L187.39 72.0831C186.887 71.8137 186.469 71.4104 186.182 70.9177C185.847 70.3434 185.335 69.8926 184.723 69.6325L184.127 69.3792C183.94 69.2996 183.76 69.2034 183.59 69.0918L183.236 68.8597C182.695 68.5044 182.033 68.3825 181.4 68.5217L180.757 68.6633C180.356 68.7513 179.939 68.6293 179.649 68.3396C179.322 68.0121 178.835 67.9022 178.399 68.0571L177.703 68.304L176.854 68.5958C176.452 68.734 176.03 68.8046 175.605 68.8046C175.216 68.8046 174.829 68.8635 174.458 68.9795L174.113 69.0873C173.747 69.2019 173.391 69.3503 173.052 69.5306L172.106 70.0331L171.366 70.4913C171.223 70.58 171.071 70.6541 170.913 70.7126L170.695 70.7934C170.2 70.9766 169.8 71.3501 169.582 71.8306C169.263 72.5369 168.559 72.9907 167.784 72.9907H167.591C167.268 72.9907 166.949 72.922 166.655 72.7892L166.218 72.5918C165.868 72.4337 165.539 72.2314 165.24 71.9899L163.7 70.7448C163.606 70.6688 163.552 70.5544 163.552 70.4335C163.552 70.2124 163.373 70.0331 163.151 70.0331H162.923C162.718 70.0331 162.526 69.9335 162.408 69.7661L162.115 69.349C161.875 69.0077 161.483 68.8046 161.066 68.8046C160.875 68.8046 160.687 68.8471 160.515 68.9292L160.454 68.9579C160.063 69.1444 159.598 69.1035 159.242 68.8548C158.785 68.5348 158.157 68.5763 157.745 68.9526C157.531 69.1486 157.248 69.2596 156.957 69.2596H156.931C156.681 69.2596 156.439 69.3453 156.245 69.5024L156.075 69.6397C155.789 69.8713 155.382 69.8803 155.086 69.6614C154.772 69.4289 154.335 69.4551 154.051 69.7238L153.723 70.0331L152.404 71.0796L152.114 71.3012C151.795 71.5455 151.526 71.8496 151.322 72.1966C151.019 72.7148 150.571 73.1337 150.034 73.4024L150.009 73.4144C149.379 73.7297 148.87 74.2449 148.563 74.8796L148.503 75.004C148.404 75.2084 148.286 75.403 148.151 75.5851L147.667 76.2353C147.168 76.9058 146.898 77.7192 146.898 78.5549C146.898 79.0276 146.812 79.4964 146.644 79.9381L146.534 80.2255C146.294 80.8572 146.17 81.5275 146.17 82.2035V84.0931V85.6807C146.17 86.255 146.06 86.8239 145.844 87.3563L145.624 87.9012C145.417 88.4133 145.055 88.8477 144.588 89.1432Z" fill="#154560"/>
<defs>
<filter id="filter0_d" x="137.664" y="66.0288" width="61.4658" height="62.6929" filterUnits="userSpaceOnUse" color-interpolation-filters="sRGB">
<feFlood flood-opacity="0" result="BackgroundImageFix"/>
<feColorMatrix in="SourceAlpha" type="matrix" values="0 0 0 0 0 0 0 0 0 0 0 0 0 0 0 0 0 0 127 0" result="hardAlpha"/>
<feOffset dy="4"/>
<feGaussianBlur stdDeviation="2"/>
<feComposite in2="hardAlpha" operator="out"/>
<feColorMatrix type="matrix" values="0 0 0 0 0 0 0 0 0 0 0 0 0 0 0 0 0 0 0.05 0"/>
<feBlend mode="normal" in2="BackgroundImageFix" result="effect1_dropShadow"/>
<feBlend mode="normal" in="SourceGraphic" in2="effect1_dropShadow" result="shape"/>
</filter>
</defs>
</svg>
