<svg width="48" height="48" viewBox="0 0 48 48" fill="none" xmlns="http://www.w3.org/2000/svg">
<path d="M24.1313 30.0002C18.5138 29.8052 2.38135 31.3727 2.38135 37.1852C2.38135 42.9977 14.6626 46.5264 25.1101 46.5902C35.5614 46.6539 45.9451 43.1927 46.3389 37.3802C46.7289 31.5677 29.7488 30.1952 24.1313 30.0002Z" fill="#89AF50"/>
<path d="M23.2576 9.46537C22.6388 9.41288 22.3688 10.1554 21.9563 10.7216C21.4426 11.4304 20.7451 12.4241 20.2801 12.7091C19.8151 12.9941 19.0463 13.4029 19.1476 14.0704C19.2526 14.7416 20.4863 15.0566 20.4863 15.0566L20.1751 16.1141L18.5513 18.5891L15.9751 24.2629L35.9138 28.2079C35.9138 28.2079 41.4713 26.1791 42.0788 25.5004C42.5176 25.0091 42.5964 24.6229 42.3114 23.9516C41.9026 22.9879 41.3064 22.2979 40.6614 21.3416C40.0613 20.4529 39.3151 19.2791 39.3151 19.2791L39.8889 18.0604C39.8889 18.0604 40.4326 17.3179 40.3539 16.5716C40.2563 15.6416 39.7088 15.1166 39.1688 14.2654C38.6288 13.4141 37.6726 11.9479 37.6726 11.9479L37.1251 10.8266C37.1251 10.8266 38.9026 10.5491 38.7713 9.85163C38.6439 9.15413 38.1038 8.76038 37.7964 8.37413C37.4851 7.98787 36.1464 6.20663 35.5764 5.38163C35.0101 4.55663 34.2413 3.46537 33.6676 3.44662C33.0526 3.42787 32.6026 4.19662 31.9839 5.15287C31.3651 6.10912 30.8139 6.96412 30.0976 7.59037C28.9351 8.60663 27.6676 9.85537 28.2226 10.4554C28.8264 11.1041 29.7188 12.2179 29.7188 12.2179L29.1526 13.0504C29.1526 13.0504 28.4739 13.9804 27.8889 14.6404C27.4051 15.1879 26.8576 15.8516 26.8576 15.8516L25.6201 15.3866C25.6201 15.3866 27.3526 14.2054 27.4013 13.8379C27.4538 13.4291 27.4088 13.0016 26.3701 12.5216C25.4063 12.0754 24.6638 10.9016 24.3526 10.4629C24.0413 10.0316 23.7488 9.50663 23.2576 9.46537Z" fill="#4DA852"/>
<path d="M34.335 11.2988C35.5612 11.2013 35.7712 10.3126 37.0462 9.87006C38.1937 9.47256 38.7862 9.87756 38.7862 9.87756C38.7862 9.87756 38.8912 10.2601 38.505 10.7551C38.2725 11.0513 37.905 11.2613 37.8337 11.6026C37.7625 11.9401 37.8712 12.2813 37.8712 12.2813C37.8712 12.2813 36.2475 13.9051 34.59 13.9051C32.9325 13.9051 33.03 13.0876 31.4325 12.8176C30.165 12.6038 28.8637 13.4588 28.8637 13.4588C28.8637 13.4588 29.13 12.6113 29.07 12.2138C28.9125 11.1713 28.23 10.4588 28.23 10.4588C28.23 10.4588 29.13 9.91131 30.45 10.0876C31.77 10.2638 33.21 11.3851 34.335 11.2988Z" fill="#367C2D"/>
<path d="M23.4901 14.8655C24.9076 14.8842 24.6676 14.1342 25.7213 13.868C26.6176 13.6392 27.4088 13.6617 27.4088 13.6617C27.4088 13.6617 27.4126 14.2317 27.1088 14.6105C26.8801 14.8955 26.7488 15.0042 26.7301 15.3417C26.7113 15.6792 26.9326 16.0242 26.9326 16.0242C26.9326 16.0242 26.4526 15.8292 25.5938 16.2905C25.0876 16.5642 24.7238 17.3255 23.4338 17.3592C22.3651 17.3892 22.1288 16.9805 20.8463 16.718C20.0626 16.5567 19.6351 16.9317 19.6351 16.9317C19.6351 16.9317 20.2426 16.028 20.1526 15.5292C20.0626 15.0305 19.3576 14.7342 19.2676 14.378C19.7138 14.198 20.1338 14.1642 20.9926 14.2205C22.3838 14.3105 22.0951 14.8467 23.4901 14.8655Z" fill="#367C2D"/>
<path d="M28.0499 18.551L27.6074 17.6285C27.6074 17.6285 28.1549 17.6285 28.6499 17.321C29.1449 17.0135 29.5724 16.5185 30.4087 16.6385C31.2449 16.7585 31.8599 18.191 33.9074 18.191C35.6137 18.191 35.7524 16.961 37.5262 16.9798C39.4162 16.9985 39.9337 17.9885 39.9337 17.9885C39.9337 17.9885 39.6037 18.6223 39.6224 19.136C39.6412 19.6498 40.1212 20.5235 40.1212 20.5235C40.1212 20.5235 38.7899 20.021 37.8524 20.0548C36.9149 20.0885 35.6324 21.506 33.7724 21.371C31.8749 21.2323 31.4849 20.006 30.1199 19.6648C28.7549 19.3235 28.3799 19.6835 28.3799 19.6835L28.0499 18.551Z" fill="#367C2D"/>
<path d="M32.1113 24.0336C33.4088 24.0674 33.5776 24.9299 34.8076 24.8586C36.0376 24.7911 36.2326 23.9849 37.7513 24.0186C39.2701 24.0524 39.7951 24.9299 40.7663 25.0236C41.8726 25.1286 42.4538 24.8586 42.4538 24.8586C42.4538 24.8586 42.4576 25.1586 41.9963 25.7736C41.5351 26.3886 40.6313 27.1724 40.6313 27.1724L33.2551 27.3074L32.1113 24.0336Z" fill="#367C2D"/>
<path d="M34.98 31.2076C34.98 31.2076 36.4762 35.1863 38.7412 35.5876C41.0062 35.9888 42.4762 35.9851 43.9725 35.6176C45.4687 35.2538 46.26 33.8326 46.1137 32.4113C45.9675 30.9901 44.2162 30.0038 43.5225 29.2726C42.8287 28.5413 40.8937 25.6238 38.085 25.2563C35.1262 24.8738 33.0112 27.2626 33.0112 27.2626L34.98 31.2076Z" fill="#484E27"/>
<path d="M9.94122 25.8783C9.94122 25.8783 8.00622 25.6946 6.91122 26.5721C5.81622 27.4496 5.52372 28.7621 4.50372 29.4183C3.47997 30.0746 2.49372 29.9658 1.72872 30.9896C1.00497 31.9571 1.09497 33.4271 1.59747 34.2746C2.27247 35.4183 2.99997 35.5908 4.48872 35.7071C5.90997 35.8196 8.18997 35.8458 8.18997 35.8458L9.94122 25.8783Z" fill="#484E27"/>
<path d="M28.92 23.501L25.29 37.2672L27.72 37.346C27.72 37.346 29.6175 37.181 30.8063 37.0497C31.995 36.9185 33.87 36.6147 33.87 36.6147L36.0825 32.381L28.92 23.501Z" fill="#2F2F2F"/>
<path d="M5.77875 35.5838L5.25 35.1225C5.25 35.1225 5.54625 33.8025 6.83625 30.4013C8.12625 27 9.7425 23.0062 10.335 21.7538C10.9275 20.4975 11.4563 18.7838 11.7225 18.585C11.985 18.3863 15.1538 18.1875 18.6563 18.09C22.1588 17.9925 28.4588 18.1238 28.6575 18.2213C28.8563 18.3188 28.4588 21.1275 28.4588 21.1275L22.5825 37.3688L11.4263 36.3113L5.77875 35.5838Z" fill="#F19F40"/>
<path d="M20.3774 38.1224C20.3774 38.1224 21.8212 38.1561 23.2762 38.0586C24.7274 37.9611 28.2412 37.6799 28.4737 37.4811C28.7062 37.2824 28.5899 33.5024 28.7249 30.6299C28.8562 27.7574 28.9087 25.2486 29.0699 24.8361C29.1937 24.5211 33.5099 36.8699 33.5099 36.8699L38.6924 35.9474C38.6924 35.9474 35.6474 30.0636 34.1962 27.5211C32.7449 24.9786 29.2574 18.1686 28.6799 18.1836C28.2674 18.1911 25.1474 25.1924 24.2287 27.3711C23.1224 29.9886 22.0199 32.9699 21.2624 35.0961C20.6587 36.7836 20.3774 38.1224 20.3774 38.1224Z" fill="url(#paint0_radial)"/>
<path d="M21.8176 36.4838C21.7876 37.2075 21.6901 38.0325 21.3526 38.2388C21.0189 38.445 14.3927 37.4925 11.6627 37.155C8.77515 36.7988 5.2239 36.0038 5.0664 35.8238C4.91265 35.6438 5.04765 34.5863 5.3064 34.3275C5.56515 34.0688 5.6214 34.935 5.6214 34.935C5.6214 34.935 9.7989 35.76 11.6627 35.955C14.6026 36.2663 19.4026 36.9075 19.9464 36.7538C20.4864 36.6 20.7789 35.0325 21.2589 35.1C21.7389 35.1675 21.8439 35.8875 21.8176 36.4838Z" fill="#9C2D1B"/>
<path d="M29.1375 24.6791C29.0588 24.5141 28.9313 24.9753 29.1675 26.0666C29.37 26.9966 32.8538 37.0241 32.9063 37.1028C32.9588 37.1816 34.4775 37.0241 34.4775 37.0241L37.5975 35.8653L33.885 32.5391L31.23 28.4141C31.23 28.4103 29.1938 24.8066 29.1375 24.6791Z" fill="#9C2D1B"/>
<path d="M37.6424 36.821C37.6424 36.821 34.9087 34.5785 34.2712 33.851C32.3587 31.676 31.3049 29.366 31.0724 28.9535C30.8399 28.541 29.2087 25.181 29.1299 24.9485C29.0512 24.716 29.1299 24.431 29.3624 24.7947C29.5949 25.1547 30.6674 27.2172 31.5599 28.6197C31.7774 28.9572 33.6149 31.6422 34.0874 32.1522C36.0824 34.3085 38.1862 35.6847 38.1862 35.6847L37.6424 36.821Z" fill="#EA4133"/>
<path d="M33.1125 39.731L32.7525 40.6835C32.7525 40.6835 32.7 41.1747 32.7787 41.276C32.8575 41.381 37.47 41.2497 37.47 41.2497C37.47 41.2497 37.4175 41.9735 37.6237 42.1535C37.83 42.3335 40.3312 42.3072 40.4325 42.1797C40.5375 42.0522 40.56 41.1485 40.56 41.1485C40.56 41.1485 42.0562 41.2272 42.21 41.1747C42.3637 41.1222 42.21 39.8585 42.21 39.8585L40.5337 38.5947L33.1125 39.731Z" fill="#A05C3C"/>
<path d="M32.9062 37.7473L32.7524 40.6873L37.4212 40.5823C37.4212 40.5823 37.4474 39.5511 37.5262 39.4986C37.7099 39.3748 40.4662 39.1873 40.5937 39.3448C40.7212 39.4986 40.6724 40.5298 40.6724 40.5298L42.2699 40.4511C42.2699 40.4511 42.2699 38.4411 42.1912 38.3886C42.1124 38.3361 35.3849 37.8223 34.7399 37.7961C34.0912 37.7698 32.8799 37.5636 32.9062 37.7473Z" fill="#C67C5D"/>
<path d="M39.3525 30.5251C39.3525 30.5251 37.995 32.7563 36.2325 34.2638C35.2538 35.1001 34.4775 36.1463 34.5563 37.5376C34.6163 38.6101 35.64 39.4801 37.1588 39.5476C40.5863 39.7013 41.0775 37.6651 41.2575 36.4538C41.4375 35.2426 41.2763 32.3326 41.2313 32.2501C41.115 32.0363 40.5525 33.1463 40.0725 33.6938C39.5325 34.3126 38.8613 34.8301 38.8613 34.8301C38.8613 34.8301 39.4688 33.2626 39.5625 32.2013C39.6525 31.2001 39.6075 30.3976 39.3525 30.5251Z" fill="url(#paint1_radial)"/>
<path d="M23.9399 5.75259C23.4862 5.41884 22.7962 5.51259 22.4699 6.04134C22.1437 6.57009 22.2674 7.28259 22.8149 7.54884C23.3624 7.81134 23.8349 7.63884 24.1199 7.27509C24.4049 6.91134 24.5174 6.17634 23.9399 5.75259Z" fill="white"/>
<path opacity="0.56" d="M26.2575 5.32127C25.9463 5.64377 26.0063 6.09752 26.28 6.36002C26.5538 6.62252 27.0563 6.51752 27.2475 6.32252C27.5213 6.04877 27.5363 5.52002 27.2475 5.26877C27.0188 5.07002 26.6063 4.96127 26.2575 5.32127Z" fill="white"/>
<path d="M16.4325 1.5935C15.8363 1.556 15.4763 2.14475 15.4988 2.561C15.5213 2.981 15.7838 3.506 16.515 3.51725C17.3626 3.5285 17.46 2.65475 17.3888 2.33225C17.3438 2.13725 17.1975 1.64225 16.4325 1.5935Z" fill="white"/>
<path d="M2.63249 16.5334C2.81249 17.0059 3.38249 17.3396 3.98249 17.0396C4.57499 16.7434 4.58999 16.0984 4.34249 15.6409C4.09499 15.1834 3.43874 15.1571 3.07874 15.3296C2.71874 15.5059 2.43374 16.0121 2.63249 16.5334Z" fill="white"/>
<path d="M41.7262 9.2174C41.4037 9.69365 41.3925 10.2936 41.7862 10.6386C42.18 10.9836 42.9075 10.9499 43.29 10.4249C43.65 9.93365 43.5637 9.36365 43.1962 9.00365C42.8287 8.64365 42.0487 8.74115 41.7262 9.2174Z" fill="white"/>
<path d="M36.7312 1.96169C36.4275 2.28419 36.3112 2.87294 36.72 3.22919C37.065 3.52919 37.6387 3.45794 37.9125 3.09794C38.1862 2.73794 38.0812 2.19044 37.8412 1.93919C37.605 1.68419 37.08 1.59044 36.7312 1.96169Z" fill="white"/>
<path d="M11.1263 9.43071C11.1263 9.43071 11.5688 8.06946 11.8126 8.02446C12.0563 7.97946 12.5926 9.43071 12.5926 9.43071C12.5926 9.43071 13.7401 9.49071 13.8301 9.73821C13.9201 9.98196 12.9751 10.717 12.9751 10.717C12.9751 10.717 13.3426 11.9845 13.1888 12.1082C13.0351 12.232 11.7976 11.452 11.7976 11.452C11.7976 11.452 10.7738 12.4307 10.4851 12.277C10.1963 12.1232 10.6988 10.747 10.6988 10.747C10.6988 10.747 9.70506 10.1057 9.69006 9.75321C9.67506 9.40071 11.1263 9.43071 11.1263 9.43071Z" fill="white"/>
<defs>
<radialGradient id="paint0_radial" cx="0" cy="0" r="1" gradientUnits="userSpaceOnUse" gradientTransform="translate(33.7664 37.9757) scale(11.427)">
<stop offset="0.423" stop-color="#F3AE3D"/>
<stop offset="0.54" stop-color="#F2A53C"/>
<stop offset="0.733" stop-color="#F08C38"/>
<stop offset="0.976" stop-color="#EC6333"/>
<stop offset="1" stop-color="#EC5F32"/>
</radialGradient>
<radialGradient id="paint1_radial" cx="0" cy="0" r="1" gradientUnits="userSpaceOnUse" gradientTransform="translate(37.1929 39.5798) scale(6.22988)">
<stop offset="0.039" stop-color="white"/>
<stop offset="0.149" stop-color="#FDF4DF"/>
<stop offset="0.397" stop-color="#FADD9B"/>
<stop offset="0.605" stop-color="#F7CB6A"/>
<stop offset="0.762" stop-color="#F6C14B"/>
<stop offset="0.851" stop-color="#F5BD40"/>
</radialGradient>
</defs>
</svg>
