<svg width="749" height="374" viewBox="0 0 749 374" fill="none" xmlns="http://www.w3.org/2000/svg">
<g clip-path="url(#clip0)">
<path d="M253.621 186.258C254.012 184.737 254.064 183.149 253.774 181.605C253.485 180.062 252.86 178.6 251.944 177.324C251.029 176.048 249.844 174.989 248.475 174.22C247.105 173.451 245.584 172.992 244.018 172.875L182.902 96.4648L167.78 110.56L232.342 183.549C232.319 186.193 233.268 188.753 235.007 190.745C236.746 192.736 239.155 194.021 241.778 194.355C244.401 194.689 247.055 194.049 249.238 192.557C251.421 191.065 252.981 188.824 253.621 186.258Z" fill="#FFB8B8"/>
<path d="M194.627 108.603L175.312 123.395C174.762 123.816 174.129 124.113 173.454 124.267C172.779 124.421 172.079 124.427 171.401 124.286C170.724 124.145 170.084 123.859 169.527 123.449C168.97 123.039 168.507 122.513 168.171 121.907L156.406 100.698C154.269 97.8743 153.338 94.3182 153.819 90.8096C154.3 87.3009 156.152 84.126 158.97 81.981C161.788 79.836 165.342 78.8959 168.852 79.3669C172.362 79.8379 175.542 81.6815 177.695 84.4935L195.052 101.322C195.549 101.804 195.936 102.387 196.187 103.032C196.438 103.677 196.547 104.369 196.507 105.06C196.466 105.751 196.277 106.425 195.953 107.037C195.629 107.648 195.176 108.182 194.627 108.603H194.627Z" fill="#619FC2"/>
<path d="M162.19 62.4756C175.755 62.4756 186.751 51.4792 186.751 37.9145C186.751 24.3499 175.755 13.3535 162.19 13.3535C148.625 13.3535 137.629 24.3499 137.629 37.9145C137.629 51.4792 148.625 62.4756 162.19 62.4756Z" fill="#FFB8B8"/>
<path d="M214.618 356.506H226.878L225.71 333.56L207.616 333.561L214.618 356.506Z" fill="#FFB8B8"/>
<path d="M211.491 352.504L235.635 352.503H235.636C237.657 352.503 239.657 352.901 241.524 353.674C243.391 354.447 245.087 355.581 246.516 357.009C247.945 358.438 249.078 360.134 249.851 362.001C250.625 363.868 251.022 365.869 251.022 367.889V368.389L211.492 368.391L211.491 352.504Z" fill="#2F2E41"/>
<path d="M83.9053 339.148L94.3353 345.591L105.402 325.456L92.7803 317.56L83.9053 339.148Z" fill="#FFB8B8"/>
<path d="M83.3489 334.1L103.89 346.788L103.891 346.788C105.61 347.85 107.103 349.24 108.285 350.879C109.466 352.518 110.314 354.374 110.778 356.34C111.243 358.307 111.316 360.346 110.992 362.34C110.669 364.335 109.956 366.246 108.894 367.965L108.631 368.39L75 347.616L83.3489 334.1Z" fill="#2F2E41"/>
<path d="M213.732 349.778C212.821 349.778 211.931 349.5 211.181 348.982C210.432 348.463 209.857 347.729 209.535 346.877L165.188 240.851C165.093 240.592 164.928 240.364 164.711 240.193C164.495 240.021 164.236 239.913 163.962 239.88C163.688 239.847 163.41 239.889 163.159 240.004C162.907 240.118 162.693 240.3 162.538 240.528L101.615 336.5C101.019 337.394 100.122 338.044 99.087 338.332C98.0522 338.62 96.9484 338.527 95.9764 338.069L87.6402 334.179C86.5725 333.675 85.7442 332.774 85.3325 331.668C84.9208 330.561 84.9584 329.338 85.4373 328.259L135.35 217C134.26 214.349 123.63 187.124 139.963 173.674L140.077 173.603L184.366 153.847L185.483 187.821L229.627 340.986C229.794 341.563 229.843 342.166 229.772 342.762C229.702 343.358 229.513 343.933 229.217 344.455C228.921 344.977 228.523 345.434 228.048 345.8C227.572 346.165 227.028 346.432 226.448 346.585L214.885 349.628C214.509 349.728 214.121 349.778 213.732 349.778Z" fill="#2F2E41"/>
<path d="M185.037 104.149C183.35 97.3808 180.96 90.5585 177.756 87.4088C176.578 86.2603 175.471 85.0412 174.441 83.7583C172.286 81.0439 169.575 78.8224 166.49 77.2432C167.619 76.6151 168.281 75.8659 168.281 75.0596C168.281 72.8504 163.356 71.0596 157.281 71.0596C151.206 71.0596 146.281 72.8504 146.281 75.0596C146.296 75.3162 146.361 75.5673 146.473 75.7985C146.586 76.0298 146.742 76.2366 146.935 76.4071C142.968 78.0242 139.52 80.699 136.969 84.14C134.417 87.5811 132.858 91.6564 132.463 95.9221C131.042 111.138 130.627 130.588 135.606 142.89C139.783 153.064 140.115 164.409 136.541 174.809C136.298 175.533 136.269 176.312 136.455 177.052C136.642 177.793 137.037 178.465 137.593 178.987C138.15 179.51 138.845 179.863 139.596 180.003C140.346 180.143 141.121 180.065 141.829 179.778L185.776 162.069C186.516 161.771 187.15 161.258 187.596 160.597C188.042 159.936 188.281 159.157 188.281 158.359V131.462C188.316 122.259 187.227 113.087 185.037 104.149Z" fill="#619FC2"/>
<path d="M100.952 214.93C102.482 214.575 103.915 213.888 105.151 212.919C106.387 211.95 107.395 210.722 108.105 209.321C108.815 207.92 109.209 206.38 109.259 204.811C109.309 203.241 109.015 201.679 108.396 200.236L142.781 109.56L125.344 105.058L93.5401 194.8C91.1838 196 89.3494 198.022 88.3845 200.484C87.4196 202.946 87.3912 205.676 88.3049 208.157C89.2185 210.638 91.0105 212.698 93.3414 213.947C95.6724 215.195 98.3803 215.545 100.952 214.93V214.93Z" fill="#FFB8B8"/>
<path d="M142.637 126.765L120.604 116.451C119.977 116.158 119.421 115.733 118.973 115.205C118.525 114.677 118.196 114.059 118.009 113.393C117.822 112.726 117.78 112.027 117.887 111.344C117.994 110.66 118.247 110.007 118.63 109.43L132.02 89.2071C133.541 86.0104 136.267 83.5469 139.601 82.3563C142.935 81.1658 146.605 81.3453 149.807 82.8555C153.008 84.3656 155.481 87.0834 156.683 90.4133C157.885 93.7431 157.717 97.4136 156.218 100.62L149.294 123.783C149.095 124.447 148.756 125.059 148.3 125.579C147.843 126.1 147.28 126.515 146.648 126.798C146.017 127.081 145.331 127.225 144.639 127.219C143.947 127.213 143.264 127.058 142.637 126.765Z" fill="#619FC2"/>
<path d="M184.75 31.8684C185.858 31.9997 186.98 31.7969 187.972 31.2861C189.784 30.1004 189.605 27.4054 188.992 25.3287C187.465 20.3508 184.708 15.8378 180.976 12.2063C177.244 8.57481 172.658 5.9418 167.64 4.55027C164.143 3.62098 159.719 3.6569 157.719 6.6717C152.692 3.32306 146.632 1.88667 140.637 2.62302C134.642 3.35938 129.109 6.21972 125.042 10.6853C120.94 15.1895 118.589 21.061 117.37 27.0301C115.271 37.3124 106.284 58.5226 111.262 67.7606C114.575 73.908 129.823 69.1182 136.272 71.7958C142.722 74.4734 150.561 74.1731 156.29 70.1799C162.019 66.1867 165.028 58.3019 162.572 51.7647C161.622 49.2366 159.975 47.041 158.676 44.6734C157.377 42.3058 156.405 39.5688 156.985 36.9312C157.888 32.8237 177.274 31.7145 184.75 31.8684Z" fill="#2F2E41"/>
<path d="M429 368.5C429 368.566 428.977 368.631 428.932 368.692C428.887 368.752 428.821 368.808 428.738 368.854C428.654 368.901 428.555 368.937 428.445 368.962C428.336 368.987 428.219 369 428.101 369H0.899371C0.660843 369 0.432084 368.947 0.263419 368.854C0.0947542 368.76 0 368.633 0 368.5C0 368.367 0.0947542 368.24 0.263419 368.146C0.432084 368.053 0.660843 368 0.899371 368H428.101C428.219 368 428.336 368.013 428.445 368.038C428.555 368.063 428.654 368.099 428.738 368.146C428.821 368.192 428.887 368.248 428.932 368.308C428.977 368.369 429 368.434 429 368.5Z" fill="#3F3D56" fill-opacity="0.5"/>
<path d="M541 375C596.228 375 641 372.314 641 369C641 365.686 596.228 363 541 363C485.772 363 441 365.686 441 369C441 372.314 485.772 375 541 375Z" fill="#31A0DE" fill-opacity="0.3"/>
<path d="M793 370H659C658.735 370 658.48 369.895 658.293 369.707C658.105 369.52 658 369.265 658 369C658 368.735 658.105 368.48 658.293 368.293C658.48 368.105 658.735 368 659 368H793C793.265 368 793.52 368.105 793.707 368.293C793.895 368.48 794 368.735 794 369C794 369.265 793.895 369.52 793.707 369.707C793.52 369.895 793.265 370 793 370Z" fill="#3F3D56" fill-opacity="0.5"/>
<path d="M591.706 225.944C609.682 233.667 620.655 234.398 638.945 231.016C640.214 230.781 641.073 229.582 640.841 228.312C639.401 220.411 636.118 211.53 629.68 206.487C629.556 206.39 629.444 206.287 629.339 206.169C604.847 178.802 509.369 164.409 455.336 206.342C448.374 211.488 443.81 218.351 441.602 228.514C441.345 229.696 442.052 230.867 443.208 231.222C460.322 236.481 471.237 235.397 490.514 226.107C491.462 225.65 491.981 224.623 491.921 223.572C491.658 218.933 493.553 216.1 499.41 212.24C499.655 212.079 499.937 211.963 500.223 211.901C532.141 205.015 548.978 204.64 579.387 211.996C587.663 214.267 589.793 217.255 590.226 223.798C590.288 224.732 590.847 225.575 591.706 225.944Z" fill="#50B0E5"/>
<path d="M490.135 232.753C471.682 241.352 460.756 242.241 441.814 237.323C441.3 237.19 440.79 237.575 440.79 238.106V251.024C440.79 251.138 440.814 251.251 440.862 251.354C447.951 266.507 490.091 260.026 491.299 242.711V233.484C491.299 232.89 490.673 232.502 490.135 232.753Z" fill="#31A0DE" fill-opacity="0.6"/>
<path d="M591.461 232.753C609.914 241.352 620.841 242.241 639.783 237.323C640.296 237.19 640.807 237.575 640.807 238.106V251.024C640.807 251.138 640.783 251.251 640.734 251.354C633.646 266.507 591.505 260.026 590.297 242.711V233.484C590.297 232.89 590.923 232.502 591.461 232.753Z" fill="#31A0DE" fill-opacity="0.6"/>
<path d="M522.816 227.761H503.825C502.932 227.761 502.209 228.484 502.209 229.377V247.388C502.209 247.761 502.075 248.128 501.839 248.417C483.482 270.905 474.764 283.924 465.673 302.535C463.611 306.757 462.609 311.414 462.609 316.113V327.971C462.609 335.112 468.399 340.902 475.54 340.902H604.844C611.985 340.902 617.774 335.112 617.774 327.971V312.661C617.774 310.215 617.526 307.767 616.856 305.414C611.423 286.321 598.8 271.631 581.33 248.4C581.12 248.12 581.003 247.775 581.003 247.425V229.377C581.003 228.484 580.28 227.761 579.387 227.761H558.779C557.886 227.761 557.163 228.484 557.163 229.377V240.691C557.163 241.584 556.439 242.307 555.547 242.307H526.049C525.156 242.307 524.433 241.584 524.433 240.691V229.377C524.433 228.484 523.709 227.761 522.816 227.761Z" fill="#50B1E6"/>
<circle cx="517.564" cy="264.531" r="7.27334" fill="#ECF3F8"/>
<circle cx="517.564" cy="283.927" r="7.27334" fill="#ECF3F8"/>
<circle cx="517.564" cy="303.322" r="7.27334" fill="#ECF3F8"/>
<circle cx="540.192" cy="264.531" r="7.27334" fill="#ECF3F8"/>
<circle cx="540.192" cy="283.927" r="7.27334" fill="#ECF3F8"/>
<circle cx="540.192" cy="303.322" r="7.27334" fill="#ECF3F8"/>
<circle cx="562.82" cy="264.531" r="7.27334" fill="#ECF3F8"/>
<circle cx="562.82" cy="283.927" r="7.27334" fill="#ECF3F8"/>
<circle cx="562.82" cy="303.322" r="7.27334" fill="#ECF3F8"/>
</g>
<defs>
<clipPath id="clip0">
<rect width="748.185" height="373.56" fill="white"/>
</clipPath>
</defs>
</svg>
