<svg width="545" height="394" viewBox="0 0 545 394" fill="none" xmlns="http://www.w3.org/2000/svg">
<path d="M544.811 356.742H0V357.015H544.811V356.742Z" fill="#EBEBEB"/>
<path d="M443.607 364.163H363.204V364.435H443.607V364.163Z" fill="#EBEBEB"/>
<path d="M122.376 365.993H112.907V366.266H122.376V365.993Z" fill="#EBEBEB"/>
<path d="M465.607 374.274H444.697V374.547H465.607V374.274Z" fill="#EBEBEB"/>
<path d="M270.956 370.591H217.925V370.864H270.956V370.591Z" fill="#EBEBEB"/>
<path d="M208.227 370.591H181.662V370.864H208.227V370.591Z" fill="#EBEBEB"/>
<path d="M93.2826 365.993H57.1616V366.266H93.2826V365.993Z" fill="#EBEBEB"/>
<path d="M258.241 308.145H47.8454C46.1972 308.142 44.6174 307.486 43.453 306.319C42.2885 305.153 41.6345 303.572 41.6345 301.923V6.16726C41.6489 4.5285 42.3092 2.96157 43.4721 1.80683C44.635 0.652093 46.2065 0.00280729 47.8454 0H258.241C259.891 0 261.473 0.655504 262.64 1.82231C263.807 2.98911 264.462 4.57163 264.462 6.22174V301.923C264.462 303.574 263.807 305.156 262.64 306.323C261.473 307.49 259.891 308.145 258.241 308.145ZM47.8454 0.217925C46.2694 0.220812 44.759 0.848887 43.6456 1.96429C42.5322 3.0797 41.9069 4.59129 41.9069 6.16726V301.923C41.9069 303.499 42.5322 305.011 43.6456 306.126C44.759 307.242 46.2694 307.87 47.8454 307.873H258.241C259.818 307.87 261.329 307.242 262.444 306.127C263.559 305.012 264.187 303.5 264.19 301.923V6.16726C264.187 4.59029 263.559 3.07872 262.444 1.96363C261.329 0.848533 259.818 0.220806 258.241 0.217925H47.8454Z" fill="#EBEBEB"/>
<path d="M493.937 308.145H283.531C281.881 308.142 280.301 307.486 279.134 306.32C277.968 305.154 277.312 303.573 277.309 301.923V6.16726C277.326 4.5275 277.989 2.96059 279.153 1.80615C280.318 0.651713 281.891 0.00277667 283.531 0H493.937C495.574 0.00567094 497.142 0.656224 498.303 1.81066C499.464 2.96509 500.122 4.53038 500.137 6.16726V301.923C500.137 303.57 499.484 305.149 498.322 306.315C497.16 307.481 495.583 308.139 493.937 308.145ZM283.531 0.217925C281.954 0.220806 280.442 0.848533 279.327 1.96363C278.212 3.07872 277.584 4.59029 277.581 6.16726V301.923C277.584 303.5 278.212 305.012 279.327 306.127C280.442 307.242 281.954 307.87 283.531 307.873H493.937C495.514 307.87 497.025 307.242 498.14 306.127C499.255 305.012 499.883 303.5 499.886 301.923V6.16726C499.883 4.59029 499.255 3.07872 498.14 1.96363C497.025 0.848533 495.514 0.220806 493.937 0.217925H283.531Z" fill="#EBEBEB"/>
<path d="M414.896 116.513H365.045V163.628H414.896V116.513Z" fill="white"/>
<path d="M309.714 68.2756C309.714 69.713 309.288 71.1182 308.489 72.3134C307.691 73.5085 306.556 74.4401 305.228 74.9902C303.9 75.5402 302.438 75.6842 301.029 75.4037C299.619 75.1233 298.324 74.4311 297.307 73.4147C296.291 72.3983 295.599 71.1033 295.318 69.6935C295.038 68.2837 295.182 66.8223 295.732 65.4943C296.282 64.1663 297.214 63.0313 298.409 62.2327C299.604 61.4341 301.009 61.0078 302.447 61.0078C304.374 61.0078 306.223 61.7735 307.586 63.1365C308.949 64.4995 309.714 66.3481 309.714 68.2756Z" fill="#EBEBEB"/>
<path d="M412.368 68.2756C412.368 69.713 411.941 71.1182 411.143 72.3134C410.344 73.5085 409.209 74.4401 407.881 74.9902C406.553 75.5402 405.092 75.6842 403.682 75.4037C402.272 75.1233 400.977 74.4311 399.961 73.4147C398.944 72.3983 398.252 71.1033 397.972 69.6935C397.691 68.2837 397.835 66.8223 398.385 65.4943C398.935 64.1663 399.867 63.0313 401.062 62.2327C402.257 61.4341 403.662 61.0078 405.1 61.0078C407.027 61.0078 408.876 61.7735 410.239 63.1365C411.602 64.4995 412.368 66.3481 412.368 68.2756Z" fill="#EBEBEB"/>
<path d="M254.874 306.936H250.896V356.731H254.874V306.936Z" fill="#EBEBEB"/>
<path d="M264.288 306.936C264.288 321.482 252.891 333.272 252.891 333.272C252.891 333.272 241.482 321.439 241.482 306.936C241.482 292.433 252.891 280.61 252.891 280.61C252.891 280.61 264.288 292.4 264.288 306.936Z" fill="#F0F0F0"/>
<path d="M317.734 356.742H320.349V323.955H317.734V356.742Z" fill="#EBEBEB"/>
<path d="M311.523 323.945C311.523 333.523 319.03 341.292 319.03 341.292C319.03 341.292 326.549 333.523 326.549 323.945C326.549 314.367 319.03 306.609 319.03 306.609C319.03 306.609 311.523 314.378 311.523 323.945Z" fill="#F0F0F0"/>
<path d="M485.078 356.742H488.565V313.048H485.078V356.742Z" fill="#EBEBEB"/>
<path d="M476.819 313.038C476.819 325.797 486.822 336.148 486.822 336.148C486.822 336.148 496.868 325.797 496.868 313.038C496.868 300.278 486.854 289.938 486.854 289.938C486.854 289.938 476.819 300.278 476.819 313.038Z" fill="#F0F0F0"/>
<path d="M116.099 73.0048C110.106 80.6322 101.466 99.9185 110.509 106.467C119.553 113.016 142.108 111.218 148.526 106.467C154.944 101.716 151.054 77.7556 139.025 70.6622C126.995 63.5687 114.519 68.7444 116.099 73.0048Z" fill="#263238"/>
<path d="M146.674 176.868C146.674 176.868 146.249 230.15 142.904 273.92C135.691 317.244 139.352 376.715 139.352 376.715H132.443C132.443 376.715 115.5 297.794 123.127 272.406C118.573 239.848 119.989 177.75 119.989 177.75L146.674 176.868Z" fill="#FFB573"/>
<path d="M154.922 126.8C155.228 127.203 155.685 127.78 156.088 128.271L157.363 129.807C158.235 130.82 159.139 131.812 160.065 132.782C161.882 134.705 163.826 136.503 165.884 138.164C167.855 139.747 169.975 141.134 172.215 142.305C174.276 143.4 176.509 144.137 178.818 144.484L179.385 144.56C179.123 144.515 178.853 144.561 178.622 144.691C178.524 144.767 178.687 144.691 178.916 144.528C179.581 143.907 180.15 143.191 180.605 142.403C181.817 140.314 182.852 138.127 183.699 135.865C184.626 133.523 185.454 131.082 186.249 128.608C187.045 126.135 187.796 123.618 188.516 121.155V121.101C188.683 120.5 189.067 119.982 189.594 119.648C190.121 119.315 190.753 119.188 191.368 119.294C191.983 119.4 192.536 119.731 192.921 120.221C193.306 120.712 193.495 121.329 193.452 121.951C193.288 124.718 192.95 127.399 192.558 130.09C192.166 132.782 191.61 135.538 190.924 138.186C190.235 141.015 189.264 143.767 188.025 146.402C187.279 147.989 186.302 149.458 185.127 150.76C184.306 151.672 183.314 152.412 182.207 152.94C180.75 153.612 179.12 153.814 177.543 153.517L178.121 153.604C174.662 153.391 171.271 152.546 168.118 151.109C165.15 149.783 162.348 148.111 159.771 146.13C157.269 144.243 154.916 142.166 152.732 139.919C151.643 138.829 150.618 137.663 149.605 136.475C149.104 135.887 148.614 135.288 148.134 134.678C147.633 134.035 147.208 133.479 146.663 132.705C145.915 131.62 145.62 130.285 145.842 128.985C146.064 127.686 146.784 126.524 147.85 125.748C148.916 124.972 150.243 124.643 151.548 124.832C152.852 125.02 154.032 125.71 154.835 126.756L154.922 126.8Z" fill="#FFB573"/>
<path d="M198.431 115.718L196.067 112.231C195.88 111.957 195.639 111.725 195.357 111.549C195.076 111.374 194.76 111.259 194.432 111.213C194.103 111.167 193.769 111.19 193.45 111.281C193.131 111.372 192.835 111.529 192.58 111.741C190.935 113.106 189.786 114.975 189.311 117.058L187.851 123.596L189.453 127.955C193.55 127.639 196.121 121.842 196.121 121.842L198.42 118.344C198.683 117.957 198.824 117.501 198.826 117.033C198.828 116.565 198.69 116.107 198.431 115.718Z" fill="#FFB573"/>
<path d="M161.264 128.75C162.172 129.855 163.159 130.893 164.217 131.855C164.217 131.855 161.569 142.937 155.228 146.435C154.616 146.226 154.058 145.885 153.594 145.434C153.13 144.984 152.773 144.436 152.547 143.83L161.264 128.75Z" fill="#263238"/>
<path d="M146.707 120.229C155.925 121.264 158.834 126.081 162.735 129.186C162.996 135.724 153.31 145.16 153.31 145.16C153.31 145.16 133.838 118.769 146.707 120.229Z" fill="#F76754"/>
<path d="M155.74 128.576C156.829 143.449 147.796 154.727 147.023 170.406L109.485 169.491C110.575 154.236 110.106 155.74 104.745 126.2C104.598 125.385 104.62 124.549 104.808 123.742C104.997 122.936 105.348 122.176 105.841 121.511C106.334 120.845 106.958 120.288 107.675 119.872C108.392 119.457 109.186 119.193 110.008 119.096C112.798 118.78 116.252 118.475 119.88 118.409C125.961 118.143 132.053 118.314 138.109 118.922C142.021 119.39 146.194 120.142 149.387 120.774C153.114 121.482 155.456 124.762 155.74 128.576Z" fill="#F76754"/>
<path d="M138.131 118.889L119.858 118.377C119.858 118.377 120.381 125.416 136.987 133.272C144.658 124.294 138.131 118.889 138.131 118.889Z" fill="white"/>
<path d="M137.173 126.898C139.69 127.54 143.362 131.964 144.44 136.377C151.981 125.089 138.131 118.943 138.131 118.943L137.173 126.898Z" fill="#263238"/>
<path d="M132.727 127.486C130.253 128.292 125.568 132.836 124.784 137.292C116.513 126.527 119.902 118.3 119.902 118.3L132.727 127.486Z" fill="#263238"/>
<path d="M122.288 97.9028C123.28 103.798 124.119 114.574 119.902 118.377C119.902 118.377 127.333 126.429 135.799 128.554C137.036 127.311 137.908 125.753 138.319 124.048C138.731 122.344 138.666 120.559 138.131 118.889C131.594 117.146 131.942 112.297 133.206 107.775L122.288 97.9028Z" fill="#FFB573"/>
<path opacity="0.2" d="M126.745 101.935L133.206 107.764C132.892 108.832 132.673 109.926 132.553 111.033C130.068 110.597 126.712 107.764 126.516 105.138C126.393 104.065 126.471 102.979 126.745 101.935Z" fill="black"/>
<path d="M116.404 86.974C118.442 96.5736 119.096 100.681 124.729 104.92C133.195 111.316 144.538 106.718 145.432 96.7043C146.216 87.6931 142.762 73.5063 132.716 71.0546C130.5 70.5013 128.179 70.524 125.974 71.1207C123.769 71.7174 121.753 72.8681 120.119 74.4635C118.484 76.0589 117.285 78.0459 116.634 80.2357C115.984 82.4254 115.905 84.745 116.404 86.974Z" fill="#FFB573"/>
<path d="M130.929 87.8347C131.049 88.6193 131.561 89.1967 132.084 89.1205C132.607 89.0442 132.912 88.3469 132.803 87.5514C132.694 86.756 132.171 86.1894 131.714 86.2657C131.256 86.3419 130.82 87.0393 130.929 87.8347Z" fill="#263238"/>
<path d="M141.041 86.3637C141.15 87.1592 141.673 87.7367 142.185 87.6604C142.697 87.5841 143.024 86.8759 142.904 86.0913C142.784 85.3068 142.272 84.7293 141.76 84.8056C141.248 84.8819 140.921 85.5792 141.041 86.3637Z" fill="#263238"/>
<path d="M141.542 84.8818L143.351 84.0537C143.351 84.0537 142.599 85.6772 141.542 84.8818Z" fill="#263238"/>
<path d="M137.696 88.2598C138.665 89.9533 139.86 91.5075 141.248 92.8798C140.89 93.2252 140.46 93.4882 139.989 93.65C139.519 93.8119 139.019 93.8689 138.524 93.8168L137.696 88.2598Z" fill="#ED893E"/>
<path d="M136.061 97.0636C136.509 97.0751 136.957 97.0495 137.401 96.9874C137.463 96.9767 137.518 96.9422 137.555 96.8912C137.592 96.8403 137.607 96.777 137.597 96.715C137.595 96.6841 137.586 96.6542 137.571 96.6271C137.556 96.6 137.536 96.5764 137.511 96.5579C137.486 96.5393 137.458 96.5262 137.428 96.5195C137.397 96.5128 137.366 96.5126 137.336 96.5188C136.359 96.6824 135.357 96.6148 134.411 96.3215C133.465 96.0282 132.601 95.5173 131.888 94.8299C131.866 94.8082 131.841 94.7909 131.813 94.7791C131.785 94.7673 131.755 94.7612 131.724 94.7612C131.694 94.7612 131.664 94.7673 131.636 94.7791C131.608 94.7909 131.582 94.8082 131.561 94.8299C131.516 94.8748 131.491 94.9355 131.491 94.9988C131.491 95.0621 131.516 95.1228 131.561 95.1677C132.76 96.3572 134.372 97.0366 136.061 97.0636Z" fill="#263238"/>
<path d="M114.922 92.3673C115.606 94.138 116.961 95.5672 118.693 96.3444C121.003 97.3468 122.495 95.3637 122.147 93.0102C121.831 90.8309 120.251 87.8127 117.788 87.8018C117.258 87.8235 116.741 87.974 116.282 88.2402C115.823 88.5065 115.435 88.8806 115.153 89.33C114.871 89.7795 114.703 90.291 114.662 90.8201C114.622 91.3493 114.711 91.8803 114.922 92.3673Z" fill="#FFB573"/>
<path d="M127.126 84.1406C127.191 84.1387 127.254 84.1232 127.312 84.0951C127.371 84.0669 127.422 84.0267 127.464 83.9771C127.828 83.516 128.296 83.148 128.831 82.9036C129.365 82.6592 129.95 82.5454 130.537 82.5715C130.598 82.5791 130.661 82.5744 130.72 82.5576C130.78 82.5408 130.836 82.5124 130.885 82.4739C130.933 82.4353 130.974 82.3875 131.004 82.3332C131.034 82.2789 131.053 82.2191 131.06 82.1575C131.067 82.0965 131.062 82.0346 131.045 81.9755C131.029 81.9164 131 81.8613 130.961 81.8135C130.923 81.7657 130.875 81.7262 130.821 81.6973C130.766 81.6684 130.707 81.6507 130.646 81.6453C129.904 81.6001 129.163 81.7338 128.484 82.0354C127.805 82.3369 127.208 82.7974 126.745 83.3778C126.705 83.424 126.674 83.4777 126.655 83.5358C126.636 83.5939 126.629 83.6553 126.634 83.7162C126.639 83.7772 126.656 83.8365 126.685 83.8906C126.713 83.9448 126.752 83.9927 126.799 84.0316C126.843 84.0716 126.895 84.1019 126.951 84.1207C127.007 84.1395 127.067 84.1462 127.126 84.1406Z" fill="#263238"/>
<path d="M142.839 81.5038C142.895 81.4868 142.947 81.4588 142.992 81.4214C143.036 81.3839 143.073 81.3379 143.1 81.2858C143.158 81.176 143.169 81.0478 143.133 80.9293C143.096 80.8108 143.014 80.7118 142.904 80.6539C142.255 80.2907 141.529 80.0882 140.786 80.0636C140.042 80.0389 139.304 80.1928 138.633 80.5122C138.578 80.5423 138.53 80.5827 138.492 80.6313C138.453 80.6799 138.424 80.7356 138.407 80.7953C138.39 80.855 138.384 80.9175 138.391 80.9792C138.398 81.0409 138.417 81.1007 138.447 81.1551C138.477 81.2095 138.518 81.2574 138.567 81.2961C138.615 81.3349 138.671 81.3636 138.731 81.3808C138.79 81.398 138.853 81.4033 138.914 81.3964C138.976 81.3894 139.036 81.3704 139.09 81.3403C139.624 81.0934 140.209 80.9774 140.796 81.002C141.384 81.0267 141.957 81.1912 142.468 81.482C142.584 81.5375 142.717 81.5453 142.839 81.5038Z" fill="#263238"/>
<path d="M131.43 86.3418L133.25 85.5137C133.25 85.5137 132.498 87.1699 131.43 86.3418Z" fill="#263238"/>
<path d="M131.615 177.369C131.615 177.369 126.527 230.76 119.379 274.705C108.396 318.17 106.881 376.715 106.881 376.715H99.9728C99.9728 376.715 89.9483 298.644 99.8203 273.201C98.1314 240.512 104.974 178.273 104.974 178.273L131.615 177.369Z" fill="#FFB573"/>
<path d="M121.613 391.687C120.403 390.336 115.544 388.56 115.544 388.56C115.544 388.56 111.185 385.77 108.526 374.1C108.495 373.962 108.427 373.836 108.329 373.734C108.231 373.632 108.107 373.559 107.971 373.523L99.5805 371.474C99.3468 371.425 99.103 371.467 98.8999 371.593C98.6969 371.719 98.5503 371.918 98.4909 372.15C98.2656 373.028 98.1233 373.926 98.066 374.83C97.9679 375.92 97.8044 377.642 97.7282 378.742C97.4449 382.806 97.0962 391.948 97.0962 391.948H98.066C98.3137 389.163 98.7248 386.394 99.2972 383.656C100.005 380.976 101.618 384.147 102.414 387.176C103.209 390.205 107.186 393.43 113.364 393.583C120.599 393.757 122.877 393.092 121.613 391.687Z" fill="#263238"/>
<path d="M147.099 170.374C155.064 195.522 147.546 234.901 143.765 283.106C126.331 285.721 109.572 285.568 93.6421 281.635C105.17 226.304 88.194 185.258 109.605 169.404L147.099 170.374Z" fill="#263238"/>
<path d="M94.7208 275.522C94.5465 276.481 94.3722 277.462 94.176 278.442C110.063 282.234 126.723 282.419 143.961 279.913L144.222 276.786C127.083 279.314 110.509 279.194 94.7208 275.522Z" fill="white"/>
<path opacity="0.2" d="M128.161 231.284L129.632 206.985L138.012 195.446L128.161 231.284Z" fill="black"/>
<path d="M112.765 130.308C111.806 131.463 110.956 132.422 110.008 133.414C109.06 134.405 108.145 135.364 107.186 136.301C105.279 138.208 103.242 139.984 101.139 141.749C96.8862 145.334 92.1645 148.321 87.1043 150.63C85.7652 151.216 84.3937 151.725 82.9965 152.155L81.9068 152.46C81.4928 152.558 81.0351 152.678 80.6538 152.743C79.8864 152.888 79.1116 152.99 78.3329 153.049C75.5631 153.232 72.7831 153.196 70.0191 152.94C64.7783 152.46 59.5832 151.571 54.481 150.281C53.8795 150.141 53.3503 149.785 52.9943 149.28C52.6383 148.776 52.4802 148.158 52.5501 147.544C52.6201 146.93 52.9133 146.364 53.3738 145.952C53.8343 145.541 54.43 145.313 55.0476 145.312H55.113C60.1689 145.247 65.2901 145.203 70.2152 144.953C72.5782 144.851 74.9326 144.604 77.265 144.212C77.799 144.103 78.3547 144.005 78.7469 143.874C78.9866 143.809 79.1501 143.732 79.3571 143.678L80.1199 143.394C81.1588 143 82.1738 142.545 83.1599 142.032C85.2086 140.969 87.1721 139.748 89.033 138.382C90.9725 137.02 92.8684 135.538 94.699 133.969C96.5296 132.4 98.2948 130.7 100.049 129.001C100.921 128.151 101.771 127.279 102.61 126.396C103.449 125.514 104.309 124.588 105.018 123.792L105.083 123.705C105.993 122.861 107.181 122.381 108.422 122.356C109.663 122.332 110.87 122.765 111.812 123.573C112.754 124.38 113.367 125.506 113.532 126.736C113.698 127.967 113.406 129.214 112.71 130.243L112.765 130.308Z" fill="#FFB573"/>
<path d="M99.8638 126.778C99.0502 127.955 98.1545 129.072 97.1833 130.123C97.1833 130.123 100.768 140.943 107.382 143.885C107.964 143.61 108.478 143.209 108.887 142.712C109.296 142.214 109.59 141.633 109.747 141.008L99.8638 126.778Z" fill="#263238"/>
<path d="M110.477 119.009C103.362 119.434 101.041 123.476 98.5781 127.824C100.757 134.024 109.812 143.983 109.812 143.983C109.812 143.983 123.4 118.246 110.477 119.009Z" fill="#F76754"/>
<path d="M58.2183 146.62L50.4929 139.243L49.8718 149.279C49.8718 149.279 55.2328 152.678 58.8176 150.662L58.2183 146.62Z" fill="#FFB573"/>
<path d="M44.0207 140.485L43.0291 145.116C42.9095 145.686 43.0136 146.28 43.3199 146.774C43.6262 147.269 44.1112 147.628 44.6744 147.775L49.8719 149.278L50.493 139.243L45.9275 139.025C45.4885 139.004 45.0564 139.14 44.7075 139.407C44.3585 139.674 44.1153 140.056 44.0207 140.485Z" fill="#FFB573"/>
<path d="M155.391 391.687C154.072 390.336 149.049 388.56 149.049 388.56C149.049 388.56 144.495 385.77 140.768 374.1C140.725 373.961 140.648 373.835 140.543 373.734C140.438 373.633 140.309 373.561 140.169 373.523L131.594 371.474C131.477 371.439 131.355 371.428 131.235 371.443C131.114 371.459 130.998 371.5 130.895 371.564C130.792 371.628 130.703 371.714 130.636 371.815C130.568 371.916 130.523 372.03 130.504 372.15C130.366 373.036 130.311 373.934 130.341 374.83C130.341 375.92 130.341 377.642 130.341 378.742C130.417 382.806 130.864 391.948 130.864 391.948H131.844C131.848 389.177 132.019 386.408 132.356 383.656C132.825 380.976 134.721 384.147 135.778 387.176C136.835 390.205 141.095 393.43 147.284 393.583C154.563 393.757 156.775 393.092 155.391 391.687Z" fill="#263238"/>
<path d="M206.571 95.3095C205.521 94.8541 204.425 94.5143 203.302 94.2962L203.509 93.2065C204.715 93.4386 205.892 93.8041 207.017 94.2962L206.571 95.3095Z" fill="#F76754"/>
<path d="M212.476 96.5191V95.4294C215.059 95.5139 217.606 94.8066 219.776 93.4024C221.946 91.9982 223.634 89.9642 224.615 87.5732L225.628 87.9764C224.57 90.5728 222.743 92.7832 220.392 94.3104C218.041 95.8375 215.278 96.6083 212.476 96.5191Z" fill="#F76754"/>
<path d="M211.18 83.0184C207.437 80.2077 202.749 78.9614 198.104 79.5425L196.426 90.9181C198.769 89.6433 204.206 90.0464 208.172 91.8334C212.139 93.6204 219.559 92.9775 222.109 86.5705C217.075 89.458 214.863 85.7969 211.18 83.0184Z" fill="#F76754"/>
<path d="M190.826 129.316H190.738C190.66 129.305 190.585 129.277 190.518 129.236C190.45 129.195 190.392 129.141 190.345 129.077C190.298 129.014 190.265 128.941 190.246 128.865C190.228 128.788 190.225 128.708 190.237 128.63L197.756 77.5812C197.766 77.5032 197.792 77.4281 197.832 77.3602C197.872 77.2922 197.925 77.2327 197.987 77.1852C198.05 77.1376 198.121 77.1029 198.198 77.083C198.274 77.0631 198.353 77.0583 198.431 77.0691C198.588 77.0959 198.729 77.1821 198.824 77.3099C198.92 77.4377 198.962 77.5973 198.943 77.7556L191.414 128.804C191.395 128.947 191.325 129.078 191.217 129.172C191.108 129.266 190.969 129.318 190.826 129.316Z" fill="#263238"/>
<path d="M188.908 120.948C189.442 117.113 192.645 114.825 194.116 112.101C194.356 111.643 195.13 111.817 195.337 112.286C195.729 113.212 194.628 115.402 194.149 115.958C193.473 116.742 193.354 121.929 190.324 123.422C189.885 123.179 189.52 122.819 189.27 122.383C189.02 121.947 188.895 121.451 188.908 120.948Z" fill="#FFB573"/>
<path d="M108.962 167.181C108.718 167.89 108.535 168.619 108.417 169.36C108.405 169.438 108.408 169.517 108.427 169.593C108.445 169.669 108.479 169.74 108.526 169.803C108.572 169.866 108.631 169.919 108.699 169.959C108.766 169.999 108.841 170.025 108.918 170.036C112.928 170.548 136.453 173.381 147.11 171.583C147.243 171.558 147.363 171.488 147.45 171.385C147.537 171.282 147.586 171.152 147.589 171.016C147.589 170.352 147.676 169.317 147.72 168.663C147.726 168.584 147.716 168.505 147.69 168.431C147.664 168.357 147.624 168.288 147.571 168.23C147.518 168.172 147.453 168.125 147.381 168.093C147.31 168.06 147.232 168.043 147.153 168.042C143.449 168.042 123.977 167.813 109.54 166.821C109.418 166.814 109.297 166.845 109.194 166.909C109.09 166.974 109.009 167.069 108.962 167.181Z" fill="white"/>
<path d="M130.591 167.181C133.296 166.968 136.018 167.107 138.687 167.595C139.275 167.944 139.014 172.27 138.502 172.542C137.478 173.076 131.626 172.782 130.569 172.466C129.512 172.15 129.85 167.41 130.591 167.181Z" fill="#E0E0E0"/>
<path d="M118.769 71.5991C126.505 72.2638 122.561 89.0331 112.852 100.507C109.507 92.9884 109.529 79.5425 118.769 71.5991Z" fill="#263238"/>
<path d="M119.216 73.3208C126.592 78.3113 144.538 81.5039 142.316 76.7858C140.093 72.0678 122.277 61.6946 119.216 73.3208Z" fill="#263238"/>
<path d="M281.657 385.585L272.068 385.432L271.534 363.16L281.123 363.313L281.657 385.585Z" fill="#FF8B7B"/>
<path d="M271.697 382.534L282.168 382.697C282.356 382.695 282.538 382.762 282.68 382.884C282.823 383.006 282.916 383.176 282.942 383.362L284.293 391.926C284.321 392.138 284.304 392.353 284.241 392.558C284.179 392.762 284.073 392.951 283.932 393.111C283.79 393.271 283.616 393.399 283.421 393.486C283.226 393.573 283.014 393.617 282.8 393.615C279.019 393.484 273.582 393.179 268.832 393.103C263.274 393.016 263.819 393.245 257.314 393.103C253.37 393.038 252.531 389.039 254.209 388.745C261.836 387.219 262.588 387.143 269.333 383.296C270.035 382.828 270.854 382.564 271.697 382.534Z" fill="#263238"/>
<path opacity="0.2" d="M271.545 363.16L271.806 374.645L281.406 374.797L281.133 363.313L271.545 363.16Z" fill="black"/>
<path d="M269.997 383.383C270.038 383.372 270.073 383.347 270.099 383.314C270.124 383.281 270.138 383.24 270.139 383.198C270.144 383.152 270.136 383.106 270.114 383.065C270.093 383.024 270.06 382.991 270.019 382.969C269.572 382.74 265.661 380.714 264.495 381.346C264.39 381.408 264.303 381.496 264.24 381.6C264.177 381.705 264.141 381.823 264.135 381.945C264.128 382.15 264.166 382.354 264.247 382.543C264.328 382.731 264.45 382.899 264.604 383.035C265.693 383.983 268.428 383.645 269.965 383.361L269.997 383.383ZM264.778 381.716C265.497 381.476 267.622 382.305 269.137 383.056C267.023 383.372 265.443 383.263 264.833 382.729C264.728 382.638 264.645 382.524 264.592 382.395C264.539 382.267 264.517 382.127 264.527 381.989C264.526 381.939 264.539 381.891 264.564 381.848C264.589 381.806 264.625 381.771 264.669 381.749L264.778 381.716Z" fill="#F76754"/>
<path d="M269.998 383.384C269.998 383.384 269.998 383.384 270.052 383.384C270.084 383.363 270.109 383.333 270.125 383.298C270.14 383.264 270.145 383.225 270.139 383.187C270.139 383.078 269.78 380.485 268.527 379.461C268.173 379.16 267.715 379.011 267.252 379.047C266.631 379.101 266.456 379.417 266.424 379.668C266.282 380.758 268.657 382.871 269.834 383.405C269.889 383.42 269.948 383.412 269.998 383.384ZM267.077 379.515H267.306C267.475 379.498 267.646 379.516 267.807 379.568C267.969 379.621 268.117 379.707 268.243 379.82C268.987 380.653 269.465 381.689 269.616 382.795C268.407 382.065 266.794 380.409 266.881 379.766C266.881 379.679 266.892 379.581 267.077 379.515Z" fill="#F76754"/>
<path d="M287.453 267.034C299.167 218.001 310.27 196.753 305.868 172.433L272.013 172.836C272.013 172.836 258.665 239.51 261.509 268.265C264.451 298.153 268.777 367.737 268.777 367.737L284.228 367.954C284.228 367.954 293.228 300.42 287.453 267.034Z" fill="#F76754"/>
<path opacity="0.2" d="M289.175 260.049C295.429 235.064 301.302 217.685 304.43 203.127C282.43 211.038 284.304 238.409 289.175 260.049Z" fill="black"/>
<path d="M266.413 364.304L267.709 370.929L284.707 371.223L285.394 364.969L266.413 364.304Z" fill="#263238"/>
<path d="M336.018 385.585L326.407 385.432L323.236 363.16L332.847 363.313L336.018 385.585Z" fill="#FF8B7B"/>
<path d="M325.721 382.534L336.192 382.697C336.376 382.696 336.554 382.764 336.691 382.887C336.828 383.009 336.914 383.179 336.933 383.362L337.848 391.926C337.863 392.143 337.833 392.36 337.761 392.564C337.688 392.769 337.574 392.956 337.426 393.115C337.278 393.273 337.098 393.399 336.899 393.485C336.7 393.572 336.485 393.616 336.268 393.615C332.498 393.485 331.31 393.179 326.571 393.103C321.014 393.016 323.574 393.245 317.069 393.103C313.136 393.038 312.504 389.061 314.193 388.745C319.521 387.655 320.926 385.476 323.324 383.297C323.653 383.017 324.034 382.806 324.446 382.675C324.857 382.544 325.291 382.496 325.721 382.534Z" fill="#263238"/>
<path opacity="0.2" d="M323.247 363.16L324.871 374.645L334.492 374.797L332.858 363.313L323.247 363.16Z" fill="black"/>
<path d="M327.617 383.253C327.658 383.255 327.699 383.246 327.735 383.227C327.772 383.207 327.802 383.179 327.824 383.144C327.85 383.105 327.865 383.06 327.865 383.013C327.865 382.966 327.85 382.921 327.824 382.882C327.508 382.512 324.555 379.297 323.28 379.493C323.156 379.507 323.038 379.554 322.939 379.629C322.839 379.703 322.761 379.803 322.713 379.918C322.617 380.102 322.567 380.305 322.567 380.512C322.567 380.719 322.617 380.923 322.713 381.106C323.356 382.359 326.069 382.991 327.617 383.285V383.253ZM323.4 379.984C324.163 379.984 325.83 381.498 326.996 382.719C324.893 382.294 323.443 381.629 323.084 380.943C323.019 380.822 322.985 380.687 322.985 380.55C322.985 380.414 323.019 380.279 323.084 380.158C323.102 380.111 323.133 380.069 323.173 380.038C323.214 380.008 323.262 379.989 323.313 379.984H323.4Z" fill="#F76754"/>
<path d="M327.617 383.253H327.682C327.72 383.24 327.755 383.219 327.784 383.191C327.812 383.162 327.833 383.127 327.846 383.089C327.846 382.98 328.565 380.474 327.78 379.101C327.67 378.904 327.522 378.73 327.344 378.589C327.166 378.449 326.963 378.345 326.745 378.284C326.135 378.12 325.852 378.349 325.721 378.578C325.165 379.526 326.571 382.283 327.464 383.187C327.504 383.228 327.559 383.252 327.617 383.253ZM326.385 378.687C326.465 378.674 326.546 378.674 326.625 378.687C326.787 378.729 326.937 378.805 327.069 378.908C327.2 379.011 327.308 379.14 327.388 379.286C327.757 380.32 327.798 381.442 327.508 382.501C326.658 381.411 325.786 379.33 326.113 378.763C326.146 378.726 326.19 378.699 326.238 378.685C326.286 378.672 326.338 378.672 326.385 378.687Z" fill="#F76754"/>
<path d="M323.247 267.034C328.499 218.001 334.688 196.208 327.083 171.888L291.79 172.836C291.79 172.836 290.831 239.51 297.456 268.265C304.342 298.153 320.425 367.736 320.425 367.736L335.909 367.954C335.909 367.954 333.424 300.42 323.247 267.034Z" fill="#F76754"/>
<path d="M318.17 364.304L319.183 370.929L336.541 371.223L337.521 364.969L318.17 364.304Z" fill="#263238"/>
<path d="M281.319 96.7364C280.087 100.463 278.704 103.95 277.309 107.524C275.914 111.098 274.378 114.584 272.732 118.071C271.087 121.558 269.366 125.045 267.372 128.499C266.38 130.231 265.356 131.975 264.157 133.696C262.9 135.572 261.494 137.343 259.951 138.992L260.507 138.295C259.784 139.282 258.922 140.159 257.946 140.899C257.282 141.416 256.548 141.838 255.767 142.152C254.817 142.518 253.81 142.717 252.792 142.74C251.014 142.791 249.259 142.317 247.747 141.378C246.788 140.782 245.921 140.048 245.176 139.199C244.118 138.018 243.22 136.703 242.506 135.287C241.895 134.109 241.349 132.897 240.872 131.659C239.988 129.357 239.26 126.998 238.693 124.598C238.121 122.259 237.696 119.886 237.418 117.494C237.309 116.646 237.501 115.788 237.96 115.067C238.42 114.347 239.117 113.811 239.931 113.551C240.745 113.292 241.624 113.327 242.415 113.649C243.206 113.971 243.859 114.56 244.261 115.314L244.337 115.456C245.35 117.352 246.385 119.379 247.431 121.275C248.477 123.171 249.534 125.056 250.7 126.723C251.256 127.562 251.79 128.379 252.367 129.055C252.792 129.613 253.286 130.115 253.838 130.547C254.002 130.656 254.111 130.645 253.926 130.493C253.403 130.131 252.774 129.954 252.139 129.992C251.688 129.991 251.242 130.073 250.82 130.231C250.657 130.283 250.5 130.352 250.352 130.438C250.25 130.485 250.151 130.54 250.057 130.602C249.741 130.809 249.741 130.82 249.785 130.7L250.319 130.035C251.23 128.883 252.057 127.667 252.792 126.396C253.61 124.968 254.427 123.454 255.2 121.896C255.974 120.338 256.726 118.736 257.456 117.112C258.186 115.489 258.927 113.843 259.635 112.176C261.041 108.853 262.403 105.475 263.743 102.076C265.083 98.6759 266.38 95.2218 267.644 91.9093V91.8222C268.32 90.0414 269.668 88.5969 271.398 87.7985C273.127 87.0001 275.101 86.9116 276.895 87.552C278.689 88.1923 280.16 89.5104 280.994 91.2235C281.827 92.9365 281.955 94.9079 281.351 96.7146L281.319 96.7364Z" fill="#FF8B7B"/>
<path d="M240.436 121.95L230.063 118.976L237.538 110.052C237.538 110.052 246.255 112.634 244.882 118.06L240.436 121.95Z" fill="#FF8B7B"/>
<path d="M226.718 112.416L229.256 108.297C229.472 107.95 229.756 107.65 230.09 107.415C230.424 107.18 230.802 107.014 231.202 106.928C231.601 106.841 232.014 106.836 232.415 106.912C232.817 106.988 233.199 107.145 233.539 107.371L237.538 110.052L230.03 118.965L227.164 116.197C226.674 115.71 226.363 115.071 226.282 114.385C226.201 113.698 226.354 113.004 226.718 112.416Z" fill="#FF8B7B"/>
<path d="M271.011 83.0181C262.065 89.5558 258.655 108.809 258.655 108.809L278.616 118.017C278.616 118.017 282.441 113.157 284.261 102.849C284.816 99.722 280.109 76.4041 271.011 83.0181Z" fill="#263238"/>
<path d="M276.481 80.5663C287.086 78.4716 297.936 77.9065 308.701 78.8883C311.616 79.1022 314.387 80.2404 316.611 82.1372C318.836 84.0341 320.397 86.5908 321.068 89.4358C324.25 102.991 329.687 129.752 327.813 172.432C322.899 174.492 308.036 175.701 296.159 175.876C294.863 175.876 291.452 173.152 291.452 173.152C291.452 173.152 288.848 175.865 287.192 175.81C279.292 175.549 272.939 174.721 271.37 173.337C267.491 165.949 263.743 146.685 270.76 128.542C269.943 118.126 266.87 106.587 265.726 95.4288C265.368 92.0608 266.268 88.6793 268.254 85.9354C270.239 83.1915 273.17 81.279 276.481 80.5663Z" fill="#263238"/>
<path d="M291.63 136.264L288.965 136.773C288.226 136.914 287.742 137.627 287.883 138.366L287.999 138.976C288.14 139.715 288.854 140.2 289.592 140.059L292.257 139.55C292.996 139.409 293.481 138.695 293.34 137.956L293.223 137.346C293.082 136.608 292.369 136.123 291.63 136.264Z" fill="white"/>
<path d="M294.425 136.9L272.741 141.04C271.636 141.251 270.911 142.318 271.122 143.424L273.38 155.25C273.591 156.356 274.658 157.081 275.764 156.87L297.448 152.729C298.553 152.518 299.278 151.451 299.067 150.346L296.809 138.519C296.598 137.414 295.531 136.689 294.425 136.9Z" fill="#F76754"/>
<path d="M289.942 138.498L273.652 141.609C272.547 141.82 271.822 142.887 272.033 143.992L274.019 154.395C274.23 155.501 275.298 156.226 276.403 156.015L292.693 152.904C293.798 152.693 294.523 151.626 294.312 150.521L292.326 140.117C292.115 139.012 291.047 138.287 289.942 138.498Z" fill="#263238"/>
<path d="M290.056 139.741L288.268 140.082C287.943 140.144 287.73 140.458 287.792 140.783L287.917 141.436C287.979 141.761 288.293 141.974 288.618 141.912L290.405 141.571C290.73 141.509 290.944 141.195 290.881 140.87L290.757 140.217C290.695 139.892 290.381 139.679 290.056 139.741Z" fill="white"/>
<path d="M286.325 140.473L285.362 140.657C285.037 140.719 284.824 141.033 284.886 141.358L285.01 142.011C285.072 142.336 285.386 142.549 285.711 142.487L286.675 142.304C287 142.242 287.213 141.928 287.151 141.603L287.026 140.95C286.964 140.625 286.651 140.411 286.325 140.473Z" fill="#F76754"/>
<path opacity="0.7" d="M281.569 142.675L277.015 143.547L278.823 152.972L283.367 152.111C285.546 151.697 286.908 149.245 286.407 146.663C285.906 144.081 283.749 142.261 281.569 142.675Z" fill="white"/>
<path d="M281.864 147.513C282.365 150.117 281.003 152.558 278.823 152.961C276.644 153.364 274.465 151.61 273.975 149.006C273.484 146.402 274.846 143.95 277.015 143.558C279.183 143.165 281.362 144.92 281.864 147.513Z" fill="white"/>
<path d="M280.665 147.741C280.671 148.344 280.504 148.936 280.186 149.448C279.867 149.959 279.409 150.37 278.866 150.63C278.322 150.891 277.716 150.991 277.117 150.92C276.519 150.848 275.953 150.607 275.487 150.226C275.02 149.844 274.672 149.338 274.483 148.765C274.294 148.193 274.272 147.578 274.42 146.994C274.568 146.41 274.879 145.88 275.318 145.466C275.756 145.052 276.303 144.772 276.895 144.658C277.802 144.575 278.705 144.852 279.41 145.429C280.115 146.006 280.566 146.836 280.665 147.741Z" fill="#F76754"/>
<path d="M285.732 109.322C282.735 109.322 280.523 106.99 279.357 102.577C277.178 94.2196 279.237 80.7846 282.256 79.0957C282.29 79.0766 282.328 79.0646 282.366 79.0603C282.405 79.0561 282.445 79.0596 282.482 79.0708C282.52 79.082 282.555 79.1005 282.585 79.1254C282.615 79.1502 282.64 79.1809 282.659 79.2155C282.678 79.2491 282.691 79.2862 282.696 79.3247C282.701 79.3632 282.698 79.4023 282.688 79.4398C282.678 79.4773 282.661 79.5124 282.637 79.5431C282.613 79.5738 282.584 79.5995 282.55 79.6187C280 81.0788 277.679 93.9145 279.935 102.424C280.697 105.301 282.321 108.722 285.732 108.722C291.463 108.722 296.094 99.6459 297.815 95.7451C301.03 88.4555 302.61 80.3487 301.084 78.7143C301.045 78.6535 301.029 78.5808 301.039 78.5093C301.049 78.4378 301.084 78.3721 301.137 78.3237C301.191 78.2754 301.26 78.2476 301.332 78.2453C301.404 78.243 301.474 78.2663 301.531 78.3111C303.383 80.3487 301.378 89.0875 298.328 95.9848C296.595 99.9946 291.823 109.322 285.732 109.322Z" fill="white"/>
<path d="M273.375 34.5955C274.879 30.237 281.537 26.1509 281.537 26.1509C281.537 26.1509 297.336 26.4124 304.778 38.7796C306.554 43.0727 303.187 50.2424 303.187 50.2424L273.375 34.5955Z" fill="#263238"/>
<path d="M311.363 54.644C313.562 48.9634 304.093 40.003 290.213 34.6303C276.334 29.2576 263.3 29.5071 261.101 35.1877C258.902 40.8682 268.371 49.8286 282.25 55.2013C296.13 60.574 309.164 60.3245 311.363 54.644Z" fill="#F76754"/>
<path d="M294.198 61.4761C295.157 68.6131 296.617 76.9051 301.662 80.9476C300.607 83.7211 298.759 86.1227 296.349 87.853C293.939 89.5833 291.072 90.5658 288.107 90.678C280.48 91.0702 281.635 84.9683 282.899 81.7431C286.168 78.0928 284.588 74.0394 283.77 71.1628L294.198 61.4761Z" fill="#FF8B7B"/>
<path opacity="0.2" d="M292.019 64.963C292.019 64.5053 291.899 64.0586 291.833 63.6118L283.705 71.1629C284.431 73.115 284.8 75.1819 284.794 77.2648C288.848 74.5625 292.542 69.2997 292.019 64.963Z" fill="black"/>
<path d="M296.846 51.0921C295.647 60.5391 295.418 66.1289 290.308 70.6399C282.615 77.4283 271.185 72.209 269.54 62.5767C268.058 53.8597 270.27 39.9126 279.804 36.8289C281.917 36.1317 284.173 35.9852 286.359 36.4034C288.544 36.8217 290.587 37.7907 292.293 39.2189C294 40.6471 295.314 42.4871 296.11 44.5648C296.907 46.6426 297.16 48.8892 296.846 51.0921Z" fill="#FF8B7B"/>
<path opacity="0.2" d="M284.119 52.3015C285.345 51.682 286.767 51.5723 288.074 51.9964C286.787 52.3503 285.445 52.4538 284.119 52.3015Z" fill="black"/>
<path opacity="0.2" d="M284.25 53.2717C284.85 53.1109 285.479 53.0842 286.091 53.1934C286.703 53.3026 287.283 53.5451 287.791 53.9037C286.579 53.9441 285.373 53.7288 284.25 53.2717Z" fill="black"/>
<path d="M294.198 60.2667C293.192 60.3374 292.183 60.1867 291.242 59.8252C290.3 59.4638 289.45 58.9003 288.75 58.1746C288.75 58.1746 293.283 54.7859 292.487 51.1465C291.692 47.5072 290.101 45.2081 291.496 43.5192C284.664 44.6088 270.455 44.7831 267.066 41.3399C269.115 41.7867 271.011 40.1849 272.406 40.6861C272.95 39.0408 277.723 33.7344 288.75 36.7853C296.127 38.8229 298.676 45.9708 298.121 48.5641C299.396 49.5993 302.392 57.1721 294.198 60.2667Z" fill="#E0E0E0"/>
<path d="M265.53 63.8082C265.53 63.8082 268.243 70.0735 273.408 67.077C278.126 69.18 282.572 66.2925 284.446 62.5878C281.526 63.83 278.889 59.7984 274.705 60.1035C274.224 60.1629 273.78 60.3907 273.452 60.7463C273.024 60.4962 272.541 60.3541 272.046 60.3323C269.071 60.5284 269.562 63.8409 265.53 63.8082Z" fill="#E0E0E0"/>
<path d="M299.439 60.9425C298.805 61.9402 297.98 62.8025 297.012 63.4795C296.043 64.1566 294.95 64.6349 293.795 64.8869C290.689 65.5407 289.316 62.7077 290.33 59.8856C291.234 57.3467 293.947 53.9471 296.998 54.5573C300.049 55.1675 300.986 58.4582 299.439 60.9425Z" fill="#FF8B7B"/>
<path d="M281.722 52.9882C281.667 53.7618 281.221 54.3611 280.719 54.3284C280.218 54.2958 279.837 53.6311 279.891 52.8575C279.946 52.0838 280.392 51.4845 280.894 51.5281C281.395 51.5717 281.776 52.2255 281.722 52.9882Z" fill="#263238"/>
<path d="M272.068 52.5743C272.013 53.3479 271.566 53.9472 271.065 53.9036C270.564 53.8601 270.183 53.2063 270.237 52.4435C270.292 51.6808 270.738 51.0706 271.24 51.1033C271.741 51.136 272.122 51.8007 272.068 52.5743Z" fill="#263238"/>
<path d="M272.918 52.6724C273.029 52.6751 273.136 52.7208 273.215 52.7999C273.294 52.879 273.34 52.9855 273.343 53.0973V56.6604C273.34 56.7722 273.294 56.8787 273.215 56.9578C273.136 57.0369 273.029 57.0826 272.918 57.0853H267.219C267.106 57.0853 266.998 57.0406 266.918 56.9609C266.839 56.8812 266.794 56.7731 266.794 56.6604V53.1082C266.794 52.9955 266.839 52.8874 266.918 52.8077C266.998 52.728 267.106 52.6833 267.219 52.6833H272.918V52.6724ZM272.918 52.084H267.219C266.952 52.0996 266.701 52.2125 266.512 52.4013C266.323 52.5901 266.21 52.8417 266.195 53.1082V56.6604C266.21 56.927 266.323 57.1785 266.512 57.3674C266.701 57.5562 266.952 57.6691 267.219 57.6846H272.918C273.189 57.6846 273.45 57.5767 273.642 57.3846C273.834 57.1926 273.942 56.932 273.942 56.6604V53.1082C273.942 52.8366 273.834 52.5761 273.642 52.384C273.45 52.1919 273.189 52.084 272.918 52.084Z" fill="#263238"/>
<path d="M284.5 52.6724C284.557 52.6709 284.613 52.6808 284.666 52.7015C284.719 52.7222 284.767 52.7533 284.808 52.7929C284.848 52.8325 284.881 52.8799 284.903 52.9322C284.925 52.9844 284.936 53.0406 284.936 53.0973V56.6604C284.936 56.7171 284.925 56.7733 284.903 56.8256C284.881 56.8779 284.848 56.9252 284.808 56.9648C284.767 57.0044 284.719 57.0355 284.666 57.0562C284.613 57.0769 284.557 57.0868 284.5 57.0853H277.113C277.056 57.0868 277 57.0769 276.948 57.0561C276.896 57.0352 276.849 57.004 276.809 56.9642C276.769 56.9245 276.738 56.877 276.717 56.8248C276.696 56.7725 276.686 56.7166 276.688 56.6604V53.1082C276.686 53.052 276.696 52.9961 276.717 52.9438C276.738 52.8916 276.769 52.8442 276.809 52.8044C276.849 52.7646 276.896 52.7334 276.948 52.7126C277 52.6917 277.056 52.6818 277.113 52.6833H284.5V52.6724ZM284.5 52.084H277.113C276.841 52.084 276.58 52.1919 276.388 52.384C276.196 52.5761 276.088 52.8366 276.088 53.1082V56.6604C276.088 56.932 276.196 57.1926 276.388 57.3846C276.58 57.5767 276.841 57.6846 277.113 57.6846H284.5C284.764 57.6734 285.014 57.5605 285.197 57.3697C285.379 57.1788 285.481 56.9247 285.481 56.6604V53.1082C285.481 52.8366 285.373 52.5761 285.181 52.384C284.989 52.1919 284.728 52.084 284.457 52.084H284.5Z" fill="#263238"/>
<path d="M273.833 53.8709L273.419 53.446C273.848 53.0833 274.385 52.872 274.946 52.8444C275.507 52.8168 276.062 52.9746 276.524 53.2934L276.23 53.8164C275.878 53.566 275.455 53.436 275.023 53.4458C274.591 53.4556 274.173 53.6047 273.833 53.8709Z" fill="#263238"/>
<path d="M274.868 53.5547C273.655 55.7757 272.141 57.8181 270.368 59.6239C271.567 61.0731 273.942 60.8116 273.942 60.8116L274.868 53.5547Z" fill="#FF5652"/>
<path d="M283.476 47.8563C283.554 47.8474 283.628 47.8213 283.694 47.78C283.793 47.7115 283.861 47.6077 283.886 47.4901C283.91 47.3725 283.888 47.25 283.825 47.148C283.447 46.5255 282.925 46.0027 282.303 45.6235C281.681 45.2443 280.977 45.0198 280.251 44.9688C280.129 44.9688 280.013 45.017 279.927 45.1028C279.841 45.1886 279.793 45.305 279.793 45.4264C279.793 45.5478 279.841 45.6642 279.927 45.75C280.013 45.8358 280.129 45.884 280.251 45.884C280.823 45.9307 281.376 46.112 281.864 46.4131C282.353 46.7142 282.763 47.1266 283.062 47.6165C283.101 47.6916 283.161 47.7541 283.234 47.7965C283.308 47.8389 283.391 47.8597 283.476 47.8563Z" fill="#263238"/>
<path d="M269.137 48.6404C269.209 48.6547 269.285 48.6502 269.355 48.6273C269.426 48.6044 269.489 48.5639 269.54 48.5096C269.929 48.0981 270.411 47.7847 270.945 47.5953C271.479 47.4059 272.051 47.3458 272.613 47.42C272.67 47.431 272.73 47.4304 272.788 47.4183C272.846 47.4062 272.9 47.3827 272.949 47.3493C272.998 47.3158 273.039 47.2731 273.071 47.2235C273.103 47.1739 273.125 47.1185 273.136 47.0604C273.158 46.942 273.133 46.8195 273.065 46.7196C272.998 46.6196 272.894 46.5502 272.776 46.5265C272.062 46.4309 271.336 46.5087 270.659 46.7534C269.982 46.998 269.374 47.4024 268.886 47.9321C268.843 47.9738 268.809 48.0238 268.785 48.079C268.762 48.1342 268.75 48.1936 268.75 48.2536C268.75 48.3136 268.762 48.373 268.785 48.4282C268.809 48.4834 268.843 48.5334 268.886 48.575C268.961 48.6224 269.048 48.6452 269.137 48.6404Z" fill="#263238"/>
<path d="M320.883 87.7469C322.06 89.3487 323.062 90.7652 324.043 92.3124C325.023 93.8597 325.993 95.3634 326.93 96.9107C328.826 99.9943 330.559 103.176 332.193 106.445C335.66 113.142 338.224 120.268 339.82 127.638C340.017 128.597 340.158 129.61 340.3 130.602L340.463 132.138C340.463 132.312 340.529 132.857 340.55 133.228C340.572 133.598 340.55 134.11 340.55 134.546C340.419 136.329 339.91 138.064 339.058 139.635C338.304 140.987 337.332 142.206 336.181 143.241C334.371 144.832 332.309 146.11 330.079 147.022C328.201 147.784 326.266 148.4 324.293 148.864C317.068 150.43 309.653 150.933 302.283 150.357C301.405 150.304 300.577 149.933 299.952 149.314C299.328 148.695 298.951 147.87 298.891 146.993C298.83 146.116 299.092 145.247 299.626 144.548C300.16 143.85 300.93 143.37 301.793 143.198H302C303.569 142.882 305.268 142.555 306.903 142.206C308.537 141.858 310.172 141.433 311.774 141.04C314.899 140.271 317.974 139.31 320.981 138.164C322.334 137.648 323.643 137.022 324.893 136.29C325.843 135.798 326.696 135.137 327.41 134.339C327.617 134.067 327.704 133.86 327.66 133.816C327.617 133.773 327.562 133.871 327.529 133.925C327.497 133.98 327.529 133.925 327.529 133.925C327.529 133.925 327.529 134.001 327.475 133.751L327.279 132.661C327.115 131.953 326.985 131.245 326.767 130.482C324.96 124.412 322.478 118.565 319.368 113.048C317.832 110.15 316.099 107.306 314.432 104.462C313.571 103.045 312.7 101.64 311.795 100.256C310.891 98.872 309.965 97.4228 309.126 96.2024L309.049 96.0934C308.018 94.5163 307.638 92.6004 307.99 90.749C308.342 88.8975 309.399 87.2548 310.937 86.1664C312.476 85.0781 314.377 84.629 316.24 84.9136C318.103 85.1982 319.783 86.1943 320.926 87.6924L320.883 87.7469Z" fill="#FF8B7B"/>
<path d="M312.111 79.5966C322.953 81.7758 331.964 100.506 331.964 100.506L319.706 118.856C314.434 114.641 310.046 109.428 306.794 103.514C305.312 100.724 301.106 77.3628 312.111 79.5966Z" fill="#263238"/>
<path d="M306.184 142.741L296.497 142.065L298.971 153.451C298.971 153.451 307.829 153.005 308.341 148.254L306.184 142.741Z" fill="#FF8B7B"/>
<path d="M288.848 148.591L290.395 152.438C290.694 153.178 291.245 153.788 291.952 154.159C292.658 154.53 293.473 154.639 294.252 154.464L298.992 153.375L296.519 141.988L290.787 144.168C290.365 144.325 289.979 144.566 289.652 144.875C289.325 145.185 289.063 145.557 288.882 145.969C288.702 146.382 288.605 146.827 288.599 147.277C288.593 147.727 288.678 148.174 288.848 148.591Z" fill="#FF8B7B"/>
<path d="M298.949 77.4175C299.178 79.5967 296.552 87.3766 287.388 90.6891C290.918 90.6891 292.466 95.211 292.466 95.211C292.466 95.211 304.626 88.7278 303.187 80.9043C302.988 79.9253 302.458 79.0447 301.686 78.4099C300.914 77.7751 299.948 77.4248 298.949 77.4175Z" fill="#F76754"/>
<path d="M284.544 78.0166C284.762 80.1958 282.277 84.6633 287.388 90.6889C283.846 90.6889 281.722 94.2411 281.722 94.2411C280.357 92.1076 279.551 89.6657 279.376 87.1393C279.2 84.613 279.662 82.0831 280.719 79.7818C281.782 78.8138 283.118 78.1974 284.544 78.0166Z" fill="#F76754"/>
<path d="M289.099 130.155H279.869C279.63 130.159 279.392 130.113 279.172 130.019C278.952 129.925 278.754 129.785 278.591 129.609C278.429 129.433 278.305 129.225 278.229 128.998C278.152 128.771 278.125 128.53 278.148 128.292L279.423 111.839C279.468 111.335 279.698 110.867 280.068 110.523C280.438 110.179 280.922 109.984 281.428 109.975H290.657C290.896 109.971 291.134 110.018 291.354 110.112C291.574 110.206 291.772 110.345 291.935 110.521C292.097 110.697 292.221 110.906 292.297 111.133C292.374 111.36 292.401 111.6 292.378 111.839L291.103 128.292C291.06 128.796 290.831 129.266 290.46 129.61C290.09 129.955 289.604 130.149 289.099 130.155Z" fill="white"/>
<path d="M286.451 111.762H284.718C284.673 111.762 284.629 111.753 284.588 111.736C284.547 111.718 284.51 111.692 284.479 111.659C284.448 111.626 284.425 111.588 284.41 111.545C284.395 111.503 284.388 111.458 284.391 111.414L284.631 108.319C284.639 108.224 284.683 108.135 284.754 108.07C284.824 108.006 284.917 107.97 285.012 107.97H286.745C286.79 107.969 286.835 107.977 286.877 107.994C286.919 108.011 286.957 108.037 286.988 108.07C287.019 108.103 287.043 108.143 287.057 108.185C287.072 108.228 287.077 108.274 287.072 108.319L286.832 111.414C286.822 111.508 286.777 111.596 286.707 111.66C286.637 111.724 286.546 111.76 286.451 111.762Z" fill="#F76754"/>
<path d="M428.331 113.484C438.9 124.697 448.707 128.892 448.053 142.784C452.956 150.608 450.897 172.204 442.387 176.661C433.877 181.117 409.763 177.946 409.763 177.946L428.331 113.484Z" fill="#263238"/>
<path d="M437.712 182.992H446.931C447.17 182.996 447.408 182.949 447.628 182.855C447.848 182.761 448.046 182.622 448.209 182.446C448.371 182.27 448.495 182.061 448.571 181.834C448.648 181.607 448.675 181.367 448.652 181.128L447.377 164.675C447.334 164.171 447.105 163.701 446.734 163.357C446.364 163.012 445.878 162.818 445.372 162.812H436.143C435.904 162.808 435.666 162.854 435.446 162.948C435.226 163.042 435.028 163.182 434.865 163.358C434.703 163.534 434.579 163.742 434.503 163.969C434.426 164.196 434.399 164.437 434.422 164.675L435.697 181.128C435.745 181.632 435.977 182.101 436.349 182.445C436.721 182.789 437.206 182.983 437.712 182.992Z" fill="white"/>
<path d="M446.931 183.264H437.712C437.136 183.255 436.583 183.034 436.16 182.641C435.738 182.249 435.475 181.714 435.424 181.139L434.149 164.697C434.125 164.418 434.159 164.138 434.249 163.874C434.339 163.609 434.483 163.366 434.672 163.16C434.86 162.958 435.087 162.797 435.341 162.688C435.594 162.58 435.868 162.525 436.143 162.528H445.372C445.956 162.543 446.514 162.774 446.937 163.177C447.36 163.58 447.618 164.125 447.661 164.708L448.936 181.161C448.963 181.439 448.932 181.72 448.843 181.986C448.755 182.251 448.611 182.494 448.422 182.7C448.232 182.906 448.002 183.069 447.745 183.18C447.488 183.29 447.21 183.345 446.931 183.34V183.264ZM436.143 163.084C435.942 163.082 435.743 163.122 435.559 163.201C435.374 163.281 435.209 163.399 435.073 163.547C434.937 163.695 434.834 163.87 434.771 164.061C434.708 164.251 434.685 164.453 434.705 164.653L435.98 181.107C436.02 181.54 436.219 181.944 436.539 182.239C436.859 182.535 437.277 182.702 437.712 182.708H446.931C447.132 182.712 447.333 182.674 447.519 182.595C447.704 182.515 447.871 182.398 448.008 182.25C448.145 182.101 448.249 181.926 448.313 181.734C448.377 181.543 448.4 181.34 448.38 181.139L447.105 164.697C447.067 164.261 446.869 163.855 446.549 163.557C446.229 163.259 445.81 163.091 445.372 163.084H436.143Z" fill="#F76754"/>
<path d="M440.349 164.588H442.093C442.137 164.588 442.181 164.579 442.222 164.561C442.262 164.543 442.299 164.517 442.328 164.484C442.358 164.451 442.381 164.412 442.395 164.37C442.408 164.328 442.413 164.283 442.409 164.239L442.169 161.145C442.161 161.051 442.119 160.964 442.05 160.899C441.982 160.835 441.892 160.798 441.798 160.796H440.055C440.011 160.796 439.967 160.805 439.926 160.823C439.885 160.841 439.849 160.867 439.819 160.9C439.789 160.933 439.767 160.971 439.753 161.014C439.739 161.056 439.734 161.1 439.739 161.145L439.979 164.239C439.987 164.333 440.029 164.42 440.097 164.484C440.166 164.549 440.255 164.585 440.349 164.588Z" fill="#F76754"/>
<path d="M402.071 237.952C400.981 249.763 400.251 262.643 400.349 275.675C401.145 288.957 400.948 305.923 400.349 322.191H379.417C378.785 306.108 378.121 289.992 377.522 279.216C375.974 250.886 371.507 183.22 371.507 183.22L388.374 183.482L410.352 183.841C406.513 201.697 403.747 219.766 402.071 237.952Z" fill="#263238"/>
<path opacity="0.2" d="M401.896 209.622C390.826 224.779 395.805 253.294 400.349 273.441C400.526 251.221 402.413 229.047 405.993 207.116L401.896 209.622Z" fill="black"/>
<path d="M434.836 273.495C429.54 231.621 427.579 193.43 421.303 184.07L388.374 183.536C388.374 183.536 395.381 211.006 402.082 238.017C405.797 252.934 409.404 267.709 411.692 277.647C414.242 288.739 417.696 305.639 420.954 322.256H441.537C439.499 304.931 438.649 285.961 434.836 273.495Z" fill="#263238"/>
<path d="M396.252 378.099C396.252 378.099 398.192 351.229 399.074 322.191H380.725C381.673 350.053 384.288 377.892 384.288 377.892L396.252 378.099Z" fill="#7F3E3B"/>
<path d="M431.414 375.103L444.217 375.31C444.217 375.31 443.128 349.573 440.36 322.191H422.774C427.296 348.996 431.414 375.103 431.414 375.103Z" fill="#7F3E3B"/>
<path d="M378.775 326.636L377.685 317.451L401.864 316.971L400.578 325.961C393.542 328.362 385.946 328.597 378.775 326.636Z" fill="#F76754"/>
<path d="M421.204 326.636L419.505 317.451L442.833 316.971L442.136 325.961C442.136 325.961 433.408 329.927 421.204 326.636Z" fill="#F76754"/>
<path d="M386.467 111.229C386.13 114.345 385.705 117.407 385.247 120.491C384.789 123.575 384.299 126.636 383.743 129.698C383.188 132.76 382.654 135.822 382.033 138.884C381.412 141.946 380.78 145.018 380.093 148.091L379.919 148.865C379.883 149.024 379.836 149.181 379.777 149.333C378.579 152.362 377.238 155.25 375.876 158.05C374.514 160.851 373.043 163.662 371.518 166.418C369.992 169.175 368.467 171.867 366.843 174.536C365.22 177.206 363.574 179.821 361.744 182.414C361.16 183.28 360.284 183.907 359.276 184.182C358.268 184.456 357.195 184.359 356.253 183.909C355.31 183.459 354.56 182.685 354.14 181.729C353.72 180.773 353.658 179.697 353.964 178.699V178.633C354.803 175.713 355.751 172.782 356.666 169.916L359.488 161.199L362.278 152.613C363.193 149.769 364.043 146.936 364.849 144.168L364.533 145.421L365.547 136.28C365.884 133.229 366.244 130.167 366.636 127.116C367.029 124.065 367.399 121.003 367.813 117.941C368.227 114.879 368.663 111.828 369.175 108.81C369.612 106.633 370.863 104.704 372.674 103.418C374.484 102.132 376.717 101.585 378.917 101.889C381.117 102.194 383.118 103.327 384.511 105.056C385.904 106.786 386.584 108.982 386.413 111.196L386.467 111.229Z" fill="#7F3E3B"/>
<path d="M354.792 177.336L350.052 185.476L361.025 188.2C361.025 188.2 364.413 180.3 360.513 177.816L354.792 177.336Z" fill="#7F3E3B"/>
<path d="M352.471 194.966L356.481 195.271C357.253 195.33 358.021 195.112 358.647 194.657C359.274 194.202 359.719 193.539 359.902 192.787L360.992 188.2L350.02 185.476L349.442 191.392C349.4 191.827 349.446 192.266 349.577 192.682C349.707 193.099 349.92 193.485 350.202 193.819C350.485 194.152 350.831 194.425 351.221 194.622C351.61 194.819 352.035 194.936 352.471 194.966Z" fill="#7F3E3B"/>
<path d="M415.713 99.4607C403.808 97.735 391.749 97.333 379.755 98.2621C377.026 98.4925 374.472 99.7028 372.565 101.67C370.658 103.636 369.528 106.227 369.382 108.962C368.783 121.526 368.369 146.587 371.43 183.187C376.508 188.962 399.249 191.218 421.259 183.994C423.371 162.851 426.565 141.83 430.826 121.013C431.355 118.597 431.378 116.096 430.891 113.67C430.405 111.244 429.42 108.946 428 106.92C426.579 104.894 424.754 103.185 422.639 101.901C420.524 100.617 418.165 99.7863 415.713 99.4607Z" fill="#F76754"/>
<path d="M384.484 97.9356C384.291 98.1484 384.113 98.3741 383.95 98.6112C382.36 101.019 382.033 103.547 383.057 105.541C384.31 107.96 387.296 109.268 391.916 109.409H393.081C399.121 109.453 405.036 107.692 410.069 104.354C410.954 103.787 411.679 103.003 412.173 102.075C412.667 101.148 412.914 100.109 412.891 99.0579C403.472 97.8667 393.968 97.4912 384.484 97.9356Z" fill="white"/>
<path d="M410.646 76.1978L394.727 86.2986C396.002 91.4089 396.056 96.7589 388.243 98.3498C387.768 98.4384 387.315 98.6208 386.911 98.8865C386.507 99.1522 386.16 99.4957 385.89 99.897C383.972 102.785 383.711 106.827 391.992 107.099C397.953 107.363 403.844 105.726 408.816 102.425C409.6 101.934 410.176 101.172 410.433 100.283C410.69 99.3948 410.611 98.4426 410.21 97.6088C407.246 91.8338 409.033 81.9401 410.646 76.1978Z" fill="#7F3E3B"/>
<path opacity="0.2" d="M404.152 80.3164L394.738 86.2984C395.065 87.5394 395.269 88.8094 395.348 90.0903C398.758 90.7114 403.858 87.7803 404.359 84.773C404.568 83.2875 404.498 81.7761 404.152 80.3164Z" fill="black"/>
<path d="M392.133 52.3022C388.472 55.2987 386.685 57.892 387.372 64.0375C388.058 70.1829 393.288 68.396 393.288 68.396L392.133 52.3022Z" fill="#263238"/>
<path d="M413.839 67.415C411.659 76.4044 410.908 81.7762 405.514 85.6008C397.396 91.3431 386.903 85.1322 386.315 75.6743C385.781 67.1535 389.366 53.8819 398.878 51.8988C400.986 51.4576 403.172 51.5586 405.23 52.1923C407.288 52.826 409.152 53.9717 410.647 55.5221C412.142 57.0724 413.219 58.9768 413.777 61.0568C414.335 63.1368 414.356 65.3245 413.839 67.415Z" fill="#7F3E3B"/>
<path d="M418.415 73.1902C418.906 74.8355 416.073 80.0548 412.39 78.878C408.369 73.4299 405.612 67.5568 409.317 62.9042C404.032 61.7056 385.519 59.4718 389.834 53.9148C390.815 50.9837 398.551 47.17 406.408 48.4667C414.264 49.7633 423.068 60.9101 418.415 73.1902Z" fill="#263238"/>
<path d="M418.415 73.1902C417.533 65.9115 409.698 57.0746 399.695 55.3857C393.452 54.2961 389.889 53.9147 389.889 53.9147C389.889 53.9147 388.342 51.1471 391.948 49.5563C392.101 46.429 420.387 38.1261 424.506 57.2817C425.988 64.2879 421.782 59.3846 421.782 59.3846C421.782 59.3846 425.051 71.9807 418.415 73.1902Z" fill="#F76754"/>
<path d="M416.595 77.102C415.885 78.0048 415.004 78.7583 414.001 79.3193C412.999 79.8803 411.896 80.2376 410.755 80.3709C407.693 80.6977 406.647 77.832 407.9 75.206C408.99 72.8416 411.975 69.8233 414.852 70.7168C417.729 71.6103 418.328 74.8574 416.595 77.102Z" fill="#7F3E3B"/>
<path d="M399.892 66.4669C399.761 67.2079 399.271 67.7309 398.802 67.6437C398.333 67.5566 398.039 66.881 398.159 66.151C398.279 65.4209 398.791 64.8761 399.249 64.9633C399.706 65.0504 400.033 65.7696 399.892 66.4669Z" fill="#263238"/>
<path d="M391.011 65.4972C390.88 66.2382 390.39 66.7612 389.921 66.674C389.453 66.5868 389.148 65.9113 389.278 65.1812C389.409 64.4512 389.91 63.9064 390.368 63.9935C390.826 64.0807 391.174 64.7563 391.011 65.4972Z" fill="#263238"/>
<path d="M393.855 66.7612C392.582 68.8589 391.023 70.7695 389.224 72.4382C389.665 72.8913 390.2 73.243 390.791 73.4688C391.382 73.6946 392.015 73.7891 392.646 73.7457L393.855 66.7612Z" fill="#630F0F"/>
<path d="M395.413 76.2738C396.253 76.3308 397.095 76.2131 397.886 75.928C398.678 75.6429 399.401 75.1967 400.011 74.6175C400.052 74.575 400.075 74.5184 400.075 74.4595C400.075 74.4007 400.052 74.3441 400.011 74.3016C399.971 74.2616 399.916 74.2393 399.859 74.2393C399.802 74.2393 399.747 74.2616 399.706 74.3016C399.018 74.9311 398.189 75.3879 397.289 75.6342C396.389 75.8805 395.444 75.9092 394.531 75.7181C394.471 75.7085 394.411 75.7226 394.362 75.7573C394.313 75.7919 394.28 75.8443 394.269 75.9033C394.265 75.932 394.266 75.9613 394.273 75.9895C394.279 76.0177 394.292 76.0442 394.309 76.0676C394.326 76.0909 394.348 76.1106 394.373 76.1254C394.398 76.1402 394.426 76.1499 394.454 76.1539C394.77 76.2184 395.091 76.2585 395.413 76.2738Z" fill="#263238"/>
<path d="M402.757 65.5736C402.833 65.5898 402.911 65.5898 402.986 65.5736C403.096 65.5362 403.188 65.4572 403.241 65.3534C403.294 65.2496 403.304 65.1292 403.269 65.0179C403.079 64.3394 402.726 63.7173 402.242 63.2049C401.758 62.6925 401.157 62.3051 400.491 62.0759C400.432 62.0492 400.368 62.0354 400.304 62.0356C400.24 62.0358 400.176 62.05 400.118 62.0771C400.059 62.1042 400.007 62.1436 399.965 62.1926C399.924 62.2416 399.893 62.2991 399.875 62.3611C399.858 62.4231 399.854 62.4882 399.864 62.5518C399.874 62.6154 399.898 62.6762 399.933 62.7298C399.969 62.7834 400.016 62.8287 400.071 62.8626C400.126 62.8964 400.187 62.918 400.251 62.9258C400.774 63.1189 401.244 63.4328 401.622 63.8417C402.001 64.2507 402.278 64.7433 402.43 65.2794C402.456 65.3519 402.499 65.4169 402.556 65.4683C402.613 65.5198 402.682 65.556 402.757 65.5736Z" fill="#263238"/>
<path d="M387.906 61.6185C387.977 61.6309 388.05 61.6254 388.118 61.6026C388.187 61.5797 388.248 61.5403 388.298 61.4877C388.658 61.0667 389.115 60.739 389.629 60.5322C390.143 60.3254 390.699 60.2458 391.251 60.3C391.366 60.3157 391.483 60.2858 391.577 60.2166C391.67 60.1474 391.733 60.0444 391.752 59.9295C391.768 59.8158 391.74 59.7003 391.673 59.6069C391.606 59.5136 391.505 59.4496 391.392 59.4283C390.696 59.3527 389.992 59.4459 389.34 59.7001C388.687 59.9542 388.106 60.3618 387.644 60.8884C387.564 60.9717 387.519 61.0831 387.519 61.199C387.519 61.3148 387.564 61.4262 387.644 61.5095C387.715 61.5763 387.808 61.615 387.906 61.6185Z" fill="#263238"/>
<path d="M431.73 109.191L432.351 110.281L432.896 111.283C433.256 111.937 433.583 112.602 433.909 113.255C434.563 114.574 435.152 115.903 435.729 117.254C436.873 119.966 437.87 122.738 438.715 125.557C440.562 131.47 441.467 137.636 441.395 143.83C441.395 144.669 441.33 145.432 441.264 146.173C441.264 146.5 441.199 147.066 441.134 147.633L441.003 148.603L440.785 149.616C440.4 151.214 439.712 152.723 438.758 154.062C437.707 155.515 436.34 156.711 434.759 157.559C433.462 158.26 432.054 158.732 430.597 158.954C429.451 159.131 428.288 159.175 427.132 159.085C425.314 158.957 423.516 158.628 421.771 158.104C418.84 157.186 416.016 155.955 413.348 154.432C410.807 153.013 408.383 151.392 406.102 149.583C405.31 148.961 404.758 148.084 404.54 147.1C404.322 146.117 404.451 145.088 404.905 144.189C405.36 143.29 406.112 142.576 407.033 142.169C407.955 141.762 408.989 141.687 409.96 141.956L410.232 142.032C415.037 143.329 420.213 144.778 424.397 145.04C425.31 145.125 426.23 145.085 427.132 144.92C427.764 144.811 427.96 144.495 427.285 144.713C426.861 144.888 426.487 145.165 426.195 145.519C426 145.75 425.832 146.003 425.694 146.271C425.677 146.086 425.677 145.9 425.694 145.715C425.694 145.127 425.694 144.549 425.596 144.048C425.084 139.532 424.015 135.096 422.414 130.842C421.629 128.597 420.714 126.353 419.755 124.13C419.276 123.04 418.764 121.951 418.252 120.861L417.478 119.237L416.77 117.777L416.541 117.32C415.668 115.306 415.587 113.037 416.314 110.966C417.041 108.895 418.522 107.174 420.462 106.148C422.402 105.121 424.658 104.864 426.779 105.429C428.901 105.993 430.731 107.336 431.905 109.191H431.73Z" fill="#7F3E3B"/>
<path d="M426.674 105.552C426.911 105.457 427.119 105.302 427.278 105.102C427.436 104.902 427.539 104.663 427.576 104.411C427.614 104.158 427.585 103.901 427.491 103.663C427.398 103.425 427.244 103.216 427.045 103.057C423.395 100.213 417.707 98.5567 414.961 98.6439C408.968 98.84 401.428 111.839 398.017 143.155C394.923 171.551 418.175 171.136 422.534 170.81C422.731 170.794 422.917 170.71 423.06 170.573C423.203 170.436 423.294 170.254 423.318 170.058L423.416 169.142C423.432 169.025 423.422 168.906 423.388 168.793C423.355 168.68 423.297 168.575 423.22 168.486C423.143 168.396 423.048 168.324 422.941 168.274C422.834 168.224 422.717 168.197 422.599 168.195C419.102 168.118 403.215 166.538 402.038 155.904C405.34 142.305 408.609 113.386 426.674 105.552Z" fill="#263238"/>
<path d="M412.793 143.83L405.481 137.87L401.123 148.276C401.123 148.276 408.391 152.874 411.452 149.366L412.793 143.83Z" fill="#7F3E3B"/>
<path d="M395.74 138.818L394.803 142.73C394.624 143.484 394.719 144.277 395.07 144.967C395.421 145.658 396.006 146.201 396.721 146.5L401.079 148.32L405.438 137.914L399.695 136.41C399.278 136.308 398.844 136.289 398.418 136.355C397.993 136.42 397.585 136.569 397.218 136.793C396.85 137.017 396.531 137.311 396.277 137.658C396.023 138.006 395.841 138.4 395.74 138.818Z" fill="#7F3E3B"/>
<path d="M399.02 389.41L397.592 389.039L360.916 388.233C359.75 389.486 361.134 393.616 366.429 393.616C371.725 393.616 379.853 393.42 385.301 393.42C390.749 393.42 392.482 393.616 397.592 393.616C399.074 393.616 399.979 391.458 399.02 389.41Z" fill="#F76754"/>
<path d="M398.017 376.356L399.27 389.257C399.287 389.505 399.252 389.754 399.169 389.988C399.085 390.222 398.955 390.436 398.786 390.618C398.616 390.8 398.411 390.945 398.184 391.044C397.956 391.144 397.71 391.196 397.462 391.197C391.828 391.197 388.254 391.012 382.795 390.924C376.421 390.826 372.422 391.404 364.937 391.284C360.415 391.219 359.739 386.795 361.668 386.239C370.766 383.515 375.833 381.663 380.464 376.214C380.464 376.214 375.92 372.041 378.513 369.753C381.106 367.465 390.118 367.007 390.652 369.753C390.962 371.481 390.884 373.256 390.423 374.95C390.423 374.95 395.533 373.251 398.017 376.356Z" fill="#263238"/>
<path d="M378.23 378.099C379.145 376.857 379.461 376.225 381.041 376.116C382.621 376.007 388.385 376.617 389.039 378.23C389.136 378.562 389.153 378.912 389.088 379.252C389.023 379.592 388.878 379.911 388.665 380.184C388.452 380.456 388.177 380.674 387.863 380.82C387.549 380.965 387.205 381.033 386.86 381.02C385.868 380.714 377.26 379.451 378.23 378.099Z" fill="#F76754"/>
<path d="M373.61 381.226C373.886 380.697 374.31 380.259 374.83 379.965C375.35 379.671 375.945 379.534 376.541 379.57C377.892 379.657 382.763 380.878 383.22 382.436C383.678 383.994 382.011 385.269 381.194 384.746C380.376 384.223 372.989 382.458 373.61 381.226Z" fill="#F76754"/>
<path d="M447.377 389.41L445.95 389.039L413.076 388.233C411.91 389.486 413.294 393.616 418.524 393.616C423.754 393.616 428.156 393.42 433.604 393.42C439.053 393.42 440.785 393.616 445.895 393.616C447.421 393.616 448.325 391.458 447.377 389.41Z" fill="#F76754"/>
<path d="M443.879 374.612C444.598 374.826 445.235 375.253 445.706 375.837C446.177 376.421 446.459 377.133 446.516 377.881L447.606 389.235C447.622 389.483 447.588 389.732 447.504 389.966C447.421 390.2 447.291 390.414 447.121 390.596C446.952 390.778 446.747 390.923 446.519 391.022C446.291 391.122 446.046 391.174 445.797 391.175C440.164 391.175 443.487 390.989 438.028 390.902C431.654 390.804 424.56 391.382 417.075 391.262C412.553 391.196 411.899 386.849 413.806 386.217C425.683 382.174 428.461 376.89 431.164 376.192C431.164 376.192 427.644 371.365 430.237 369.066C432.831 366.767 440.164 367.203 441.362 369.731C442.888 373 441.134 374.928 441.134 374.928C441.976 374.478 442.957 374.365 443.879 374.612Z" fill="#263238"/>
<path d="M427.612 377.282C428.494 376.073 428.778 375.462 430.51 375.266C432.243 375.07 438.66 375.266 439.554 376.683C440.447 378.099 438.53 379.668 437.451 379.396C436.372 379.123 426.685 378.557 427.612 377.282Z" fill="#F76754"/>
<path d="M423.863 380.725C424.152 380.216 424.562 379.785 425.055 379.469C425.549 379.154 426.112 378.964 426.696 378.917C428.309 378.917 434.836 379.407 435.642 380.878C435.778 381.183 435.831 381.52 435.794 381.852C435.757 382.185 435.632 382.502 435.433 382.77C435.233 383.038 434.966 383.249 434.658 383.38C434.35 383.511 434.013 383.557 433.681 383.515C432.7 383.188 423.035 381.957 423.863 380.725Z" fill="#F76754"/>
<path d="M361.689 185.236C360.632 185.173 359.605 184.859 358.693 184.321C355.206 182.512 353.136 180.398 353.147 178.666C353.145 178.306 353.247 177.954 353.44 177.65C353.633 177.347 353.91 177.106 354.236 176.955C354.306 176.924 354.385 176.92 354.458 176.944C354.531 176.968 354.592 177.019 354.629 177.086C354.663 177.155 354.668 177.235 354.644 177.309C354.619 177.382 354.567 177.443 354.498 177.478C354.26 177.572 354.055 177.736 353.912 177.948C353.768 178.16 353.691 178.41 353.692 178.666C353.692 179.832 355.054 181.793 358.922 183.798C360.894 184.822 362.267 184.942 362.91 184.136C363.148 183.731 363.274 183.27 363.274 182.801C363.274 182.331 363.148 181.87 362.91 181.466C362.883 181.44 362.862 181.408 362.847 181.374C362.833 181.339 362.826 181.302 362.826 181.265C362.826 181.227 362.833 181.19 362.847 181.155C362.862 181.121 362.883 181.089 362.91 181.063C362.965 181.008 363.039 180.978 363.117 180.978C363.194 180.978 363.269 181.008 363.324 181.063C363.65 181.572 363.823 182.164 363.823 182.768C363.823 183.373 363.65 183.965 363.324 184.473C363.129 184.718 362.88 184.914 362.596 185.047C362.313 185.179 362.002 185.244 361.689 185.236Z" fill="#263238"/>
</svg>
