<svg width="830" height="843" viewBox="0 0 830 843" fill="none" xmlns="http://www.w3.org/2000/svg">
<path d="M238.833 416.223H795.663C799.193 416.289 802.697 415.599 805.939 414.201C809.181 412.803 812.086 410.728 814.461 408.116C816.836 405.503 818.626 402.413 819.71 399.053C820.793 395.693 821.147 392.14 820.746 388.632L790.772 46.7083C790.036 39.2487 786.588 32.3188 781.082 27.2331C775.575 22.1473 768.393 19.2595 760.899 19.1176H204.068C200.538 19.0519 197.035 19.7412 193.793 21.1394C190.551 22.5377 187.645 24.6125 185.27 27.2249C182.896 29.8374 181.106 32.9272 180.022 36.2873C178.939 39.6475 178.585 43.2005 178.986 46.7083L208.909 388.758C209.675 396.203 213.143 403.11 218.657 408.171C224.171 413.232 231.349 416.097 238.833 416.223Z" fill="#263238"/>
<path opacity="0.7" d="M238.833 416.223H795.663C799.193 416.289 802.697 415.599 805.939 414.201C809.181 412.803 812.086 410.728 814.461 408.116C816.836 405.503 818.626 402.413 819.71 399.053C820.793 395.693 821.147 392.14 820.746 388.632L790.772 46.7083C790.036 39.2487 786.588 32.3188 781.082 27.2331C775.575 22.1473 768.393 19.2595 760.899 19.1176H204.068C200.538 19.0519 197.035 19.7412 193.793 21.1394C190.551 22.5377 187.645 24.6125 185.27 27.2249C182.896 29.8374 181.106 32.9272 180.022 36.2873C178.939 39.6475 178.585 43.2005 178.986 46.7083L208.909 388.758C209.675 396.203 213.143 403.11 218.657 408.171C224.171 413.232 231.349 416.097 238.833 416.223Z" fill="white"/>
<path d="M239.435 381.234H782.395L752.271 37.0527H209.311L239.435 381.234Z" fill="#F5A17B"/>
<path d="M247.009 408.172H803.84C807.37 408.237 810.873 407.548 814.115 406.15C817.357 404.752 820.263 402.677 822.638 400.064C825.013 397.452 826.802 394.362 827.886 391.002C828.97 387.642 829.323 384.089 828.922 380.581L798.823 38.6319C798.058 31.1907 794.594 24.2876 789.085 19.2271C783.576 14.1665 776.404 11.2991 768.925 11.1666H212.095C208.576 11.1031 205.085 11.7896 201.853 13.1804C198.62 14.5712 195.721 16.6344 193.348 19.2327C190.976 21.831 189.183 24.9049 188.091 28.2498C186.998 31.5947 186.63 35.1339 187.012 38.6319L216.91 380.681C217.679 388.159 221.172 395.092 226.722 400.162C232.272 405.231 239.493 408.082 247.009 408.172Z" fill="#F5A17B"/>
<path d="M239.435 381.234H782.395L752.271 37.0527H209.311L239.435 381.234Z" fill="#F5A17B"/>
<path opacity="0.4" d="M239.435 381.76H782.395L752.271 37.5781H209.311L239.435 381.76Z" fill="white"/>
<path d="M754.98 68.58H212.045L209.311 37.5781H752.271L754.98 68.58Z" fill="#F5A17B"/>
<path opacity="0.5" d="M754.98 68.58H212.045L209.311 37.5781H752.271L754.98 68.58Z" fill="black"/>
<path d="M247.612 93.1618L247.813 95.4694H251.877L252.027 97.0997H247.964L248.24 100.31H246.208L245.43 91.5063H252.027L252.177 93.1618H247.612Z" fill="#F5A17B"/>
<path d="M252.955 91.5053C252.943 91.3561 252.964 91.2061 253.017 91.0661C253.07 90.9261 253.154 90.7998 253.262 90.6964C253.37 90.593 253.5 90.5151 253.642 90.4684C253.785 90.4218 253.935 90.4075 254.084 90.4268C254.396 90.3984 254.706 90.4925 254.95 90.6892C255.193 90.8858 255.35 91.1696 255.388 91.4802C255.404 91.6323 255.386 91.786 255.334 91.9301C255.283 92.0742 255.201 92.2051 255.092 92.3132C254.984 92.4213 254.853 92.504 254.709 92.5551C254.565 92.6063 254.412 92.6247 254.26 92.609C253.941 92.6301 253.628 92.5268 253.384 92.3208C253.141 92.1149 252.987 91.8225 252.955 91.5053ZM253.357 93.5621H255.313L255.915 100.309H253.959L253.357 93.5621Z" fill="#F5A17B"/>
<path d="M261.334 93.4379L261.484 95.2689H261.033C259.954 95.2689 259.302 95.8709 259.402 97.1752L259.678 100.361H257.722L257.145 93.6134H259.001V94.4913C259.259 94.1225 259.612 93.83 260.023 93.6447C260.433 93.4593 260.886 93.3879 261.334 93.4379Z" fill="#F5A17B"/>
<path d="M262.411 99.6828L262.938 98.2782C263.702 98.7115 264.567 98.9364 265.446 98.9303C266.349 98.9303 266.65 98.6795 266.625 98.3032C266.625 97.1996 262.536 98.3032 262.311 95.6445C262.311 94.3653 263.289 93.4372 265.245 93.4372C266.166 93.4292 267.076 93.6353 267.904 94.0392L267.377 95.4438C266.761 95.1105 266.071 94.938 265.371 94.9422C264.493 94.9422 264.142 95.2181 264.167 95.5693C264.167 96.7231 268.255 95.5693 268.481 98.2531C268.481 99.5072 267.503 100.41 265.496 100.41C264.422 100.438 263.359 100.188 262.411 99.6828Z" fill="#F5A17B"/>
<path d="M274.098 99.9831C273.635 100.28 273.093 100.428 272.543 100.409C272.195 100.441 271.845 100.399 271.514 100.287C271.183 100.176 270.879 99.9958 270.622 99.7597C270.365 99.5235 270.159 99.2363 270.019 98.9162C269.879 98.5962 269.808 98.2505 269.809 97.9012L269.584 95.1672H268.555L268.405 93.6372H269.458L269.308 92.0068H271.264L271.415 93.6372H273.095L273.221 95.1672H271.54L271.791 97.9012C271.787 98.0207 271.808 98.1397 271.853 98.2508C271.897 98.362 271.963 98.4629 272.048 98.5474C272.132 98.632 272.233 98.6984 272.344 98.7425C272.455 98.7867 272.574 98.8076 272.694 98.8042C272.973 98.806 273.246 98.7181 273.471 98.5534L274.098 99.9831Z" fill="#F5A17B"/>
<path d="M286.214 91.5063L286.967 100.31H285.311L280.445 94.9677L280.922 100.31H278.915L278.138 91.5063H279.818L284.659 96.8489L284.183 91.5063H286.214Z" fill="#F5A17B"/>
<path d="M294.666 96.447L295.017 100.31H293.161V99.4569C292.957 99.7892 292.661 100.056 292.31 100.225C291.959 100.394 291.566 100.458 291.179 100.41C290.552 100.47 289.925 100.292 289.423 99.911C288.921 99.5299 288.581 98.9738 288.47 98.3533C288.47 97.1744 289.148 96.3467 291.204 96.3467H292.759C292.759 95.4939 292.132 95.0173 291.079 95.0173C290.397 94.9975 289.731 95.2196 289.198 95.6444L288.37 94.2649C289.204 93.6974 290.196 93.4078 291.204 93.4371C291.634 93.3843 292.069 93.4224 292.483 93.5488C292.897 93.6753 293.279 93.8873 293.605 94.1711C293.932 94.455 294.195 94.8043 294.378 95.1964C294.56 95.5884 294.658 96.0146 294.666 96.447ZM292.86 98.1777V97.4754H291.505C290.602 97.4754 290.326 97.8266 290.377 98.2781C290.427 98.7295 290.853 99.0807 291.555 99.0807C291.82 99.068 292.075 98.9747 292.286 98.8134C292.497 98.652 292.653 98.4303 292.734 98.1777H292.86Z" fill="#F5A17B"/>
<path d="M307.71 96.447L308.061 100.31H306.104L305.778 96.7479C305.778 95.6443 305.151 95.1427 304.374 95.1427C303.596 95.1427 302.919 95.7196 303.019 96.9235L303.32 100.31H301.364L301.063 96.7479C301.063 95.6443 300.461 95.1427 299.633 95.1427C298.805 95.1427 298.204 95.7196 298.304 96.9235L298.605 100.31H296.648L296.046 93.5625H297.928V94.315C298.177 94.023 298.489 93.792 298.841 93.6398C299.194 93.4876 299.576 93.4182 299.959 93.4371C300.408 93.4233 300.853 93.5161 301.259 93.708C301.664 93.8999 302.018 94.1853 302.292 94.5407C302.561 94.1805 302.915 93.8917 303.321 93.6994C303.728 93.507 304.175 93.417 304.625 93.4371C305.03 93.4123 305.436 93.4726 305.816 93.6141C306.197 93.7556 306.543 93.9751 306.834 94.2586C307.125 94.5421 307.353 94.8832 307.503 95.2601C307.654 95.637 307.725 96.0413 307.71 96.447Z" fill="#F5A17B"/>
<path d="M316.213 97.4758H311.196C311.34 97.898 311.62 98.2604 311.993 98.5057C312.365 98.751 312.809 98.8652 313.253 98.8303C313.556 98.8486 313.86 98.7997 314.141 98.6869C314.423 98.5742 314.677 98.4004 314.883 98.1781L316.037 99.3068C315.703 99.689 315.284 99.9878 314.814 100.179C314.343 100.371 313.835 100.45 313.328 100.41C312.321 100.481 311.325 100.156 310.553 99.5055C309.781 98.8547 309.292 97.9289 309.19 96.924C309.133 96.4699 309.178 96.009 309.32 95.5742C309.463 95.1393 309.699 94.7412 310.013 94.4082C310.327 94.0752 310.71 93.8156 311.136 93.6478C311.562 93.48 312.019 93.4082 312.476 93.4375C313.518 93.4703 314.505 93.9127 315.224 94.6686C315.942 95.4245 316.334 96.4332 316.313 97.4758H316.213ZM310.971 96.3471H314.307C314.215 95.9448 313.988 95.5859 313.664 95.3304C313.34 95.0748 312.938 94.9379 312.526 94.9425C312.33 94.9252 312.132 94.9486 311.946 95.011C311.759 95.0735 311.588 95.1739 311.442 95.3057C311.296 95.4375 311.179 95.5981 311.098 95.7772C311.017 95.9564 310.973 96.1504 310.971 96.3471Z" fill="#F5A17B"/>
<path d="M267.528 266.355L267.678 267.985H260.881L260.103 259.207H266.75L266.901 260.837H262.26L262.436 262.743H266.524L266.65 264.323H262.586L262.762 266.355H267.528Z" fill="#F5A17B"/>
<path d="M280.218 264.123L280.569 267.986H278.613L278.287 264.424C278.287 263.321 277.66 262.819 276.882 262.819C276.105 262.819 275.427 263.396 275.528 264.6L275.829 267.986H273.872L273.571 264.424C273.571 263.321 272.969 262.819 272.142 262.819C271.314 262.819 270.712 263.396 270.812 264.6L271.113 267.986H269.157L268.555 261.239H270.436V262.016C270.685 261.724 270.998 261.493 271.35 261.341C271.702 261.189 272.085 261.12 272.468 261.138C272.917 261.118 273.365 261.208 273.771 261.401C274.178 261.593 274.531 261.882 274.8 262.242C275.067 261.879 275.42 261.587 275.827 261.395C276.234 261.202 276.683 261.114 277.133 261.138C277.537 261.11 277.942 261.167 278.323 261.305C278.703 261.444 279.05 261.661 279.341 261.943C279.632 262.224 279.861 262.564 280.012 262.94C280.163 263.315 280.233 263.719 280.218 264.123Z" fill="#F5A17B"/>
<path d="M287.945 264.123L288.296 267.985H286.465V267.133C286.261 267.465 285.965 267.731 285.614 267.9C285.263 268.069 284.87 268.134 284.483 268.086C283.856 268.146 283.229 267.968 282.727 267.587C282.225 267.205 281.885 266.649 281.774 266.029C281.774 264.85 282.451 264.022 284.508 264.022H286.063C286.063 263.17 285.436 262.693 284.383 262.693C283.701 262.673 283.035 262.895 282.502 263.32L281.674 261.941C282.511 261.382 283.503 261.101 284.508 261.138C284.933 261.089 285.364 261.129 285.773 261.256C286.182 261.383 286.56 261.593 286.884 261.874C287.207 262.154 287.468 262.499 287.651 262.887C287.833 263.274 287.933 263.695 287.945 264.123ZM286.139 265.853V265.151H284.634C283.731 265.151 283.455 265.502 283.505 265.954C283.555 266.405 283.981 266.756 284.684 266.756C284.994 266.807 285.313 266.743 285.58 266.577C285.847 266.411 286.046 266.154 286.139 265.853Z" fill="#F5A17B"/>
<path d="M289.047 259.206C289.031 259.057 289.048 258.907 289.098 258.766C289.148 258.624 289.229 258.496 289.335 258.391C289.441 258.285 289.569 258.204 289.71 258.154C289.851 258.104 290.001 258.086 290.15 258.102C290.465 258.073 290.778 258.167 291.026 258.363C291.273 258.559 291.436 258.843 291.48 259.156C291.495 259.308 291.477 259.462 291.426 259.606C291.375 259.75 291.292 259.881 291.184 259.989C291.076 260.097 290.945 260.179 290.801 260.231C290.657 260.282 290.503 260.3 290.351 260.284C290.037 260.306 289.726 260.206 289.483 260.005C289.241 259.805 289.084 259.519 289.047 259.206ZM289.448 261.238H291.404L292.006 267.985H290.05L289.448 261.238Z" fill="#F5A17B"/>
<path d="M293.01 258.681H294.967L295.769 267.986H293.813L293.01 258.681Z" fill="#F5A17B"/>
<path d="M256.289 149.271H252.201L251.574 151.152H249.517L252.677 142.374H254.684L259.374 151.152H257.242L256.289 149.271ZM255.512 147.741L253.806 144.38L252.728 147.741H255.512Z" fill="#F5A17B"/>
<path d="M266.123 141.847L266.951 151.152H265.07V150.375C264.83 150.678 264.519 150.917 264.165 151.07C263.81 151.223 263.423 151.286 263.038 151.253C262.093 151.287 261.171 150.949 260.472 150.311C259.773 149.673 259.353 148.786 259.301 147.841C259.221 147.402 259.241 146.951 259.36 146.521C259.479 146.091 259.694 145.694 259.988 145.359C260.283 145.023 260.649 144.759 261.06 144.585C261.471 144.411 261.915 144.333 262.361 144.355C262.746 144.343 263.13 144.41 263.488 144.552C263.846 144.695 264.171 144.909 264.443 145.183L264.167 141.897L266.123 141.847ZM264.719 147.791C264.719 147.292 264.52 146.814 264.168 146.461C263.815 146.108 263.336 145.91 262.837 145.91C262.603 145.905 262.37 145.953 262.156 146.05C261.943 146.148 261.754 146.293 261.604 146.474C261.455 146.655 261.348 146.867 261.292 147.096C261.236 147.324 261.233 147.562 261.282 147.791C261.289 148.286 261.49 148.758 261.842 149.105C262.194 149.453 262.669 149.647 263.164 149.647C263.392 149.655 263.619 149.611 263.829 149.519C264.038 149.427 264.224 149.29 264.373 149.116C264.522 148.943 264.631 148.739 264.691 148.518C264.75 148.297 264.76 148.066 264.719 147.841V147.791Z" fill="#F5A17B"/>
<path d="M274.8 141.847L275.628 151.152H273.747V150.375C273.507 150.678 273.196 150.917 272.841 151.07C272.487 151.223 272.1 151.286 271.715 151.253C270.774 151.266 269.865 150.913 269.181 150.266C268.497 149.62 268.092 148.732 268.053 147.791C267.973 147.352 267.993 146.901 268.112 146.471C268.231 146.041 268.446 145.644 268.74 145.308C269.035 144.973 269.401 144.709 269.812 144.535C270.223 144.361 270.667 144.282 271.113 144.305C271.498 144.293 271.882 144.36 272.24 144.502C272.598 144.645 272.923 144.859 273.195 145.132L272.919 141.847H274.8ZM273.395 147.791C273.395 147.292 273.197 146.814 272.844 146.461C272.492 146.108 272.013 145.91 271.514 145.91C271.279 145.905 271.047 145.953 270.833 146.05C270.619 146.148 270.431 146.293 270.281 146.474C270.131 146.655 270.025 146.867 269.969 147.096C269.913 147.324 269.91 147.562 269.959 147.791C269.966 148.286 270.167 148.758 270.519 149.105C270.871 149.453 271.346 149.647 271.84 149.647C272.069 149.655 272.296 149.611 272.505 149.519C272.715 149.427 272.901 149.29 273.05 149.116C273.199 148.943 273.308 148.739 273.367 148.518C273.427 148.297 273.437 148.066 273.395 147.841V147.791Z" fill="#F5A17B"/>
<path d="M281.022 144.305L281.172 146.11H280.721C279.642 146.11 278.99 146.712 279.09 147.992L279.366 151.177H277.41L276.833 144.43H278.689V145.333C278.95 144.969 279.305 144.681 279.715 144.5C280.125 144.319 280.576 144.252 281.022 144.305Z" fill="#F5A17B"/>
<path d="M289.047 148.342H284.03C284.174 148.764 284.454 149.127 284.827 149.372C285.199 149.617 285.643 149.731 286.087 149.697C286.389 149.708 286.691 149.656 286.972 149.544C287.253 149.432 287.507 149.261 287.718 149.044L288.871 150.173C288.532 150.548 288.112 150.84 287.642 151.027C287.172 151.214 286.666 151.291 286.162 151.252C285.157 151.329 284.162 151.01 283.389 150.363C282.615 149.717 282.126 148.793 282.024 147.79C281.963 147.335 282.004 146.873 282.145 146.436C282.285 145.999 282.522 145.599 282.836 145.265C283.151 144.931 283.537 144.671 283.964 144.505C284.392 144.339 284.852 144.27 285.31 144.304C286.279 144.27 287.223 144.619 287.937 145.277C288.651 145.934 289.077 146.846 289.122 147.815C289.11 147.993 289.085 148.169 289.047 148.342ZM283.805 147.188H287.141C287.049 146.786 286.822 146.427 286.498 146.172C286.174 145.916 285.772 145.779 285.36 145.784C285.165 145.77 284.969 145.796 284.784 145.86C284.599 145.924 284.429 146.024 284.284 146.155C284.138 146.287 284.021 146.446 283.939 146.623C283.857 146.801 283.811 146.993 283.805 147.188Z" fill="#F5A17B"/>
<path d="M289.926 150.524L290.452 149.12C291.213 149.563 292.08 149.789 292.961 149.772C293.863 149.772 294.164 149.546 294.139 149.17C294.139 148.066 290.051 149.17 289.825 146.486C289.825 145.207 290.778 144.304 292.76 144.304C293.681 144.296 294.591 144.502 295.419 144.906L294.892 146.285C294.276 145.952 293.586 145.78 292.885 145.784C292.007 145.784 291.656 146.06 291.681 146.411C291.681 147.565 295.77 146.411 295.995 149.12C295.995 150.374 295.017 151.252 293.011 151.252C291.935 151.293 290.869 151.042 289.926 150.524Z" fill="#F5A17B"/>
<path d="M296.572 150.525L297.099 149.12C297.861 149.56 298.728 149.786 299.607 149.772C300.51 149.772 300.836 149.546 300.811 149.17C300.811 148.067 296.723 149.17 296.472 146.486C296.472 145.207 297.45 144.304 299.407 144.304C300.328 144.292 301.239 144.499 302.065 144.906L301.539 146.286C300.93 145.955 300.249 145.783 299.557 145.784C298.679 145.784 298.328 146.06 298.353 146.411C298.353 147.565 302.442 146.411 302.667 149.12C302.667 150.374 301.689 151.252 299.657 151.252C298.583 151.286 297.519 151.035 296.572 150.525Z" fill="#F5A17B"/>
<path d="M272.845 317.624C273.021 319.581 271.641 320.785 269.309 320.785H267.528L267.754 323.293H265.697L264.944 314.514H268.732C269.206 314.447 269.689 314.474 270.153 314.594C270.617 314.714 271.053 314.925 271.435 315.214C271.817 315.503 272.139 315.865 272.381 316.278C272.623 316.692 272.781 317.149 272.845 317.624ZM270.789 317.624C270.789 316.646 270.011 316.094 268.782 316.094H267.076L267.327 319.129H268.983C270.287 319.129 270.864 318.577 270.789 317.624Z" fill="#F5A17B"/>
<path d="M280.194 319.355L280.546 323.218H278.714V322.365C278.51 322.697 278.215 322.964 277.864 323.133C277.512 323.302 277.12 323.366 276.733 323.318C276.106 323.378 275.479 323.2 274.977 322.819C274.475 322.438 274.135 321.882 274.024 321.261C274.024 320.082 274.701 319.255 276.758 319.255H278.313C278.313 318.402 277.686 317.925 276.633 317.925C275.952 317.91 275.287 318.131 274.751 318.552L273.924 317.173C274.762 316.617 275.753 316.337 276.758 316.37C277.183 316.321 277.614 316.362 278.023 316.488C278.432 316.615 278.81 316.825 279.133 317.106C279.457 317.387 279.718 317.732 279.9 318.119C280.083 318.506 280.183 318.927 280.194 319.355ZM278.388 321.086V320.383H277.109C276.206 320.383 275.93 320.735 275.981 321.186C276.031 321.638 276.457 321.989 277.159 321.989C277.433 321.986 277.699 321.898 277.92 321.736C278.14 321.574 278.304 321.346 278.388 321.086Z" fill="#F5A17B"/>
<path d="M281.598 322.591L282.124 321.186C282.889 321.62 283.754 321.845 284.633 321.839C285.536 321.839 285.862 321.588 285.811 321.212C285.811 320.108 281.748 321.212 281.497 318.553C281.497 317.274 282.475 316.371 284.432 316.371C285.351 316.354 286.261 316.551 287.091 316.947L286.564 318.352C285.948 318.019 285.258 317.846 284.557 317.85C283.679 317.85 283.328 318.126 283.378 318.478C283.378 319.631 287.442 318.478 287.693 321.161C287.693 322.415 286.714 323.318 284.683 323.318C283.609 323.346 282.546 323.096 281.598 322.591Z" fill="#F5A17B"/>
<path d="M288.244 322.591L288.771 321.186C289.538 321.614 290.401 321.839 291.279 321.839C292.182 321.839 292.508 321.588 292.483 321.211C292.483 320.108 288.395 321.211 288.169 318.553C288.044 317.274 289.122 316.371 291.104 316.371C292.015 316.354 292.917 316.552 293.737 316.947L293.211 318.352C292.603 318.022 291.921 317.849 291.229 317.85C290.351 317.85 290 318.126 290.025 318.478C290.025 319.631 294.114 318.478 294.339 321.161C294.339 322.415 293.361 323.318 291.33 323.318C290.256 323.34 289.195 323.09 288.244 322.591Z" fill="#F5A17B"/>
<path d="M305.751 316.47L303.895 323.217H302.014L300.133 319.029L298.929 323.217H297.173L294.138 316.47H295.969L297.976 321.035L299.23 316.47H300.885L302.892 321.035L304.146 316.47H305.751Z" fill="#F5A17B"/>
<path d="M306.256 319.832C306.206 319.369 306.259 318.901 306.412 318.462C306.565 318.022 306.813 317.622 307.14 317.291C307.466 316.96 307.863 316.705 308.3 316.546C308.737 316.387 309.204 316.327 309.667 316.37C310.653 316.321 311.62 316.652 312.367 317.297C313.115 317.942 313.585 318.849 313.681 319.832C313.735 320.296 313.685 320.767 313.534 321.21C313.383 321.652 313.135 322.055 312.808 322.39C312.481 322.724 312.083 322.981 311.644 323.141C311.204 323.302 310.735 323.362 310.269 323.318C309.281 323.361 308.314 323.024 307.568 322.375C306.821 321.726 306.352 320.816 306.256 319.832ZM311.699 319.832C311.692 319.337 311.491 318.865 311.139 318.518C310.787 318.17 310.312 317.976 309.818 317.976C309.584 317.967 309.35 318.012 309.136 318.107C308.921 318.201 308.731 318.343 308.579 318.522C308.427 318.7 308.317 318.911 308.258 319.138C308.199 319.364 308.192 319.602 308.238 319.832C308.244 320.333 308.448 320.811 308.805 321.163C309.162 321.516 309.643 321.713 310.144 321.713C310.379 321.718 310.612 321.67 310.825 321.572C311.039 321.475 311.228 321.33 311.377 321.149C311.527 320.968 311.634 320.755 311.689 320.527C311.745 320.299 311.748 320.061 311.699 319.832Z" fill="#F5A17B"/>
<path d="M318.871 316.37L319.022 318.175H318.57C317.492 318.175 316.839 318.752 316.94 320.057L317.241 323.242H315.259L314.682 316.495H316.538V317.373C316.803 317.013 317.158 316.731 317.568 316.554C317.979 316.378 318.428 316.314 318.871 316.37Z" fill="#F5A17B"/>
<path d="M326.621 313.912L327.449 323.218H325.567V322.44C325.318 322.732 325.006 322.963 324.654 323.115C324.301 323.267 323.919 323.337 323.536 323.318C322.59 323.332 321.677 322.974 320.993 322.322C320.308 321.671 319.906 320.776 319.874 319.832C319.798 319.395 319.821 318.946 319.942 318.519C320.063 318.092 320.279 317.698 320.572 317.366C320.866 317.034 321.231 316.772 321.64 316.599C322.048 316.427 322.491 316.349 322.934 316.37C323.321 316.356 323.707 316.419 324.069 316.557C324.431 316.695 324.761 316.904 325.041 317.173L324.74 313.912H326.621ZM325.216 319.832C325.21 319.337 325.008 318.865 324.656 318.518C324.304 318.17 323.83 317.975 323.335 317.975C323.101 317.966 322.869 318.011 322.655 318.105C322.441 318.2 322.252 318.342 322.102 318.522C321.952 318.701 321.844 318.912 321.789 319.139C321.733 319.366 321.73 319.603 321.78 319.832C321.78 320.33 321.978 320.809 322.331 321.162C322.684 321.515 323.162 321.713 323.661 321.713C323.896 321.718 324.129 321.67 324.342 321.572C324.556 321.475 324.745 321.33 324.894 321.149C325.044 320.968 325.151 320.755 325.206 320.527C325.262 320.299 325.265 320.061 325.216 319.832Z" fill="#F5A17B"/>
<path d="M616.273 357.354H566.785C562.167 357.274 557.738 355.505 554.337 352.38C550.935 349.256 548.796 344.993 548.324 340.399C548.085 338.238 548.309 336.051 548.982 333.984C549.654 331.917 550.759 330.016 552.223 328.41C553.688 326.803 555.478 325.527 557.474 324.666C559.47 323.805 561.627 323.38 563.8 323.418H613.213C617.833 323.504 622.262 325.279 625.663 328.408C629.064 331.536 631.202 335.802 631.673 340.399C631.908 342.551 631.683 344.729 631.013 346.788C630.344 348.846 629.245 350.74 627.789 352.342C626.333 353.945 624.554 355.221 622.569 356.085C620.584 356.949 618.438 357.381 616.273 357.354Z" fill="#F5A17B"/>
<path d="M574.211 344.061L574.763 342.506C575.647 343.096 576.684 343.419 577.747 343.434C578.951 343.434 579.403 343.032 579.353 342.481C579.227 340.85 574.211 341.979 573.91 338.718C573.784 337.213 574.888 335.984 577.371 335.984C578.467 335.962 579.549 336.23 580.507 336.762L580.005 338.292C579.237 337.864 578.376 337.632 577.497 337.615C576.293 337.615 575.866 338.066 575.916 338.618C576.042 340.223 581.058 339.12 581.334 342.33C581.46 343.81 580.356 345.064 577.848 345.064C576.566 345.072 575.307 344.724 574.211 344.061Z" fill="white"/>
<path d="M588.482 340.975L588.808 344.813H586.977V343.96C586.778 344.297 586.483 344.567 586.131 344.737C585.778 344.906 585.383 344.968 584.996 344.913C584.372 344.967 583.752 344.786 583.255 344.405C582.759 344.025 582.422 343.472 582.312 342.856C582.312 341.678 582.964 340.85 585.021 340.85H586.576C586.576 339.997 585.974 339.521 584.92 339.521C584.231 339.501 583.557 339.723 583.014 340.148L582.186 338.768C583.037 338.218 584.033 337.938 585.046 337.965C585.473 337.916 585.906 337.957 586.317 338.085C586.727 338.214 587.107 338.426 587.43 338.71C587.754 338.993 588.015 339.341 588.196 339.731C588.377 340.121 588.474 340.545 588.482 340.975ZM586.676 342.681V341.979H585.347C584.419 341.979 584.168 342.33 584.193 342.781C584.218 343.233 584.695 343.609 585.372 343.609C585.648 343.62 585.921 343.547 586.154 343.399C586.387 343.251 586.569 343.036 586.676 342.781V342.681Z" fill="white"/>
<path d="M596.558 338.167L594.301 344.914H592.294L588.858 338.167H590.865L593.147 342.757L594.677 338.167H596.558Z" fill="white"/>
<path d="M604.084 342.08H599.068C599.202 342.503 599.477 342.867 599.846 343.113C600.215 343.359 600.657 343.473 601.099 343.435C601.406 343.455 601.714 343.407 602 343.294C602.286 343.182 602.544 343.007 602.755 342.782L603.883 343.936C603.549 344.31 603.133 344.602 602.668 344.789C602.202 344.977 601.7 345.054 601.2 345.015C600.189 345.086 599.191 344.762 598.414 344.112C597.638 343.461 597.144 342.535 597.036 341.528C596.983 341.074 597.031 340.614 597.177 340.18C597.322 339.746 597.562 339.35 597.878 339.019C598.194 338.689 598.579 338.432 599.006 338.268C599.433 338.103 599.89 338.034 600.347 338.067C600.867 338.059 601.383 338.159 601.863 338.36C602.342 338.562 602.775 338.86 603.133 339.238C603.491 339.615 603.768 340.062 603.944 340.551C604.121 341.041 604.194 341.561 604.159 342.08H604.084ZM598.867 340.951H602.178C602.09 340.547 601.865 340.185 601.54 339.929C601.215 339.673 600.811 339.538 600.397 339.547C600.201 339.533 600.004 339.56 599.819 339.625C599.634 339.691 599.464 339.794 599.321 339.928C599.177 340.063 599.063 340.225 598.984 340.405C598.906 340.586 598.866 340.78 598.867 340.977V340.951Z" fill="white"/>
<path d="M710.459 357.354H660.871C656.253 357.274 651.824 355.505 648.422 352.38C645.02 349.256 642.882 344.993 642.41 340.399C642.175 338.237 642.402 336.049 643.078 333.982C643.753 331.915 644.861 330.015 646.327 328.409C647.793 326.802 649.584 325.527 651.582 324.666C653.579 323.806 655.736 323.38 657.911 323.418H707.399C712.019 323.504 716.448 325.279 719.849 328.408C723.25 331.536 725.388 335.802 725.859 340.399C726.098 342.552 725.876 344.731 725.208 346.792C724.54 348.852 723.441 350.747 721.984 352.351C720.528 353.955 718.747 355.23 716.76 356.093C714.773 356.955 712.625 357.385 710.459 357.354Z" fill="#F5A17B"/>
<path d="M654.825 340.524C654.752 339.926 654.814 339.318 655.005 338.747C655.196 338.175 655.511 337.653 655.929 337.218C656.347 336.783 656.856 336.447 657.42 336.234C657.984 336.02 658.588 335.935 659.189 335.984C659.886 335.97 660.578 336.1 661.222 336.368C661.865 336.636 662.446 337.035 662.927 337.539L661.748 338.743C661.455 338.421 661.099 338.163 660.702 337.986C660.305 337.809 659.875 337.717 659.44 337.715C659.084 337.712 658.731 337.786 658.405 337.93C658.08 338.075 657.788 338.287 657.551 338.553C657.314 338.818 657.136 339.132 657.029 339.472C656.922 339.812 656.889 340.17 656.932 340.524C656.977 341.298 657.322 342.024 657.893 342.548C658.464 343.073 659.217 343.354 659.992 343.333C660.402 343.344 660.809 343.253 661.177 343.069C661.544 342.886 661.861 342.615 662.099 342.28L663.503 343.484C663.095 344.012 662.564 344.432 661.957 344.707C661.349 344.983 660.683 345.105 660.017 345.064C658.735 345.115 657.483 344.672 656.517 343.828C655.551 342.983 654.946 341.801 654.825 340.524Z" fill="white"/>
<path d="M663.78 341.528C663.725 341.064 663.775 340.594 663.926 340.152C664.077 339.711 664.326 339.309 664.654 338.976C664.981 338.644 665.38 338.389 665.819 338.232C666.258 338.074 666.727 338.018 667.192 338.066C668.173 338.023 669.134 338.358 669.876 339.002C670.618 339.646 671.084 340.55 671.18 341.528C671.234 341.99 671.184 342.458 671.034 342.899C670.885 343.339 670.639 343.741 670.315 344.075C669.991 344.409 669.596 344.666 669.16 344.829C668.724 344.991 668.257 345.054 667.794 345.014C666.804 345.063 665.834 344.728 665.086 344.078C664.338 343.428 663.87 342.514 663.78 341.528ZM669.198 341.528C669.192 341.033 668.991 340.561 668.639 340.213C668.286 339.866 667.812 339.671 667.317 339.671C667.083 339.662 666.851 339.707 666.637 339.801C666.423 339.896 666.234 340.038 666.084 340.218C665.934 340.397 665.827 340.608 665.771 340.835C665.715 341.062 665.712 341.299 665.762 341.528C665.762 342.026 665.96 342.505 666.313 342.858C666.666 343.211 667.144 343.409 667.643 343.409C667.878 343.414 668.111 343.366 668.324 343.268C668.538 343.171 668.727 343.026 668.876 342.845C669.026 342.664 669.133 342.451 669.188 342.223C669.244 341.995 669.248 341.757 669.198 341.528Z" fill="white"/>
<path d="M679.357 340.976L679.683 344.838H677.726L677.425 341.277C677.425 340.173 676.773 339.671 675.92 339.671C675.068 339.671 674.34 340.248 674.441 341.502L674.742 344.838H672.785L672.183 338.091H674.064V338.869C674.335 338.57 674.669 338.336 675.043 338.184C675.416 338.032 675.819 337.966 676.221 337.991C676.628 337.963 677.035 338.02 677.418 338.158C677.801 338.296 678.151 338.512 678.446 338.793C678.741 339.074 678.974 339.413 679.131 339.789C679.288 340.164 679.365 340.569 679.357 340.976Z" fill="white"/>
<path d="M685.776 344.588C685.319 344.897 684.772 345.047 684.221 345.014C683.873 345.046 683.522 345.004 683.191 344.892C682.861 344.78 682.557 344.601 682.299 344.365C682.042 344.128 681.837 343.841 681.697 343.521C681.557 343.201 681.485 342.855 681.487 342.506L681.236 339.722H680.208L680.057 338.217H681.111L680.96 336.562H682.917L683.067 338.217H684.748L684.873 339.722H683.192L683.443 342.456C683.44 342.575 683.461 342.694 683.505 342.805C683.549 342.917 683.615 343.018 683.7 343.102C683.785 343.187 683.885 343.253 683.997 343.297C684.108 343.341 684.227 343.362 684.346 343.359C684.626 343.361 684.898 343.273 685.124 343.108L685.776 344.588Z" fill="white"/>
<path d="M685.954 336.136C685.938 335.985 685.956 335.832 686.007 335.688C686.058 335.545 686.141 335.416 686.25 335.309C686.359 335.203 686.49 335.123 686.634 335.075C686.779 335.027 686.932 335.012 687.083 335.032C687.394 335.004 687.705 335.098 687.948 335.294C688.192 335.491 688.349 335.775 688.387 336.086C688.403 336.238 688.384 336.391 688.333 336.535C688.282 336.679 688.199 336.81 688.091 336.919C687.983 337.027 687.852 337.109 687.708 337.16C687.564 337.212 687.41 337.23 687.258 337.214C686.944 337.236 686.634 337.136 686.391 336.935C686.148 336.735 685.992 336.448 685.954 336.136ZM686.355 338.167H688.312L688.914 344.915H686.957L686.355 338.167Z" fill="white"/>
<path d="M697.239 340.976L697.59 344.839H695.634L695.308 341.277C695.308 340.173 694.681 339.672 693.803 339.672C692.925 339.672 692.222 340.249 692.348 341.503L692.624 344.839H690.667L690.09 338.092H691.947V338.869C692.219 338.573 692.554 338.341 692.927 338.189C693.3 338.037 693.702 337.97 694.104 337.991C694.511 337.959 694.92 338.014 695.305 338.15C695.689 338.287 696.041 338.503 696.337 338.785C696.633 339.066 696.866 339.407 697.021 339.784C697.177 340.162 697.251 340.568 697.239 340.976Z" fill="white"/>
<path d="M705.567 338.167L706.144 344.914H704.288V344.111C704.044 344.404 703.736 344.638 703.389 344.794C703.041 344.951 702.662 345.026 702.281 345.014C701.87 345.038 701.459 344.977 701.073 344.835C700.687 344.693 700.334 344.472 700.038 344.187C699.741 343.902 699.506 343.559 699.348 343.179C699.191 342.799 699.113 342.39 699.121 341.979L698.795 338.167H700.751L701.052 341.703C701.052 342.807 701.704 343.333 702.557 343.333C703.41 343.333 704.062 342.732 703.962 341.502L703.661 338.167H705.567Z" fill="white"/>
<path d="M714.295 342.079H709.279C709.419 342.504 709.698 342.869 710.071 343.115C710.445 343.36 710.89 343.473 711.336 343.433C711.639 343.452 711.942 343.403 712.224 343.29C712.506 343.177 712.759 343.004 712.966 342.781L714.12 343.935C713.781 344.31 713.36 344.602 712.891 344.789C712.421 344.976 711.915 345.053 711.411 345.014C710.403 345.084 709.408 344.759 708.636 344.109C707.863 343.458 707.374 342.532 707.272 341.527C707.216 341.074 707.26 340.614 707.402 340.18C707.545 339.747 707.782 339.35 708.096 339.019C708.41 338.688 708.794 338.43 709.22 338.266C709.646 338.101 710.103 338.033 710.558 338.066C711.598 338.092 712.586 338.529 713.305 339.281C714.024 340.033 714.416 341.039 714.396 342.079H714.295ZM709.053 340.95H712.389C712.298 340.548 712.071 340.189 711.747 339.934C711.423 339.678 711.021 339.541 710.608 339.546C710.411 339.532 710.213 339.559 710.027 339.624C709.84 339.689 709.669 339.792 709.523 339.926C709.378 340.06 709.261 340.222 709.18 340.402C709.099 340.583 709.056 340.778 709.053 340.975V340.95Z" fill="white"/>
<path d="M513.009 265.327C512.809 263.145 514.715 261.565 517.449 261.565C518.811 261.508 520.145 261.965 521.186 262.844L519.957 263.847C519.329 263.29 518.515 262.986 517.675 262.994C516.044 262.994 514.941 263.948 515.166 265.327C515.272 266.028 515.644 266.662 516.204 267.096C516.765 267.53 517.471 267.732 518.176 267.66C518.575 267.676 518.974 267.609 519.345 267.462C519.717 267.315 520.053 267.092 520.333 266.807L521.713 267.81C521.036 268.385 520.227 268.783 519.358 268.968C518.49 269.154 517.589 269.121 516.736 268.872C515.883 268.623 515.106 268.167 514.473 267.544C513.84 266.921 513.372 266.151 513.11 265.302L513.009 265.327Z" fill="#F5A17B"/>
<path d="M521.964 266.18C521.814 264.5 523.268 263.296 525.425 263.296C526.325 263.191 527.23 263.43 527.961 263.965C528.691 264.5 529.192 265.291 529.363 266.18C529.514 267.861 528.059 269.065 525.927 269.065C525.024 269.176 524.112 268.941 523.376 268.405C522.64 267.869 522.135 267.074 521.964 266.18ZM527.382 266.18C527.337 265.73 527.118 265.315 526.771 265.024C526.424 264.733 525.977 264.59 525.526 264.625C524.548 264.625 523.845 265.202 523.946 266.18C523.99 266.631 524.209 267.046 524.556 267.336C524.903 267.627 525.35 267.77 525.802 267.735C526.014 267.763 526.229 267.743 526.432 267.675C526.635 267.607 526.82 267.494 526.972 267.344C527.124 267.194 527.24 267.011 527.312 266.81C527.383 266.608 527.407 266.393 527.382 266.18Z" fill="#F5A17B"/>
<path d="M537.541 265.728L537.817 268.914H535.86L535.61 265.979C535.611 265.791 535.572 265.605 535.496 265.433C535.42 265.261 535.308 265.107 535.169 264.982C535.029 264.856 534.864 264.761 534.685 264.704C534.506 264.647 534.317 264.628 534.13 264.65C533.177 264.65 532.55 265.126 532.625 266.155L532.876 268.914H530.919L530.418 263.32H532.299V263.972C532.905 263.458 533.687 263.197 534.481 263.245C534.847 263.196 535.219 263.223 535.574 263.323C535.929 263.423 536.26 263.594 536.547 263.827C536.833 264.059 537.069 264.348 537.24 264.675C537.411 265.002 537.513 265.36 537.541 265.728Z" fill="#F5A17B"/>
<path d="M543.911 268.714C543.431 268.962 542.896 269.083 542.356 269.065C540.751 269.065 539.848 268.388 539.647 267.058L539.447 264.751H538.418L538.293 263.497H539.346L539.221 262.142H541.177L541.303 263.497H542.983V264.751H541.303L541.503 267.033C541.513 267.141 541.544 267.246 541.595 267.342C541.645 267.437 541.715 267.522 541.8 267.59C541.884 267.658 541.981 267.708 542.085 267.737C542.19 267.767 542.299 267.774 542.406 267.761C542.679 267.767 542.948 267.697 543.184 267.56L543.911 268.714Z" fill="#F5A17B"/>
<path d="M550.733 265.728L551.008 268.914H549.177V268.237C548.934 268.523 548.623 268.744 548.273 268.88C547.922 269.016 547.544 269.062 547.171 269.014C545.591 269.014 544.663 268.287 544.512 267.309C544.362 266.33 545.189 265.628 547.246 265.628H548.826C548.826 264.951 548.224 264.524 547.171 264.524C546.497 264.508 545.834 264.691 545.265 265.051L544.462 263.922C545.337 263.444 546.325 263.21 547.321 263.245C549.328 263.22 550.507 264.073 550.733 265.728ZM548.901 267.158V266.581H547.547C546.644 266.581 546.368 266.857 546.418 267.233C546.469 267.61 546.87 267.911 547.572 267.911C547.838 267.938 548.107 267.886 548.343 267.761C548.58 267.636 548.774 267.444 548.901 267.208V267.158Z" fill="#F5A17B"/>
<path d="M552.114 266.18C551.963 264.499 553.418 263.295 555.625 263.295C556.227 263.244 556.831 263.349 557.38 263.599C557.929 263.85 558.405 264.237 558.76 264.725L557.306 265.402C557.121 265.158 556.882 264.961 556.608 264.826C556.334 264.691 556.031 264.622 555.725 264.625C554.722 264.625 553.995 265.202 554.095 266.18C554.146 266.637 554.374 267.056 554.73 267.347C555.087 267.638 555.543 267.777 556.001 267.735C556.289 267.753 556.575 267.69 556.828 267.552C557.081 267.415 557.29 267.208 557.431 266.957L559.011 267.635C558.72 268.126 558.292 268.522 557.78 268.776C557.269 269.03 556.694 269.13 556.127 269.064C553.919 269.064 552.239 267.86 552.114 266.18Z" fill="#F5A17B"/>
<path d="M564.704 268.714C564.215 268.959 563.672 269.079 563.124 269.065C561.544 269.065 560.616 268.388 560.44 267.058L560.24 264.751H559.186V263.497H560.215L560.089 262.142H562.071V263.497H563.751L563.877 264.751H562.196L562.397 267.033C562.397 267.51 562.773 267.761 563.3 267.761C563.572 267.763 563.84 267.694 564.077 267.56L564.704 268.714Z" fill="#F5A17B"/>
<path d="M576.919 261.691L577.572 268.965H575.891L571.125 264.55L571.502 268.965H569.495L568.868 261.691H570.573L575.339 266.105L574.938 261.691H576.919Z" fill="#F5A17B"/>
<path d="M585.824 263.371L586.3 268.964H584.444V268.312C583.892 268.82 583.162 269.09 582.413 269.065C582.042 269.117 581.664 269.093 581.303 268.994C580.941 268.894 580.605 268.721 580.313 268.486C580.021 268.251 579.781 267.958 579.607 267.626C579.433 267.294 579.33 266.93 579.302 266.557L579.026 263.396H580.983L581.234 266.331C581.229 266.521 581.265 266.71 581.339 266.885C581.414 267.06 581.525 267.217 581.665 267.345C581.805 267.474 581.972 267.57 582.152 267.629C582.333 267.688 582.525 267.707 582.714 267.685C582.914 267.713 583.119 267.692 583.31 267.625C583.502 267.558 583.674 267.446 583.814 267.299C583.953 267.152 584.056 266.974 584.113 266.779C584.171 266.585 584.181 266.38 584.143 266.18L583.918 263.396L585.824 263.371Z" fill="#F5A17B"/>
<path d="M599.241 265.729L599.517 268.914H597.56L597.309 265.98C597.317 265.796 597.286 265.614 597.217 265.443C597.149 265.273 597.044 265.12 596.911 264.994C596.778 264.868 596.619 264.772 596.445 264.713C596.272 264.653 596.087 264.632 595.905 264.65C595.711 264.621 595.513 264.639 595.328 264.704C595.143 264.768 594.977 264.877 594.844 265.02C594.71 265.164 594.614 265.337 594.563 265.526C594.512 265.715 594.507 265.914 594.55 266.105L594.801 268.914H592.845L592.569 265.98C592.581 265.798 592.553 265.615 592.487 265.445C592.421 265.275 592.319 265.121 592.188 264.995C592.056 264.868 591.899 264.772 591.726 264.712C591.554 264.653 591.371 264.632 591.189 264.65C590.996 264.621 590.798 264.639 590.613 264.704C590.428 264.768 590.262 264.877 590.128 265.02C589.995 265.164 589.898 265.337 589.847 265.526C589.796 265.715 589.792 265.914 589.835 266.105L590.061 268.914H588.129L587.653 263.321H589.509V263.973C589.785 263.72 590.109 263.524 590.463 263.399C590.816 263.274 591.191 263.222 591.565 263.246C591.988 263.224 592.411 263.294 592.805 263.449C593.199 263.605 593.554 263.844 593.848 264.149C594.155 263.84 594.524 263.601 594.93 263.445C595.337 263.289 595.771 263.221 596.206 263.246C596.571 263.193 596.943 263.217 597.298 263.315C597.653 263.414 597.984 263.586 598.27 263.819C598.555 264.053 598.789 264.343 598.956 264.672C599.123 265.001 599.22 265.361 599.241 265.729Z" fill="#F5A17B"/>
<path d="M608.372 266.179C608.547 267.935 607.168 269.064 605.262 269.064C604.49 269.049 603.751 268.755 603.18 268.236V268.863H601.324L600.646 261.163H602.603L602.829 263.872C603.376 263.397 604.087 263.154 604.81 263.194C605.675 263.131 606.531 263.407 607.196 263.965C607.861 264.522 608.283 265.316 608.372 266.179ZM606.39 266.179C606.346 265.729 606.127 265.314 605.78 265.023C605.433 264.732 604.986 264.589 604.534 264.624C604.322 264.596 604.107 264.616 603.904 264.684C603.701 264.752 603.516 264.865 603.364 265.015C603.212 265.165 603.095 265.348 603.024 265.55C602.953 265.751 602.929 265.967 602.954 266.179C603.005 266.627 603.226 267.038 603.571 267.328C603.917 267.617 604.36 267.763 604.81 267.734C605.022 267.762 605.238 267.742 605.441 267.674C605.643 267.606 605.828 267.493 605.98 267.343C606.133 267.193 606.249 267.01 606.32 266.808C606.391 266.607 606.415 266.391 606.39 266.179Z" fill="#F5A17B"/>
<path d="M616.298 266.632H611.282C611.458 267.01 611.75 267.322 612.115 267.525C612.479 267.728 612.899 267.81 613.313 267.76C613.916 267.8 614.51 267.602 614.969 267.209L616.097 268.162C615.35 268.809 614.375 269.134 613.389 269.065C611.056 269.065 609.425 267.836 609.275 266.18C609.124 264.525 610.579 263.296 612.636 263.296C613.517 263.202 614.401 263.452 615.102 263.994C615.803 264.537 616.268 265.329 616.398 266.205L616.298 266.632ZM611.081 265.679H614.417C614.29 265.316 614.046 265.006 613.724 264.797C613.402 264.588 613.019 264.492 612.636 264.525C612.455 264.5 612.27 264.512 612.093 264.559C611.917 264.607 611.751 264.689 611.606 264.801C611.462 264.913 611.341 265.053 611.25 265.212C611.16 265.371 611.103 265.547 611.081 265.729V265.679Z" fill="#F5A17B"/>
<path d="M621.54 263.219L621.666 264.724H621.214C620.136 264.724 619.459 265.201 619.559 266.279L619.785 268.788H617.828L617.352 263.194H619.208V263.947C619.514 263.653 619.883 263.434 620.288 263.308C620.693 263.182 621.122 263.151 621.54 263.219Z" fill="#F5A17B"/>
<path d="M254.686 205.004L255.263 203.75C256.172 204.242 257.189 204.5 258.223 204.503C259.427 204.503 259.878 204.176 259.853 203.725C259.728 202.371 254.711 203.299 254.46 200.59C254.46 199.361 255.464 198.332 257.972 198.332C259.042 198.309 260.105 198.523 261.082 198.959L260.555 200.239C259.767 199.881 258.913 199.693 258.047 199.687C256.843 199.687 256.417 200.038 256.467 200.514C256.467 201.844 261.609 200.916 261.835 203.6C261.835 204.829 260.806 205.857 258.298 205.857C257.042 205.879 255.8 205.586 254.686 205.004Z" fill="#F5A17B"/>
<path d="M267.627 205.531C267.151 205.79 266.612 205.912 266.072 205.882C264.466 205.882 263.563 205.204 263.363 203.875L263.162 201.593H262.058V200.338H263.112L262.986 198.959H264.943L265.068 200.338H266.749V201.593H265.068L265.269 203.85C265.275 203.96 265.304 204.068 265.353 204.166C265.402 204.265 265.472 204.352 265.556 204.423C265.641 204.494 265.74 204.546 265.845 204.577C265.951 204.608 266.062 204.616 266.172 204.603C266.445 204.609 266.714 204.539 266.949 204.402L267.627 205.531Z" fill="#F5A17B"/>
<path d="M274.451 202.546L274.727 205.732H272.896V205.029C272.595 205.556 271.918 205.807 270.915 205.807C269.335 205.807 268.407 205.079 268.256 204.126C268.106 203.173 268.933 202.446 270.99 202.446H272.545C272.545 201.743 271.943 201.342 270.89 201.342C270.225 201.329 269.57 201.512 269.009 201.869L268.206 200.715C269.076 200.247 270.053 200.014 271.04 200.038C273.047 200.038 274.301 200.84 274.451 202.546ZM272.62 203.976V203.399H271.266C270.363 203.399 270.087 203.675 270.112 204.051C270.137 204.427 270.589 204.728 271.291 204.728C271.562 204.748 271.833 204.687 272.069 204.553C272.306 204.419 272.498 204.218 272.62 203.976Z" fill="#F5A17B"/>
<path d="M280.821 205.531C280.346 205.79 279.807 205.912 279.266 205.882C277.661 205.882 276.758 205.204 276.557 203.875L276.357 201.593H275.303V200.338H276.357V198.959H278.313L278.438 200.338H280.119V201.593H278.438L278.639 203.85C278.645 203.96 278.674 204.068 278.723 204.166C278.773 204.265 278.842 204.352 278.927 204.423C279.011 204.494 279.11 204.546 279.216 204.577C279.322 204.608 279.433 204.616 279.542 204.603C279.815 204.609 280.084 204.539 280.32 204.402L280.821 205.531Z" fill="#F5A17B"/>
<path d="M288.095 203.398H283.079C283.258 203.774 283.55 204.085 283.914 204.287C284.278 204.489 284.696 204.573 285.11 204.527C285.702 204.541 286.279 204.346 286.741 203.975L287.869 204.903C287.503 205.23 287.074 205.479 286.608 205.634C286.142 205.789 285.65 205.848 285.161 205.806C282.828 205.806 281.197 204.602 281.047 202.922C280.897 201.241 282.351 200.037 284.408 200.037C285.289 199.944 286.173 200.194 286.874 200.736C287.575 201.278 288.04 202.07 288.17 202.947C288.158 203.099 288.133 203.25 288.095 203.398ZM282.878 202.445H286.214C286.093 202.082 285.855 201.77 285.537 201.557C285.219 201.343 284.84 201.241 284.458 201.266C283.555 201.266 282.953 201.718 282.878 202.445Z" fill="#F5A17B"/>
<path d="M498.362 91.5063H500.344L500.971 98.6548H505.36L505.486 100.31H499.065L498.362 91.5063Z" fill="#F5A17B"/>
<path d="M512.282 96.446L512.608 100.309H510.777V99.4559C510.577 99.7927 510.283 100.063 509.93 100.233C509.578 100.402 509.183 100.464 508.795 100.409C508.172 100.463 507.551 100.281 507.054 99.9009C506.558 99.5204 506.222 98.968 506.111 98.3523C506.111 97.1734 506.763 96.3457 508.82 96.3457H510.375C510.375 95.4929 509.773 95.0163 508.72 95.0163C508.031 94.997 507.357 95.2188 506.814 95.6434L505.986 94.2638C506.833 93.705 507.83 93.4164 508.845 93.4361C509.273 93.3871 509.706 93.428 510.116 93.5562C510.527 93.6843 510.906 93.897 511.23 94.1804C511.553 94.4638 511.814 94.8118 511.995 95.202C512.176 95.5922 512.274 96.0159 512.282 96.446ZM510.476 98.1767V97.4744H509.146C508.218 97.4744 507.967 97.8256 507.992 98.277C508.018 98.7285 508.494 99.0797 509.171 99.0797C509.44 99.0684 509.698 98.9762 509.913 98.815C510.128 98.6538 510.289 98.4312 510.375 98.1767H510.476Z" fill="#F5A17B"/>
<path d="M513.661 99.683L514.188 98.2784C514.955 98.7064 515.818 98.9309 516.696 98.9305C517.599 98.9305 517.925 98.6797 517.9 98.3035C517.9 97.1998 513.812 98.3035 513.586 95.6447C513.461 94.3655 514.539 93.4375 516.521 93.4375C517.434 93.4259 518.337 93.6323 519.154 94.0395L518.627 95.4441C518.019 95.1138 517.338 94.9413 516.646 94.9424C515.768 94.9424 515.417 95.2183 515.442 95.5695C515.442 96.7233 519.53 95.5695 519.756 98.2533C519.756 99.5074 518.778 100.41 516.746 100.41C515.673 100.432 514.612 100.182 513.661 99.683Z" fill="#F5A17B"/>
<path d="M525.425 99.9832C524.951 100.276 524.402 100.424 523.845 100.41C523.497 100.441 523.146 100.4 522.816 100.288C522.485 100.176 522.181 99.9959 521.923 99.7598C521.666 99.5237 521.461 99.2364 521.321 98.9164C521.181 98.5964 521.109 98.2506 521.111 97.9014L520.885 95.1423H519.832L519.706 93.6123H520.735L520.609 91.9819H522.566L522.716 93.6123H524.397L524.522 95.1423H522.917L523.143 97.8763C523.139 97.998 523.161 98.1192 523.206 98.2321C523.252 98.345 523.321 98.4471 523.408 98.5321C523.495 98.617 523.599 98.6828 523.713 98.7254C523.827 98.7679 523.949 98.7863 524.071 98.7793C524.35 98.7811 524.623 98.6932 524.848 98.5284L525.425 99.9832Z" fill="#F5A17B"/>
<path d="M537.466 91.5063L538.243 100.31H536.563L531.722 94.9677L532.198 100.31H530.167L529.414 91.5063H531.095L535.936 96.8489L535.459 91.5063H537.466Z" fill="#F5A17B"/>
<path d="M545.816 96.446L546.142 100.309H544.311V99.4559C544.111 99.7927 543.817 100.063 543.464 100.233C543.112 100.402 542.717 100.464 542.329 100.409C541.706 100.463 541.085 100.281 540.589 99.9009C540.092 99.5204 539.756 98.968 539.645 98.3523C539.645 97.1734 540.298 96.3457 542.354 96.3457H543.909C543.909 95.4929 543.307 95.0163 542.254 95.0163C541.565 94.997 540.891 95.2188 540.348 95.6434L539.52 94.2638C540.367 93.705 541.364 93.4164 542.379 93.4361C542.807 93.3871 543.24 93.428 543.65 93.5562C544.061 93.6843 544.44 93.897 544.764 94.1804C545.087 94.4638 545.348 94.8118 545.529 95.202C545.71 95.5922 545.808 96.0159 545.816 96.446ZM544.01 98.1767V97.4744H542.68C541.752 97.4744 541.501 97.8256 541.527 98.277C541.552 98.7285 542.028 99.0797 542.705 99.0797C542.991 99.0893 543.272 99.0067 543.507 98.8441C543.742 98.6814 543.918 98.4474 544.01 98.1767Z" fill="#F5A17B"/>
<path d="M558.985 96.4473L559.311 100.31H557.355L557.054 96.7483C557.054 95.6447 556.427 95.143 555.624 95.143C554.822 95.143 554.195 95.7199 554.295 96.9239L554.596 100.31H552.64L552.313 96.7483C552.313 95.6447 551.711 95.143 550.909 95.143C550.106 95.143 549.479 95.7199 549.579 96.9239L549.88 100.31H547.999L547.422 93.5628H549.278V94.3153C549.53 94.0199 549.847 93.7868 550.204 93.6345C550.56 93.4821 550.948 93.4147 551.335 93.4374C551.615 93.7831 551.969 94.062 552.37 94.2535C552.771 94.445 553.211 94.5444 553.655 94.5444C554.1 94.5444 554.539 94.445 554.941 94.2535C555.342 94.062 555.696 93.7831 555.975 93.4374C556.374 93.4234 556.772 93.4917 557.144 93.638C557.515 93.7843 557.853 94.0055 558.135 94.2878C558.417 94.5702 558.639 94.9076 558.785 95.2791C558.931 95.6506 558.999 96.0483 558.985 96.4473Z" fill="#F5A17B"/>
<path d="M567.463 97.4756H562.446C562.582 97.9028 562.86 98.2704 563.235 98.517C563.609 98.7636 564.057 98.8741 564.503 98.83C564.806 98.8484 565.109 98.7994 565.391 98.6867C565.673 98.5739 565.926 98.4002 566.133 98.1779L567.262 99.3066C566.935 99.6915 566.521 99.9926 566.054 100.185C565.587 100.377 565.081 100.454 564.578 100.41C563.568 100.481 562.569 100.157 561.793 99.5069C561.016 98.8567 560.522 97.9308 560.414 96.9237C560.362 96.4683 560.41 96.007 560.556 95.5722C560.701 95.1375 560.94 94.7399 561.256 94.4075C561.571 94.075 561.956 93.8159 562.383 93.6483C562.81 93.4807 563.268 93.4086 563.725 93.4373C564.247 93.4327 564.763 93.5358 565.243 93.7401C565.722 93.9444 566.155 94.2455 566.513 94.6245C566.871 95.0036 567.146 95.4525 567.323 95.9431C567.499 96.4337 567.572 96.9554 567.538 97.4756H567.463ZM562.245 96.3469H565.556C565.469 95.9423 565.243 95.5807 564.918 95.3244C564.593 95.068 564.189 94.9329 563.775 94.9422C563.582 94.9286 563.387 94.9546 563.203 95.0187C563.02 95.0829 562.851 95.1837 562.708 95.3152C562.565 95.4467 562.45 95.606 562.37 95.7833C562.291 95.9607 562.248 96.1525 562.245 96.3469Z" fill="#F5A17B"/>
<path d="M483.213 128.176H247.513L245.732 107.91H481.432L483.213 128.176Z" fill="white"/>
<path d="M492.392 233.147H256.693L254.912 212.88H490.637L492.392 233.147Z" fill="white"/>
<path d="M497.759 294.498H262.059L260.278 274.231H496.003L497.759 294.498Z" fill="white"/>
<path d="M502.675 350.532H266.975L265.194 330.266H500.894L502.675 350.532Z" fill="white"/>
<path d="M751.244 294.498H515.519L513.763 274.231H749.463L751.244 294.498Z" fill="white"/>
<path d="M741.059 178.241H251.876L250.12 157.974H739.278L741.059 178.241Z" fill="white"/>
<path d="M736.694 128.176H500.969L499.213 107.91H734.913L736.694 128.176Z" fill="white"/>
<path d="M569.244 292.366H551.059L549.604 275.636H567.764L569.244 292.366Z" fill="#E0E0E0"/>
<path d="M565.006 281.155L559.839 287.601L553.518 281.155H565.006Z" fill="#263238"/>
<path d="M526.279 284.365H524.097L524.272 286.497H522.667L522.466 284.365H520.409L520.284 282.835H522.441L522.266 280.703H523.871L524.071 282.835H526.254L526.279 284.365Z" fill="#263238"/>
<path d="M533.851 285.318C533.851 286.798 532.948 288.152 530.465 288.152C529.253 288.162 528.062 287.832 527.029 287.199L527.681 285.644C528.42 286.152 529.292 286.431 530.189 286.446C531.192 286.446 531.794 286.02 531.719 285.318C531.644 284.615 531.142 284.239 529.988 284.239H529.06V282.885L530.691 280.853H526.953L526.803 279.223H532.948V280.527L531.167 282.784C531.847 282.806 532.495 283.076 532.989 283.542C533.484 284.009 533.79 284.641 533.851 285.318Z" fill="#263238"/>
<path d="M541.378 286.347L541.528 288.002H534.881L534.756 286.673L537.866 283.487C538.593 282.735 538.694 282.283 538.644 281.857C538.593 281.431 538.067 280.778 537.139 280.778C536.798 280.756 536.458 280.826 536.153 280.981C535.849 281.135 535.591 281.368 535.408 281.656L533.853 280.703C534.213 280.159 534.712 279.721 535.299 279.434C535.885 279.147 536.538 279.023 537.189 279.073C539.145 279.073 540.55 280.076 540.675 281.581C540.714 282.11 540.623 282.641 540.409 283.127C540.194 283.612 539.864 284.038 539.446 284.365L537.59 286.272L541.378 286.347Z" fill="#263238"/>
<path d="M699.85 288.103H580.056L579.454 281.155H699.248L699.85 288.103Z" fill="#E7A69E"/>
<path d="M387.546 288.103H267.727L267.125 281.155H386.919L387.546 288.103Z" fill="#E7A69E"/>
<path d="M317.191 226.474H262.361L261.734 219.551H316.564L317.191 226.474Z" fill="#E7A69E"/>
<path d="M307.987 121.504H253.157L252.555 114.581H307.385L307.987 121.504Z" fill="#E7A69E"/>
<path d="M562.549 121.504H507.718L507.091 114.581H561.922L562.549 121.504Z" fill="#E7A69E"/>
<path d="M689.667 171.595H257.546L256.944 164.647H689.064L689.667 171.595Z" fill="#E7A69E"/>
<path d="M279.615 340.976L281.622 342.004L280.895 343.459L278.863 342.305L279.064 344.437H277.433L277.258 342.28L275.427 343.459L274.448 342.004L276.279 340.976L274.273 339.922L275 338.467L277.032 339.646L276.806 337.489H278.462L278.612 339.646L280.443 338.467L281.446 339.922L279.615 340.976Z" fill="#263238"/>
<path d="M292.31 340.976L294.316 342.004L293.589 343.459L291.557 342.305L291.758 344.437H290.127L289.952 342.28L288.121 343.459L287.143 342.004L288.974 340.976L286.967 339.922L287.669 338.467L289.726 339.646L289.5 337.489H291.156L291.306 339.646L293.137 338.467L294.141 339.922L292.31 340.976Z" fill="#263238"/>
<path d="M304.901 340.976L306.907 342.004L306.155 343.459L304.123 342.305L304.349 344.437H302.694L302.543 342.28L300.712 343.459L299.734 342.004L301.565 340.976L299.558 339.922L300.261 338.467L302.292 339.646L302.092 337.489H303.747L303.898 339.646L305.729 338.467L306.707 339.922L304.901 340.976Z" fill="#263238"/>
<path d="M317.492 340.976L319.499 342.004L318.746 343.459L316.715 342.305L316.94 344.437H315.285L315.134 342.28L313.303 343.459L312.325 342.004L314.156 340.976L312.15 339.922L312.852 338.467L314.884 339.646L314.683 337.489H316.338L316.489 339.646L318.32 338.467L319.298 339.922L317.492 340.976Z" fill="#263238"/>
<path d="M330.083 340.976L332.089 342.004L331.337 343.459L329.305 342.305L329.531 344.437H327.875L327.7 342.28L325.869 343.459L324.916 342.004L326.747 340.976L324.74 339.922L325.442 338.467L327.474 339.646L327.273 337.489H328.929L329.079 339.646L330.91 338.467L331.889 339.922L330.083 340.976Z" fill="#263238"/>
<path d="M342.673 340.976L344.655 342.004L343.927 343.459L341.896 342.305L342.122 344.437H340.466L340.291 342.28L338.46 343.459L337.506 342.004L339.312 340.976L337.306 339.922L338.033 338.467L340.065 339.646L339.864 337.489H341.52L341.67 339.646L343.501 338.467L344.479 339.922L342.673 340.976Z" fill="#263238"/>
<path d="M355.24 340.976L357.246 342.004L356.519 343.459L354.487 342.305L354.713 344.437H353.057L352.882 342.28L351.051 343.459L350.098 342.004L351.904 340.976L349.897 339.922L350.624 338.467L352.656 339.646L352.455 337.489H354.111L354.261 339.646L356.092 338.467L357.071 339.922L355.24 340.976Z" fill="#263238"/>
<path d="M270.346 -0.000210735L254.895 0.154297L254.927 3.36485L270.378 3.21034L270.346 -0.000210735Z" fill="#F5A17B"/>
<path d="M328.567 0.119409L283.721 0.495117L283.748 3.70556L328.594 3.32985L328.567 0.119409Z" fill="#F5A17B"/>
<path opacity="0.5" d="M808.43 217.069C808.661 219.17 808.443 221.297 807.789 223.308C807.135 225.319 806.061 227.168 804.637 228.731C803.214 230.295 801.474 231.537 799.533 232.377C797.592 233.216 795.495 233.632 793.38 233.598C788.88 233.517 784.566 231.791 781.252 228.745C777.939 225.7 775.855 221.546 775.396 217.069C775.189 214.972 775.425 212.854 776.087 210.854C776.75 208.854 777.826 207.015 779.245 205.457C780.663 203.899 782.393 202.656 784.323 201.809C786.253 200.961 788.338 200.529 790.446 200.539C794.946 200.62 799.26 202.346 802.574 205.392C805.887 208.438 807.971 212.591 808.43 217.069Z" fill="black"/>
<path opacity="0.5" d="M219.769 275.761C218.902 275.747 218.07 275.414 217.432 274.827C216.794 274.24 216.394 273.439 216.308 272.576L205.322 146.963C205.279 146.557 205.323 146.147 205.45 145.76C205.578 145.373 205.786 145.017 206.06 144.716C206.335 144.415 206.671 144.176 207.045 144.014C207.419 143.852 207.823 143.771 208.231 143.777C209.098 143.791 209.93 144.124 210.568 144.711C211.206 145.298 211.606 146.1 211.692 146.963L222.679 272.576C222.721 272.981 222.677 273.391 222.55 273.778C222.423 274.165 222.215 274.521 221.94 274.822C221.665 275.123 221.329 275.362 220.955 275.524C220.581 275.686 220.177 275.767 219.769 275.761Z" fill="black"/>
<path d="M665.348 842.624H717.62L723.414 831.663C737.532 805.026 745.139 775.423 745.612 745.279V742.646H637.306C637.308 774.917 645.48 806.662 661.059 834.924L665.348 842.624Z" fill="#F5A17B"/>
<path opacity="0.7" d="M665.348 842.624H717.62L723.414 831.663C737.532 805.026 745.139 775.423 745.612 745.279V742.646H637.306C637.308 774.917 645.48 806.662 661.059 834.924L665.348 842.624Z" fill="white"/>
<path d="M778.294 744.804C768.684 751.342 757.31 754.798 745.687 754.711C744.298 754.782 742.912 754.516 741.649 753.934C740.991 753.579 740.444 753.049 740.068 752.403C739.692 751.757 739.501 751.019 739.517 750.272C739.666 749.429 739.999 748.63 740.494 747.932C740.988 747.234 741.631 746.654 742.376 746.234C749.622 740.828 757.604 736.487 766.079 733.341C770.266 731.832 774.558 730.633 778.921 729.754C782.433 729.027 786.17 727.246 789.732 727.246C790.409 734.896 783.436 741.368 778.294 744.804Z" fill="#F5A17B"/>
<path d="M638.938 700.835C636.623 697.786 633.722 695.23 630.405 693.318C627.089 691.405 623.423 690.175 619.625 689.698C619.197 689.598 618.746 689.67 618.371 689.899C618.162 690.142 618.006 690.426 617.911 690.732C617.816 691.039 617.785 691.361 617.819 691.68C617.643 701.478 620.585 711.078 626.221 719.095C628.514 722.663 631.826 725.46 635.728 727.121C637.13 727.662 638.633 727.897 640.134 727.81C641.635 727.724 643.1 727.318 644.431 726.619C647.065 725.115 646.588 722.957 646.312 719.973C645.718 713.023 643.16 706.386 638.938 700.835Z" fill="#F5A17B"/>
<path opacity="0.2" d="M638.938 700.835C636.623 697.786 633.722 695.23 630.405 693.318C627.089 691.405 623.423 690.175 619.625 689.698C619.197 689.598 618.746 689.67 618.371 689.899C618.162 690.142 618.006 690.426 617.911 690.732C617.816 691.039 617.785 691.361 617.819 691.68C617.643 701.478 620.585 711.078 626.221 719.095C628.514 722.663 631.826 725.46 635.728 727.121C637.13 727.662 638.633 727.897 640.134 727.81C641.635 727.724 643.1 727.318 644.431 726.619C647.065 725.115 646.588 722.957 646.312 719.973C645.718 713.023 643.16 706.386 638.938 700.835Z" fill="black"/>
<path d="M686.217 705.324C682.175 698.083 679.97 689.961 679.795 681.671C679.789 674.522 681.151 667.439 683.809 660.802C686.23 654.929 689.133 649.267 692.487 643.872C693.49 659.924 693.791 676.077 693.34 692.205C693.417 695.59 693.011 698.968 692.136 702.238C691.133 705.248 689.076 707.581 687.12 706.828L686.217 705.324Z" fill="#F5A17B"/>
<path d="M672.195 656.263C679.017 666.296 683.331 681.044 683.883 696.169C684.238 701.434 683.678 706.721 682.228 711.795C680.648 716.461 677.537 720.022 674.327 719.546C671.116 719.069 668.332 714.529 666.426 709.864C663.265 702.189 659.428 691.228 661.234 681.746C662.737 672.48 666.501 663.727 672.195 656.263Z" fill="#F5A17B"/>
<path opacity="0.1" d="M672.195 656.263C679.017 666.296 683.331 681.044 683.883 696.169C684.238 701.434 683.678 706.721 682.228 711.795C680.648 716.461 677.537 720.022 674.327 719.546C671.116 719.069 668.332 714.529 666.426 709.864C663.265 702.189 659.428 691.228 661.234 681.746C662.737 672.48 666.501 663.727 672.195 656.263Z" fill="black"/>
<path d="M651.452 712.673C645.859 707.481 643.576 698.778 643.927 690.576C644.503 682.457 646.191 674.456 648.944 666.797C654.456 674.417 658.864 682.776 662.037 691.629C663.402 695.048 664.207 698.664 664.42 702.339C664.625 705.999 663.403 709.596 661.008 712.372C659.885 713.617 658.34 714.402 656.672 714.573C655.004 714.744 653.332 714.291 651.979 713.3L652.907 713.852L651.452 712.673Z" fill="#F5A17B"/>
<g opacity="0.2">
<path opacity="0.2" d="M651.452 712.673C645.859 707.481 643.576 698.778 643.927 690.576C644.503 682.457 646.191 674.456 648.944 666.797C654.456 674.417 658.864 682.776 662.037 691.629C663.402 695.048 664.207 698.664 664.42 702.339C664.625 705.999 663.403 709.596 661.008 712.372C659.885 713.617 658.34 714.402 656.672 714.573C655.004 714.744 653.332 714.291 651.979 713.3L652.907 713.852L651.452 712.673Z" fill="black"/>
</g>
<path d="M638.762 680.542C637.382 690.575 636.002 701.009 637.708 711.067C639.414 721.125 644.831 730.957 653.284 734.519C656.796 735.974 661.336 735.999 663.693 732.688C664.434 731.476 664.909 730.12 665.086 728.71C665.263 727.301 665.139 725.869 664.722 724.511C663.895 721.839 662.678 719.303 661.11 716.987C654.363 706.026 640.292 679.363 638.862 680.542H638.762Z" fill="#F5A17B"/>
<path d="M638.762 680.542C637.382 690.575 636.002 701.009 637.708 711.067C639.414 721.125 644.831 730.957 653.284 734.519C656.796 735.974 661.336 735.999 663.693 732.688C664.434 731.476 664.909 730.12 665.086 728.71C665.263 727.301 665.139 725.869 664.722 724.511C663.895 721.839 662.678 719.303 661.11 716.987C654.363 706.026 640.292 679.363 638.862 680.542H638.762Z" fill="#F5A17B"/>
<g opacity="0.1">
<path opacity="0.1" d="M638.762 680.542C637.382 690.575 636.002 701.009 637.708 711.067C639.414 721.125 644.831 730.957 653.284 734.519C656.796 735.974 661.336 735.999 663.693 732.688C664.434 731.476 664.909 730.12 665.086 728.71C665.263 727.301 665.139 725.869 664.722 724.511C663.895 721.839 662.678 719.303 661.11 716.987C654.363 706.026 640.292 679.363 638.862 680.542H638.762Z" fill="black"/>
</g>
<path d="M664.845 694.212C661.362 700.24 658.92 706.812 657.622 713.651C656.3 720.593 657.177 727.774 660.13 734.194C661.464 737.175 663.578 739.741 666.249 741.621C668.92 743.502 672.048 744.627 675.305 744.879C677.811 744.804 680.254 744.069 682.386 742.748C684.517 741.427 686.262 739.566 687.445 737.354C690.329 732.338 688.222 727.697 686.015 722.756C681.124 711.569 672.847 702.715 664.845 694.212Z" fill="#F5A17B"/>
<path d="M602.768 712.899C601.975 714.403 601.519 716.062 601.432 717.76C601.345 719.458 601.63 721.155 602.267 722.731C603.517 725.77 605.378 728.519 607.735 730.808C614.799 738.569 623.584 744.565 633.385 748.316C643.186 752.066 653.73 753.466 664.17 752.404C665.05 752.415 665.919 752.21 666.702 751.808C667.484 751.406 668.157 750.818 668.66 750.096C669.035 749.129 669.102 748.07 668.85 747.064C668.599 746.058 668.042 745.154 667.255 744.478C665.711 743.336 663.912 742.587 662.013 742.296C651.447 739.639 641.452 735.084 632.516 728.851C623.361 722.531 612.525 718.166 602.768 712.899Z" fill="#F5A17B"/>
<path opacity="0.1" d="M602.768 712.899C601.975 714.403 601.519 716.062 601.432 717.76C601.345 719.458 601.63 721.155 602.267 722.731C603.517 725.77 605.378 728.519 607.735 730.808C614.799 738.569 623.584 744.565 633.385 748.316C643.186 752.066 653.73 753.466 664.17 752.404C665.05 752.415 665.919 752.21 666.702 751.808C667.484 751.406 668.157 750.818 668.66 750.096C669.035 749.129 669.102 748.07 668.85 747.064C668.599 746.058 668.042 745.154 667.255 744.478C665.711 743.336 663.912 742.587 662.013 742.296C651.447 739.639 641.452 735.084 632.516 728.851C623.361 722.531 612.525 718.166 602.768 712.899Z" fill="black"/>
<path d="M638.761 712.873C637.256 710.641 635.35 708.057 632.867 708.333C630.96 708.559 629.556 710.49 628.753 712.497C625.517 720.574 629.38 730.506 635.55 735.974C641.721 741.442 649.647 743.499 657.272 745.43L665.148 747.412C668.258 748.214 674.529 747.161 671.744 742.22C669.863 738.909 663.618 737.028 660.733 735.071C652.053 729.15 644.594 721.613 638.761 712.873Z" fill="#F5A17B"/>
<path d="M606.353 744.803C615.962 751.344 627.337 754.8 638.96 754.711C640.342 754.784 641.72 754.517 642.974 753.933C643.638 753.584 644.192 753.056 644.573 752.409C644.954 751.762 645.147 751.022 645.131 750.271C644.977 749.43 644.641 748.634 644.147 747.936C643.653 747.238 643.013 746.657 642.271 746.233C635.02 740.822 627.029 736.48 618.543 733.341C614.337 731.78 610.019 730.539 605.626 729.628C602.114 728.901 598.377 727.12 594.815 727.12C594.238 734.896 601.136 741.367 606.353 744.803Z" fill="#F5A17B"/>
<path d="M638.034 775.128C628.164 774.087 618.823 770.142 611.196 763.791C609.691 762.587 608.036 760.681 608.688 758.774C608.988 758.167 609.425 757.638 609.965 757.229C610.504 756.819 611.132 756.541 611.798 756.417C620.903 753.357 630.234 750.271 639.74 750.698C644.293 750.878 648.756 752.024 652.833 754.059C656.043 755.689 662.69 759.677 663.618 764.092C664.546 768.506 656.269 771.817 653.209 773.021C648.367 774.832 643.186 775.551 638.034 775.128Z" fill="#F5A17B"/>
<path opacity="0.1" d="M638.034 775.128C628.164 774.087 618.823 770.142 611.196 763.791C609.691 762.587 608.036 760.681 608.688 758.774C608.988 758.167 609.425 757.638 609.965 757.229C610.504 756.819 611.132 756.541 611.798 756.417C620.903 753.357 630.234 750.271 639.74 750.698C644.293 750.878 648.756 752.024 652.833 754.059C656.043 755.689 662.69 759.677 663.618 764.092C664.546 768.506 656.269 771.817 653.209 773.021C648.367 774.832 643.186 775.551 638.034 775.128Z" fill="black"/>
<path d="M676.107 751.25C666.734 749.161 657.074 748.678 647.539 749.821C645.128 749.958 642.78 750.636 640.666 751.802C639.555 752.469 638.622 753.394 637.945 754.499C637.268 755.604 636.868 756.856 636.778 758.148C636.796 759.464 637.126 760.758 637.741 761.922C638.356 763.086 639.238 764.088 640.315 764.845C642.373 766.111 644.655 766.971 647.037 767.378C653.909 769.184 660.958 770.94 667.981 769.887C670.813 769.599 673.558 768.745 676.053 767.375C678.548 766.004 680.741 764.146 682.503 761.91C686.843 755.891 681.149 752.329 676.107 751.25Z" fill="#F5A17B"/>
<path opacity="0.1" d="M676.107 751.25C666.734 749.161 657.074 748.678 647.539 749.821C645.128 749.958 642.78 750.636 640.666 751.802C639.555 752.469 638.622 753.394 637.945 754.499C637.268 755.604 636.868 756.856 636.778 758.148C636.796 759.464 637.126 760.758 637.741 761.922C638.356 763.086 639.238 764.088 640.315 764.845C642.373 766.111 644.655 766.971 647.037 767.378C653.909 769.184 660.958 770.94 667.981 769.887C670.813 769.599 673.558 768.745 676.053 767.375C678.548 766.004 680.741 764.146 682.503 761.91C686.843 755.891 681.149 752.329 676.107 751.25Z" fill="white"/>
<path d="M704.704 751.174C706.65 749.861 708.25 748.097 709.369 746.032C709.944 744.943 710.208 743.716 710.133 742.486C710.058 741.256 709.646 740.071 708.943 739.059C706.761 736.551 694.671 732.864 691.636 732.162C689.02 731.861 686.377 732.425 684.111 733.767C680.616 735.439 677.197 737.17 673.852 738.959C672.097 739.804 670.514 740.969 669.187 742.396C668.493 743.179 667.986 744.11 667.703 745.118C667.421 746.126 667.371 747.184 667.557 748.215C668.026 749.518 668.817 750.682 669.856 751.599C670.895 752.515 672.149 753.154 673.501 753.457C679.928 755.78 686.737 756.861 693.567 756.642C693.116 756.542 701.694 753.457 704.704 751.174Z" fill="#F5A17B"/>
<g opacity="0.1">
<path opacity="0.1" d="M704.704 751.174C706.65 749.861 708.25 748.097 709.369 746.032C709.944 744.943 710.208 743.716 710.133 742.486C710.058 741.256 709.646 740.071 708.943 739.059C706.761 736.551 694.671 732.864 691.636 732.162C689.02 731.861 686.377 732.425 684.111 733.767C680.616 735.439 677.197 737.17 673.852 738.959C672.097 739.804 670.514 740.969 669.187 742.396C668.493 743.179 667.986 744.11 667.703 745.118C667.421 746.126 667.371 747.184 667.557 748.215C668.026 749.518 668.817 750.682 669.856 751.599C670.895 752.515 672.149 753.154 673.501 753.457C679.928 755.78 686.737 756.861 693.567 756.642C693.116 756.542 701.694 753.457 704.704 751.174Z" fill="black"/>
</g>
<path d="M680.147 755.94C678.579 756.377 677.123 757.144 675.877 758.191C674.631 759.239 673.624 760.541 672.923 762.01C672.191 763.564 671.934 765.3 672.183 767C672.433 768.7 673.179 770.288 674.328 771.566C676.157 772.942 678.385 773.682 680.674 773.673L688.951 774.501C689.804 774.694 690.686 774.716 691.548 774.566C692.409 774.415 693.231 774.094 693.968 773.623C695.899 772.068 696.075 768.958 696.049 766.274C696.172 763.731 695.858 761.186 695.121 758.749C694.826 757.438 694.047 756.287 692.941 755.525C691.835 754.762 690.482 754.445 689.152 754.636C686.123 754.858 683.114 755.294 680.147 755.94Z" fill="#F5A17B"/>
<path d="M745.712 700.835C748.023 697.782 750.923 695.223 754.241 693.31C757.558 691.397 761.225 690.169 765.025 689.698C765.453 689.598 765.904 689.67 766.279 689.899C766.685 690.399 766.883 691.037 766.831 691.68C767.024 701.465 764.118 711.061 758.529 719.095C756.283 722.694 753.005 725.535 749.123 727.247C747.72 727.787 746.218 728.022 744.717 727.936C743.216 727.849 741.751 727.443 740.419 726.745C737.911 725.24 738.262 723.083 738.538 720.098C739.027 713.121 741.518 706.432 745.712 700.835Z" fill="#F5A17B"/>
<path opacity="0.2" d="M745.712 700.835C748.023 697.782 750.923 695.223 754.241 693.31C757.558 691.397 761.225 690.169 765.025 689.698C765.453 689.598 765.904 689.67 766.279 689.899C766.685 690.399 766.883 691.037 766.831 691.68C767.024 701.465 764.118 711.061 758.529 719.095C756.283 722.694 753.005 725.535 749.123 727.247C747.72 727.787 746.218 728.022 744.717 727.936C743.216 727.849 741.751 727.443 740.419 726.745C737.911 725.24 738.262 723.083 738.538 720.098C739.027 713.121 741.518 706.432 745.712 700.835Z" fill="black"/>
<path d="M698.431 705.324C702.472 698.083 704.677 689.961 704.852 681.671C704.846 674.523 703.484 667.442 700.838 660.802C698.397 654.939 695.495 649.277 692.16 643.872C691.157 659.924 690.856 676.077 691.282 692.205C691.226 695.591 691.64 698.967 692.511 702.238C693.489 705.248 695.571 707.581 697.528 706.828L698.431 705.324Z" fill="#F5A17B"/>
<path d="M712.455 656.263C705.608 666.296 701.319 681.044 700.767 696.169C700.401 701.434 700.961 706.723 702.422 711.795C704.002 716.461 707.088 720.022 710.323 719.546C713.559 719.069 716.318 714.529 718.199 709.864C721.385 702.189 725.222 691.228 723.416 681.746C721.913 672.48 718.149 663.727 712.455 656.263Z" fill="#F5A17B"/>
<path opacity="0.1" d="M712.455 656.263C705.608 666.296 701.319 681.044 700.767 696.169C700.401 701.434 700.961 706.723 702.422 711.795C704.002 716.461 707.088 720.022 710.323 719.546C713.559 719.069 716.318 714.529 718.199 709.864C721.385 702.189 725.222 691.228 723.416 681.746C721.913 672.48 718.149 663.727 712.455 656.263Z" fill="black"/>
<path d="M733.196 712.673C738.79 707.481 741.047 698.778 740.721 690.576C740.146 682.457 738.458 674.456 735.705 666.797C730.183 674.411 725.775 682.772 722.612 691.629C721.203 695.04 720.356 698.657 720.103 702.339C719.898 705.999 721.12 709.596 723.515 712.372C724.638 713.617 726.183 714.402 727.851 714.573C729.519 714.744 731.191 714.291 732.544 713.3L731.591 713.852L733.196 712.673Z" fill="#F5A17B"/>
<g opacity="0.2">
<path opacity="0.2" d="M733.196 712.673C738.79 707.481 741.047 698.778 740.721 690.576C740.146 682.457 738.458 674.456 735.705 666.797C730.183 674.411 725.775 682.772 722.612 691.629C721.203 695.04 720.356 698.657 720.103 702.339C719.898 705.999 721.12 709.596 723.515 712.372C724.638 713.617 726.183 714.402 727.851 714.573C729.519 714.744 731.191 714.291 732.544 713.3L731.591 713.852L733.196 712.673Z" fill="black"/>
</g>
<path d="M745.913 680.542C747.318 690.575 748.697 701.009 746.966 711.067C745.236 721.125 739.868 730.957 731.415 734.519C727.879 735.974 723.364 735.999 721.006 732.688C720.266 731.476 719.791 730.12 719.614 728.71C719.436 727.301 719.56 725.869 719.978 724.511C720.804 721.839 722.021 719.303 723.59 716.987C730.337 706.026 744.408 679.363 745.838 680.542H745.913Z" fill="#F5A17B"/>
<path d="M745.913 680.542C747.318 690.575 748.697 701.009 746.966 711.067C745.236 721.125 739.868 730.957 731.415 734.519C727.879 735.974 723.364 735.999 721.006 732.688C720.266 731.476 719.791 730.12 719.614 728.71C719.436 727.301 719.56 725.869 719.978 724.511C720.804 721.839 722.021 719.303 723.59 716.987C730.337 706.026 744.408 679.363 745.838 680.542H745.913Z" fill="#F5A17B"/>
<g opacity="0.1">
<path opacity="0.1" d="M745.913 680.542C747.318 690.575 748.697 701.009 746.966 711.067C745.236 721.125 739.868 730.957 731.415 734.519C727.879 735.974 723.364 735.999 721.006 732.688C720.266 731.476 719.791 730.12 719.614 728.71C719.436 727.301 719.56 725.869 719.978 724.511C720.804 721.839 722.021 719.303 723.59 716.987C730.337 706.026 744.408 679.363 745.838 680.542H745.913Z" fill="black"/>
</g>
<path d="M719.777 694.212C723.282 700.23 725.725 706.806 727.001 713.651C728.334 720.593 727.457 727.777 724.493 734.194C721.383 740.339 715.538 744.829 709.318 744.879C706.811 744.804 704.369 744.069 702.237 742.748C700.105 741.427 698.36 739.566 697.178 737.354C694.294 732.338 696.401 727.697 698.608 722.756C703.524 711.569 711.776 702.715 719.777 694.212Z" fill="#F5A17B"/>
<path d="M781.906 713.701C782.684 715.174 783.129 716.8 783.212 718.464C783.294 720.128 783.011 721.789 782.383 723.332C781.154 726.307 779.336 729.003 777.04 731.258C770.106 738.851 761.489 744.713 751.879 748.372C742.27 752.031 731.936 753.386 721.708 752.328C720.848 752.339 719.998 752.138 719.233 751.745C718.468 751.351 717.81 750.776 717.319 750.07C716.934 749.125 716.858 748.083 717.101 747.092C717.345 746.101 717.895 745.212 718.673 744.552C720.156 743.459 721.874 742.729 723.69 742.42C734.056 739.819 743.863 735.357 752.635 729.252C761.665 723.132 772.35 718.843 781.906 713.701Z" fill="#F5A17B"/>
<path opacity="0.1" d="M781.906 713.701C782.684 715.174 783.129 716.8 783.212 718.464C783.294 720.128 783.011 721.789 782.383 723.332C781.154 726.307 779.336 729.003 777.04 731.258C770.106 738.851 761.489 744.713 751.879 748.372C742.27 752.031 731.936 753.386 721.708 752.328C720.848 752.339 719.998 752.138 719.233 751.745C718.468 751.351 717.81 750.776 717.319 750.07C716.934 749.125 716.858 748.083 717.101 747.092C717.345 746.101 717.895 745.212 718.673 744.552C720.156 743.459 721.874 742.729 723.69 742.42C734.056 739.819 743.863 735.357 752.635 729.252C761.665 723.132 772.35 718.843 781.906 713.701Z" fill="black"/>
<path d="M747.569 712.196C749.049 709.989 750.93 707.431 753.338 707.732C755.219 707.932 756.624 709.839 757.401 711.795C760.562 719.746 756.774 729.478 750.729 734.846C744.685 740.214 736.884 742.371 729.384 744.151L721.659 746.108C718.599 746.885 712.454 745.832 715.188 741.091C717.019 737.856 723.164 736.075 725.998 734.068C734.53 728.235 741.854 720.808 747.569 712.196Z" fill="#F5A17B"/>
<path d="M746.614 775.128C756.476 774.083 765.807 770.137 773.427 763.791C774.957 762.587 776.613 760.681 775.935 758.774C775.632 758.169 775.194 757.642 774.655 757.233C774.116 756.824 773.49 756.545 772.825 756.417C763.695 753.357 754.39 750.271 744.883 750.698C740.33 750.875 735.866 752.021 731.79 754.059C728.58 755.689 721.933 759.677 720.98 764.092C720.027 768.506 728.354 771.817 731.414 773.021C736.263 774.836 741.454 775.555 746.614 775.128Z" fill="#F5A17B"/>
<path opacity="0.1" d="M746.614 775.128C756.476 774.083 765.807 770.137 773.427 763.791C774.957 762.587 776.613 760.681 775.935 758.774C775.632 758.169 775.194 757.642 774.655 757.233C774.116 756.824 773.49 756.545 772.825 756.417C763.695 753.357 754.39 750.271 744.883 750.698C740.33 750.875 735.866 752.021 731.79 754.059C728.58 755.689 721.933 759.677 720.98 764.092C720.027 768.506 728.354 771.817 731.414 773.021C736.263 774.836 741.454 775.555 746.614 775.128Z" fill="black"/>
<path d="M708.539 751.25C717.906 749.119 727.566 748.593 737.108 749.695C739.518 749.836 741.866 750.513 743.981 751.676C745.092 752.343 746.025 753.268 746.702 754.373C747.379 755.478 747.779 756.729 747.869 758.022C747.85 759.338 747.52 760.632 746.906 761.796C746.291 762.96 745.409 763.962 744.332 764.719C742.288 766.055 740.006 766.983 737.61 767.453C730.737 769.259 723.689 771.015 716.666 769.961C713.831 769.67 711.084 768.814 708.585 767.444C706.087 766.075 703.888 764.218 702.118 761.985C697.804 755.89 703.498 752.328 708.539 751.25Z" fill="#F5A17B"/>
<path opacity="0.1" d="M708.539 751.25C717.906 749.119 727.566 748.593 737.108 749.695C739.518 749.836 741.866 750.513 743.981 751.676C745.092 752.343 746.025 753.268 746.702 754.373C747.379 755.478 747.779 756.729 747.869 758.022C747.85 759.338 747.52 760.632 746.906 761.796C746.291 762.96 745.409 763.962 744.332 764.719C742.288 766.055 740.006 766.983 737.61 767.453C730.737 769.259 723.689 771.015 716.666 769.961C713.831 769.67 711.084 768.814 708.585 767.444C706.087 766.075 703.888 764.218 702.118 761.985C697.804 755.89 703.498 752.328 708.539 751.25Z" fill="white"/>
<path d="M679.923 751.174C677.988 749.847 676.39 748.086 675.257 746.032C674.694 744.937 674.439 743.711 674.518 742.483C674.598 741.255 675.009 740.071 675.709 739.059C677.891 736.55 689.981 732.863 693.016 732.161C695.632 731.862 698.274 732.426 700.54 733.766C704.002 735.372 707.438 737.102 710.799 738.958C712.555 739.803 714.137 740.968 715.464 742.395C716.154 743.181 716.658 744.112 716.94 745.119C717.222 746.126 717.275 747.184 717.095 748.214C716.626 749.517 715.835 750.682 714.795 751.598C713.756 752.514 712.502 753.154 711.15 753.456C704.724 755.78 697.914 756.861 691.084 756.642C691.435 756.541 682.932 753.456 679.923 751.174Z" fill="#F5A17B"/>
<g opacity="0.1">
<path opacity="0.1" d="M679.923 751.174C677.988 749.847 676.39 748.086 675.257 746.032C674.694 744.937 674.439 743.711 674.518 742.483C674.598 741.255 675.009 740.071 675.709 739.059C677.891 736.55 689.981 732.863 693.016 732.161C695.632 731.862 698.274 732.426 700.54 733.766C704.002 735.372 707.438 737.102 710.799 738.958C712.555 739.803 714.137 740.968 715.464 742.395C716.154 743.181 716.658 744.112 716.94 745.119C717.222 746.126 717.275 747.184 717.095 748.214C716.626 749.517 715.835 750.682 714.795 751.598C713.756 752.514 712.502 753.154 711.15 753.456C704.724 755.78 697.914 756.861 691.084 756.642C691.435 756.541 682.932 753.456 679.923 751.174Z" fill="black"/>
</g>
<path d="M704.503 755.94C706.067 756.378 707.518 757.147 708.76 758.194C710.002 759.241 711.005 760.542 711.701 762.01C712.437 763.562 712.699 765.296 712.453 766.996C712.208 768.696 711.466 770.286 710.322 771.566C708.484 772.943 706.247 773.682 703.951 773.673L695.699 774.501C693.976 774.883 692.172 774.567 690.682 773.623C688.776 772.068 688.6 768.958 688.625 766.274C688.478 763.73 688.793 761.181 689.553 758.749C689.849 757.438 690.627 756.287 691.734 755.525C692.84 754.762 694.193 754.445 695.523 754.636C698.543 754.861 701.543 755.297 704.503 755.94Z" fill="#F5A17B"/>
<path d="M690.881 696.796C691.309 696.424 691.791 696.12 692.311 695.893C692.154 695.863 691.992 695.863 691.835 695.893C691.735 695.872 691.633 695.872 691.534 695.893C691.425 695.935 691.33 696.004 691.258 696.094C691.171 696.18 691.103 696.282 691.057 696.395C690.982 696.481 690.931 696.585 690.906 696.696C690.906 696.696 690.881 696.746 690.881 696.796Z" fill="#F5A17B"/>
<path opacity="0.1" d="M690.857 696.796C691.285 696.424 691.767 696.12 692.287 695.893C692.129 695.863 691.968 695.863 691.81 695.893C691.711 695.872 691.608 695.872 691.509 695.893C691.401 695.935 691.306 696.004 691.233 696.094C691.147 696.18 691.079 696.282 691.033 696.395C690.958 696.481 690.906 696.585 690.882 696.696C690.882 696.696 690.882 696.746 690.857 696.796Z" fill="#F5A17B"/>
<path d="M680.575 724.738C681.498 727.498 682.946 730.053 684.839 732.263C685.713 733.326 686.806 734.189 688.044 734.79C689.283 735.392 690.636 735.719 692.012 735.749H692.664C694.037 735.717 695.386 735.389 696.62 734.787C697.854 734.186 698.943 733.324 699.813 732.263C701.696 730.042 703.15 727.49 704.102 724.738C705.607 721.063 706.209 717.081 705.858 713.125C705.147 708.883 703.11 704.975 700.039 701.963C699.286 701.963 696.853 699.154 696.101 698.577L695.9 698.427L695.649 698.226C695.148 697.8 694.445 697.198 693.768 696.671C693.091 696.144 693.141 696.219 692.84 696.044L692.589 695.918L692.313 695.793C691.793 696.019 691.311 696.324 690.884 696.696C689.956 697.373 689.053 698.226 688.576 698.577C688.099 698.928 685.391 701.963 684.613 701.963C681.536 704.967 679.504 708.88 678.819 713.125C678.444 717.081 679.047 721.069 680.575 724.738Z" fill="#F5A17B"/>
<path d="M692.312 695.893L692.588 696.019L692.839 696.144C693.14 696.32 693.441 696.545 693.767 696.771C693.566 696.194 693.24 695.843 692.814 695.793C692.642 695.792 692.471 695.826 692.312 695.893Z" fill="#F5A17B"/>
<g opacity="0.2">
<path opacity="0.2" d="M680.575 724.739C681.498 727.498 682.946 730.053 684.839 732.263C685.713 733.327 686.806 734.189 688.044 734.791C689.283 735.392 690.636 735.72 692.012 735.75H692.664C694.037 735.718 695.386 735.39 696.62 734.788C697.854 734.186 698.943 733.325 699.813 732.263C701.696 730.042 703.15 727.491 704.102 724.739C705.607 721.063 706.209 717.081 705.858 713.125C705.147 708.883 703.11 704.976 700.039 701.964C699.286 701.964 696.853 699.155 696.101 698.578C695.348 698.001 694.671 697.349 693.768 696.671C693.328 696.31 692.838 696.014 692.313 695.793C691.785 696.018 691.294 696.323 690.859 696.696C689.931 697.374 689.028 698.226 688.551 698.578C688.074 698.929 685.365 701.964 684.588 701.964C681.51 704.967 679.479 708.88 678.794 713.125C678.427 717.084 679.038 721.072 680.575 724.739Z" fill="white"/>
<path opacity="0.2" d="M692.313 695.893C692.838 696.114 693.328 696.41 693.768 696.771C693.567 696.194 693.241 695.843 692.815 695.793C692.642 695.792 692.472 695.826 692.313 695.893Z" fill="white"/>
</g>
<path opacity="0.1" d="M690.856 696.796C691.292 696.423 691.783 696.118 692.311 695.893C692.154 695.863 691.992 695.863 691.835 695.893C691.433 695.843 691.082 696.194 690.856 696.796Z" fill="white"/>
<path d="M215.875 470.602H147.149C144.917 470.602 143.913 468.796 144.917 466.563L162.199 427.761C162.738 426.633 163.564 425.667 164.594 424.959C165.624 424.25 166.822 423.824 168.068 423.723H236.744C238.976 423.723 239.979 425.529 239.001 427.761L221.744 466.563C221.209 467.694 220.384 468.663 219.353 469.372C218.322 470.081 217.122 470.506 215.875 470.602Z" fill="#F5A17B"/>
<path opacity="0.2" d="M215.875 470.602H147.149C144.917 470.602 143.913 468.796 144.917 466.563L162.199 427.761C162.738 426.633 163.564 425.667 164.594 424.959C165.624 424.25 166.822 423.824 168.068 423.723H236.744C238.976 423.723 239.979 425.529 239.001 427.761L221.744 466.563C221.209 467.694 220.384 468.663 219.353 469.372C218.322 470.081 217.122 470.506 215.875 470.602Z" fill="black"/>
<path d="M239.702 423.746H236.742C238.974 423.746 239.978 425.552 238.999 427.784L221.743 466.587C221.207 467.718 220.382 468.687 219.351 469.396C218.321 470.105 217.121 470.529 215.873 470.625H218.858C220.101 470.525 221.296 470.099 222.322 469.39C223.348 468.681 224.169 467.714 224.702 466.587L241.959 427.759C242.962 425.527 241.934 423.746 239.702 423.746Z" fill="#F5A17B"/>
<path opacity="0.4" d="M239.702 423.746H236.742C238.974 423.746 239.978 425.552 238.999 427.784L221.743 466.587C221.207 467.718 220.382 468.687 219.351 469.396C218.321 470.105 217.121 470.529 215.873 470.625H218.858C220.101 470.525 221.296 470.099 222.322 469.39C223.348 468.681 224.169 467.714 224.702 466.587L241.959 427.759C242.962 425.527 241.934 423.746 239.702 423.746Z" fill="black"/>
<path d="M214.595 466.137H152.365L169.271 428.187H231.5L214.595 466.137Z" fill="#263238"/>
<path opacity="0.8" d="M214.595 466.137H152.365L169.271 428.187H231.5L214.595 466.137Z" fill="white"/>
<path d="M242.838 790.954L247.052 810.794L268.597 807.96L265.462 785.938L242.838 790.954Z" fill="#FAB27B"/>
<path d="M279.558 807.959C282.367 807.683 285.226 806.881 286.029 805.577C286.232 805.213 286.316 804.796 286.271 804.383C286.226 803.969 286.054 803.58 285.778 803.269C285.334 802.678 284.677 802.283 283.947 802.165C280.085 801.513 272.635 806.78 272.309 807.006C272.218 807.074 272.149 807.168 272.113 807.275C272.078 807.383 272.076 807.499 272.108 807.608C272.141 807.714 272.203 807.808 272.288 807.879C272.372 807.95 272.475 807.995 272.585 808.01C274.906 808.193 277.239 808.177 279.558 807.959ZM282.593 803.219C282.933 803.156 283.281 803.156 283.621 803.219C283.848 803.23 284.068 803.295 284.264 803.409C284.46 803.522 284.627 803.68 284.75 803.871C285.226 804.498 285.101 804.824 284.976 805.025C284.073 806.605 278.379 807.182 274.115 807.081C276.672 805.27 279.548 803.959 282.593 803.219Z" fill="#F5A17B"/>
<path d="M272.56 807.984C272.633 808.007 272.712 808.007 272.786 807.984C275.294 806.529 280.31 801.086 279.583 798.603C279.583 797.976 278.931 797.274 277.451 797.274C276.914 797.272 276.382 797.377 275.887 797.584C275.391 797.79 274.942 798.094 274.566 798.478C271.908 801.137 271.908 807.307 271.908 807.583C271.904 807.677 271.928 807.77 271.977 807.85C272.026 807.931 272.098 807.995 272.184 808.034C272.311 808.067 272.446 808.049 272.56 807.984ZM277.2 798.277H277.501C278.454 798.277 278.555 798.653 278.63 798.779C278.906 800.309 275.72 804.473 273.087 806.304C273.113 803.719 273.917 801.201 275.394 799.08C275.884 798.602 276.52 798.301 277.2 798.227V798.277Z" fill="#F5A17B"/>
<path d="M270.051 805L245.369 807.509C244.921 807.555 244.502 807.751 244.179 808.065C243.856 808.379 243.648 808.793 243.589 809.239L241.08 829.757C241.02 830.19 241.047 830.631 241.159 831.054C241.27 831.477 241.465 831.874 241.73 832.222C241.996 832.569 242.329 832.861 242.708 833.079C243.087 833.297 243.506 833.438 243.94 833.494H244.642C253.521 832.466 261.397 831.211 272.458 830.133C285.551 828.854 282.366 830.735 297.767 829.456C307.047 828.678 307.8 817.968 303.711 817.843C285.526 817.341 283.144 812.099 275.569 806.355C273.952 805.254 271.993 804.773 270.051 805Z" fill="#263238"/>
<path opacity="0.2" d="M267.117 797.526L244.593 799.281L242.837 790.954L265.462 785.938L267.117 797.526Z" fill="black"/>
<path d="M248.858 626.739L270.128 783.003L237.069 785.611L198.593 630.677L248.858 626.739Z" fill="#263238"/>
<path opacity="0.3" d="M248.858 626.739L270.128 783.003L237.069 785.611L198.593 630.677L248.858 626.739Z" fill="black"/>
<path d="M234.032 783.304L273.863 780.169C274.816 781.646 275.296 783.379 275.238 785.136C275.18 786.893 274.586 788.591 273.537 790.001L235.085 793.463C235.085 793.463 231.273 791.255 234.032 783.304Z" fill="#F5A17B"/>
<path d="M210.831 472.282L218.933 452.718C219.627 451.654 220.648 450.844 221.842 450.41L225.906 448.83C226.776 448.506 227.558 447.982 228.188 447.3L230.069 445.268C230.896 444.375 231.98 443.762 233.172 443.515C234.363 443.267 235.602 443.398 236.716 443.889L238.472 444.641C239.351 445.015 240.124 445.6 240.723 446.344C241.322 447.087 241.729 447.967 241.908 448.905C242.962 454.674 243.789 467.291 233.355 475.769L221.692 480.559L210.831 472.282Z" fill="#FAB27B"/>
<path d="M221.692 480.659L206.191 503.986L195.33 492.498L210.831 472.282L221.692 480.659Z" fill="#FAB27B"/>
<path d="M127.884 425.201C128.661 423.621 141.127 428.261 155.7 435.585C170.273 442.91 181.46 450.133 180.657 451.713C179.854 453.294 167.388 448.653 152.816 441.329C138.243 434.005 127.081 426.807 127.884 425.201Z" fill="#263238"/>
<path d="M146.495 431.272L142.557 429.541L140.049 434.558C141.228 435.26 142.557 435.962 143.786 436.69L146.495 431.272Z" fill="#F5A17B"/>
<path opacity="0.5" d="M146.495 431.272L142.557 429.541L140.049 434.558C141.228 435.26 142.557 435.962 143.786 436.69L146.495 431.272Z" fill="white"/>
<path d="M132.349 424.725C131.646 421.415 144.89 427.234 145.542 427.635C146.194 428.036 147.097 426.632 146.169 426.18C145.241 425.729 129.339 418.104 130.768 424.926C130.969 425.904 132.549 425.729 132.349 424.725Z" fill="#F5A17B"/>
<g opacity="0.2">
<path opacity="0.2" d="M132.349 424.725C131.646 421.415 144.89 427.234 145.542 427.635C146.194 428.036 147.097 426.632 146.169 426.18C145.241 425.729 129.339 418.104 130.768 424.926C130.969 425.904 132.549 425.729 132.349 424.725Z" fill="black"/>
</g>
<path d="M131.648 477.749L144.49 455.927C144.574 448.454 146.689 441.145 150.61 434.782C152.119 433.241 153.728 431.799 155.426 430.468C158.96 432.228 162.319 434.32 165.459 436.714C170.124 440.301 171.353 442.884 165.659 451.588C162.846 455.883 159.347 459.688 155.3 462.85L143.16 487.581L131.648 477.749Z" fill="#FAB27B"/>
<path d="M128.762 475.117L134.331 466.388C137.942 467.239 141.329 468.855 144.263 471.126C147.197 473.398 149.609 476.273 151.336 479.556L146.621 489.74L128.762 475.117Z" fill="#F5A17B"/>
<path d="M64.3757 426.38C74.0826 427.032 82.5353 425.326 99.1399 477.623C101.754 484.644 105.48 491.199 110.176 497.037L128.436 471.954C128.436 471.954 140.401 472.657 148.678 487.28C148.678 487.28 134.582 534.51 108.145 531.099C81.7077 527.688 66.9592 497.338 61.14 479.203C55.3209 461.069 42.7797 424.925 64.3757 426.38Z" fill="#263238"/>
<path d="M111.431 402.527L113.237 418.68L86.0729 418.805L85.4709 398.388L111.431 402.527Z" fill="#FAB27B"/>
<path opacity="0.2" d="M112.032 410.328C105.184 408.522 100.619 400.445 100.619 400.445L106.388 401.574L111.405 402.527L112.032 410.328Z" fill="black"/>
<path d="M118.854 357.103C119.356 358.382 119.105 359.611 118.252 360.038C117.399 360.464 116.195 359.561 115.744 358.307C115.292 357.053 115.493 355.799 116.371 355.397C117.249 354.996 118.327 355.824 118.854 357.103Z" fill="#263238"/>
<path d="M115.493 360.539L125.902 368.064C124.975 369.259 123.784 370.223 122.422 370.88C121.06 371.537 119.564 371.87 118.051 371.851L115.493 360.539Z" fill="#ED893E"/>
<path d="M113.862 349.353C113.742 349.361 113.625 349.399 113.524 349.465C113.423 349.531 113.341 349.622 113.285 349.729C112.882 350.539 112.292 351.241 111.564 351.778C110.835 352.314 109.989 352.67 109.096 352.814C109.003 352.817 108.911 352.839 108.826 352.879C108.742 352.919 108.667 352.977 108.605 353.047C108.544 353.118 108.498 353.201 108.471 353.29C108.443 353.379 108.434 353.474 108.444 353.567C108.469 353.759 108.565 353.936 108.714 354.061C108.863 354.186 109.053 354.252 109.247 354.244C110.384 354.093 111.467 353.664 112.399 352.995C113.331 352.325 114.083 351.436 114.589 350.406C114.678 350.236 114.696 350.038 114.64 349.855C114.584 349.672 114.457 349.518 114.288 349.428C114.16 349.353 114.009 349.326 113.862 349.353Z" fill="#263238"/>
<path d="M66.884 371.977C72.9791 389.308 75.1863 396.783 86.95 403.38C103.504 408.848 125.05 402.201 124.373 383.439C123.796 366.559 113.939 341.1 94.2741 338.767C87.5997 337.896 80.8516 339.699 75.5002 343.781C70.1489 347.864 66.6281 353.897 65.7052 360.564C65.1914 364.408 65.5954 368.319 66.884 371.977Z" fill="#FAB27B"/>
<path d="M58.305 386.123C62.7435 389.85 66.9329 393.863 70.8462 398.138C73.2719 400.73 76.1654 402.84 79.3743 404.358C85.9432 407.207 93.3369 407.511 100.118 405.211C100.118 405.211 118.202 389.234 106.137 359.561C108.455 357.913 110.331 355.719 111.601 353.175C112.87 350.63 113.494 347.812 113.417 344.969C113.34 342.126 112.565 339.346 111.16 336.873C109.755 334.401 107.763 332.312 105.36 330.791C99.666 327.18 90.837 329.462 85.5697 333.676C81.9981 332.941 78.3006 333.094 74.8019 334.122C71.3032 335.149 68.1104 337.02 65.5037 339.57C60.3609 344.779 56.5568 351.156 54.4173 358.156C51.9967 363.936 51.1905 370.265 52.0846 376.467C53.0167 380.292 55.2074 383.693 58.305 386.123Z" fill="#263238"/>
<path d="M104.507 366.057C107.933 367.677 110.577 370.591 111.856 374.159C113.461 378.874 109.197 381.508 104.507 380.455C100.268 379.476 94.3483 375.865 94.7747 370.999C94.8991 369.925 95.2875 368.899 95.9051 368.012C96.5226 367.125 97.3502 366.404 98.314 365.915C99.2777 365.426 100.348 365.182 101.428 365.207C102.509 365.232 103.566 365.524 104.507 366.057Z" fill="#FAB27B"/>
<path d="M80.1028 408.096C86.1226 405.587 96.9833 405.236 112.71 407.669C113.585 407.905 114.386 408.361 115.036 408.993C115.685 409.625 116.163 410.413 116.422 411.281C116.592 411.682 116.674 412.115 116.665 412.551C116.655 412.986 116.553 413.415 116.366 413.808C116.179 414.201 115.911 414.55 115.579 414.833C115.247 415.115 114.859 415.323 114.441 415.445C114.566 417.727 115.143 420.236 115.268 422.543C110.675 422.457 106.08 422.709 101.523 423.296C94.4405 423.795 87.3955 424.733 80.4289 426.105C81.2419 422.826 81.4712 419.43 81.1062 416.072C80.2581 416.097 79.4277 415.825 78.759 415.303C78.0902 414.781 77.6251 414.041 77.4441 413.213C77.3636 412.196 77.5702 411.178 78.0402 410.273C78.5103 409.368 79.2249 408.614 80.1028 408.096Z" fill="#F5A17B"/>
<path d="M80.1028 408.096C86.1226 405.587 96.9833 405.236 112.71 407.669C113.585 407.905 114.386 408.361 115.036 408.993C115.685 409.625 116.163 410.413 116.422 411.281C116.592 411.682 116.674 412.115 116.665 412.551C116.655 412.986 116.553 413.415 116.366 413.808C116.179 414.201 115.911 414.55 115.579 414.833C115.247 415.115 114.859 415.323 114.441 415.445C114.566 417.727 115.143 420.236 115.268 422.543C110.675 422.457 106.08 422.709 101.523 423.296C94.4405 423.795 87.3955 424.733 80.4289 426.105C81.2419 422.826 81.4712 419.43 81.1062 416.072C80.2581 416.097 79.4277 415.825 78.759 415.303C78.0902 414.781 77.6251 414.041 77.4441 413.213C77.3636 412.196 77.5702 411.178 78.0402 410.273C78.5103 409.368 79.2249 408.614 80.1028 408.096Z" fill="#F5A17B"/>
<path d="M154.271 580.162C154.271 580.162 159.839 505.667 159.488 451.915C159.237 412.26 130.794 419.308 94.2735 419.559C65.228 419.709 55.3455 422.217 51.3824 438.044C47.4194 453.871 66.8834 580.588 66.8834 580.588L154.271 580.162Z" fill="#F5A17B"/>
<path opacity="0.5" d="M154.271 580.162C154.271 580.162 159.839 505.667 159.488 451.915C159.237 412.26 130.794 419.308 94.2735 419.559C65.228 419.709 55.3455 422.217 51.3824 438.044C47.4194 453.871 66.8834 580.588 66.8834 580.588L154.271 580.162Z" fill="black"/>
<path d="M207.948 474.99C210.403 475.065 212.765 475.947 214.67 477.498C217.762 479.905 220.145 483.103 221.567 486.754C223.998 482.715 227.318 479.283 231.274 476.721L231.5 476.595C230.221 459.037 215.773 460.317 215.773 460.317L215.422 461.22C213.409 466.053 210.904 470.668 207.948 474.99Z" fill="#F5A17B"/>
<path opacity="0.2" d="M207.948 474.99C210.403 475.065 212.765 475.947 214.67 477.498C217.762 479.905 220.145 483.103 221.567 486.754C223.998 482.715 227.318 479.283 231.274 476.721L231.5 476.595C230.221 459.037 215.773 460.317 215.773 460.317L215.422 461.22C213.409 466.053 210.904 470.668 207.948 474.99Z" fill="black"/>
<path d="M169.47 537.596C196.133 537.019 221.692 492.95 221.692 492.95C222.269 490.944 222.226 488.81 221.567 486.829C220.144 483.179 217.761 479.981 214.669 477.574C212.765 476.023 210.402 475.141 207.947 475.066C206.296 474.968 204.642 475.199 203.081 475.743C203.081 475.743 183.416 499.998 178.626 497.816C173.835 495.633 172.004 487.582 170.248 477.524C160.892 423.797 150.634 422.167 141.629 421.941C122.917 421.364 145.868 538.098 169.47 537.596Z" fill="#F5A17B"/>
<g opacity="0.1">
<path opacity="0.1" d="M169.47 537.596C196.133 537.019 221.692 492.95 221.692 492.95C222.269 490.944 222.226 488.81 221.567 486.829C220.144 483.179 217.761 479.981 214.669 477.574C212.765 476.023 210.402 475.141 207.947 475.066C206.296 474.968 204.642 475.199 203.081 475.743C203.081 475.743 183.416 499.998 178.626 497.816C173.835 495.633 172.004 487.582 170.248 477.524C160.892 423.797 150.634 422.167 141.629 421.941C122.917 421.364 145.868 538.098 169.47 537.596Z" fill="white"/>
</g>
<path d="M66.8834 580.587C66.8834 580.587 64.6009 603.286 64.927 611.262C66.6075 653.577 106.689 668.526 138.644 662.656L252.167 650.341C256.783 665.716 310.258 750.395 310.258 750.395L338.376 734.242C338.376 734.242 309.23 664.337 290.418 615.702C279.658 587.936 194.377 587.108 162.172 592.827C152.364 595.335 154.271 580.16 154.271 580.16L66.8834 580.587Z" fill="#263238"/>
<path d="M317.434 751.951L328.169 769.86L348.21 759.902L337.801 739.51L317.434 751.951Z" fill="#FAB27B"/>
<path d="M358.867 756.215C361.375 755.011 363.883 753.28 364.36 751.75C364.436 751.324 364.378 750.886 364.194 750.495C364.01 750.104 363.708 749.78 363.332 749.568C362.706 749.147 361.942 748.985 361.2 749.116C357.212 749.768 351.744 757.394 351.493 757.72C351.427 757.816 351.392 757.929 351.392 758.046C351.392 758.162 351.427 758.276 351.493 758.372C351.559 758.465 351.652 758.536 351.759 758.576C351.867 758.616 351.983 758.624 352.095 758.597C354.417 758.003 356.684 757.206 358.867 756.215ZM360.347 750.546C360.672 750.389 361.019 750.279 361.375 750.22C361.597 750.159 361.83 750.15 362.057 750.194C362.283 750.237 362.496 750.332 362.679 750.471C363.332 750.922 363.357 751.298 363.282 751.524C362.93 753.355 357.588 755.863 353.399 757.168C355.278 754.544 357.635 752.297 360.347 750.546Z" fill="#F5A17B"/>
<path d="M352.171 758.548C352.212 758.545 352.252 758.533 352.287 758.511C352.322 758.489 352.351 758.459 352.372 758.423C354.379 756.14 357.388 749.192 355.833 747.01C355.532 746.459 354.78 745.957 353.325 746.459C352.781 746.619 352.277 746.892 351.845 747.259C351.413 747.626 351.063 748.08 350.817 748.591C349.111 752.052 351.168 758.047 351.268 758.323C351.297 758.416 351.353 758.5 351.429 758.562C351.505 758.624 351.597 758.663 351.695 758.674C351.777 758.705 351.868 758.709 351.953 758.687C352.038 758.664 352.115 758.616 352.171 758.548ZM353.425 747.562L353.701 747.412C354.629 747.06 354.855 747.412 354.955 747.412C355.758 748.791 354.052 753.933 352.121 756.692C351.27 754.169 351.217 751.445 351.971 748.892C352.265 748.254 352.783 747.745 353.425 747.462V747.562Z" fill="#F5A17B"/>
<path d="M348.56 756.616L325.333 767.226C324.914 767.424 324.574 767.755 324.365 768.169C324.156 768.582 324.09 769.054 324.179 769.508L328.619 790.327C328.711 790.775 328.892 791.2 329.151 791.578C329.411 791.955 329.744 792.276 330.13 792.521C330.516 792.767 330.948 792.933 331.399 793.008C331.851 793.083 332.313 793.067 332.758 792.96C333.001 792.932 333.238 792.864 333.46 792.76C341.762 788.772 348.986 784.909 359.395 780.218C371.686 774.6 369.253 777.51 383.801 771.088C392.554 767.226 389.62 756.591 385.707 757.795C367.848 763.413 363.76 759.099 354.454 756.039C352.486 755.485 350.383 755.691 348.56 756.616Z" fill="#263238"/>
<path opacity="0.2" d="M322.9 761.056L317.432 751.951L337.799 739.51L342.816 749.368L322.9 761.056Z" fill="black"/>
<path d="M305.795 751.85L340.66 730.104C342.235 730.996 343.5 732.349 344.284 733.981C345.069 735.613 345.336 737.446 345.049 739.233L311.564 760.629C311.564 760.629 307.049 760.428 305.795 751.85Z" fill="#F5A17B"/>
<path d="M108.647 669.204H50.957C40.1951 669.236 29.819 665.197 21.9106 657.898C14.0021 650.599 9.14609 640.58 8.31683 629.85L0.0897827 526.008C-0.22522 522.026 0.287521 518.022 1.59567 514.247C2.90382 510.473 4.97913 507.01 7.69092 504.077C10.4027 501.143 13.6923 498.803 17.3527 497.203C21.013 495.604 24.965 494.779 28.9597 494.781H60.8144C78.9661 494.783 96.6326 500.642 111.188 511.488C125.744 522.333 136.411 537.586 141.605 554.979L163.753 629.147C165.565 635.197 169.279 640.502 174.344 644.275C179.409 648.048 185.555 650.087 191.87 650.091H232.278C237.354 650.091 242.222 652.108 245.811 655.697C249.4 659.286 251.416 664.154 251.416 669.229H108.647V669.204Z" fill="#F5A17B"/>
<path d="M134.607 669.204C133.027 693.91 128.763 783.906 135.134 803.721C140.727 821.154 166.336 825.317 181.486 834.548C183.994 836.103 183.142 841.044 180.332 841.044H62.4449C59.6356 841.044 58.7577 836.028 61.3161 834.548C76.3656 825.317 102.075 821.154 107.669 803.721C114.039 783.906 109.775 693.91 108.195 669.204H134.607Z" fill="#F5A17B"/>
<path opacity="0.2" d="M133.553 687.891H109.298C108.897 680.366 108.521 673.844 108.22 669.204H134.606C134.355 673.844 133.954 680.316 133.553 687.891Z" fill="black"/>
<path opacity="0.7" d="M108.647 669.204H50.957C40.1951 669.236 29.819 665.197 21.9106 657.898C14.0021 650.599 9.14609 640.58 8.31683 629.85L0.0897827 526.008C-0.22522 522.026 0.287521 518.022 1.59567 514.247C2.90382 510.473 4.97913 507.01 7.69092 504.077C10.4027 501.143 13.6923 498.803 17.3527 497.203C21.013 495.604 24.965 494.779 28.9597 494.781H60.8144C78.9661 494.783 96.6326 500.642 111.188 511.488C125.744 522.333 136.411 537.586 141.605 554.979L163.753 629.147C165.565 635.197 169.279 640.502 174.344 644.275C179.409 648.048 185.555 650.087 191.87 650.091H232.278C237.354 650.091 242.222 652.108 245.811 655.697C249.4 659.286 251.416 664.154 251.416 669.229H108.647V669.204Z" fill="white"/>
</svg>
