<svg width="568" height="503" viewBox="0 0 568 503" fill="none" xmlns="http://www.w3.org/2000/svg">
<path d="M231.644 365.82H97.291V500.173H231.644V365.82Z" fill="#ED6D64"/>
<path d="M471.142 365.82H336.789V500.173H471.142V365.82Z" fill="#ED6D64"/>
<path d="M471.142 336.613H336.789V365.82H471.142V336.613Z" fill="#F1F1F2"/>
<path d="M471.142 354.137H336.789V365.82H471.142V354.137Z" fill="white"/>
<path d="M529.556 324.93L512.032 307.406L494.508 324.93H471.142V500.173H552.922V324.93H529.556Z" fill="#ED6D64"/>
<path d="M517.874 348.296H506.191V330.771C506.191 327.547 508.808 324.93 512.032 324.93C515.257 324.93 517.874 327.547 517.874 330.771V348.296Z" fill="#8D7E8A"/>
<path d="M512.032 324.93C508.808 324.93 506.191 327.547 506.191 330.771V342.454C506.191 339.23 508.808 336.613 512.032 336.613C515.257 336.613 517.874 339.23 517.874 342.454V330.771C517.874 327.541 515.263 324.93 512.032 324.93Z" fill="#7A6876"/>
<path d="M535.4 435.853H488.669V394.963C488.669 382.059 499.131 371.597 512.034 371.597C524.938 371.597 535.4 382.059 535.4 394.963V435.853ZM535.096 500.109H488.365V476.743C488.365 463.84 498.827 453.378 511.73 453.378C524.634 453.378 535.096 463.84 535.096 476.743V500.109Z" fill="#8D7E8A"/>
<path d="M512.034 371.597C499.131 371.597 488.669 382.059 488.669 394.963V406.646C488.669 393.742 499.131 383.28 512.034 383.28C524.938 383.28 535.4 393.742 535.4 406.646V394.963C535.4 382.059 524.944 371.597 512.034 371.597ZM511.73 453.378C498.827 453.378 488.365 463.84 488.365 476.743V488.426C488.365 475.522 498.827 465.06 511.73 465.06C524.634 465.06 535.096 475.522 535.096 488.426V476.743C535.096 463.84 524.634 453.378 511.73 453.378Z" fill="#7A6876"/>
<path d="M444.856 418.393H430.252V390.646C430.252 386.616 433.523 383.345 437.554 383.345C441.584 383.345 444.856 386.616 444.856 390.646V418.393Z" fill="#8D7E8A"/>
<path d="M437.554 383.345C433.523 383.345 430.252 386.616 430.252 390.646V402.329C430.252 398.299 433.523 395.027 437.554 395.027C441.584 395.027 444.856 398.299 444.856 402.329V390.646C444.856 386.61 441.59 383.345 437.554 383.345Z" fill="#7A6876"/>
<path d="M377.679 418.393H363.076V390.646C363.076 386.616 366.347 383.345 370.377 383.345C374.408 383.345 377.679 386.616 377.679 390.646V418.393ZM403.966 418.393H389.362V390.646C389.362 386.616 392.633 383.345 396.664 383.345C400.695 383.345 403.966 386.616 403.966 390.646V418.393Z" fill="#8D7E8A"/>
<path d="M370.377 383.345C366.347 383.345 363.076 386.616 363.076 390.646V402.329C363.076 398.299 366.347 395.027 370.377 395.027C374.408 395.027 377.679 398.299 377.679 402.329V390.646C377.679 386.61 374.414 383.345 370.377 383.345ZM396.664 383.345C392.633 383.345 389.362 386.616 389.362 390.646V402.329C389.362 398.299 392.633 395.027 396.664 395.027C400.695 395.027 403.966 398.299 403.966 402.329V390.646C403.966 386.61 400.7 383.345 396.664 383.345Z" fill="#7A6876"/>
<path d="M348.472 498.387V473.853C348.472 465.786 355.008 459.249 363.075 459.249C371.142 459.249 377.679 465.786 377.679 473.853V498.387H348.472ZM389.362 498.387V473.853C389.362 465.786 395.898 459.249 403.965 459.249C412.032 459.249 418.569 465.786 418.569 473.853V498.387H389.362ZM430.252 498.387V473.853C430.252 465.786 436.788 459.249 444.855 459.249C452.922 459.249 459.459 465.786 459.459 473.853V498.387" fill="#8D7E8A"/>
<path d="M363.075 459.249C355.008 459.249 348.472 465.786 348.472 473.853V485.535C348.472 477.468 355.008 470.932 363.075 470.932C371.142 470.932 377.679 477.468 377.679 485.535V473.853C377.679 465.786 371.142 459.249 363.075 459.249ZM403.965 459.249C395.898 459.249 389.362 465.786 389.362 473.853V485.535C389.362 477.468 395.898 470.932 403.965 470.932C412.032 470.932 418.569 477.468 418.569 485.535V473.853C418.569 465.786 412.032 459.249 403.965 459.249ZM444.855 459.249C436.788 459.249 430.252 465.786 430.252 473.853V485.535C430.252 477.468 436.788 470.932 444.855 470.932C452.922 470.932 459.459 477.468 459.459 485.535V473.853C459.459 465.786 452.922 459.249 444.855 459.249Z" fill="#7A6876"/>
<path d="M73.9246 324.93L56.4003 307.406L38.876 324.93H15.5103V500.173H97.2904V324.93H73.9246Z" fill="#ED6D64"/>
<path d="M79.7657 435.853H33.0342V394.963C33.0342 382.059 43.4962 371.597 56.3999 371.597C69.3037 371.597 79.7657 382.059 79.7657 394.963V435.853ZM123.576 418.393H108.973V390.646C108.973 386.616 112.244 383.345 116.275 383.345C120.305 383.345 123.576 386.616 123.576 390.646V418.393ZM138.18 418.393H123.576V390.646C123.576 386.616 126.848 383.345 130.878 383.345C134.909 383.345 138.18 386.616 138.18 390.646V418.393ZM164.466 418.393H149.863V390.646C149.863 386.616 153.134 383.345 157.165 383.345C161.195 383.345 164.466 386.616 164.466 390.646V418.393ZM179.07 418.393H164.466V390.646C164.466 386.616 167.738 383.345 171.768 383.345C175.799 383.345 179.07 386.616 179.07 390.646V418.393ZM205.357 418.393H190.753V390.646C190.753 386.616 194.024 383.345 198.055 383.345C202.085 383.345 205.357 386.616 205.357 390.646V418.393ZM219.96 418.393H205.357V390.646C205.357 386.616 208.628 383.345 212.658 383.345C216.689 383.345 219.96 386.616 219.96 390.646V418.393Z" fill="#8D7E8A"/>
<path d="M56.3999 371.597C43.4962 371.597 33.0342 382.059 33.0342 394.963V406.646C33.0342 393.742 43.4962 383.28 56.3999 383.28C69.3037 383.28 79.7657 393.742 79.7657 406.646V394.963C79.7657 382.059 69.3095 371.597 56.3999 371.597ZM116.275 383.345C112.244 383.345 108.973 386.616 108.973 390.646V402.329C108.973 398.299 112.244 395.027 116.275 395.027C120.305 395.027 123.576 398.299 123.576 402.329V390.646C123.576 386.61 120.311 383.345 116.275 383.345ZM130.878 383.345C126.848 383.345 123.576 386.616 123.576 390.646V402.329C123.576 398.299 126.848 395.027 130.878 395.027C134.909 395.027 138.18 398.299 138.18 402.329V390.646C138.18 386.61 134.915 383.345 130.878 383.345ZM157.165 383.345C153.134 383.345 149.863 386.616 149.863 390.646V402.329C149.863 398.299 153.134 395.027 157.165 395.027C161.195 395.027 164.466 398.299 164.466 402.329V390.646C164.466 386.61 161.201 383.345 157.165 383.345ZM171.768 383.345C167.738 383.345 164.466 386.616 164.466 390.646V402.329C164.466 398.299 167.738 395.027 171.768 395.027C175.799 395.027 179.07 398.299 179.07 402.329V390.646C179.07 386.61 175.805 383.345 171.768 383.345ZM212.658 383.345C208.628 383.345 205.357 386.616 205.357 390.646V402.329C205.357 398.299 208.628 395.027 212.658 395.027C216.689 395.027 219.96 398.299 219.96 402.329V390.646C219.96 386.61 216.695 383.345 212.658 383.345ZM198.055 383.345C194.024 383.345 190.753 386.616 190.753 390.646V402.329C190.753 398.299 194.024 395.027 198.055 395.027C202.085 395.027 205.357 398.299 205.357 402.329V390.646C205.357 386.61 202.091 383.345 198.055 383.345Z" fill="#7A6876"/>
<path d="M336.789 167.211H231.644V500.173H336.789V167.211Z" fill="#ED6D64"/>
<path d="M313.121 500.109H254.707V459.219C254.707 443.091 267.786 430.012 283.914 430.012C300.042 430.012 313.121 443.091 313.121 459.219V500.109Z" fill="#8D7E8A"/>
<path d="M283.914 430.012C267.786 430.012 254.707 443.091 254.707 459.219V470.902C254.707 454.774 267.786 441.695 283.914 441.695C300.042 441.695 313.121 454.774 313.121 470.902V459.219C313.121 443.091 300.048 430.012 283.914 430.012Z" fill="#7A6876"/>
<path d="M336.789 167.211H325.106V500.173H336.789V167.211Z" fill="#F48575"/>
<path d="M243.326 167.211H231.644V500.173H243.326V167.211Z" fill="#F48575"/>
<path d="M27.1931 324.93H15.5103V500.173H27.1931V324.93Z" fill="#F48575"/>
<path d="M97.2903 324.93H85.6074V500.173H97.2903V324.93Z" fill="#F48575"/>
<path d="M482.825 324.93H471.142V500.173H482.825V324.93Z" fill="#F48575"/>
<path d="M552.922 324.93H541.239V500.173H552.922V324.93Z" fill="#F48575"/>
<path d="M231.644 336.613H97.291V365.82H231.644V336.613Z" fill="#F1F1F2"/>
<path d="M15.5103 324.93L33.0346 272.357H79.7661L97.2904 324.93H73.9246L56.4003 307.406L38.876 324.93H15.5103Z" fill="#F1F1F2"/>
<path d="M227.299 354.137H99.9087V365.82H227.299V354.137Z" fill="white"/>
<path d="M336.789 167.211H231.644V178.894H336.789V167.211Z" fill="#E0605A"/>
<path d="M266.692 219.784V231.467L278.375 237.309V248.992H290.058V237.309L301.741 231.467V219.784H266.692Z" fill="#ED6D64"/>
<path d="M278.375 231.467V219.784H266.692V231.467L284.217 237.309V248.992H290.058V237.309L278.375 231.467Z" fill="#F48575"/>
<path d="M290.058 219.784V231.467L278.375 237.309V248.992H284.216V237.309L301.741 231.467V219.784H290.058Z" fill="#F48575"/>
<path d="M278.374 324.93H260.85V281.119C260.85 276.283 264.776 272.357 269.612 272.357C274.449 272.357 278.374 276.283 278.374 281.119V324.93ZM307.582 324.93H290.057V281.119C290.057 276.283 293.983 272.357 298.819 272.357C303.656 272.357 307.582 276.283 307.582 281.119V324.93ZM284.216 412.552H260.85V365.82C260.85 359.365 266.078 354.137 272.533 354.137C278.988 354.137 284.216 359.365 284.216 365.82V412.552ZM307.582 412.552H284.216V365.82C284.216 359.365 289.444 354.137 295.899 354.137C302.354 354.137 307.582 359.365 307.582 365.82V412.552Z" fill="#8D7E8A"/>
<path d="M471.142 365.82H459.459V500.173H471.142V365.82Z" fill="#E0605A"/>
<path d="M348.472 365.82H336.789V500.173H348.472V365.82Z" fill="#E0605A"/>
<path d="M231.643 365.82H219.96V500.173H231.643V365.82Z" fill="#E0605A"/>
<path d="M108.974 365.82H97.291V500.173H108.974V365.82Z" fill="#E0605A"/>
<path d="M363.075 418.393H348.472V390.646C348.472 386.616 351.743 383.345 355.773 383.345C359.804 383.345 363.075 386.616 363.075 390.646V418.393ZM418.569 418.393H403.965V390.646C403.965 386.616 407.237 383.345 411.267 383.345C415.298 383.345 418.569 386.616 418.569 390.646V418.393ZM459.459 418.393H444.855V390.646C444.855 386.616 448.127 383.345 452.157 383.345C456.188 383.345 459.459 386.616 459.459 390.646V418.393Z" fill="#8D7E8A"/>
<path d="M363.075 430.012H348.472V444.615H363.075V430.012Z" fill="#8D7E8A"/>
<path d="M377.679 430.012H363.076V444.615H377.679V430.012Z" fill="#8D7E8A"/>
<path d="M403.965 430.012H389.362V444.615H403.965V430.012Z" fill="#8D7E8A"/>
<path d="M418.569 430.012H403.966V444.615H418.569V430.012Z" fill="#8D7E8A"/>
<path d="M444.856 430.012H430.252V444.615H444.856V430.012Z" fill="#8D7E8A"/>
<path d="M459.459 430.012H444.855V444.615H459.459V430.012Z" fill="#8D7E8A"/>
<path d="M123.577 430.012H108.973V444.615H123.577V430.012Z" fill="#8D7E8A"/>
<path d="M138.181 430.012H123.577V444.615H138.181V430.012Z" fill="#8D7E8A"/>
<path d="M164.467 430.012H149.863V444.615H164.467V430.012Z" fill="#8D7E8A"/>
<path d="M179.071 430.012H164.467V444.615H179.071V430.012Z" fill="#8D7E8A"/>
<path d="M205.357 430.012H190.753V444.615H205.357V430.012Z" fill="#8D7E8A"/>
<path d="M219.961 430.012H205.357V444.615H219.961V430.012Z" fill="#8D7E8A"/>
<path d="M529.556 324.93L512.032 307.406L494.508 324.93H471.142V336.613H494.508L512.032 319.089L529.556 336.613H552.922V324.93H529.556Z" fill="#E0605A"/>
<path d="M73.9246 324.93L56.4003 307.406L38.876 324.93H15.5103V336.613H38.876L56.4003 319.089L73.9246 336.613H97.2904V324.93H73.9246Z" fill="#E0605A"/>
<path d="M62.242 348.296H50.5591V330.771C50.5591 327.547 53.176 324.93 56.4005 324.93C59.625 324.93 62.242 327.547 62.242 330.771V348.296Z" fill="#8D7E8A"/>
<path d="M56.4005 324.93C53.176 324.93 50.5591 327.547 50.5591 330.771V342.454C50.5591 339.23 53.176 336.613 56.4005 336.613C59.625 336.613 62.242 339.23 62.242 342.454V330.771C62.242 327.541 59.6308 324.93 56.4005 324.93Z" fill="#7A6876"/>
<path d="M257.62 167.211H231.644L266.692 56.2241H301.741L336.789 167.211H316.035" fill="#F1F1F2"/>
<path d="M324.622 97.114H242.842V132.163H324.622V97.114Z" fill="#F1F1F2"/>
<path d="M255.317 178.894V149.687H266.515L284.525 102.956L301.564 149.687H313.732V178.894" fill="#ED6D64"/>
<path d="M278.198 149.687L290.208 118.529L284.525 102.956L266.515 149.687H255.317V178.894H267V149.687H278.198Z" fill="#E0605A"/>
<path d="M302.05 149.687V178.894H313.733V149.687C313.733 149.687 302.949 149.687 302.05 149.687ZM289.882 149.687C289.882 149.687 300.665 149.687 301.565 149.687L284.526 102.956L278.521 118.535L289.882 149.687Z" fill="#E0605A"/>
<path d="M284.217 208.101C293.895 208.101 301.741 200.255 301.741 190.577C301.741 180.899 293.895 173.053 284.217 173.053C274.538 173.053 266.692 180.899 266.692 190.577C266.692 200.255 274.538 208.101 284.217 208.101Z" fill="#ECECED"/>
<path d="M284.216 173.053C283.217 173.053 282.247 173.187 281.295 173.345C289.578 174.741 295.899 181.897 295.899 190.577C295.899 199.257 289.578 206.407 281.295 207.809C282.247 207.973 283.217 208.101 284.216 208.101C293.895 208.101 301.74 200.256 301.74 190.577C301.74 180.898 293.895 173.053 284.216 173.053Z" fill="white"/>
<path d="M272.534 190.577C272.534 181.897 278.854 174.747 287.137 173.345C286.185 173.181 285.216 173.053 284.217 173.053C274.537 173.053 266.692 180.898 266.692 190.577C266.692 200.256 274.537 208.101 284.217 208.101C285.216 208.101 286.185 207.967 287.137 207.809C278.86 206.407 272.534 199.252 272.534 190.577Z" fill="#D9D4D8"/>
<path d="M79.4634 500.109H32.7319V476.743C32.7319 463.84 43.1939 453.378 56.0977 453.378C69.0014 453.378 79.4634 463.84 79.4634 476.743V500.109Z" fill="#8D7E8A"/>
<path d="M56.0977 453.378C43.1939 453.378 32.7319 463.84 32.7319 476.743V488.426C32.7319 475.522 43.1939 465.06 56.0977 465.06C69.0014 465.06 79.4634 475.522 79.4634 488.426V476.743C79.4634 463.84 69.0014 453.378 56.0977 453.378Z" fill="#7A6876"/>
<path d="M108.973 498.387V473.853C108.973 465.786 115.51 459.249 123.577 459.249C131.644 459.249 138.18 465.786 138.18 473.853V498.387H108.973ZM149.863 498.387V473.853C149.863 465.786 156.4 459.249 164.467 459.249C172.534 459.249 179.07 465.786 179.07 473.853V498.387H149.863ZM190.753 498.387V473.853C190.753 465.786 197.29 459.249 205.357 459.249C213.424 459.249 219.96 465.786 219.96 473.853V498.387" fill="#8D7E8A"/>
<path d="M123.577 459.249C115.51 459.249 108.973 465.786 108.973 473.853V485.535C108.973 477.468 115.51 470.932 123.577 470.932C131.644 470.932 138.18 477.468 138.18 485.535V473.853C138.18 465.786 131.644 459.249 123.577 459.249ZM164.467 459.249C156.4 459.249 149.863 465.786 149.863 473.853V485.535C149.863 477.468 156.4 470.932 164.467 470.932C172.534 470.932 179.07 477.468 179.07 485.535V473.853C179.07 465.786 172.534 459.249 164.467 459.249ZM205.357 459.249C197.29 459.249 190.753 465.786 190.753 473.853V485.535C190.753 477.468 197.29 470.932 205.357 470.932C213.424 470.932 219.96 477.468 219.96 485.535V473.853C219.96 465.786 213.424 459.249 205.357 459.249Z" fill="#7A6876"/>
<path d="M470.834 324.93L488.359 272.357H535.09L552.615 324.93H529.249L511.725 307.406L494.206 324.93H470.834Z" fill="#F1F1F2"/>
<path d="M529.254 313.247L511.729 295.723L494.205 313.247H474.73L470.839 324.93H494.205L511.729 307.406L529.254 324.93H552.619L548.723 313.247H529.254Z" fill="white"/>
<path d="M488.364 272.357L470.839 324.93H482.522L500.047 272.357H488.364Z" fill="white"/>
<path d="M517.571 313.247L529.254 324.93H540.937L523.413 307.406L517.571 313.247Z" fill="white"/>
<path d="M535.095 272.357H523.413L540.937 324.93H552.62L535.095 272.357Z" fill="white"/>
<path d="M73.6224 313.247L56.0981 295.723L38.5737 313.247H19.0984L15.208 324.93H38.5737L56.0981 307.406L73.6224 324.93H96.9881L93.0919 313.247H73.6224Z" fill="white"/>
<path d="M32.7323 272.357L15.208 324.93H26.8909L44.4152 272.357H32.7323Z" fill="white"/>
<path d="M79.4636 272.357H67.7808L85.3051 324.93H96.9879L79.4636 272.357Z" fill="white"/>
<path d="M500.047 307.406L482.523 324.93H494.206L505.889 313.247L500.047 307.406Z" fill="white"/>
<path d="M231.643 336.613H219.96V365.82H231.643V336.613Z" fill="#D9D4D8"/>
<path d="M108.974 336.613H97.291V365.82H108.974V336.613Z" fill="#D9D4D8"/>
<path d="M471.142 336.613H459.459V365.82H471.142V336.613Z" fill="#D9D4D8"/>
<path d="M348.472 336.613H336.789V365.82H348.472V336.613Z" fill="#D9D4D8"/>
<path d="M290.058 307.406V295.723H278.375V307.406H290.058Z" fill="#ECECED"/>
<path d="M269.612 272.357C264.776 272.357 260.85 276.283 260.85 281.119V292.802C260.85 287.966 264.776 284.04 269.612 284.04C274.449 284.04 278.374 287.966 278.374 292.802V281.119C278.374 276.277 274.455 272.357 269.612 272.357ZM298.819 272.357C293.983 272.357 290.057 276.283 290.057 281.119V292.802C290.057 287.966 293.983 284.04 298.819 284.04C303.656 284.04 307.582 287.966 307.582 292.802V281.119C307.582 276.277 303.662 272.357 298.819 272.357ZM272.533 354.137C266.078 354.137 260.85 359.366 260.85 365.82V377.503C260.85 371.048 266.078 365.82 272.533 365.82C278.988 365.82 284.216 371.048 284.216 377.503V365.82C284.216 359.366 278.988 354.137 272.533 354.137ZM295.899 354.137C289.444 354.137 284.216 359.366 284.216 365.82V377.503C284.216 371.048 289.444 365.82 295.899 365.82C302.354 365.82 307.582 371.048 307.582 377.503V365.82C307.582 359.366 302.354 354.137 295.899 354.137ZM355.773 383.345C351.743 383.345 348.472 386.616 348.472 390.646V402.329C348.472 398.299 351.743 395.027 355.773 395.027C359.804 395.027 363.075 398.299 363.075 402.329V390.646C363.075 386.61 359.81 383.345 355.773 383.345ZM411.267 383.345C407.236 383.345 403.965 386.616 403.965 390.646V402.329C403.965 398.299 407.236 395.027 411.267 395.027C415.298 395.027 418.569 398.299 418.569 402.329V390.646C418.569 386.61 415.304 383.345 411.267 383.345ZM452.157 383.345C448.127 383.345 444.855 386.616 444.855 390.646V402.329C444.855 398.299 448.127 395.027 452.157 395.027C456.188 395.027 459.459 398.299 459.459 402.329V390.646C459.459 386.61 456.194 383.345 452.157 383.345Z" fill="#7A6876"/>
<path d="M564.303 496.522H555.541V347.565V341.724V327.29H558.462C560.074 327.29 561.382 325.981 561.382 324.369C561.382 322.757 560.074 321.448 558.462 321.448H554.77L539.191 274.717H540.99C542.602 274.717 543.911 273.408 543.911 271.796C543.911 270.184 542.602 268.875 540.99 268.875H535.137H532.216V254.272V242.589C532.216 240.977 530.908 239.668 529.295 239.668C527.683 239.668 526.375 240.977 526.375 242.589V251.351H497.168V242.589C497.168 240.977 495.859 239.668 494.247 239.668C492.635 239.668 491.326 240.977 491.326 242.589V254.272V268.875H488.347H482.599C480.987 268.875 479.678 270.184 479.678 271.796C479.678 273.408 480.987 274.717 482.599 274.717H484.293L468.749 321.279H465.005C463.392 321.279 462.084 322.587 462.084 324.2C462.084 325.812 463.392 327.12 465.005 327.12H467.925V332.962H339.414V184.005V178.164V166.481C339.414 166.276 339.338 166.101 339.297 165.908C339.279 165.803 339.308 165.698 339.273 165.599L327.661 128.833C327.672 128.722 327.725 128.623 327.725 128.512V108.067V96.3837V84.7008C327.725 83.0886 326.416 81.7801 324.804 81.7801C323.192 81.7801 321.883 83.0886 321.883 84.7008V93.463H316.492L305.422 58.4144H307.28C308.892 58.4144 310.201 57.1059 310.201 55.4936C310.201 53.8814 308.892 52.5729 307.28 52.5729H304.447V38.1387C304.447 38.1329 304.447 38.1329 304.447 38.1271C304.447 38.1212 304.447 38.1212 304.447 38.1154L304.359 26.4325C304.348 24.8319 303.039 23.5351 301.438 23.5351C301.433 23.5351 301.427 23.5351 301.415 23.5351C299.803 23.5468 298.506 24.867 298.518 26.4792L298.582 35.218H286.835V2.92072C286.835 1.30848 285.526 0 283.914 0C282.302 0 280.993 1.30848 280.993 2.92072V35.218H269.375L269.311 26.4325C269.299 24.8319 267.99 23.5351 266.39 23.5351C266.384 23.5351 266.378 23.5351 266.366 23.5351C264.754 23.5468 263.457 24.867 263.469 26.4792L263.557 38.1621V52.5729H260.548C258.936 52.5729 257.628 53.8814 257.628 55.4936C257.628 57.1059 258.936 58.4144 260.548 58.4144H262.406L251.336 93.463H245.945V84.7008C245.945 83.0886 244.636 81.7801 243.024 81.7801C241.412 81.7801 240.103 83.0886 240.103 84.7008V96.3837V108.067V128.512C240.103 128.628 240.156 128.722 240.168 128.833L228.555 165.599C228.526 165.698 228.555 165.803 228.531 165.908C228.491 166.101 228.415 166.276 228.415 166.481V178.164V184.005V332.962H99.9031V327.29H102.987C104.6 327.29 105.908 325.981 105.908 324.369C105.908 322.757 104.6 321.448 102.987 321.448H99.1729L83.5938 274.717H85.393C87.0052 274.717 88.3137 273.408 88.3137 271.796C88.3137 270.184 87.0052 268.875 85.393 268.875H79.5398H76.6191V254.272V242.589C76.6191 240.977 75.3106 239.668 73.6984 239.668C72.0862 239.668 70.7777 240.977 70.7777 242.589V251.351H41.5705V242.589C41.5705 240.977 40.262 239.668 38.6498 239.668C37.0375 239.668 35.729 240.977 35.729 242.589V254.272V268.875H32.7499H27.0136C25.4014 268.875 24.0929 270.184 24.0929 271.796C24.0929 273.408 25.4014 274.717 27.0136 274.717H28.7076L13.1052 321.448H9.41922C7.80698 321.448 6.4985 322.757 6.4985 324.369C6.4985 325.981 7.80698 327.29 9.41922 327.29H12.2874V341.724V347.565V496.522H3.52521C1.91297 496.522 0.604492 497.831 0.604492 499.443C0.604492 501.055 1.91297 502.364 3.52521 502.364H15.2081H96.9882H231.341H336.487H470.84H552.62H564.303C565.915 502.364 567.224 501.055 567.224 499.443C567.224 497.831 565.921 496.522 564.303 496.522ZM508.769 257.193H514.61V268.706H508.769V257.193ZM526.375 268.706H520.446V257.193H526.375V268.706ZM502.927 257.193V268.706H497.173V257.193H502.927ZM533.034 274.717L548.613 321.448H540.943H530.522L513.851 304.619C513.302 304.064 512.554 303.755 511.783 303.755C511.777 303.755 511.777 303.755 511.777 303.755C511 303.755 510.252 304.064 509.709 304.613L492.956 321.448H483.382C483.107 321.367 482.833 321.279 482.535 321.279H474.917L490.462 274.717H533.034ZM432.871 414.742V389.916C432.871 387.503 434.839 385.535 437.252 385.535C439.664 385.535 441.633 387.503 441.633 389.916V414.742H432.871ZM447.474 389.916C447.474 387.503 449.443 385.535 451.855 385.535C454.268 385.535 456.237 387.503 456.237 389.916V414.742H447.474V389.916ZM451.855 379.693C448.993 379.693 446.411 380.885 444.554 382.783C442.696 380.879 440.114 379.693 437.252 379.693C431.615 379.693 427.029 384.279 427.029 389.916V414.742H421.188V389.916C421.188 384.279 416.602 379.693 410.965 379.693C408.103 379.693 405.521 380.885 403.664 382.783C401.806 380.879 399.224 379.693 396.362 379.693C390.725 379.693 386.139 384.279 386.139 389.916V414.742H380.298V389.916C380.298 384.279 375.712 379.693 370.075 379.693C367.213 379.693 364.631 380.885 362.774 382.783C360.916 380.879 358.334 379.693 355.472 379.693C349.835 379.693 345.249 384.279 345.249 389.916V414.742H339.408V368.01H467.919V414.742H462.078V389.916C462.078 384.279 457.492 379.693 451.855 379.693ZM391.981 414.742V389.916C391.981 387.503 393.949 385.535 396.362 385.535C398.774 385.535 400.743 387.503 400.743 389.916V414.742H391.981ZM406.584 389.916C406.584 387.503 408.553 385.535 410.965 385.535C413.378 385.535 415.346 387.503 415.346 389.916V414.742H406.584V389.916ZM351.091 414.742V389.916C351.091 387.503 353.059 385.535 355.472 385.535C357.884 385.535 359.853 387.503 359.853 389.916V414.742H351.091ZM365.694 389.916C365.694 387.503 367.663 385.535 370.075 385.535C372.488 385.535 374.456 387.503 374.456 389.916V414.742H365.694V389.916ZM263.469 408.901V365.09C263.469 360.259 267.4 356.328 272.231 356.328C277.062 356.328 280.993 360.259 280.993 365.09V408.901H263.469ZM286.835 365.09C286.835 360.259 290.766 356.328 295.597 356.328C300.428 356.328 304.359 360.259 304.359 365.09V408.901H286.835V365.09ZM295.597 350.486C290.801 350.486 286.578 352.84 283.914 356.415C281.25 352.84 277.027 350.486 272.231 350.486C264.176 350.486 257.628 357.034 257.628 365.09V408.901H234.262V365.09V335.883V297.913H257.628V321.279H254.707C253.095 321.279 251.786 322.587 251.786 324.2V335.883C251.786 337.495 253.095 338.803 254.707 338.803H313.121C314.734 338.803 316.042 337.495 316.042 335.883V324.2C316.042 322.587 314.734 321.279 313.121 321.279H310.201V297.913H333.566V335.883V365.09V408.901H310.201V365.09C310.201 357.034 303.652 350.486 295.597 350.486ZM193.372 414.742V389.916C193.372 387.503 195.34 385.535 197.753 385.535C200.165 385.535 202.134 387.503 202.134 389.916V414.742H193.372ZM207.975 389.916C207.975 387.503 209.944 385.535 212.357 385.535C214.769 385.535 216.738 387.503 216.738 389.916V414.742H207.975V389.916ZM212.357 379.693C209.494 379.693 206.912 380.885 205.055 382.783C203.197 380.879 200.615 379.693 197.753 379.693C192.116 379.693 187.53 384.279 187.53 389.916V414.742H181.689V389.916C181.689 384.279 177.103 379.693 171.467 379.693C168.604 379.693 166.022 380.885 164.165 382.783C162.307 380.879 159.725 379.693 156.863 379.693C151.226 379.693 146.64 384.279 146.64 389.916V414.742H140.799V389.916C140.799 384.279 136.213 379.693 130.576 379.693C127.714 379.693 125.132 380.885 123.275 382.783C121.417 380.879 118.835 379.693 115.973 379.693C110.336 379.693 105.75 384.279 105.75 389.916V414.742H99.9089V368.01H228.421V414.742H222.579V389.916C222.579 384.279 217.994 379.693 212.357 379.693ZM152.482 414.742V389.916C152.482 387.503 154.45 385.535 156.863 385.535C159.275 385.535 161.244 387.503 161.244 389.916V414.742H152.482ZM167.085 389.916C167.085 387.503 169.054 385.535 171.467 385.535C173.879 385.535 175.848 387.503 175.848 389.916V414.742H167.085V389.916ZM111.592 414.742V389.916C111.592 387.503 113.56 385.535 115.973 385.535C118.385 385.535 120.354 387.503 120.354 389.916V414.742H111.592ZM126.195 389.916C126.195 387.503 128.164 385.535 130.576 385.535C132.989 385.535 134.958 387.503 134.958 389.916V414.742H126.195V389.916ZM234.262 169.402H237.183H248.866H254.707C256.319 169.402 257.628 168.093 257.628 166.481V151.877H265.905C265.923 151.877 265.934 151.866 265.952 151.866C266.098 151.86 266.232 151.807 266.372 151.778C267.389 151.609 268.236 150.96 268.61 150.026C268.615 150.014 268.621 150.008 268.627 149.996L283.838 110.532L298.202 149.944C298.208 149.961 298.226 149.967 298.237 149.985C298.43 150.487 298.769 150.89 299.19 151.217C299.283 151.287 299.365 151.346 299.464 151.404C299.908 151.673 300.393 151.866 300.948 151.866H310.201V166.44C310.201 166.452 310.195 166.458 310.195 166.469C310.195 168.081 311.503 169.39 313.115 169.39H318.963H330.646H333.566V169.927C332.649 169.6 331.674 169.39 330.646 169.39C328.397 169.39 326.358 170.266 324.804 171.668C323.25 170.266 321.212 169.39 318.963 169.39C314.132 169.39 310.201 173.321 310.201 178.152V183.994C310.201 185.606 311.509 186.914 313.121 186.914C314.734 186.914 316.042 185.606 316.042 183.994V178.152C316.042 176.546 317.356 175.231 318.963 175.231C320.569 175.231 321.883 176.546 321.883 178.152V183.994C321.883 185.606 323.192 186.914 324.804 186.914C326.416 186.914 327.725 185.606 327.725 183.994V178.152C327.725 176.546 329.039 175.231 330.646 175.231C332.252 175.231 333.566 176.546 333.566 178.152V183.994V216.121H301.438H266.39H234.262V183.994V178.152C234.262 176.546 235.576 175.231 237.183 175.231C238.789 175.231 240.103 176.546 240.103 178.152V183.994C240.103 185.606 241.412 186.914 243.024 186.914C244.636 186.914 245.945 185.606 245.945 183.994V178.152C245.945 176.546 247.259 175.231 248.866 175.231C250.472 175.231 251.786 176.546 251.786 178.152V183.994C251.786 185.606 253.095 186.914 254.707 186.914C256.319 186.914 257.628 185.606 257.628 183.994V178.152C257.628 173.321 253.696 169.39 248.866 169.39C246.617 169.39 244.578 170.266 243.024 171.668C241.47 170.266 239.432 169.39 237.183 169.39C236.155 169.39 235.179 169.6 234.262 169.927V169.402ZM292.676 332.962V327.12H298.518V332.962H292.676ZM280.993 332.962V327.12H286.835V332.962H280.993ZM269.311 332.962V327.12H275.152V332.962H269.311ZM257.628 332.962V327.12H260.548H263.469V332.962H257.628ZM263.469 280.389C263.469 277.164 266.086 274.548 269.311 274.548C272.535 274.548 275.152 277.164 275.152 280.389V294.993V306.675V321.279H263.469V280.389ZM286.835 321.279H280.993V309.596H286.835V321.279ZM286.835 303.755H280.993V297.913H286.835V303.755ZM304.359 327.12H307.28H310.201V332.962H304.359V327.12ZM292.676 321.279V306.675V294.993V280.389C292.676 277.164 295.293 274.548 298.518 274.548C301.742 274.548 304.359 277.164 304.359 280.389V321.279H292.676ZM298.518 268.706C292.075 268.706 286.835 273.946 286.835 280.389V292.072H280.993V280.389C280.993 273.946 275.754 268.706 269.311 268.706C262.867 268.706 257.628 273.946 257.628 280.389V292.072H234.262V221.975H263.469V230.737C263.469 231.841 264.094 232.851 265.081 233.348L275.152 238.377V248.255C275.152 249.867 276.46 251.176 278.073 251.176H280.993V262.859C279.381 262.859 278.073 264.167 278.073 265.78C278.073 267.392 279.381 268.7 280.993 268.7H286.835C288.447 268.7 289.756 267.392 289.756 265.78C289.756 264.167 288.447 262.859 286.835 262.859V251.176H289.756C291.368 251.176 292.676 249.867 292.676 248.255V238.377L302.747 233.348C303.734 232.851 304.359 231.841 304.359 230.737V221.975H333.566V292.072H310.201V280.389C310.201 273.946 304.961 268.706 298.518 268.706ZM280.993 245.34V236.578C280.993 235.474 280.368 234.464 279.381 233.967L269.311 228.938V221.98H298.518V228.938L288.447 233.967C287.46 234.464 286.835 235.474 286.835 236.578V245.34H280.993ZM467.919 338.803V341.724V347.565V362.169H339.408V338.803H467.919ZM321.883 99.3044V108.067V110.543L318.332 99.3044H321.883ZM269.398 41.0595H275.152V52.5729H269.398V41.0595ZM286.835 41.0595V52.5729H280.993V41.0595H286.835ZM298.605 52.5729H292.676V41.0595H298.605V52.5729ZM245.945 108.067V99.3044H249.496L245.945 110.543V108.067ZM268.475 58.5838H299.353L332.503 163.56H316.048V148.957C316.048 147.344 314.739 146.036 313.127 146.036H302.998L286.665 101.226C286.251 100.081 285.164 99.3161 283.949 99.3044C283.938 99.3044 283.932 99.3044 283.92 99.3044C282.711 99.3044 281.624 100.046 281.192 101.174L263.901 146.036H254.713C253.101 146.036 251.792 147.344 251.792 148.957V163.56H235.337L268.475 58.5838ZM228.421 338.803V362.169H99.9089V347.565V341.724V338.803H228.421ZM53.1774 257.193H59.0189V268.706H53.1774V257.193ZM70.7894 268.706H64.8603V257.193H70.7894V268.706ZM47.336 257.193V268.706H41.5822V257.193H47.336ZM34.8704 274.717H77.4486L93.0277 321.448H86.5788H74.9309L58.2595 304.619C57.7104 304.064 56.9627 303.755 56.1916 303.755C56.1858 303.755 56.1858 303.755 56.1858 303.755C55.4089 303.755 54.6611 304.064 54.1179 304.613L37.3647 321.448H28.1644H19.2679L34.8704 274.717ZM18.1288 347.565V341.724C18.1288 340.118 19.4431 338.803 21.0495 338.803C22.6559 338.803 23.9702 340.118 23.9702 341.724V347.565C23.9702 349.178 25.2787 350.486 26.891 350.486C28.5032 350.486 29.8117 349.178 29.8117 347.565V341.724C29.8117 340.118 31.126 338.803 32.7324 338.803C34.3388 338.803 35.6531 340.118 35.6531 341.724V347.565C35.6531 349.178 36.9616 350.486 38.5738 350.486C40.1861 350.486 41.4945 349.178 41.4945 347.565V341.724C41.4945 336.893 37.5633 332.962 32.7324 332.962C30.4834 332.962 28.4448 333.838 26.891 335.24C25.3371 333.838 23.2985 332.962 21.0495 332.962C20.0214 332.962 19.0459 333.172 18.1288 333.499V327.29H28.1644H38.5738C39.3507 327.29 40.0984 326.98 40.6417 326.431L56.1741 310.823L71.6305 326.425C72.1796 326.98 72.9273 327.29 73.7042 327.29H86.5788H94.0675V333.499C93.1504 333.172 92.1749 332.962 91.1468 332.962C88.8978 332.962 86.8591 333.838 85.3053 335.24C83.7515 333.838 81.7128 332.962 79.4639 332.962C74.633 332.962 70.7017 336.893 70.7017 341.724V347.565C70.7017 349.178 72.0102 350.486 73.6224 350.486C75.2347 350.486 76.5432 349.178 76.5432 347.565V341.724C76.5432 340.118 77.8575 338.803 79.4639 338.803C81.0703 338.803 82.3846 340.118 82.3846 341.724V347.565C82.3846 349.178 83.6931 350.486 85.3053 350.486C86.9176 350.486 88.226 349.178 88.226 347.565V341.724C88.226 340.118 89.5404 338.803 91.1468 338.803C92.7532 338.803 94.0675 340.118 94.0675 341.724V347.565V365.09V496.522H82.0808V476.013C82.0808 461.52 70.287 449.726 55.7944 449.726C41.3018 449.726 29.5079 461.52 29.5079 476.013V496.522H18.1288V347.565ZM35.3494 496.458V476.013C35.3494 464.739 44.5204 455.568 55.7944 455.568C67.0684 455.568 76.2394 464.739 76.2394 476.013V496.458H35.3494ZM99.9089 420.583H108.671H123.275H137.878H149.561H164.165H178.768H190.451H205.055H219.658H228.421V496.522H222.579V473.121C222.579 463.46 214.717 455.597 205.055 455.597C195.393 455.597 187.53 463.46 187.53 473.121V496.522H181.689V473.121C181.689 463.46 173.826 455.597 164.165 455.597C154.503 455.597 146.64 463.46 146.64 473.121V496.522H140.799V473.121C140.799 463.46 132.936 455.597 123.275 455.597C113.613 455.597 105.75 463.46 105.75 473.121V496.522H99.9089V420.583ZM216.738 496.522H193.372V473.121C193.372 466.678 198.612 461.438 205.055 461.438C211.498 461.438 216.738 466.678 216.738 473.121V496.522ZM175.848 496.522H152.482V473.121C152.482 466.678 157.722 461.438 164.165 461.438C170.608 461.438 175.848 466.678 175.848 473.121V496.522ZM134.958 496.522H111.592V473.121C111.592 466.678 116.832 461.438 123.275 461.438C129.718 461.438 134.958 466.678 134.958 473.121V496.522ZM234.262 414.742H260.548H283.914H307.28H333.566V496.522H315.738V458.488C315.738 440.777 301.322 426.361 283.61 426.361C265.899 426.361 251.482 440.777 251.482 458.488V496.522H234.268V414.742H234.262ZM257.324 496.458V458.488C257.324 443.996 269.118 432.202 283.61 432.202C298.103 432.202 309.897 443.996 309.897 458.488V496.458H257.324ZM339.408 420.583H348.17H362.774H377.377H389.06H403.664H418.267H429.95H444.554H459.157H467.919V496.522H462.078V473.121C462.078 463.46 454.215 455.597 444.554 455.597C434.892 455.597 427.029 463.46 427.029 473.121V496.522H421.188V473.121C421.188 463.46 413.325 455.597 403.664 455.597C394.002 455.597 386.139 463.46 386.139 473.121V496.522H380.298V473.121C380.298 463.46 372.435 455.597 362.774 455.597C353.112 455.597 345.249 463.46 345.249 473.121V496.522H339.408V420.583ZM456.237 496.522H432.871V473.121C432.871 466.678 438.111 461.438 444.554 461.438C450.997 461.438 456.237 466.678 456.237 473.121V496.522ZM415.346 496.522H391.981V473.121C391.981 466.678 397.22 461.438 403.664 461.438C410.107 461.438 415.346 466.678 415.346 473.121V496.522ZM374.456 496.522H351.091V473.121C351.091 466.678 356.33 461.438 362.774 461.438C369.217 461.438 374.456 466.678 374.456 473.121V496.522ZM490.981 496.458V476.013C490.981 464.739 500.152 455.568 511.426 455.568C522.7 455.568 531.871 464.739 531.871 476.013V496.458H490.981ZM537.713 496.522V476.013C537.713 461.52 525.919 449.726 511.426 449.726C496.934 449.726 485.14 461.52 485.14 476.013V496.522H473.767V365.09V347.565V341.724C473.767 340.118 475.081 338.803 476.687 338.803C478.294 338.803 479.608 340.118 479.608 341.724V347.565C479.608 349.178 480.917 350.486 482.529 350.486C484.141 350.486 485.45 349.178 485.45 347.565V341.724C485.45 340.118 486.764 338.803 488.37 338.803C489.977 338.803 491.291 340.118 491.291 341.724V347.565C491.291 349.178 492.599 350.486 494.212 350.486C495.824 350.486 497.132 349.178 497.132 347.565V341.724C497.132 336.893 493.201 332.962 488.37 332.962C486.121 332.962 484.083 333.838 482.529 335.24C480.975 333.838 478.936 332.962 476.687 332.962C475.659 332.962 474.684 333.172 473.767 333.499V327.29H494.165C494.942 327.29 495.69 326.98 496.233 326.431L511.765 310.823L527.222 326.425C527.771 326.98 528.518 327.29 529.295 327.29H540.937H549.7V333.499C548.782 333.172 547.807 332.962 546.779 332.962C544.53 332.962 542.491 333.838 540.937 335.24C539.384 333.838 537.345 332.962 535.096 332.962C530.265 332.962 526.334 336.893 526.334 341.724V347.565C526.334 349.178 527.642 350.486 529.254 350.486C530.867 350.486 532.175 349.178 532.175 347.565V341.724C532.175 340.118 533.49 338.803 535.096 338.803C536.702 338.803 538.017 340.118 538.017 341.724V347.565C538.017 349.178 539.325 350.486 540.937 350.486C542.55 350.486 543.858 349.178 543.858 347.565V341.724C543.858 340.118 545.172 338.803 546.779 338.803C548.385 338.803 549.7 340.118 549.7 341.724V347.565V496.522H537.713Z" fill="#594555"/>
<path d="M283.914 210.292C295.188 210.292 304.359 201.121 304.359 189.847C304.359 178.573 295.188 169.402 283.914 169.402C272.64 169.402 263.469 178.573 263.469 189.847C263.469 201.121 272.646 210.292 283.914 210.292ZM283.914 175.243C291.969 175.243 298.517 181.791 298.517 189.847C298.517 197.902 291.969 204.45 283.914 204.45C275.858 204.45 269.31 197.902 269.31 189.847C269.31 181.791 275.858 175.243 283.914 175.243Z" fill="#594555"/>
<path d="M283.914 192.768C283.966 192.768 284.013 192.738 284.065 192.738C284.118 192.738 284.165 192.768 284.217 192.768H292.67C294.282 192.768 295.591 191.459 295.591 189.847C295.591 188.235 294.282 186.926 292.67 186.926H286.828V184.005C286.828 182.393 285.52 181.085 283.908 181.085C282.295 181.085 280.987 182.393 280.987 184.005V189.847C280.993 191.459 282.301 192.768 283.914 192.768ZM536.906 387.077C533.769 376.072 523.734 367.946 511.735 367.946C499.743 367.946 489.713 376.066 486.571 387.065C486.384 387.398 486.273 387.766 486.232 388.164C485.764 390.121 485.455 392.136 485.455 394.239V435.129C485.455 436.741 486.763 438.049 488.376 438.049H535.107C536.719 438.049 538.028 436.741 538.028 435.129V394.239C538.028 392.118 537.706 390.085 537.233 388.111C537.181 387.731 537.076 387.393 536.906 387.077ZM491.285 394.233C491.285 393.252 491.442 392.317 491.577 391.376H497.12V397.218H491.285V394.233ZM502.962 391.376H508.803V397.218H502.962V391.376ZM508.803 403.059V432.202H502.962V403.059H508.803ZM514.644 403.059H520.486V432.202H514.644V403.059ZM514.644 397.218V391.376H520.486V397.218H514.644ZM526.327 391.376H531.883C532.017 392.317 532.175 393.257 532.175 394.233V397.218H526.327V391.376ZM511.73 373.788C519.878 373.788 526.876 378.619 530.159 385.535H493.3C496.583 378.613 503.581 373.788 511.73 373.788ZM491.285 403.059H497.12V432.202H491.285V403.059ZM526.327 432.202V403.059H532.175V432.202H526.327ZM32.7318 438.044H79.4633C81.0755 438.044 82.384 436.735 82.384 435.123V394.233C82.384 392.112 82.0627 390.08 81.5896 388.105C81.5428 387.731 81.4435 387.393 81.2683 387.077C78.1314 376.072 68.0958 367.946 56.0975 367.946C44.1051 367.946 34.0753 376.066 30.9326 387.065C30.7457 387.398 30.6347 387.766 30.5938 388.164C30.1265 390.121 29.8169 392.136 29.8169 394.239V435.129C29.8111 436.735 31.1196 438.044 32.7318 438.044ZM76.5426 394.233V397.218H70.6953V391.376H76.2505C76.3907 392.317 76.5426 393.252 76.5426 394.233ZM64.8539 397.218H59.0124V391.376H64.8539V397.218ZM59.0124 403.059H64.8539V432.202H59.0124V403.059ZM53.171 432.202H47.3295V403.059H53.171V432.202ZM53.171 397.218H47.3295V391.376H53.171V397.218ZM41.4881 397.218H35.6525V394.233C35.6525 393.252 35.8102 392.317 35.9446 391.376H41.4881V397.218ZM35.6525 403.059H41.4881V432.202H35.6525V403.059ZM70.6953 432.202V403.059H76.5426V432.202H70.6953ZM56.0975 373.788C64.2463 373.788 71.2444 378.619 74.5273 385.535H37.6678C40.9507 378.613 47.9487 373.788 56.0975 373.788ZM348.169 446.806H362.773H377.377C378.989 446.806 380.297 445.497 380.297 443.885V429.281C380.297 427.669 378.989 426.361 377.377 426.361H362.773H348.169C346.557 426.361 345.249 427.669 345.249 429.281V443.885C345.249 445.497 346.557 446.806 348.169 446.806ZM374.456 440.964H365.694V432.202H374.456V440.964ZM351.09 432.202H359.852V440.964H351.09V432.202ZM389.059 446.806H403.663H418.267C419.879 446.806 421.187 445.497 421.187 443.885V429.281C421.187 427.669 419.879 426.361 418.267 426.361H403.663H389.059C387.447 426.361 386.139 427.669 386.139 429.281V443.885C386.139 445.497 387.447 446.806 389.059 446.806ZM415.346 440.964H406.584V432.202H415.346V440.964ZM391.98 432.202H400.742V440.964H391.98V432.202ZM429.949 446.806H444.553H459.157C460.769 446.806 462.077 445.497 462.077 443.885V429.281C462.077 427.669 460.769 426.361 459.157 426.361H444.553H429.949C428.337 426.361 427.029 427.669 427.029 429.281V443.885C427.029 445.497 428.337 446.806 429.949 446.806ZM456.236 440.964H447.474V432.202H456.236V440.964ZM432.87 432.202H441.632V440.964H432.87V432.202ZM50.2561 350.486H61.939C63.5512 350.486 64.8597 349.178 64.8597 347.566V330.041C64.8597 325.21 60.9284 321.279 56.0975 321.279C51.2667 321.279 47.3354 325.21 47.3354 330.041V347.566C47.3354 349.178 48.6439 350.486 50.2561 350.486ZM53.1768 330.041C53.1768 328.435 54.4911 327.121 56.0975 327.121C57.7039 327.121 59.0183 328.435 59.0183 330.041V344.645H53.1768V330.041ZM505.888 350.486H517.571C519.183 350.486 520.492 349.178 520.492 347.566V330.041C520.492 325.21 516.56 321.279 511.73 321.279C506.899 321.279 502.967 325.21 502.967 330.041V347.566C502.967 349.178 504.276 350.486 505.888 350.486ZM508.809 330.041C508.809 328.435 510.123 327.121 511.73 327.121C513.336 327.121 514.65 328.435 514.65 330.041V344.645H508.809V330.041ZM108.67 446.806H123.274H137.878C139.49 446.806 140.798 445.497 140.798 443.885V429.281C140.798 427.669 139.49 426.361 137.878 426.361H123.274H108.67C107.058 426.361 105.75 427.669 105.75 429.281V443.885C105.75 445.497 107.058 446.806 108.67 446.806ZM134.957 440.964H126.195V432.202H134.957V440.964ZM111.591 432.202H120.353V440.964H111.591V432.202ZM149.561 446.806H164.164H178.768C180.38 446.806 181.688 445.497 181.688 443.885V429.281C181.688 427.669 180.38 426.361 178.768 426.361H164.164H149.561C147.948 426.361 146.64 427.669 146.64 429.281V443.885C146.64 445.497 147.948 446.806 149.561 446.806ZM175.847 440.964H167.085V432.202H175.847V440.964ZM152.481 432.202H161.243V440.964H152.481V432.202ZM190.451 446.806H205.054H219.658C221.27 446.806 222.578 445.497 222.578 443.885V429.281C222.578 427.669 221.27 426.361 219.658 426.361H205.054H190.451C188.838 426.361 187.53 427.669 187.53 429.281V443.885C187.53 445.497 188.838 446.806 190.451 446.806ZM216.737 440.964H207.975V432.202H216.737V440.964ZM193.371 432.202H202.133V440.964H193.371V432.202Z" fill="#594555"/>
</svg>
