<svg width="478" height="425" viewBox="0 0 478 425" fill="none" xmlns="http://www.w3.org/2000/svg">
<path d="M18.6402 231.886C16.4033 231.886 14.9121 230.395 14.9121 228.158V216.228C14.9121 213.991 16.4033 212.5 18.6402 212.5C20.877 212.5 22.3682 213.991 22.3682 216.228V228.158C22.3682 229.649 20.1314 231.886 18.6402 231.886Z" fill="#594454"/>
<path d="M294.518 167.763H182.676C182.676 180.439 172.983 190.132 160.307 190.132V242.325H316.886V190.132C304.211 190.132 294.518 180.439 294.518 167.763Z" fill="#F1F1F2"/>
<path d="M182.675 182.675H294.517C294.517 195.351 294.517 180.439 294.517 167.763H182.675C182.675 180.439 182.675 195.351 182.675 182.675Z" fill="#D9D4D8"/>
<path d="M201.316 167.763H182.676C182.676 180.439 172.983 190.132 160.307 190.132V242.325H178.947V190.132C190.877 190.132 201.316 180.439 201.316 167.763ZM275.877 167.763H294.518C294.518 180.439 304.211 190.132 316.886 190.132V242.325H298.246V190.132C285.57 190.132 275.877 180.439 275.877 167.763Z" fill="#D9D4D8"/>
<path d="M294.517 219.956H272.149V242.325H294.517V219.956Z" fill="#F1F1F2"/>
<path d="M405.657 421.645H457.85V227.785H405.657V421.645Z" fill="#F1F1F2"/>
<path d="M458.552 227.412H443.64V421.272H458.552V227.412Z" fill="white"/>
<path d="M70.8336 227.412H18.6406V421.272H70.8336V227.412Z" fill="#F1F1F2"/>
<path d="M70.8332 227.412H55.9209V421.272H70.8332V227.412Z" fill="white"/>
<path d="M338.552 421.645H405.657V294.89H338.552V421.645Z" fill="#F1F1F2"/>
<path d="M354.167 294.518H339.254V421.272H354.167V294.518Z" fill="#D9D4D8"/>
<path d="M406.36 294.518H391.447V421.272H406.36V294.518Z" fill="#D9D4D8"/>
<path d="M272.149 257.237H205.044V421.272H272.149V257.237Z" fill="#F1F1F2"/>
<path d="M272.149 257.237H205.044V272.149H272.149V257.237Z" fill="#D9D4D8"/>
<path d="M272.149 279.605H205.044V294.518H272.149V279.605Z" fill="#D9D4D8"/>
<path d="M219.956 257.237H205.044V421.272H219.956V257.237Z" fill="#D9D4D8"/>
<path d="M272.149 257.237H257.237V421.272H272.149V257.237Z" fill="#D9D4D8"/>
<path d="M205.044 421.272V328.07C205.044 309.43 219.956 294.518 238.597 294.518C257.237 294.518 272.149 309.43 272.149 328.07V421.272" fill="#8E7F8B"/>
<path d="M222.938 78.2895V48.4649C222.938 40.2632 229.649 33.5526 237.85 33.5526C246.052 33.5526 252.763 40.2632 252.763 48.4649V78.2895" fill="#F1F1F2"/>
<path d="M309.43 242.325H167.763V257.237H309.43V242.325Z" fill="#F1F1F2"/>
<path d="M309.43 242.325H294.518V257.237H309.43V242.325Z" fill="white"/>
<path d="M182.675 242.325H167.763V257.237H182.675V242.325Z" fill="white"/>
<path d="M167.763 257.237V249.781H137.938V279.605H182.675V257.237H167.763Z" fill="#F1F1F2"/>
<path d="M167.763 257.237V249.781H137.938V264.693H167.763V272.149H182.675V257.237H167.763Z" fill="#D9D4D8"/>
<path d="M167.763 249.781H152.851V257.237H167.763V249.781Z" fill="#D9D4D8"/>
<path d="M182.675 257.237H167.763V279.605H182.675V257.237Z" fill="#D9D4D8"/>
<path d="M309.43 257.237V249.781H339.254V279.605H294.518V257.237H309.43Z" fill="#F1F1F2"/>
<path d="M309.43 249.781V257.237H294.518V272.149H309.43V264.693H339.254V249.781H309.43Z" fill="#D9D4D8"/>
<path d="M309.43 257.237H294.518V279.605H309.43V257.237Z" fill="#D9D4D8"/>
<path d="M324.342 249.781H309.43V257.237H324.342V249.781Z" fill="#D9D4D8"/>
<path d="M137.939 264.693H70.8335V294.518H137.939V264.693Z" fill="#F1F1F2"/>
<path d="M406.36 264.693H339.254V294.518H406.36V264.693Z" fill="#F1F1F2"/>
<path d="M137.939 264.693H123.026V294.518H137.939V264.693Z" fill="#D9D4D8"/>
<path d="M406.36 264.693H391.447V294.518H406.36V264.693Z" fill="#D9D4D8"/>
<path d="M85.7458 264.693H70.8335V294.518H85.7458V264.693Z" fill="#D9D4D8"/>
<path d="M354.167 264.693H339.254V294.518H354.167V264.693Z" fill="#D9D4D8"/>
<path d="M182.675 149.123V134.211C182.675 103.64 208.026 78.2895 238.596 78.2895C269.167 78.2895 294.517 103.64 294.517 134.211V149.123" fill="#F1F1F2"/>
<path d="M246.052 79.0351C243.816 79.0351 240.833 78.2895 238.596 78.2895C208.026 78.2895 182.675 103.64 182.675 134.211V149.123H197.588V134.211C197.588 105.877 218.465 82.7632 246.052 79.0351Z" fill="#D9D4D8"/>
<path d="M238.596 78.2895C236.359 78.2895 233.377 78.2895 231.14 79.0351C258.728 82.7632 279.605 105.877 279.605 134.211V149.123H294.517V134.211C294.517 103.64 269.166 78.2895 238.596 78.2895Z" fill="white"/>
<path d="M137.192 250.526V205.789C137.192 197.588 143.903 190.877 152.105 190.877C160.306 190.877 167.017 197.588 167.017 205.789V250.526H137.192Z" fill="#F1F1F2"/>
<path d="M205.044 257.237H182.675V421.272H205.044V257.237Z" fill="#F1F1F2"/>
<path d="M160.307 279.605H137.938V421.272H160.307V279.605Z" fill="#F1F1F2"/>
<path d="M182.676 279.605H160.307V421.272H182.676V279.605Z" fill="#F1F1F2"/>
<path d="M70.8336 227.412H18.6406V238.597H70.8336V227.412Z" fill="#D9D4D8"/>
<path d="M70.8336 249.781H18.6406V260.965H70.8336V249.781Z" fill="#D9D4D8"/>
<path d="M70.8336 279.605H18.6406V290.789H70.8336V279.605Z" fill="#D9D4D8"/>
<path d="M70.8336 346.711H18.6406V357.895H70.8336V346.711Z" fill="#D9D4D8"/>
<path d="M458.553 227.412H406.36V238.597H458.553V227.412Z" fill="#D9D4D8"/>
<path d="M458.553 249.781H406.36V260.965H458.553V249.781Z" fill="#D9D4D8"/>
<path d="M458.553 279.605H406.36V290.789H458.553V279.605Z" fill="#D9D4D8"/>
<path d="M458.553 346.711H406.36V357.895H458.553V346.711Z" fill="#D9D4D8"/>
<path d="M137.939 294.518H70.8335V421.272H137.939V294.518Z" fill="#F1F1F2"/>
<path d="M137.939 294.518H70.8335V309.43H137.939V294.518Z" fill="#D9D4D8"/>
<path d="M406.36 294.518H339.254V309.43H406.36V294.518Z" fill="#D9D4D8"/>
<path d="M85.7458 294.518H70.8335V421.272H85.7458V294.518Z" fill="#D9D4D8"/>
<path d="M137.939 294.518H123.026V421.272H137.939V294.518Z" fill="#D9D4D8"/>
<path d="M316.183 421.645H338.552V279.978H316.183V421.645Z" fill="#F1F1F2"/>
<path d="M309.43 152.851H167.763V167.763H309.43V152.851Z" fill="#F1F1F2"/>
<path d="M182.675 152.851H167.763V167.763H182.675V152.851Z" fill="#D9D4D8"/>
<path d="M309.43 152.851H294.518V167.763H309.43V152.851Z" fill="white"/>
<path d="M205.044 219.956H182.675V242.325H205.044V219.956Z" fill="#F1F1F2"/>
<path d="M205.044 219.956H193.86V242.325H205.044V219.956Z" fill="white"/>
<path d="M294.518 219.956H283.333V242.325H294.518V219.956Z" fill="white"/>
<path d="M294.517 257.237H272.149V421.272H294.517V257.237Z" fill="#F1F1F2"/>
<path d="M205.044 257.237H193.86V421.272H205.044V257.237Z" fill="white"/>
<path d="M160.307 279.605H149.123V421.272H160.307V279.605Z" fill="white"/>
<path d="M339.255 279.605H328.07V421.272H339.255V279.605Z" fill="white"/>
<path d="M294.518 257.237H283.333V421.272H294.518V257.237Z" fill="white"/>
<path d="M316.886 279.605H294.518V421.272H316.886V279.605Z" fill="#F1F1F2"/>
<path d="M32.8066 227.412V193.86C32.8066 187.895 38.0259 182.675 43.9909 182.675C49.9558 182.675 55.1751 187.895 55.1751 193.86V227.412H32.8066ZM308.684 249.781V205.044C308.684 196.842 315.394 190.132 323.596 190.132C331.798 190.132 338.508 196.842 338.508 205.044V249.781H308.684Z" fill="#F1F1F2"/>
<path d="M152.106 190.132C149.869 190.132 148.378 190.877 146.141 190.877C151.36 193.114 155.834 198.333 155.834 205.044V249.781H167.018V205.044C167.764 196.842 161.053 190.132 152.106 190.132ZM323.597 190.132C321.36 190.132 319.869 190.877 317.632 190.877C322.852 193.114 327.325 198.333 327.325 205.044V249.781H338.51V205.044C339.255 196.842 332.545 190.132 323.597 190.132Z" fill="white"/>
<path d="M443.64 227.412V193.86C443.64 187.895 438.421 182.675 432.456 182.675C426.491 182.675 421.272 187.895 421.272 193.86V227.412H443.64Z" fill="#F1F1F2"/>
<path d="M246.053 295.263C243.816 294.518 240.833 294.518 238.597 294.518C219.956 294.518 205.044 309.43 205.044 328.07V421.272H219.956V328.07C219.956 312.412 230.395 298.991 246.053 295.263Z" fill="#726571"/>
<path d="M231.14 295.263C233.377 294.518 236.359 294.518 238.596 294.518C257.237 294.518 272.149 309.43 272.149 328.07V421.272H257.237V328.07C257.237 312.412 246.052 298.991 231.14 295.263Z" fill="#726571"/>
<path d="M160.307 383.991V365.351C160.307 359.386 165.526 354.167 171.491 354.167C177.456 354.167 182.676 359.386 182.676 365.351V383.991H160.307ZM160.307 331.798V313.158C160.307 307.193 165.526 301.974 171.491 301.974C177.456 301.974 182.676 307.193 182.676 313.158V331.798H160.307ZM226.667 205.044V193.86C226.667 187.895 231.886 182.675 237.851 182.675C243.816 182.675 249.035 187.895 249.035 193.86V205.044" fill="#8E7F8B"/>
<path d="M55.9212 294.518H33.5527V324.342H55.9212V294.518Z" fill="#8E7F8B"/>
<path d="M316.886 383.991V365.351C316.886 359.386 311.667 354.167 305.702 354.167C299.737 354.167 294.518 359.386 294.518 365.351V383.991H316.886ZM316.886 331.798V313.158C316.886 307.193 311.667 301.974 305.702 301.974C299.737 301.974 294.518 307.193 294.518 313.158V331.798H316.886Z" fill="#8E7F8B"/>
<path d="M115.57 361.623H93.2017V391.447H115.57V361.623Z" fill="#8E7F8B"/>
<path d="M115.57 309.43H93.2017V339.254H115.57V309.43Z" fill="#8E7F8B"/>
<path d="M55.9212 361.623H33.5527V391.447H55.9212V361.623Z" fill="#8E7F8B"/>
<path d="M443.64 294.518H421.272V324.342H443.64V294.518Z" fill="#8E7F8B"/>
<path d="M383.991 361.623H361.623V391.447H383.991V361.623Z" fill="#8E7F8B"/>
<path d="M383.991 309.43H361.623V339.254H383.991V309.43Z" fill="#8E7F8B"/>
<path d="M443.64 361.623H421.272V391.447H443.64V361.623Z" fill="#8E7F8B"/>
<path d="M466.009 425H11.1841C8.94728 425 7.45605 423.509 7.45605 421.272C7.45605 419.035 8.94728 417.544 11.1841 417.544H466.009C468.246 417.544 469.737 419.035 469.737 421.272C469.737 423.509 468.246 425 466.009 425ZM272.149 398.904C269.912 398.904 268.421 397.412 268.421 395.175V328.07C268.421 311.667 255 298.246 238.596 298.246C222.193 298.246 208.772 311.667 208.772 328.07V395.175C208.772 397.412 207.281 398.904 205.044 398.904C202.807 398.904 201.316 397.412 201.316 395.175V328.07C201.316 307.193 217.719 290.789 238.596 290.789C259.474 290.789 275.877 307.193 275.877 328.07V395.175C275.877 397.412 273.64 398.904 272.149 398.904ZM294.517 152.851C292.281 152.851 290.789 151.36 290.789 149.123V134.211C290.789 105.132 267.675 82.0175 238.596 82.0175C209.517 82.0175 186.403 105.132 186.403 134.211V149.123C186.403 151.36 184.912 152.851 182.675 152.851C180.439 152.851 178.947 151.36 178.947 149.123V134.211C178.947 101.404 205.789 74.5614 238.596 74.5614C271.403 74.5614 298.246 101.404 298.246 134.211V149.123C298.246 151.36 296.009 152.851 294.517 152.851ZM182.675 387.719H160.307C158.07 387.719 156.579 386.228 156.579 383.991V365.351C156.579 357.149 163.289 350.439 171.491 350.439C179.693 350.439 186.403 357.149 186.403 365.351V383.991C186.403 386.228 184.167 387.719 182.675 387.719ZM164.035 380.263H178.947V365.351C178.947 360.877 175.965 357.895 171.491 357.895C167.017 357.895 164.035 360.877 164.035 365.351V380.263ZM182.675 335.526H160.307C158.07 335.526 156.579 334.035 156.579 331.798V313.158C156.579 304.956 163.289 298.246 171.491 298.246C179.693 298.246 186.403 304.956 186.403 313.158V331.798C186.403 334.035 184.167 335.526 182.675 335.526ZM164.035 328.07H178.947V313.158C178.947 308.684 175.965 305.702 171.491 305.702C167.017 305.702 164.035 308.684 164.035 313.158V328.07ZM167.763 254.254H137.939C135.702 254.254 134.21 252.763 134.21 250.526V205.789C134.21 195.351 142.412 187.149 152.851 187.149C163.289 187.149 171.491 195.351 171.491 205.789V250.526C171.491 252.018 169.254 254.254 167.763 254.254ZM140.921 246.798H163.289V205.789C163.289 199.825 158.07 194.605 152.105 194.605C146.14 194.605 140.921 199.825 140.921 205.789V246.798ZM249.035 208.772C246.798 208.772 245.307 207.281 245.307 205.044V193.86C245.307 189.386 242.324 186.404 237.851 186.404C233.377 186.404 230.395 189.386 230.395 193.86V205.044C230.395 207.281 228.903 208.772 226.667 208.772C224.43 208.772 222.939 207.281 222.939 205.044V193.86C222.939 185.658 229.649 178.947 237.851 178.947C246.053 178.947 252.763 185.658 252.763 193.86V205.044C252.763 207.281 251.272 208.772 249.035 208.772Z" fill="#594454"/>
<path d="M205.044 425H182.675C180.438 425 178.947 423.509 178.947 421.272V257.237C178.947 255 180.438 253.509 182.675 253.509H205.044C207.28 253.509 208.772 255 208.772 257.237V421.272C208.772 423.509 206.535 425 205.044 425ZM186.403 417.544H201.315V260.965H186.403V417.544ZM160.307 425H137.938C135.701 425 134.21 423.509 134.21 421.272V279.605C134.21 277.368 135.701 275.877 137.938 275.877H160.307C162.544 275.877 164.035 277.368 164.035 279.605V421.272C164.035 423.509 161.798 425 160.307 425ZM141.666 417.544H156.579V283.333H141.666V417.544ZM55.9207 328.07H33.5523C31.3154 328.07 29.8242 326.579 29.8242 324.342V294.518C29.8242 292.281 31.3154 290.789 33.5523 290.789H55.9207C58.1576 290.789 59.6488 292.281 59.6488 294.518V324.342C59.6488 326.579 57.4119 328.07 55.9207 328.07ZM37.2804 320.614H52.1926V298.246H37.2804V320.614Z" fill="#594454"/>
<path d="M70.8332 425H18.6402C16.4033 425 14.9121 423.509 14.9121 421.272V227.412C14.9121 225.175 16.4033 223.684 18.6402 223.684H70.8332C73.07 223.684 74.5612 225.175 74.5612 227.412V421.272C74.5612 423.509 72.3244 425 70.8332 425ZM22.3682 417.544H67.1051V231.14H22.3682V417.544Z" fill="#594454"/>
<path d="M137.939 425H70.8335C68.5967 425 67.1055 423.509 67.1055 421.272V294.517C67.1055 292.281 68.5967 290.789 70.8335 290.789H137.939C140.176 290.789 141.667 292.281 141.667 294.517V421.272C141.667 423.509 139.43 425 137.939 425ZM74.5616 417.544H134.211V298.246H74.5616V417.544ZM316.886 387.719H294.518C292.281 387.719 290.79 386.228 290.79 383.991V365.351C290.79 357.149 297.5 350.439 305.702 350.439C313.904 350.439 320.614 357.149 320.614 365.351V383.991C320.614 386.228 318.377 387.719 316.886 387.719ZM298.246 380.263H313.158V365.351C313.158 360.877 310.176 357.895 305.702 357.895C301.228 357.895 298.246 360.877 298.246 365.351V380.263ZM316.886 335.526H294.518C292.281 335.526 290.79 334.035 290.79 331.798V313.158C290.79 304.956 297.5 298.246 305.702 298.246C313.904 298.246 320.614 304.956 320.614 313.158V331.798C320.614 334.035 318.377 335.526 316.886 335.526ZM298.246 328.07H313.158V313.158C313.158 308.684 310.176 305.702 305.702 305.702C301.228 305.702 298.246 308.684 298.246 313.158V328.07Z" fill="#594454"/>
<path d="M339.254 425H316.886C314.649 425 313.158 423.509 313.158 421.272V279.605C313.158 277.368 314.649 275.877 316.886 275.877H339.254C341.491 275.877 342.983 277.368 342.983 279.605V421.272C342.983 423.509 340.746 425 339.254 425ZM320.614 417.544H335.526V283.333H320.614V417.544ZM309.43 260.965H167.763C165.526 260.965 164.035 259.474 164.035 257.237V242.325C164.035 240.088 165.526 238.596 167.763 238.596H309.43C311.667 238.596 313.158 240.088 313.158 242.325V257.237C313.158 259.474 310.921 260.965 309.43 260.965ZM171.491 253.509H305.702V246.053H171.491V253.509ZM309.43 171.491H167.763C165.526 171.491 164.035 170 164.035 167.763V152.851C164.035 150.614 165.526 149.123 167.763 149.123H309.43C311.667 149.123 313.158 150.614 313.158 152.851V167.763C313.158 170 310.921 171.491 309.43 171.491ZM171.491 164.035H305.702V156.579H171.491V164.035Z" fill="#594454"/>
<path d="M205.044 246.053H182.675C180.438 246.053 178.947 244.561 178.947 242.325V219.956C178.947 217.719 180.438 216.228 182.675 216.228H205.044C207.281 216.228 208.772 217.719 208.772 219.956V242.325C208.772 244.561 206.535 246.053 205.044 246.053ZM186.403 238.596H201.316V223.684H186.403V238.596ZM257.237 223.684H219.956C217.719 223.684 216.228 222.193 216.228 219.956V205.044C216.228 202.807 217.719 201.316 219.956 201.316H257.237C259.474 201.316 260.965 202.807 260.965 205.044V219.956C260.965 222.193 258.728 223.684 257.237 223.684ZM223.684 216.228H253.509V208.772H223.684V216.228ZM294.517 246.053H272.149C269.912 246.053 268.421 244.561 268.421 242.325V219.956C268.421 217.719 269.912 216.228 272.149 216.228H294.517C296.754 216.228 298.246 217.719 298.246 219.956V242.325C298.246 244.561 296.009 246.053 294.517 246.053ZM275.877 238.596H290.789V223.684H275.877V238.596ZM294.517 425H272.149C269.912 425 268.421 423.509 268.421 421.272V257.237C268.421 255 269.912 253.509 272.149 253.509H294.517C296.754 253.509 298.246 255 298.246 257.237V421.272C298.246 423.509 296.009 425 294.517 425ZM275.877 417.544H290.789V260.965H275.877V417.544Z" fill="#594454"/>
<path d="M294.518 223.684H182.675C180.439 223.684 178.947 222.193 178.947 219.956C178.947 217.719 180.439 216.228 182.675 216.228H294.518C296.754 216.228 298.246 217.719 298.246 219.956C298.246 222.193 296.009 223.684 294.518 223.684ZM287.061 208.772H190.132C187.895 208.772 186.404 207.281 186.404 205.044C186.404 202.807 187.895 201.316 190.132 201.316H287.061C289.298 201.316 290.789 202.807 290.789 205.044C290.789 207.281 288.553 208.772 287.061 208.772ZM167.763 253.509H130.482C128.246 253.509 126.754 252.018 126.754 249.781C126.754 247.544 128.246 246.053 130.482 246.053H167.763C170 246.053 171.491 247.544 171.491 249.781C171.491 252.018 169.254 253.509 167.763 253.509ZM257.237 283.333H130.482C128.246 283.333 126.754 281.842 126.754 279.605C126.754 277.368 128.246 275.877 130.482 275.877H257.237C259.474 275.877 260.965 277.368 260.965 279.605C260.965 281.842 258.728 283.333 257.237 283.333Z" fill="#594454"/>
<path d="M346.711 283.333H219.956C217.719 283.333 216.228 281.842 216.228 279.605C216.228 277.368 217.719 275.877 219.956 275.877H346.711C348.947 275.877 350.439 277.368 350.439 279.605C350.439 281.842 348.202 283.333 346.711 283.333ZM473.465 425H3.72807C1.49123 425 0 423.509 0 421.272C0 419.035 1.49123 417.544 3.72807 417.544H473.465C475.702 417.544 477.193 419.035 477.193 421.272C477.193 423.509 474.956 425 473.465 425ZM182.675 283.333H137.939C135.702 283.333 134.211 281.842 134.211 279.605V249.781C134.211 247.544 135.702 246.053 137.939 246.053H167.763C170 246.053 171.491 247.544 171.491 249.781V253.509H182.675C184.912 253.509 186.404 255 186.404 257.237V279.605C186.404 281.842 184.167 283.333 182.675 283.333ZM141.667 275.877H178.947V260.965H167.763C165.526 260.965 164.035 259.474 164.035 257.237V253.509H141.667V275.877ZM346.711 253.509H309.43C307.193 253.509 305.702 252.018 305.702 249.781C305.702 247.544 307.193 246.053 309.43 246.053H346.711C348.947 246.053 350.439 247.544 350.439 249.781C350.439 252.018 348.202 253.509 346.711 253.509Z" fill="#594454"/>
<path d="M339.254 283.333H294.517C292.28 283.333 290.789 281.842 290.789 279.605V257.237C290.789 255 292.28 253.509 294.517 253.509H305.701V249.781C305.701 247.544 307.192 246.053 309.429 246.053H339.254C341.49 246.053 342.982 247.544 342.982 249.781V279.605C342.982 281.842 340.745 283.333 339.254 283.333ZM298.245 275.877H335.525V253.509H313.157V257.237C313.157 259.474 311.666 260.965 309.429 260.965H298.245V275.877ZM152.85 249.781C150.613 249.781 149.122 248.289 149.122 246.053V228.158C149.122 225.921 150.613 224.43 152.85 224.43C155.087 224.43 156.578 225.921 156.578 228.158V246.053C156.578 247.544 154.341 249.781 152.85 249.781ZM152.85 190.877C150.613 190.877 149.122 189.386 149.122 187.149V175.219C149.122 172.982 150.613 171.491 152.85 171.491C155.087 171.491 156.578 172.982 156.578 175.219V187.149C156.578 189.386 154.341 190.877 152.85 190.877ZM174.473 208.772H129.736C127.499 208.772 126.008 207.281 126.008 205.044C126.008 202.807 127.499 201.316 129.736 201.316H174.473C176.71 201.316 178.201 202.807 178.201 205.044C178.201 207.281 176.71 208.772 174.473 208.772ZM55.1746 231.14H32.8062C30.5694 231.14 29.0781 229.649 29.0781 227.412V193.86C29.0781 185.658 35.7887 178.947 43.9904 178.947C52.1922 178.947 58.9027 185.658 58.9027 193.86V227.412C58.9027 229.649 57.4115 231.14 55.1746 231.14ZM36.5343 223.684H51.4465V193.86C51.4465 189.386 48.4641 186.403 43.9904 186.403C39.5167 186.403 36.5343 189.386 36.5343 193.86V223.684Z" fill="#594454"/>
<path d="M44.7368 183.421C42.4999 183.421 41.0087 181.93 41.0087 179.693V167.763C41.0087 165.526 42.4999 164.035 44.7368 164.035C46.9736 164.035 48.4648 165.526 48.4648 167.763V179.693C48.4648 181.93 46.228 183.421 44.7368 183.421ZM70.8332 235.614C68.5964 235.614 67.1052 234.123 67.1052 231.886V219.956C67.1052 217.719 68.5964 216.228 70.8332 216.228C73.0701 216.228 74.5613 217.719 74.5613 219.956V231.886C74.5613 234.123 72.3245 235.614 70.8332 235.614ZM63.3771 201.316H26.0964C23.8596 201.316 22.3683 199.825 22.3683 197.588C22.3683 195.351 23.8596 193.86 26.0964 193.86H63.3771C65.6139 193.86 67.1052 195.351 67.1052 197.588C67.1052 199.825 64.8683 201.316 63.3771 201.316ZM78.2894 253.509H11.1841C8.94728 253.509 7.45605 252.018 7.45605 249.781C7.45605 247.544 8.94728 246.053 11.1841 246.053H78.2894C80.5262 246.053 82.0175 247.544 82.0175 249.781C82.0175 252.018 79.7806 253.509 78.2894 253.509ZM78.2894 283.333H11.1841C8.94728 283.333 7.45605 281.842 7.45605 279.605C7.45605 277.368 8.94728 275.877 11.1841 275.877H78.2894C80.5262 275.877 82.0175 277.368 82.0175 279.605C82.0175 281.842 79.7806 283.333 78.2894 283.333ZM55.921 313.158H33.5525C31.3157 313.158 29.8245 311.667 29.8245 309.43C29.8245 307.193 31.3157 305.702 33.5525 305.702H55.921C58.1578 305.702 59.649 307.193 59.649 309.43C59.649 311.667 57.4122 313.158 55.921 313.158ZM115.57 395.175H93.2017C90.9648 395.175 89.4736 393.684 89.4736 391.447V361.623C89.4736 359.386 90.9648 357.895 93.2017 357.895H115.57C117.807 357.895 119.298 359.386 119.298 361.623V391.447C119.298 393.684 117.061 395.175 115.57 395.175ZM96.9297 387.719H111.842V365.351H96.9297V387.719Z" fill="#594454"/>
<path d="M111.842 380.263H93.2017C90.9649 380.263 89.4736 378.772 89.4736 376.535C89.4736 374.298 90.9649 372.807 93.2017 372.807H111.842C114.079 372.807 115.57 374.298 115.57 376.535C115.57 378.772 113.333 380.263 111.842 380.263ZM115.57 342.982H93.2017C90.9649 342.982 89.4736 341.491 89.4736 339.254V309.43C89.4736 307.193 90.9649 305.702 93.2017 305.702H115.57C117.807 305.702 119.298 307.193 119.298 309.43V339.254C119.298 341.491 117.061 342.982 115.57 342.982ZM96.9298 335.526H111.842V313.158H96.9298V335.526Z" fill="#594454"/>
<path d="M111.842 328.07H93.2017C90.9648 328.07 89.4736 326.579 89.4736 324.342C89.4736 322.105 90.9648 320.614 93.2017 320.614H111.842C114.079 320.614 115.57 322.105 115.57 324.342C115.57 326.579 113.333 328.07 111.842 328.07ZM55.921 395.175H33.5525C31.3157 395.175 29.8245 393.684 29.8245 391.447V361.623C29.8245 359.386 31.3157 357.895 33.5525 357.895H55.921C58.1578 357.895 59.649 359.386 59.649 361.623V391.447C59.649 393.684 57.4122 395.175 55.921 395.175ZM37.2806 387.719H52.1929V365.351H37.2806V387.719ZM137.939 298.246H70.8332C68.5964 298.246 67.1052 296.754 67.1052 294.518V264.693C67.1052 262.456 68.5964 260.965 70.8332 260.965H137.939C140.175 260.965 141.667 262.456 141.667 264.693V294.518C141.667 296.754 139.43 298.246 137.939 298.246ZM74.5613 290.789H134.21V268.421H74.5613V290.789ZM78.2894 350.439H11.1841C8.94728 350.439 7.45605 348.947 7.45605 346.711C7.45605 344.474 8.94728 342.982 11.1841 342.982H78.2894C80.5262 342.982 82.0175 344.474 82.0175 346.711C82.0175 348.947 79.7806 350.439 78.2894 350.439ZM301.228 134.211H174.474C172.237 134.211 170.746 132.719 170.746 130.482C170.746 128.246 172.237 126.754 174.474 126.754H301.228C303.465 126.754 304.956 128.246 304.956 130.482C304.956 132.719 303.465 134.211 301.228 134.211ZM253.509 82.0175C251.272 82.0175 249.781 80.5263 249.781 78.2895V48.4649C249.781 42.5 244.561 37.2807 238.596 37.2807C232.631 37.2807 227.412 42.5 227.412 48.4649V78.2895C227.412 80.5263 225.921 82.0175 223.684 82.0175C221.447 82.0175 219.956 80.5263 219.956 78.2895V48.4649C219.956 38.0263 228.158 29.8246 238.596 29.8246C249.035 29.8246 257.237 38.0263 257.237 48.4649V78.2895C257.237 80.5263 255 82.0175 253.509 82.0175Z" fill="#594454"/>
<path d="M238.597 78.2895C236.36 78.2895 234.869 76.7982 234.869 74.5614V64.1228C234.869 61.886 236.36 60.3947 238.597 60.3947C240.834 60.3947 242.325 61.886 242.325 64.1228V74.5614C242.325 76.0526 240.088 78.2895 238.597 78.2895ZM197.588 152.851C195.351 152.851 193.86 151.36 193.86 149.123V134.211C193.86 131.974 195.351 130.482 197.588 130.482C199.825 130.482 201.316 131.974 201.316 134.211V149.123C201.316 151.36 199.079 152.851 197.588 152.851ZM219.956 152.851C217.72 152.851 216.228 151.36 216.228 149.123V134.211C216.228 131.974 217.72 130.482 219.956 130.482C222.193 130.482 223.684 131.974 223.684 134.211V149.123C223.684 151.36 221.448 152.851 219.956 152.851ZM197.588 205.044C195.351 205.044 193.86 203.553 193.86 201.316V171.491C193.86 169.254 195.351 167.763 197.588 167.763C199.825 167.763 201.316 169.254 201.316 171.491V201.316C201.316 203.553 199.079 205.044 197.588 205.044ZM212.5 205.044C210.263 205.044 208.772 203.553 208.772 201.316V171.491C208.772 169.254 210.263 167.763 212.5 167.763C214.737 167.763 216.228 169.254 216.228 171.491V201.316C216.228 203.553 213.991 205.044 212.5 205.044ZM264.693 205.044C262.456 205.044 260.965 203.553 260.965 201.316V171.491C260.965 169.254 262.456 167.763 264.693 167.763C266.93 167.763 268.421 169.254 268.421 171.491V201.316C268.421 203.553 266.184 205.044 264.693 205.044ZM279.605 205.044C277.369 205.044 275.877 203.553 275.877 201.316V171.491C275.877 169.254 277.369 167.763 279.605 167.763C281.842 167.763 283.334 169.254 283.334 171.491V201.316C283.334 203.553 281.097 205.044 279.605 205.044ZM257.237 152.851C255 152.851 253.509 151.36 253.509 149.123V134.211C253.509 131.974 255 130.482 257.237 130.482C259.474 130.482 260.965 131.974 260.965 134.211V149.123C260.965 151.36 258.728 152.851 257.237 152.851ZM279.605 152.851C277.369 152.851 275.877 151.36 275.877 149.123V134.211C275.877 131.974 277.369 130.482 279.605 130.482C281.842 130.482 283.334 131.974 283.334 134.211V149.123C283.334 151.36 281.097 152.851 279.605 152.851ZM238.597 34.2982C236.36 34.2982 234.869 32.807 234.869 30.5702V3.72807C234.869 1.49123 236.36 0 238.597 0C240.834 0 242.325 1.49123 242.325 3.72807V30.5702C242.325 32.807 240.088 34.2982 238.597 34.2982ZM260.22 52.193H215.483C213.246 52.193 211.755 50.7018 211.755 48.4649C211.755 46.2281 213.991 44.7368 216.228 44.7368H260.965C263.202 44.7368 264.693 46.2281 264.693 48.4649C264.693 50.7018 262.456 52.193 260.22 52.193ZM339.255 253.509H309.43C307.193 253.509 305.702 252.018 305.702 249.781V205.044C305.702 194.605 313.904 186.404 324.342 186.404C334.781 186.404 342.983 194.605 342.983 205.044V249.781C342.983 252.018 340.746 253.509 339.255 253.509ZM312.412 246.053H334.781V205.044C334.781 199.079 329.562 193.86 323.597 193.86C317.632 193.86 312.412 199.079 312.412 205.044V246.053Z" fill="#594454"/>
<path d="M324.342 249.781C322.105 249.781 320.614 248.289 320.614 246.053V228.158C320.614 225.921 322.105 224.43 324.342 224.43C326.579 224.43 328.07 225.921 328.07 228.158V246.053C328.07 247.544 325.833 249.781 324.342 249.781ZM324.342 190.877C322.105 190.877 320.614 189.386 320.614 187.149V175.219C320.614 172.982 322.105 171.491 324.342 171.491C326.579 171.491 328.07 172.982 328.07 175.219V187.149C328.07 189.386 325.833 190.877 324.342 190.877ZM345.965 208.772H301.228C298.991 208.772 297.5 207.281 297.5 205.044C297.5 202.807 298.991 201.316 301.228 201.316H345.965C348.202 201.316 349.693 202.807 349.693 205.044C349.693 207.281 348.202 208.772 345.965 208.772ZM237.851 145.395C235.614 145.395 234.123 143.904 234.123 141.667C234.123 139.43 235.614 137.939 237.851 137.939C240.088 137.939 241.579 139.43 241.579 141.667C241.579 143.904 240.088 145.395 237.851 145.395ZM160.307 193.86C158.07 193.86 156.579 192.368 156.579 190.132C156.579 187.895 158.07 186.404 160.307 186.404C170.746 186.404 178.948 178.202 178.948 167.763C178.948 165.526 180.439 164.035 182.676 164.035C184.912 164.035 186.404 165.526 186.404 167.763C186.404 182.675 174.474 193.86 160.307 193.86Z" fill="#594454"/>
<path d="M160.307 193.86H156.579C154.342 193.86 152.851 192.368 152.851 190.132C152.851 187.895 154.342 186.404 156.579 186.404H160.307C162.544 186.404 164.035 187.895 164.035 190.132C164.035 192.368 161.798 193.86 160.307 193.86ZM316.886 193.86C302.719 193.86 290.79 181.93 290.79 167.763C290.79 165.526 292.281 164.035 294.518 164.035C296.755 164.035 298.246 165.526 298.246 167.763C298.246 178.202 306.448 186.404 316.886 186.404C319.123 186.404 320.614 187.895 320.614 190.132C320.614 192.368 318.377 193.86 316.886 193.86Z" fill="#594454"/>
<path d="M320.614 193.86H316.886C314.649 193.86 313.158 192.368 313.158 190.132C313.158 187.895 314.649 186.404 316.886 186.404H320.614C322.851 186.404 324.342 187.895 324.342 190.132C324.342 192.368 322.105 193.86 320.614 193.86Z" fill="#594454"/>
<path d="M44.7369 268.421C46.7958 268.421 48.4649 266.752 48.4649 264.693C48.4649 262.634 46.7958 260.965 44.7369 260.965C42.6779 260.965 41.0088 262.634 41.0088 264.693C41.0088 266.752 42.6779 268.421 44.7369 268.421Z" fill="#594454"/>
<path d="M443.64 328.07H421.272C419.035 328.07 417.544 326.579 417.544 324.342V294.517C417.544 292.281 419.035 290.789 421.272 290.789H443.64C445.877 290.789 447.369 292.281 447.369 294.517V324.342C447.369 326.579 445.132 328.07 443.64 328.07ZM425 320.614H439.912V298.246H425V320.614Z" fill="#594454"/>
<path d="M458.553 425H406.36C404.123 425 402.632 423.509 402.632 421.272V227.412C402.632 225.175 404.123 223.684 406.36 223.684H458.553C460.79 223.684 462.281 225.175 462.281 227.412V421.272C462.281 423.509 460.044 425 458.553 425ZM410.088 417.544H454.825V231.14H410.088V417.544Z" fill="#594454"/>
<path d="M406.36 425H339.254C337.018 425 335.526 423.509 335.526 421.272V294.518C335.526 292.281 337.018 290.789 339.254 290.789H406.36C408.597 290.789 410.088 292.281 410.088 294.518V421.272C410.088 423.509 407.851 425 406.36 425ZM342.983 417.544H402.632V298.246H342.983V417.544ZM443.64 231.14H421.272C419.035 231.14 417.544 229.649 417.544 227.412V193.86C417.544 185.658 424.254 178.947 432.456 178.947C440.658 178.947 447.368 185.658 447.368 193.86V227.412C447.368 229.649 445.132 231.14 443.64 231.14ZM425 223.684H439.912V193.86C439.912 189.386 436.93 186.404 432.456 186.404C427.983 186.404 425 189.386 425 193.86V223.684Z" fill="#594454"/>
<path d="M432.456 183.421C430.219 183.421 428.728 181.93 428.728 179.693V167.763C428.728 165.526 430.219 164.035 432.456 164.035C434.693 164.035 436.184 165.526 436.184 167.763V179.693C436.184 181.93 433.947 183.421 432.456 183.421ZM458.552 235.614C456.316 235.614 454.824 234.123 454.824 231.886V219.956C454.824 217.719 456.316 216.228 458.552 216.228C460.789 216.228 462.28 217.719 462.28 219.956V231.886C462.28 234.123 460.044 235.614 458.552 235.614ZM406.359 235.614C404.123 235.614 402.631 234.123 402.631 231.886V219.956C402.631 217.719 404.123 216.228 406.359 216.228C408.596 216.228 410.088 217.719 410.088 219.956V231.886C410.088 234.123 407.851 235.614 406.359 235.614ZM451.096 201.316H413.816C411.579 201.316 410.088 199.825 410.088 197.588C410.088 195.351 411.579 193.86 413.816 193.86H451.096C453.333 193.86 454.824 195.351 454.824 197.588C454.824 199.825 452.588 201.316 451.096 201.316ZM466.009 253.509H398.903C396.666 253.509 395.175 252.018 395.175 249.781C395.175 247.544 396.666 246.053 398.903 246.053H466.009C468.245 246.053 469.737 247.544 469.737 249.781C469.737 252.018 467.5 253.509 466.009 253.509ZM466.009 283.333H398.903C396.666 283.333 395.175 281.842 395.175 279.605C395.175 277.368 396.666 275.877 398.903 275.877H466.009C468.245 275.877 469.737 277.368 469.737 279.605C469.737 281.842 467.5 283.333 466.009 283.333ZM443.64 313.158H421.272C419.035 313.158 417.544 311.667 417.544 309.43C417.544 307.193 419.035 305.702 421.272 305.702H443.64C445.877 305.702 447.368 307.193 447.368 309.43C447.368 311.667 445.131 313.158 443.64 313.158ZM383.991 395.175H361.623C359.386 395.175 357.895 393.684 357.895 391.447V361.623C357.895 359.386 359.386 357.895 361.623 357.895H383.991C386.228 357.895 387.719 359.386 387.719 361.623V391.447C387.719 393.684 385.482 395.175 383.991 395.175ZM365.351 387.719H380.263V365.351H365.351V387.719Z" fill="#594454"/>
<path d="M383.991 380.263H365.351C363.114 380.263 361.623 378.772 361.623 376.535C361.623 374.298 363.114 372.807 365.351 372.807H383.991C386.228 372.807 387.719 374.298 387.719 376.535C387.719 378.772 385.482 380.263 383.991 380.263ZM383.991 342.982H361.623C359.386 342.982 357.895 341.491 357.895 339.254V309.43C357.895 307.193 359.386 305.702 361.623 305.702H383.991C386.228 305.702 387.719 307.193 387.719 309.43V339.254C387.719 341.491 385.482 342.982 383.991 342.982ZM365.351 335.526H380.263V313.158H365.351V335.526Z" fill="#594454"/>
<path d="M383.991 328.07H365.351C363.114 328.07 361.623 326.579 361.623 324.342C361.623 322.105 363.114 320.614 365.351 320.614H383.991C386.228 320.614 387.719 322.105 387.719 324.342C387.719 326.579 385.483 328.07 383.991 328.07ZM443.64 395.175H421.272C419.035 395.175 417.544 393.684 417.544 391.447V361.623C417.544 359.386 419.035 357.895 421.272 357.895H443.64C445.877 357.895 447.368 359.386 447.368 361.623V391.447C447.368 393.684 445.132 395.175 443.64 395.175ZM425 387.719H439.912V365.351H425V387.719ZM406.36 298.246H339.254C337.018 298.246 335.526 296.754 335.526 294.518V264.693C335.526 262.456 337.018 260.965 339.254 260.965H406.36C408.597 260.965 410.088 262.456 410.088 264.693V294.518C410.088 296.754 407.851 298.246 406.36 298.246ZM342.983 290.789H402.632V268.421H342.983V290.789Z" fill="#594454"/>
<path d="M466.009 350.439H398.903C396.667 350.439 395.175 348.947 395.175 346.71C395.175 344.474 396.667 342.982 398.903 342.982H466.009C468.245 342.982 469.737 344.474 469.737 346.71C469.737 348.947 467.5 350.439 466.009 350.439Z" fill="#594454"/>
<path d="M432.456 268.421C434.515 268.421 436.184 266.752 436.184 264.693C436.184 262.634 434.515 260.965 432.456 260.965C430.397 260.965 428.728 262.634 428.728 264.693C428.728 266.752 430.397 268.421 432.456 268.421Z" fill="#594454"/>
</svg>
