<svg width="700" height="451" viewBox="0 0 700 451" fill="none" xmlns="http://www.w3.org/2000/svg">
<path d="M699.788 449.031C699.788 449.178 543.135 449.304 349.894 449.304C156.654 449.304 0 449.178 0 449.031C0 448.884 156.622 448.758 349.894 448.758C543.166 448.758 699.788 448.873 699.788 449.031Z" fill="#263238"/>
<path d="M568.299 449.031L415.723 448.936C411.355 448.94 407.03 448.083 402.994 446.414C398.958 444.745 395.29 442.297 392.202 439.209C389.113 436.121 386.663 432.455 384.993 428.419C383.322 424.384 382.464 420.059 382.467 415.691L382.54 33.2242C382.54 28.8585 383.401 24.5356 385.072 20.5026C386.744 16.4696 389.194 12.8056 392.283 9.72C395.371 6.63444 399.037 4.18782 403.072 2.52C407.107 0.852184 411.43 -0.00412709 415.796 1.49549e-05L568.447 0.0315357C577.257 0.0426706 585.704 3.54986 591.931 9.78304C598.158 16.0162 601.658 24.4659 601.66 33.2767L601.587 415.744C601.592 420.117 600.735 424.448 599.064 428.489C597.393 432.53 594.942 436.201 591.849 439.294C588.757 442.386 585.086 444.837 581.045 446.508C577.003 448.179 572.672 449.036 568.299 449.031Z" fill="#455A64"/>
<path d="M569.361 11.4209L539.678 11.2843C538.709 11.2994 537.753 11.5056 536.864 11.8912C535.975 12.2768 535.172 12.8341 534.499 13.5312C533.826 14.2283 533.298 15.0514 532.944 15.9533C532.591 16.8552 532.419 17.818 532.438 18.7866V24.1768C532.457 25.1454 532.285 26.1082 531.932 27.0101C531.578 27.912 531.05 28.7351 530.377 29.4322C529.704 30.1293 528.901 30.6867 528.012 31.0722C527.123 31.4578 526.167 31.6641 525.198 31.6791L467.335 31.4059C466.366 31.3828 465.411 31.1684 464.526 30.7753C463.64 30.3821 462.841 29.8178 462.174 29.1148C461.507 28.4118 460.986 27.584 460.64 26.6789C460.294 25.7737 460.13 24.8092 460.158 23.8406V18.4609C460.187 17.4906 460.024 16.524 459.678 15.617C459.332 14.71 458.81 13.8805 458.142 13.1762C457.474 12.472 456.673 11.9069 455.786 11.5137C454.898 11.1205 453.942 10.9068 452.971 10.8851H442.537L416.553 10.759C410.357 10.7338 404.404 13.1703 400.005 17.5328C395.605 21.8952 393.118 27.8264 393.09 34.0222L391.503 408.672C391.478 414.866 393.913 420.816 398.273 425.216C402.633 429.615 408.562 432.104 414.756 432.135L567.554 432.839C573.749 432.864 579.702 430.427 584.101 426.065C588.501 421.702 590.989 415.771 591.016 409.575L592.614 34.8838C592.627 31.8164 592.037 28.7763 590.876 25.9371C589.715 23.0979 588.006 20.5153 585.847 18.3365C583.687 16.1578 581.12 14.4257 578.291 13.2391C575.463 12.0525 572.428 11.4347 569.361 11.4209Z" fill="#F5F5F5"/>
<path d="M504.519 361.999C504.341 366.517 504.173 370.762 504.036 374.292H525.986L523.265 360.812L504.519 361.999Z" fill="#F5F5F5"/>
<path d="M415.312 367.642L415.502 374.293H501.84C501.987 370.552 502.156 366.412 502.313 362.136L415.312 367.642Z" fill="#F5F5F5"/>
<path d="M524.401 360.738L527.102 374.293H567.565L567.082 358.038L524.401 360.738Z" fill="#F5F5F5"/>
<path d="M506.706 171.301L514.356 126.94L494.318 125.458V171.301H506.706Z" fill="#EBEBEB"/>
<path d="M413.506 343.012L391.755 351.533L391.692 366.937L414.157 365.518L413.506 343.012Z" fill="#F5F5F5"/>
<path d="M413.411 339.544L412.224 298.229H412.203V283.655L392.039 285.788L391.776 347.992L413.4 339.523L413.411 339.544Z" fill="#EBEBEB"/>
<path d="M412.202 251.126L392.196 248.488L392.049 282.49L412.202 280.357V251.126Z" fill="#F5F5F5"/>
<path d="M561.333 284.277L560.492 296.118L536.861 298.661L538.69 308.034L565.515 306.006L565.116 292.577L567.259 283.678L561.333 284.277Z" fill="#F5F5F5"/>
<path d="M518.746 309.536L537.586 308.118L533.488 287.082L517.033 288.742L518.746 309.536Z" fill="#F5F5F5"/>
<path d="M518.926 311.721L520.365 329.258L522.919 353.309L523.969 358.573L567.018 355.852L565.578 308.201L518.926 311.721Z" fill="#EBEBEB"/>
<path d="M444.839 228.923L446.499 231.76L413.296 251.157V297.084L448.338 294.604L515.911 287.764L513.442 257.65L448.927 249.244L449.357 245.987L513.116 254.309L508.913 203.348L445.764 209.421L445.554 207.246L508.734 201.173L506.559 174.579H445.816L392.471 184.288L392.208 245.178L412.414 247.836L444.839 228.923ZM416.701 292.671C416.701 292.671 416.953 254.845 416.701 253.384L443.789 238.979L447.298 290.738L416.701 292.671Z" fill="#F5F5F5"/>
<path d="M559.126 284.497L534.581 286.977L536.441 296.507L558.443 294.132L559.126 284.497Z" fill="#F5F5F5"/>
<path d="M504.826 353.888C504.753 355.874 504.679 357.849 504.605 359.793L522.867 358.637L521.932 353.93L504.826 353.888Z" fill="#F5F5F5"/>
<path d="M465.485 171.301L468.701 156.707H493.225V125.374L416.542 119.689V149.12L392.586 154.532L392.48 180.947L445.522 171.301H465.485Z" fill="#EBEBEB"/>
<path d="M516.646 84.0904L515.994 81.4005L545.278 69.8424L526.228 31.5537C525.881 31.6082 525.529 31.6363 525.178 31.6378L492.794 31.5537L493.677 85.057L516.646 84.0904Z" fill="#F5F5F5"/>
<path d="M561.029 63.5906V11.3902L539.72 11.2852C538.751 11.3002 537.795 11.5064 536.906 11.892C536.018 12.2776 535.214 12.8349 534.541 13.532C533.869 14.2291 533.34 15.0522 532.987 15.9541C532.633 16.856 532.461 17.8188 532.48 18.7874V24.1777C532.481 25.3833 532.195 26.5718 531.647 27.6458C531.099 28.7197 530.304 29.6485 529.328 30.356L548.388 68.6132L561.029 63.5906Z" fill="#EBEBEB"/>
<path d="M450.942 65.8402L448.473 10.8658H442.547L419.431 10.7607L409.522 59.9245L450.942 65.8402ZM445.689 16.4557L446.477 61.2169L415.69 56.7093L422.394 16.4452L445.689 16.4557Z" fill="#F5F5F5"/>
<path d="M452.067 65.9964V66.4587C452.12 70.7562 452.214 78.4686 452.277 86.7274L492.604 85.0777L491.743 31.5534L467.334 31.4378C466.366 31.4147 465.411 31.2004 464.525 30.8072C463.64 30.414 462.841 29.8497 462.174 29.1467C461.507 28.4437 460.985 27.6159 460.64 26.7108C460.294 25.8057 460.13 24.8411 460.158 23.8725V18.4928C460.187 17.5225 460.024 16.5559 459.678 15.6489C459.332 14.7419 458.81 13.9124 458.142 13.2081C457.474 12.5039 456.673 11.9388 455.785 11.5456C454.898 11.1524 453.941 10.9387 452.971 10.917H449.566L452.036 66.0384L452.067 65.9964Z" fill="#F5F5F5"/>
<path d="M406.266 59.419L416.091 10.749C409.989 10.8534 404.171 13.3437 399.883 17.6863C395.596 22.0289 393.18 27.8782 393.153 33.9807L392.975 58.2422L393.08 57.5277L406.266 59.419Z" fill="#F5F5F5"/>
<path d="M413.253 119.448L392.743 117.935L392.606 151.159L413.253 146.493V119.448Z" fill="#F5F5F5"/>
<path d="M406.046 60.5009L392.996 58.6201L392.775 112.439L395.581 112.649L406.046 60.5009Z" fill="#F5F5F5"/>
<path d="M447.477 338.915L447.823 295.709L413.317 298.157L414.536 340.481L447.477 338.915Z" fill="#F5F5F5"/>
<path d="M453.823 328.91L502.692 352.321C503.281 337.022 503.796 322.722 503.743 321.849H504.794L505.319 320.799C506.013 321.145 506.013 321.145 505.645 331.569C505.445 337.39 505.151 345.134 504.857 352.878H521.763L519.263 329.394L515.911 288.856L452.1 295.287L453.823 328.91Z" fill="#F5F5F5"/>
<path d="M573.618 257.241L573.061 251.546L514.482 257.63L516.952 287.649L567.523 282.553L573.618 257.241Z" fill="#F5F5F5"/>
<path d="M493.225 159.996H471.338L468.848 171.302H493.225V159.996Z" fill="#F5F5F5"/>
<path d="M564.569 163.809L509.763 160.016L507.504 172.971L509.805 201.068L567.595 195.509L564.569 163.809ZM511.78 172.94L514.722 164.775L562.321 167.781L565.074 191.159L513.388 197.285L511.78 172.94Z" fill="#F5F5F5"/>
<path d="M570.254 222.546L567.848 197.686L510.016 203.254L512.191 229.701L570.254 222.546Z" fill="#F5F5F5"/>
<path d="M414.22 367.704L391.787 369.123L391.693 367.662L391.661 374.292H414.41L414.22 367.704Z" fill="#F5F5F5"/>
<path d="M592.214 51.2542L592.54 52.0843L592.614 34.8838C592.627 31.8164 592.037 28.7763 590.876 25.9371C589.715 23.0979 588.006 20.5152 585.847 18.3365C583.687 16.1577 581.12 14.4256 578.292 13.2391C575.463 12.0525 572.428 11.4347 569.361 11.4209H562.09V63.1905L592.214 51.2542Z" fill="#EBEBEB"/>
<path d="M502.651 353.551L452.762 329.657L451.008 295.403L448.906 295.613L448.549 339.965L414.558 341.573V342.56L415.22 365.424L502.378 359.918C502.483 357.817 502.567 355.673 502.651 353.551ZM416.701 344.399L464.289 341.058L495.254 355.421L416.701 359.624V344.399Z" fill="#F5F5F5"/>
<path d="M578.03 108.752L580.132 96.6472C562.269 90.2588 560.998 71.6083 561.051 65.9658L549.377 70.5785L566.956 105.873L578.03 108.752Z" fill="#F5F5F5"/>
<path d="M514.22 254.361L538.534 251.829L533.742 230.352L512.465 232.968L514.22 254.361Z" fill="#F5F5F5"/>
<path d="M566.681 129.808H521.258L517.486 129.524L512.358 159.271L566.272 163.001L565.021 150.066L570.327 130.964L566.681 129.808Z" fill="#F5F5F5"/>
<path d="M563.541 121.833L564.108 107.637L546.246 71.7969L518.569 82.7455L528.078 121.833H563.541ZM545.184 76.1574L561.544 107.28L559.18 116.978L531.178 115.928L524.18 86.5071L545.184 76.1574Z" fill="#F5F5F5"/>
<path d="M570.612 293.144L571.453 321.03L591.133 319.916L591.186 321.02L571.484 322.123L572.483 355.505L591.091 354.328L591.228 356.513L572.546 357.69L573.05 374.292H591.175L591.574 281.218L573.029 283.088L570.612 293.144Z" fill="#F5F5F5"/>
<path d="M450.985 66.9428L409.302 60.9746L398.879 112.902L451.163 116.779C451.374 108.772 451.195 84.2483 450.985 66.9428Z" fill="#EBEBEB"/>
<path d="M519.535 121.833H525.84L516.908 85.1836L493.719 86.1293L494.276 119.963L519.535 121.833Z" fill="#F5F5F5"/>
<path d="M452.236 116.841L493.215 119.878L492.627 86.1914L452.289 87.8411C452.373 99.2205 452.404 111.409 452.236 116.841Z" fill="#F5F5F5"/>
<path d="M570.569 225.812L534.834 230.215L539.636 251.713L572.744 248.267L570.569 225.812Z" fill="#F5F5F5"/>
<path d="M580.258 95.5428L582.548 81.9883L592.415 82.7553L592.541 53.5029L562.07 65.5443C561.492 86.1072 574.416 93.3467 580.258 95.5428Z" fill="#EBEBEB"/>
<path d="M568.541 148.048L569.781 160.878L592.077 162.422L592.183 135.996L573.521 130.102L568.541 148.048Z" fill="#F5F5F5"/>
<path d="M579.153 257.63L573.301 281.965L591.563 280.126L591.678 254.594C586.067 253.123 581.171 251.914 578.533 251.441L579.153 257.63Z" fill="#F5F5F5"/>
<path d="M566.818 122.244L592.215 130.271L592.267 115.824L567.323 109.383L566.818 122.244Z" fill="#F5F5F5"/>
<path d="M578.229 248.067C580.33 248.372 584.155 249.202 591.699 251.219L591.93 195.415L573.301 197.201L578.229 248.067Z" fill="#F5F5F5"/>
<path d="M573.08 194.985L591.941 193.167L592.056 165.711L570.106 164.198L573.08 194.985Z" fill="#F5F5F5"/>
<path d="M582.358 96.2361C585.941 97.2869 589.262 98.1695 592.34 98.7894L592.403 84.9303L584.376 84.2998L582.358 96.2361Z" fill="#F5F5F5"/>
<path d="M580.162 109.308L592.288 112.46V99.9354C589.135 99.305 585.763 98.4539 582.127 97.3506L580.162 109.308Z" fill="#F5F5F5"/>
<path d="M591.227 356.514L591.09 354.329L572.482 355.506L571.431 322.124L591.132 321.02V319.97L571.441 321.073L570.611 293.187L573.028 283.131L591.563 281.219V280.168L573.291 282.007L579.143 257.672L578.534 251.451C581.171 251.956 586.068 253.164 591.678 254.604V251.157C584.134 249.182 580.257 248.352 578.208 248.005L573.28 197.097L591.91 195.311V193.104L573.059 194.922L570.075 164.135L592.025 165.649V162.36L569.729 160.815L568.489 147.986L573.469 130.039L592.13 135.934V130.207L566.734 122.18L567.249 109.319L592.183 115.76V112.376L580.057 109.224L582.075 97.2563C585.71 98.3596 589.094 99.2107 592.235 99.8412V98.8009C589.157 98.181 585.836 97.3404 582.253 96.2477L584.271 84.3113L592.298 84.9417V82.7457L582.432 81.9787L580.141 95.5542C574.299 93.3581 561.375 86.0976 561.995 65.5347L592.466 53.4933V52.0853L592.141 51.2553L562.142 63.1601V11.3904H560.987V63.5909L548.304 68.6134L529.286 30.3562C528.376 30.992 527.328 31.4025 526.228 31.554L545.331 69.8322L516.047 81.3903L516.698 84.0802L493.75 85.0153L492.794 31.554H491.743L492.626 85.1414L452.299 86.7911C452.236 78.5323 452.141 70.8199 452.089 66.5224V66.0601L449.619 10.9386H448.516L450.985 65.913L409.523 59.9238L419.39 10.7705H416.563C416.385 10.7705 416.216 10.7705 416.038 10.7705L406.266 59.4405L393.1 57.5491L392.995 58.2636V58.6419L406.045 60.5227L395.538 112.671L392.722 112.46V117.945L413.232 119.469V146.515L392.585 151.18V154.49L416.532 149.079V119.658L493.235 125.342V156.675H468.701L465.475 171.302H445.511L392.47 180.947V184.289L445.816 174.58H506.569L508.744 201.174L445.563 207.247L445.774 209.422L508.923 203.349L513.126 254.309L449.315 245.967L448.884 249.224L513.399 257.63L515.91 287.765L448.39 294.574L413.348 297.053V251.157L446.551 231.792L444.891 228.955L412.465 247.868L392.26 245.21V248.52L412.224 251.157V280.389L392.071 282.49V285.831L412.234 283.73V298.23L413.421 339.545L391.797 348.014V351.555L413.548 343.033L414.199 365.54L391.734 366.958V367.684L391.829 369.144L414.262 367.726L414.451 374.314H415.502L415.313 367.663L502.314 362.157C502.156 366.433 501.988 370.563 501.841 374.314H504.037C504.173 370.783 504.341 366.538 504.52 362.02L523.265 360.812L525.955 374.293H527.069L524.368 360.738L567.049 358.038L567.533 374.293H573.017L591.227 356.514ZM504.573 359.793C504.646 357.849 504.72 355.873 504.793 353.887H521.899L522.834 358.595L504.573 359.793ZM523.938 358.574L522.887 353.32L520.334 329.269L518.894 311.732L565.557 308.212L566.986 355.863L523.938 358.574ZM534.55 286.977L559.095 284.497L558.412 294.132L536.41 296.507L534.55 286.977ZM533.499 287.082L537.597 308.096L518.758 309.515L517.045 288.721L533.499 287.082ZM565.526 305.995L538.7 308.023L536.872 298.65L560.503 296.108L561.344 284.266L567.27 283.667L565.168 292.567L565.526 305.995ZM533.773 230.353L538.564 251.83L514.25 254.362L512.485 232.969L533.773 230.353ZM539.667 251.714L534.823 230.216L570.548 225.814L572.723 248.268L539.667 251.714ZM564.244 160.5L510.331 156.77L515.458 127.024L519.23 127.297H564.654L568.3 128.442L562.993 147.555L564.244 160.5ZM560.997 65.934C560.997 71.5764 562.184 90.2269 580.078 96.6154L577.977 108.72L566.85 105.841L549.323 70.5782L560.997 65.934ZM546.287 71.7656L564.149 107.606L563.582 121.801H528.088L518.579 82.7142L546.287 71.7656ZM516.961 85.1414L525.892 121.791H519.588L494.37 119.921L493.813 86.0871L516.961 85.1414ZM492.678 86.1396L493.235 119.837L452.257 116.8C452.425 111.336 452.393 99.1792 452.309 87.7892L492.678 86.1396ZM409.355 60.922L451.038 66.9007C451.248 84.2062 451.427 108.73 451.216 116.726L398.932 112.849L409.355 60.922ZM514.429 126.898L506.706 171.302H494.317V125.458L514.429 126.898ZM471.411 159.954H493.298V171.302H468.921L471.411 159.954ZM507.504 172.972L509.732 160.017L564.538 163.81L567.638 195.468L509.847 201.027L507.504 172.972ZM567.816 197.685L570.222 222.546L512.159 229.701L509.984 203.254L567.816 197.685ZM514.45 257.63L573.028 251.546L573.585 257.241L567.491 282.553L516.961 287.649L514.45 257.63ZM519.241 329.353L521.742 352.837H504.867C505.161 345.093 505.455 337.349 505.655 331.528C506.023 321.105 506.023 321.105 505.329 320.758L504.804 321.809H503.753C503.806 322.723 503.291 337.023 502.702 352.28L453.822 328.911L452.099 295.288L515.91 288.858L519.241 329.353ZM447.791 295.729L447.444 338.935L414.535 340.47L413.316 298.146L447.791 295.729ZM414.588 342.571V341.583L448.579 339.976L448.936 295.624L451.038 295.414L452.792 329.668L502.681 353.562C502.597 355.663 502.513 357.828 502.44 359.95L415.281 365.456L414.588 342.571Z" fill="white"/>
<path d="M464.288 341.058L416.7 344.399V359.666L495.253 355.421L464.288 341.058Z" fill="#E0E0E0"/>
<path d="M562.322 167.78L514.723 164.775L511.781 172.94L513.389 197.285L565.074 191.159L562.322 167.78Z" fill="#E0E0E0"/>
<path d="M447.391 64.064L446.603 19.3027H423.35L416.604 59.5563L447.391 64.064Z" fill="#E0E0E0"/>
<path d="M559.18 116.979L561.533 107.281L545.184 76.1582L524.19 86.4869L531.178 115.918L559.18 116.979Z" fill="#EBEBEB"/>
<path d="M416.7 253.384C416.952 254.803 416.7 292.671 416.7 292.671L447.298 290.738L443.788 238.979L416.7 253.384Z" fill="#E0E0E0"/>
<path d="M518.758 284.139L517.129 260.666L569.613 253.92V257.976L563.267 279.558L518.758 284.139Z" fill="#E0E0E0"/>
<path d="M567.679 343.936L567.017 328.627L520.89 330.865C519.683 330.93 518.48 330.677 517.402 330.129L451.962 297.084C451.218 296.704 450.586 296.135 450.131 295.434C449.675 294.734 449.412 293.926 449.367 293.091L440.467 120.361C440.442 119.951 440.507 119.541 440.655 119.158C440.804 118.775 441.034 118.429 441.329 118.144C441.622 117.86 441.973 117.642 442.356 117.502C442.74 117.363 443.149 117.306 443.556 117.335L471.6 119.436V88.7549H474.931V119.815C474.929 120.211 474.846 120.603 474.687 120.966C474.527 121.329 474.295 121.655 474.005 121.925C473.714 122.195 473.372 122.402 472.998 122.535C472.624 122.667 472.227 122.721 471.831 122.694L443.808 120.592L452.698 292.912C452.708 293.169 452.787 293.417 452.926 293.633C453.064 293.849 453.257 294.025 453.486 294.142L518.925 327.187C519.493 327.477 520.128 327.611 520.764 327.576L567.28 325.317C567.662 325.299 568.045 325.356 568.405 325.485C568.765 325.615 569.096 325.814 569.379 326.072C569.662 326.329 569.892 326.64 570.054 326.987C570.217 327.333 570.31 327.709 570.327 328.091L571 343.778L567.679 343.936Z" fill="white"/>
<path d="M307.666 127.812L299.943 114.153C304.709 106.408 306.405 97.1605 304.699 88.2282C302.994 79.2958 298.008 71.3245 290.724 65.8808C283.44 60.4372 274.382 57.9149 265.333 58.8097C256.283 59.7045 247.895 63.9516 241.818 70.7164C235.741 77.4812 232.413 86.2745 232.49 95.368C232.566 104.461 236.041 113.198 242.231 119.859C248.421 126.521 256.879 130.627 265.943 131.369C275.006 132.112 284.019 129.437 291.211 123.872L307.666 127.812Z" fill="white"/>
<path d="M307.665 127.811L291.169 124.071C291.134 124.063 291.104 124.042 291.085 124.013C291.065 123.984 291.057 123.948 291.064 123.913V123.85L291.253 124.039C286.181 127.992 280.151 130.53 273.779 131.394C271.865 131.663 269.931 131.761 268 131.688C267.012 131.636 266.004 131.615 264.985 131.531L261.906 131.058C252.727 129.268 244.579 124.04 239.126 116.442C236.088 112.243 233.985 107.442 232.958 102.362C231.911 96.992 232.058 91.4569 233.389 86.1497C234.765 80.601 237.445 75.4607 241.206 71.1557C245.044 66.7353 249.887 63.3012 255.328 61.1422C260.518 59.0912 266.101 58.233 271.667 58.6309C276.92 58.996 282.029 60.5134 286.63 63.0756C294.913 67.6893 301.105 75.311 303.925 84.3634C305.055 88.21 305.586 92.2075 305.501 96.2157C305.313 102.615 303.435 108.85 300.058 114.288V114.152C304.881 122.831 307.213 127.013 307.665 127.811L299.827 114.278C299.817 114.256 299.811 114.233 299.811 114.209C299.811 114.186 299.817 114.162 299.827 114.141C303.122 108.724 304.934 102.534 305.081 96.1947C305.145 92.2303 304.603 88.2794 303.473 84.479C300.667 75.5383 294.537 68.0159 286.346 63.4643C281.793 60.9464 276.742 59.4612 271.552 59.1143C266.067 58.7249 260.565 59.5761 255.454 61.6045C250.139 63.7538 245.413 67.1398 241.669 71.4814C237.964 75.7239 235.324 80.7882 233.967 86.2547C232.646 91.4814 232.499 96.9356 233.536 102.226C234.527 107.251 236.583 112.006 239.567 116.169C244.938 123.676 252.967 128.854 262.021 130.648L265.058 131.121C266.109 131.205 267.065 131.237 268.042 131.289C269.952 131.372 271.864 131.285 273.758 131.026C280.076 130.188 286.063 127.702 291.116 123.818C291.128 123.805 291.143 123.794 291.159 123.787C291.175 123.78 291.193 123.776 291.211 123.776C291.229 123.776 291.246 123.78 291.263 123.787C291.279 123.794 291.294 123.805 291.305 123.818C291.326 123.842 291.338 123.871 291.338 123.902C291.338 123.934 291.326 123.963 291.305 123.987L291.232 123.776L307.665 127.811Z" fill="#263238"/>
<path d="M253.763 95.764L258.039 91.4875L266.287 98.8111L282.469 83.2393L286.44 87.5157L265.678 107.059L253.763 95.764Z" fill="#263238"/>
<path d="M136.787 449.556H105.044V327.524H106.095V448.506H136.787L424.435 448.012L417.669 296.58L489.392 289.908L516.385 287.176L513.559 255.959L509.272 200.596L569.552 194.008L567.797 163.063L544.965 157.526L545.217 156.507L568.806 162.223L570.666 194.943L510.406 201.531L514.609 255.875L517.52 288.122L489.497 290.948L418.761 297.536L425.539 449.052L136.787 449.556Z" fill="#F6503B"/>
<path d="M562.332 131.615C562.337 128.96 561.728 126.34 560.555 123.959C559.381 121.578 557.674 119.5 555.566 117.886C553.458 116.272 551.006 115.167 548.401 114.656C545.796 114.145 543.108 114.242 540.547 114.939C537.986 115.636 535.62 116.915 533.633 118.676C531.647 120.438 530.094 122.633 529.095 125.093C528.096 127.552 527.678 130.209 527.873 132.857C528.069 135.504 528.872 138.071 530.222 140.357V140.42C530.884 141.544 531.703 142.343 532.544 143.519L542.557 156.822C542.852 157.199 543.229 157.505 543.66 157.715C544.09 157.925 544.563 158.035 545.042 158.035C545.522 158.035 545.994 157.925 546.425 157.715C546.856 157.505 547.233 157.199 547.527 156.822L557.383 143.73C558.28 142.669 559.115 141.556 559.884 140.399C561.474 137.744 562.32 134.709 562.332 131.615Z" fill="#F6503B"/>
<path d="M545.091 142.07C543.047 142.077 541.047 141.476 539.344 140.345C537.641 139.214 536.312 137.603 535.526 135.716C534.739 133.83 534.53 131.752 534.925 129.746C535.32 127.74 536.301 125.897 537.745 124.449C539.188 123.002 541.028 122.015 543.033 121.614C545.037 121.213 547.115 121.415 549.004 122.196C550.894 122.977 552.509 124.301 553.645 126C554.781 127.699 555.388 129.698 555.388 131.742C555.391 134.476 554.308 137.1 552.377 139.037C550.446 140.974 547.825 142.065 545.091 142.07Z" fill="white"/>
<path d="M545.09 142.07C545.09 141.996 546.004 142.07 547.58 141.639C548.945 141.274 550.219 140.629 551.321 139.745C552.424 138.861 553.33 137.758 553.983 136.505C554.636 135.252 555.022 133.877 555.115 132.467C555.209 131.058 555.008 129.644 554.526 128.316C554.195 127.402 553.731 126.541 553.149 125.763C552.566 124.954 551.856 124.244 551.048 123.661C549.33 122.392 547.252 121.708 545.116 121.708C542.981 121.708 540.902 122.392 539.185 123.661C537.579 124.836 536.361 126.465 535.686 128.337C535.11 129.92 534.936 131.622 535.18 133.289C535.424 134.956 536.078 136.536 537.084 137.888C538.457 139.732 540.411 141.061 542.631 141.66C544.197 142.07 545.122 142.017 545.122 142.091C544.268 142.158 543.409 142.083 542.579 141.87C540.633 141.401 538.864 140.381 537.481 138.934C536.099 137.486 535.162 135.671 534.782 133.706C534.433 131.851 534.581 129.937 535.213 128.158C535.915 126.188 537.188 124.472 538.87 123.23C540.679 121.891 542.871 121.168 545.122 121.168C547.373 121.168 549.564 121.891 551.374 123.23C552.23 123.857 552.982 124.616 553.601 125.479C554.209 126.295 554.691 127.199 555.03 128.158C555.666 129.936 555.811 131.853 555.45 133.706C555.077 135.672 554.143 137.488 552.762 138.937C551.381 140.385 549.611 141.404 547.664 141.87C546.823 142.08 545.953 142.147 545.09 142.07Z" fill="#263238"/>
<path d="M548.41 132.928C548.41 134.105 547.474 134.788 545.688 134.788H542.179V127.958H545.499C547.201 127.958 548.073 128.673 548.073 129.734C548.08 130.044 547.999 130.35 547.839 130.616C547.679 130.882 547.447 131.097 547.17 131.236C547.537 131.338 547.858 131.56 548.083 131.867C548.308 132.174 548.423 132.548 548.41 132.928ZM543.734 129.156V130.763H545.331C546.098 130.763 546.518 130.49 546.518 129.954C546.518 129.419 546.098 129.156 545.331 129.156H543.734ZM546.823 132.76C546.823 132.182 546.382 131.909 545.573 131.909H543.734V133.6H545.573C546.382 133.6 546.823 133.338 546.823 132.76Z" fill="#263238"/>
<path d="M453.288 81.9889C453.288 78.9374 452.584 75.927 451.232 73.1915C449.879 70.4561 447.915 68.0692 445.49 66.2166C443.065 64.3639 440.246 63.0952 437.251 62.5091C434.256 61.9231 431.167 62.0354 428.223 62.8374C425.278 63.6394 422.559 65.1094 420.275 67.1333C417.991 69.1572 416.205 71.6804 415.055 74.5068C413.905 77.3333 413.422 80.3869 413.643 83.4303C413.865 86.4737 414.786 89.4251 416.333 92.055V92.1285C417.09 93.4104 418.046 94.3351 419.013 95.6905L430.571 111C430.903 111.445 431.335 111.807 431.832 112.057C432.329 112.306 432.878 112.436 433.434 112.436C433.99 112.436 434.538 112.306 435.036 112.057C435.533 111.807 435.965 111.445 436.297 111L447.614 95.9007C448.648 94.6779 449.613 93.3974 450.503 92.0655V92.0129C452.301 88.9764 453.262 85.5176 453.288 81.9889Z" fill="#F6503B"/>
<path d="M433.44 93.1256C431.233 93.1339 429.073 92.4869 427.234 91.2665C425.395 90.0461 423.96 88.3073 423.11 86.2704C422.26 84.2334 422.034 81.99 422.46 79.8244C422.886 77.6588 423.946 75.6684 425.504 74.1055C427.063 72.5426 429.05 71.4775 431.214 71.0451C433.379 70.6127 435.623 70.8325 437.662 71.6767C439.701 72.5208 441.444 73.9513 442.67 75.787C443.895 77.6226 444.549 79.7807 444.547 81.9878C444.547 84.9363 443.377 87.7644 441.296 89.8523C439.214 91.9401 436.389 93.1172 433.44 93.1256Z" fill="white"/>
<path d="M433.44 93.1264C434.345 93.0333 435.244 92.8824 436.13 92.6746C438.527 92.0313 440.637 90.5987 442.119 88.6083C443.14 87.2491 443.827 85.6691 444.126 83.9955C444.474 82.081 444.307 80.1084 443.643 78.2796C443.29 77.2927 442.79 76.3647 442.161 75.5266C441.519 74.6408 440.738 73.8639 439.849 73.2255C437.994 71.848 435.745 71.1042 433.435 71.1042C431.124 71.1042 428.875 71.848 427.02 73.2255C426.132 73.8612 425.355 74.6386 424.719 75.5266C424.086 76.3622 423.586 77.2908 423.237 78.2796C422.57 80.1076 422.399 82.0801 422.743 83.9955C423.119 86.0521 424.07 87.9598 425.488 89.4964C426.905 91.0329 428.73 92.1351 430.75 92.6746C431.636 92.8842 432.534 93.0351 433.44 93.1264C432.519 93.1983 431.592 93.1166 430.698 92.8847C428.597 92.3825 426.687 91.2844 425.195 89.7224C423.704 88.1604 422.696 86.2009 422.292 84.0796C421.905 82.0814 422.065 80.016 422.754 78.1009C423.109 77.0627 423.627 76.0874 424.288 75.2114C424.956 74.2825 425.768 73.4666 426.694 72.7947C428.639 71.3417 431.002 70.5566 433.429 70.5566C435.857 70.5566 438.22 71.3417 440.165 72.7947C441.967 74.1198 443.337 75.9474 444.105 78.0484C444.782 79.9659 444.942 82.0282 444.567 84.0271C444.234 85.7612 443.496 87.392 442.413 88.7869C440.863 90.8164 438.657 92.246 436.172 92.8322C435.284 93.0795 434.361 93.1789 433.44 93.1264Z" fill="#263238"/>
<path d="M435.119 83.155H431.704L431.053 84.7311H429.319L432.587 77.376H434.268L437.547 84.7311H435.771L435.119 83.155ZM434.584 81.8626L433.417 79.0361L432.251 81.8626H434.584Z" fill="#263238"/>
<path d="M507.968 173.499H444.041L443.253 121.067L431.475 118.346V109.383H432.525V117.515L444.283 120.226L445.071 172.448H507.096L509.891 157.559L545.069 156.498L545.101 157.548L510.763 158.578L507.968 173.499Z" fill="#F6503B"/>
<path d="M505.708 264.344C505.713 261.689 505.104 259.07 503.931 256.688C502.757 254.307 501.05 252.229 498.942 250.615C496.834 249.002 494.382 247.896 491.777 247.385C489.172 246.874 486.484 246.971 483.923 247.668C481.362 248.366 478.996 249.645 477.009 251.406C475.023 253.167 473.47 255.363 472.471 257.822C471.472 260.282 471.053 262.939 471.249 265.586C471.444 268.234 472.248 270.8 473.598 273.086V273.16C474.249 274.274 475.079 275.072 475.92 276.249L485.933 289.562C486.228 289.939 486.605 290.245 487.036 290.455C487.466 290.665 487.939 290.775 488.418 290.775C488.898 290.775 489.37 290.665 489.801 290.455C490.232 290.245 490.609 289.939 490.903 289.562L500.749 276.47C501.647 275.407 502.485 274.295 503.26 273.139V273.086C504.843 270.443 505.688 267.425 505.708 264.344Z" fill="#F6503B"/>
<path d="M488.465 274.798C494.152 274.798 498.762 270.174 498.762 264.469C498.762 258.765 494.152 254.141 488.465 254.141C482.778 254.141 478.168 258.765 478.168 264.469C478.168 270.174 482.778 274.798 488.465 274.798Z" fill="white"/>
<path d="M488.466 274.799C489.304 274.708 490.135 274.568 490.956 274.378C493.175 273.777 495.126 272.444 496.494 270.596C497.44 269.339 498.077 267.878 498.353 266.33C498.664 264.569 498.508 262.758 497.902 261.076C497.573 260.164 497.109 259.307 496.525 258.533C495.942 257.725 495.232 257.015 494.424 256.432C492.709 255.157 490.629 254.468 488.492 254.468C486.355 254.468 484.276 255.157 482.561 256.432C481.754 257.017 481.045 257.726 480.459 258.533C479.875 259.305 479.414 260.163 479.093 261.076C478.485 262.757 478.326 264.568 478.631 266.33C478.914 267.873 479.55 269.329 480.491 270.585C481.864 272.432 483.818 273.764 486.039 274.368C486.859 274.559 487.691 274.7 488.529 274.788C487.675 274.855 486.816 274.78 485.986 274.567C483.678 274.03 481.628 272.708 480.186 270.827C479.181 269.531 478.496 268.015 478.19 266.403C477.84 264.552 477.988 262.641 478.621 260.866C479.315 258.892 480.59 257.175 482.277 255.938C484.082 254.587 486.275 253.857 488.529 253.857C490.783 253.857 492.976 254.587 494.781 255.938C495.64 256.558 496.392 257.314 497.008 258.176C497.618 258.995 498.1 259.902 498.437 260.866C499.072 262.64 499.217 264.553 498.858 266.403C498.555 268.014 497.874 269.53 496.872 270.827C495.428 272.706 493.379 274.027 491.072 274.567C490.222 274.791 489.341 274.869 488.466 274.799Z" fill="#263238"/>
<path d="M485.114 264.112C485.155 263.377 485.411 262.67 485.851 262.08C486.292 261.49 486.896 261.043 487.59 260.795C488.283 260.547 489.034 260.509 489.749 260.686C490.464 260.863 491.111 261.247 491.608 261.79L490.557 262.726C490.349 262.473 490.087 262.271 489.791 262.133C489.495 261.994 489.171 261.924 488.844 261.927C488.292 261.965 487.775 262.212 487.398 262.616C487.02 263.021 486.81 263.554 486.81 264.107C486.81 264.661 487.02 265.193 487.398 265.598C487.775 266.003 488.292 266.249 488.844 266.287C489.172 266.291 489.497 266.219 489.793 266.079C490.09 265.939 490.351 265.734 490.557 265.478L491.608 266.414C491.265 266.818 490.834 267.139 490.347 267.35C489.861 267.562 489.332 267.658 488.802 267.632C488.326 267.658 487.848 267.586 487.4 267.421C486.952 267.255 486.543 267 486.197 266.67C485.852 266.34 485.578 265.943 485.391 265.503C485.205 265.063 485.111 264.59 485.114 264.112Z" fill="#263238"/>
<path d="M156.708 251.924C156.71 244.06 154.899 236.3 151.416 229.249C147.932 222.198 142.869 216.045 136.62 211.269C130.372 206.493 123.106 203.222 115.388 201.71C107.67 200.199 99.7069 200.488 92.1184 202.554C84.53 204.62 77.5202 208.409 71.634 213.625C65.7479 218.841 61.1438 225.345 58.1798 232.629C55.2157 239.914 53.9715 247.785 54.5438 255.629C55.1161 263.473 57.4896 271.079 61.4796 277.856L61.6162 278.046C63.5811 281.366 66.0398 283.73 68.5196 287.218L98.2133 326.684C99.0723 327.822 100.184 328.745 101.46 329.381C102.736 330.017 104.143 330.348 105.568 330.348C106.994 330.348 108.401 330.017 109.677 329.381C110.953 328.745 112.065 327.822 112.924 326.684L142.123 287.87C144.782 284.719 147.262 281.421 149.552 277.993L149.668 277.856C154.283 269.994 156.713 261.041 156.708 251.924Z" fill="#F6503B"/>
<path d="M105.57 282.931C122.428 282.931 136.094 269.218 136.094 252.302C136.094 235.386 122.428 221.673 105.57 221.673C88.7119 221.673 75.0459 235.386 75.0459 252.302C75.0459 269.218 88.7119 282.931 105.57 282.931Z" fill="white"/>
<path d="M105.568 282.932C105.732 282.905 105.897 282.888 106.062 282.879L107.512 282.774L108.563 282.711C108.952 282.711 109.372 282.585 109.834 282.511C110.9 282.372 111.953 282.154 112.987 281.86C115.84 281.141 118.568 279.993 121.077 278.456C124.763 276.224 127.936 273.24 130.389 269.699C132.843 266.157 134.521 262.138 135.315 257.903C135.544 256.636 135.688 255.355 135.746 254.068C135.746 253.406 135.84 252.744 135.83 252.082C135.819 251.42 135.756 250.748 135.725 250.075C135.725 249.739 135.725 249.403 135.651 249.025L135.504 247.974C135.388 247.301 135.304 246.618 135.168 245.935C134.859 244.564 134.466 243.213 133.991 241.89C133.501 240.536 132.921 239.217 132.257 237.939C131.91 237.288 131.501 236.679 131.133 236.048C130.754 235.408 130.333 234.794 129.872 234.209C128.975 233.001 128.003 231.849 126.961 230.763C125.857 229.697 124.685 228.703 123.452 227.789C120.926 225.896 118.108 224.427 115.109 223.439C108.906 221.352 102.189 221.352 95.9858 223.439C92.9871 224.427 90.1693 225.896 87.643 227.789C85.1606 229.557 82.9908 231.727 81.223 234.209C80.7588 234.791 80.3374 235.405 79.9621 236.048C79.5943 236.679 79.1846 237.288 78.8378 237.939C78.1735 239.217 77.5944 240.536 77.1041 241.89C76.6236 243.211 76.2305 244.563 75.9273 245.935C75.7802 246.618 75.7066 247.301 75.5911 247.974L75.4334 249.025C75.4334 249.361 75.4334 249.697 75.3704 250.075C75.3704 250.748 75.2968 251.42 75.2653 252.082C75.2338 252.744 75.2653 253.406 75.3389 254.068C75.3999 255.355 75.5473 256.636 75.7802 257.903C76.5735 262.143 78.2538 266.168 80.711 269.714C83.1682 273.259 86.3468 276.245 90.0386 278.477C92.5455 280.019 95.2741 281.167 98.1293 281.881C99.1624 282.176 100.216 282.394 101.281 282.532C101.744 282.606 102.164 282.69 102.553 282.732L103.604 282.795L105.054 282.9C105.219 282.909 105.384 282.926 105.547 282.953H105.075H103.614H102.563C102.164 282.953 101.744 282.837 101.281 282.774C100.217 282.658 99.1625 282.458 98.1293 282.175C95.2407 281.488 92.4761 280.357 89.9336 278.823C86.183 276.593 82.949 273.592 80.4457 270.018C77.9423 266.444 76.2267 262.379 75.4124 258.092C75.1667 256.806 75.0122 255.503 74.9501 254.194C74.9501 253.532 74.8555 252.86 74.866 252.187L74.9606 250.149C74.9606 249.802 74.9606 249.466 75.0237 249.098L75.1813 248.047C75.2969 247.364 75.3704 246.66 75.5175 245.946C75.8179 244.547 76.2146 243.171 76.7048 241.827C77.1955 240.447 77.7818 239.102 78.4596 237.803C78.8063 237.141 79.2161 236.521 79.5943 235.869C79.9768 235.22 80.4052 234.598 80.8762 234.01C82.6788 231.486 84.8831 229.274 87.4013 227.464C89.9716 225.534 92.8391 224.036 95.8912 223.029C99.0348 222.006 102.315 221.464 105.621 221.422C108.93 221.469 112.213 222.011 115.361 223.029C118.409 224.039 121.273 225.536 123.841 227.464C125.098 228.39 126.289 229.405 127.403 230.5C128.473 231.598 129.463 232.771 130.366 234.01C130.837 234.596 131.262 235.218 131.637 235.869C132.026 236.521 132.436 237.141 132.782 237.803C133.46 239.102 134.047 240.447 134.537 241.827C135.018 243.174 135.414 244.55 135.725 245.946C135.861 246.629 135.945 247.333 136.061 248.047L136.208 249.098C136.208 249.434 136.208 249.781 136.271 250.149C136.271 250.832 136.344 251.515 136.376 252.187C136.407 252.86 136.313 253.532 136.292 254.194C136.23 255.503 136.075 256.806 135.83 258.092C135.015 262.379 133.3 266.444 130.796 270.018C128.293 273.592 125.059 276.593 121.308 278.823C118.766 280.357 116.001 281.488 113.113 282.175C112.079 282.458 111.025 282.658 109.961 282.774C109.498 282.837 109.067 282.911 108.679 282.953H107.628H106.167L105.568 282.932Z" fill="#263238"/>
<path d="M96.9209 241.103H106.125C112.713 241.103 117.242 245.085 117.242 251.221C117.242 257.357 112.713 261.329 106.125 261.329H96.9629L96.9209 241.103ZM105.852 257.483C109.855 257.483 112.472 255.088 112.472 251.179C112.472 247.27 109.855 244.875 105.852 244.875H101.586V257.462L105.852 257.483Z" fill="#263238"/>
<path d="M61.4581 390.453C62.8199 391.022 64.0525 391.861 65.0817 392.919C66.1109 393.978 66.9156 395.233 67.4473 396.61C68.5024 399.37 68.9087 402.336 68.6346 405.278C68.2668 410.973 65.3353 416.837 62.099 421.523C57.129 417.604 55.679 410.406 55.1747 406.707C54.3761 400.865 56.4776 389.822 61.4791 390.453" fill="#455A64"/>
<path d="M68.0883 430.581C67.6863 428.983 67.7136 427.306 68.1675 425.721C68.6213 424.136 69.4857 422.699 70.6731 421.556C71.8795 420.431 73.2984 419.559 74.8466 418.991C76.3948 418.422 78.0409 418.169 79.6883 418.246C80.4488 418.2 81.21 418.32 81.9195 418.598C82.6289 418.875 83.2694 419.304 83.7967 419.853C84.1987 420.442 84.4351 421.129 84.4813 421.84C84.5275 422.552 84.3818 423.263 84.0594 423.899C83.405 425.186 82.4183 426.274 81.2014 427.051C77.2086 429.846 72.7955 431.811 68.0883 430.634" fill="#455A64"/>
<path d="M62.8342 448.222C62.831 447.83 62.8662 447.44 62.9393 447.055C63.0548 446.225 63.1914 445.164 63.3595 443.903C63.7238 440.38 64.6533 436.938 66.1125 433.711C67.6392 430.487 69.9964 427.727 72.9422 425.715C73.8358 425.119 74.7992 424.636 75.8107 424.275C76.0856 424.172 76.3663 424.084 76.6513 424.013C76.8405 423.96 76.9455 423.939 76.9455 423.96C74.6205 424.834 72.4934 426.163 70.689 427.87C68.8847 429.577 67.4395 431.627 66.4382 433.9C65.0062 437.095 64.0537 440.483 63.6117 443.956C63.3911 445.28 63.2019 446.362 63.0548 447.108C63.0153 447.485 62.9415 447.858 62.8342 448.222Z" fill="#263238"/>
<path d="M60.5967 399.006C60.647 399.169 60.6753 399.339 60.6807 399.51L60.8384 400.96C60.9749 402.221 61.1326 404.049 61.3217 406.319C61.6894 410.837 62.1097 417.1 62.3724 424.013C62.6351 430.927 62.8242 437.211 62.8558 441.75C62.8558 444.019 62.8558 445.858 62.8558 447.119C62.8558 447.718 62.8558 448.17 62.8558 448.579C62.8735 448.751 62.8735 448.923 62.8558 449.094C62.838 448.923 62.838 448.751 62.8558 448.579C62.8558 448.212 62.8558 447.718 62.8032 447.119C62.8032 445.806 62.7297 443.967 62.6666 441.75C62.5616 437.221 62.3724 430.948 62.0677 424.034C61.763 417.121 61.3847 410.869 61.0905 406.34C60.9434 404.112 60.8278 402.295 60.7438 400.971C60.7438 400.372 60.6807 399.92 60.6597 399.521C60.6246 399.351 60.6035 399.179 60.5967 399.006Z" fill="#263238"/>
<path d="M60.0186 434.425C59.2735 431.026 57.7299 427.853 55.5154 425.169C53.301 422.485 50.4792 420.367 47.2837 418.989C45.6551 418.306 43.5536 417.939 42.3033 419.158C41.0529 420.376 41.4416 422.52 42.1667 424.138C43.7294 427.481 46.2465 430.286 49.4009 432.201C52.5553 434.116 56.2058 435.054 59.8925 434.898" fill="#455A64"/>
<path d="M48.335 424.317C48.6969 424.417 49.0487 424.551 49.3857 424.717C49.7884 424.875 50.1814 425.058 50.5625 425.263C51.0038 425.515 51.5292 425.746 52.0546 426.104C52.6523 426.462 53.231 426.851 53.7883 427.27C54.3977 427.711 54.9966 428.237 55.6271 428.794C56.9767 430.054 58.1788 431.464 59.2101 432.996C60.2159 434.528 61.041 436.171 61.6688 437.893C61.9361 438.647 62.1607 439.415 62.3412 440.194C62.5128 440.868 62.6427 441.553 62.73 442.243C62.8133 442.811 62.8659 443.382 62.8876 443.956C62.9176 444.386 62.9176 444.818 62.8876 445.248C62.9009 445.617 62.8763 445.987 62.8141 446.351C62.7195 446.351 62.8141 444.775 62.4043 442.285C62.3079 441.612 62.1711 440.945 61.9945 440.289C61.809 439.526 61.5774 438.775 61.301 438.04C60.6668 436.334 59.842 434.706 58.8423 433.186C57.8312 431.694 56.6616 430.317 55.3539 429.077C54.7339 428.52 54.156 428.026 53.5571 427.543C53.0216 427.118 52.4639 426.722 51.8864 426.356C49.7534 424.99 48.335 424.401 48.335 424.317Z" fill="#263238"/>
<path d="M378.799 108.256L379.282 147.344C379.366 153.995 378.137 163.777 367.619 163.43C358.52 162.432 356.061 153.816 356.061 147.617C356.061 144.675 355.998 142.226 355.977 141.922C355.977 141.922 346.016 141.113 345.175 131.267C344.766 126.518 344.724 116.652 344.797 107.731C344.835 103.11 346.61 98.6729 349.77 95.3011C352.929 91.9292 357.242 89.8698 361.851 89.5322L362.807 89.4691C373.062 89.343 378.935 97.9906 378.799 108.256Z" fill="#FFBE9D"/>
<path d="M355.945 141.943C360.493 141.596 364.846 139.955 368.491 137.215C368.491 137.215 365.885 144.633 355.998 144.465L355.945 141.943Z" fill="#EB996E"/>
<path d="M361.588 111.787C361.777 111.987 362.912 111.073 364.561 111.02C366.211 110.968 367.44 111.787 367.619 111.577C367.798 111.367 367.493 111.115 366.957 110.737C366.232 110.258 365.377 110.016 364.509 110.043C363.649 110.069 362.82 110.372 362.145 110.905C361.651 111.314 361.451 111.693 361.588 111.787Z" fill="#263238"/>
<path d="M362.271 115.674C362.295 116.021 362.453 116.346 362.712 116.579C362.97 116.812 363.31 116.936 363.658 116.924C363.828 116.924 363.996 116.89 364.153 116.825C364.31 116.759 364.452 116.663 364.572 116.541C364.691 116.42 364.785 116.276 364.848 116.118C364.911 115.96 364.942 115.791 364.94 115.621C364.918 115.275 364.762 114.95 364.505 114.717C364.248 114.483 363.91 114.359 363.563 114.371C363.392 114.369 363.223 114.402 363.064 114.467C362.906 114.532 362.763 114.629 362.642 114.75C362.522 114.871 362.427 115.016 362.363 115.174C362.299 115.333 362.268 115.503 362.271 115.674Z" fill="#263238"/>
<path d="M357.458 123.25C356.642 123.061 355.806 122.973 354.968 122.987C354.569 122.987 354.201 122.924 354.117 122.661C354.059 122.267 354.121 121.864 354.296 121.506C354.59 120.539 354.895 119.53 355.22 118.479C356.502 114.171 357.395 110.641 357.227 110.588C357.059 110.536 355.872 113.993 354.59 118.29C354.285 119.341 353.991 120.392 353.707 121.337C353.503 121.824 353.474 122.366 353.623 122.872C353.693 122.999 353.789 123.111 353.905 123.2C354.021 123.288 354.154 123.352 354.296 123.386C354.516 123.411 354.738 123.411 354.958 123.386C355.794 123.444 356.634 123.398 357.458 123.25Z" fill="#263238"/>
<path d="M362.281 105.588C362.439 105.956 363.763 105.672 365.339 105.756C366.915 105.84 368.218 106.187 368.407 105.84C368.491 105.672 368.239 105.336 367.703 105C366.996 104.599 366.203 104.376 365.391 104.348C364.581 104.315 363.775 104.473 363.038 104.81C362.502 105.105 362.218 105.409 362.281 105.588Z" fill="#263238"/>
<path d="M346.625 108.645C346.803 108.939 348.085 108.645 349.651 108.561C351.217 108.477 352.498 108.708 352.667 108.403C352.835 108.098 352.477 107.983 351.931 107.741C351.193 107.459 350.405 107.331 349.616 107.363C348.826 107.396 348.052 107.589 347.339 107.93C346.803 108.256 346.551 108.498 346.625 108.645Z" fill="#263238"/>
<path d="M378.524 115.613C378.693 115.529 385.144 113.122 385.428 119.816C385.711 126.509 378.871 125.448 378.85 125.258C378.829 125.069 378.524 115.613 378.524 115.613Z" fill="#FFBE9D"/>
<path d="M380.806 122.684C380.806 122.684 380.933 122.768 381.132 122.852C381.416 122.962 381.731 122.962 382.015 122.852C382.438 122.556 382.776 122.153 382.994 121.685C383.212 121.216 383.302 120.698 383.255 120.183C383.242 119.604 383.106 119.035 382.855 118.513C382.781 118.306 382.658 118.12 382.497 117.97C382.336 117.821 382.142 117.711 381.931 117.651C381.794 117.62 381.651 117.638 381.527 117.701C381.402 117.764 381.303 117.869 381.248 117.998C381.164 118.197 381.248 118.323 381.185 118.334C381.122 118.344 381.027 118.229 381.08 117.956C381.109 117.786 381.194 117.631 381.321 117.514C381.502 117.37 381.731 117.299 381.962 117.315C382.247 117.364 382.515 117.487 382.738 117.671C382.961 117.855 383.132 118.095 383.234 118.365C383.55 118.938 383.717 119.581 383.717 120.236C383.775 120.834 383.656 121.436 383.373 121.967C383.091 122.498 382.659 122.933 382.13 123.22C381.956 123.273 381.772 123.288 381.59 123.264C381.409 123.241 381.235 123.179 381.08 123.083C380.827 122.852 380.785 122.705 380.806 122.684Z" fill="#EB996E"/>
<path d="M359.045 127.926C358.971 127.748 360.295 127.359 361.22 126.119C361.611 125.576 361.926 124.982 362.155 124.354C362.355 123.86 362.502 123.555 362.575 123.576C362.649 123.597 362.628 123.933 362.523 124.469C362.377 125.18 362.08 125.85 361.651 126.434C361.211 127.027 360.614 127.486 359.928 127.758C359.413 127.968 359.066 127.979 359.045 127.926Z" fill="#263238"/>
<path d="M331.694 98.9158C331.816 98.5241 332.083 98.1936 332.44 97.9911C333.228 97.6303 334.1 97.4888 334.962 97.5814C337.573 97.5208 340.118 96.7429 342.317 95.3328C343.347 93.8387 344.5 92.4329 345.763 91.1298C348.737 88.0512 351.196 85.9602 353.738 84.941C357.641 83.5174 361.859 83.1833 365.937 83.9744C369.352 84.878 372.431 87.6519 372.904 91.1614C374.826 89.5327 377.706 89.5537 380.049 90.4889H380.101C382.707 91.4135 384.189 94.1665 384.956 96.7933C385.723 99.4201 386.006 102.289 387.456 104.663C387.751 105.168 388.108 105.714 387.845 106.281C387.732 106.475 387.56 106.628 387.354 106.717C387.148 106.806 386.918 106.826 386.7 106.775C386.259 106.682 385.844 106.496 385.481 106.229C385.775 106.922 386.069 107.616 386.353 108.33C385.409 108.483 384.442 108.418 383.527 108.141C383.046 110.509 382.425 112.846 381.667 115.139C380.697 115.023 379.717 115.266 378.914 115.822C378 116.642 377.59 118.186 376.077 117.598C375.31 117.293 374.606 115.675 374.343 114.897C372.63 109.661 372.064 104.117 372.683 98.6426C371.6 97.4888 370.305 96.5542 368.869 95.8897L368.984 95.9947C366.242 95.0386 363.132 94.1034 360.515 95.3853C358.498 96.4361 357.3 98.5375 355.787 100.166C354.392 101.713 352.698 102.961 350.807 103.836C348.917 104.71 346.868 105.191 344.786 105.252C344.639 108.026 344.87 111.934 344.723 114.708L342.432 110.358C342.243 110.033 342.086 109.707 341.928 109.381L341.875 109.276C341.644 108.737 341.384 108.211 341.098 107.7C340.776 107.961 340.37 108.098 339.955 108.086C339.54 108.074 339.144 107.914 338.837 107.634C338.531 107.354 338.335 106.973 338.285 106.561C338.235 106.149 338.335 105.733 338.566 105.388C338.797 105.063 339.081 104.779 339.406 104.548C339.064 104.873 338.643 105.106 338.186 105.224C337.728 105.342 337.247 105.34 336.79 105.22C336.339 105.089 335.946 104.811 335.671 104.43C335.397 104.049 335.258 103.588 335.277 103.119C335.311 102.804 335.425 102.503 335.609 102.245C335.793 101.987 336.041 101.782 336.328 101.648C335.108 101.744 333.887 101.477 332.818 100.881C332.135 100.439 331.463 99.7879 331.694 98.9158Z" fill="#263238"/>
<path d="M369.856 92.3174C370.211 92.5899 370.541 92.8922 370.844 93.221C371.624 94.1602 372.146 95.2865 372.357 96.4888C372.527 97.3116 372.611 98.1495 372.609 98.9895C372.609 99.9037 372.546 100.87 372.473 101.89C372.384 102.966 372.36 104.047 372.399 105.126C372.433 105.698 372.506 106.266 372.62 106.828C372.709 107.427 372.948 107.995 373.313 108.478C373.485 108.668 373.703 108.811 373.946 108.892C374.189 108.973 374.449 108.989 374.7 108.94C375.185 108.854 375.626 108.606 375.951 108.236C376.49 107.505 376.821 106.64 376.907 105.735H376.697C376.99 106.491 377.394 107.199 377.895 107.837C378.372 108.422 379.057 108.798 379.807 108.887C380.167 108.926 380.531 108.864 380.858 108.709C381.151 108.558 381.389 108.319 381.541 108.026C381.691 107.761 381.764 107.458 381.751 107.154C381.742 106.868 381.63 106.596 381.436 106.387L381.33 106.481C381.913 107.151 382.629 107.691 383.432 108.068C383.646 108.168 383.867 108.252 384.094 108.32C384.166 108.355 384.245 108.376 384.325 108.383L384.104 108.289C383.957 108.225 383.737 108.141 383.474 108.005C382.691 107.61 381.995 107.063 381.425 106.397L381.32 106.481C381.483 106.688 381.578 106.941 381.591 107.205C381.605 107.469 381.535 107.73 381.394 107.952C381.246 108.209 381.027 108.418 380.763 108.551C380.477 108.68 380.161 108.731 379.849 108.698C379.153 108.608 378.517 108.254 378.073 107.711C377.594 107.097 377.204 106.417 376.917 105.693L376.77 105.378L376.707 105.714C376.621 106.578 376.31 107.404 375.804 108.11C375.512 108.437 375.12 108.659 374.69 108.74C374.474 108.782 374.252 108.767 374.044 108.697C373.836 108.627 373.649 108.504 373.502 108.341C373.165 107.887 372.945 107.356 372.862 106.796C372.752 106.245 372.678 105.687 372.641 105.126C372.6 104.075 372.621 103.022 372.704 101.974C372.767 100.923 372.83 99.9772 372.82 99.0526C372.816 98.2007 372.721 97.3517 372.536 96.5203C372.307 95.3011 371.755 94.1655 370.939 93.2315C370.635 92.865 370.269 92.5555 369.856 92.3174Z" fill="#455A64"/>
<path d="M339.386 101.953L339.459 102.016L339.711 102.195C339.841 102.297 339.978 102.388 340.121 102.468C340.289 102.563 340.489 102.678 340.72 102.783C342.038 103.376 343.481 103.635 344.923 103.54C347.075 103.395 349.14 102.633 350.87 101.344C352.953 99.7505 354.687 97.7481 355.966 95.4596C356.681 94.2723 357.269 93.0534 357.91 91.9187C358.5 90.8236 359.239 89.8158 360.106 88.9241C360.895 88.1237 361.87 87.5316 362.943 87.2009C363.433 87.0685 363.939 87.0118 364.446 87.0328C364.911 87.0582 365.37 87.1466 365.812 87.2954C367.158 87.7672 368.281 88.722 368.964 89.9748C369.194 90.4418 369.363 90.9361 369.468 91.4458C369.468 91.4458 369.468 91.4458 369.468 91.3407L369.416 91.0465C369.342 90.6608 369.219 90.2863 369.048 89.9328C368.782 89.3812 368.427 88.8772 367.997 88.4407C367.399 87.8599 366.682 87.4154 365.896 87.1378C365.441 86.9819 364.968 86.8866 364.488 86.8541C363.96 86.8227 363.431 86.8795 362.922 87.0222C361.813 87.3519 360.805 87.9553 359.991 88.777C359.101 89.6773 358.344 90.6998 357.742 91.8136C357.091 92.9484 356.513 94.1672 355.798 95.3441C354.531 97.6045 352.823 99.5876 350.776 101.176C349.082 102.45 347.058 103.212 344.944 103.372C343.509 103.5 342.065 103.269 340.741 102.699C340.275 102.477 339.823 102.228 339.386 101.953Z" fill="#455A64"/>
<path d="M338.503 97.5705C338.611 97.6697 338.731 97.7545 338.86 97.8227C339.195 98.0263 339.547 98.202 339.911 98.3481C340.448 98.5756 341.004 98.7583 341.571 98.8945C342.261 99.0526 342.965 99.1476 343.673 99.1782C344.376 99.1941 345.08 99.1448 345.774 99.0311C346.35 98.9358 346.916 98.7881 347.466 98.5898C347.827 98.4623 348.178 98.3077 348.516 98.1274C348.649 98.0713 348.772 97.9971 348.884 97.9068C348.884 97.9068 348.327 98.1484 347.392 98.4426C346.844 98.6057 346.286 98.7321 345.721 98.8209C345.026 98.9243 344.323 98.9665 343.62 98.947C342.913 98.9197 342.21 98.8319 341.519 98.6843C340.961 98.5643 340.413 98.4027 339.879 98.201C339.049 97.8542 338.524 97.539 338.503 97.5705Z" fill="#455A64"/>
<path d="M346.553 112.46C346.752 112.66 347.887 111.746 349.537 111.693C351.186 111.641 352.416 112.46 352.584 112.25C352.752 112.04 352.468 111.788 351.932 111.409C351.207 110.931 350.352 110.689 349.484 110.716C348.624 110.742 347.795 111.044 347.12 111.578C346.626 111.945 346.458 112.313 346.553 112.46Z" fill="#263238"/>
<path d="M347.603 115.674C347.627 116.021 347.785 116.346 348.044 116.579C348.302 116.812 348.642 116.936 348.99 116.924C349.16 116.924 349.328 116.89 349.485 116.825C349.642 116.759 349.784 116.663 349.904 116.541C350.023 116.42 350.117 116.276 350.18 116.118C350.243 115.96 350.274 115.791 350.272 115.621C350.25 115.275 350.094 114.95 349.837 114.717C349.58 114.483 349.242 114.359 348.895 114.371C348.724 114.369 348.555 114.402 348.396 114.467C348.238 114.532 348.095 114.629 347.974 114.75C347.854 114.871 347.759 115.016 347.695 115.174C347.631 115.333 347.6 115.503 347.603 115.674Z" fill="#263238"/>
<path d="M323.625 338.904C321.597 341.657 326.661 370.563 330.37 367.4L326.577 373.473L312.497 374.65L302.904 345.387L323.625 338.904Z" fill="#FFBE9D"/>
<path d="M339.701 244.39C339.701 244.39 287.9 274.083 285.21 287.596C283.9 292.137 283.996 296.969 285.483 301.455C287.921 309.43 307.674 366.495 307.674 366.495L328.384 359.624L324.812 337.558L316.711 304.985L314.273 301.655C315.98 301.608 317.652 301.154 319.148 300.331C321.365 298.996 354.873 278.538 354.873 278.538L363.279 252.491L339.701 244.39Z" fill="#263238"/>
<path d="M311.783 373.114L312.129 374.281C312.129 374.281 294.656 388.224 295.57 392.048L334.962 380.028L330.423 367.083C327.929 369.365 324.974 371.085 321.758 372.125C318.542 373.166 315.14 373.503 311.783 373.114Z" fill="#455A64"/>
<g opacity="0.6">
<path opacity="0.6" d="M334.962 380.028L333.911 376.876L296.515 389.579C296.515 389.579 295.002 390.882 295.57 392.049L334.962 380.028Z" fill="white"/>
</g>
<path d="M312.068 374.438C312.131 374.628 313.119 374.438 314.253 374.754C315.388 375.069 316.145 375.731 316.302 375.605C316.46 375.479 315.83 374.449 314.443 374.081C313.056 373.713 311.931 374.27 312.068 374.438Z" fill="#263238"/>
<path d="M308.421 377.413C308.421 377.612 309.366 377.686 310.26 378.295C311.153 378.905 311.615 379.714 311.804 379.64C311.993 379.567 311.804 378.453 310.648 377.707C309.492 376.961 308.368 377.244 308.421 377.413Z" fill="#263238"/>
<path d="M307.579 383.066C307.768 383.066 307.737 382.015 306.928 381.112C306.119 380.208 305.078 380.061 305.047 380.25C305.015 380.439 305.751 380.828 306.402 381.584C307.054 382.341 307.38 383.108 307.579 383.066Z" fill="#263238"/>
<path d="M302.609 293.186C303.344 293.321 304.052 293.569 304.711 293.921C306.38 294.68 307.95 295.64 309.387 296.779C310.823 297.916 312.118 299.221 313.243 300.667C313.738 301.247 314.148 301.894 314.462 302.59C312.82 300.638 311.017 298.827 309.071 297.178C307.036 295.664 304.874 294.328 302.609 293.186Z" fill="#455A64"/>
<path d="M305.931 287.596C306.611 288.099 307.219 288.693 307.738 289.361C309.079 290.905 310.255 292.585 311.247 294.373C312.24 296.161 313.039 298.048 313.633 300.005C313.927 300.799 314.107 301.63 314.168 302.474C313.825 301.706 313.534 300.917 313.296 300.11C311.932 296.316 309.962 292.768 307.465 289.603C306.909 288.969 306.396 288.298 305.931 287.596Z" fill="#455A64"/>
<g opacity="0.3">
<path opacity="0.3" d="M354.664 276.469C354.369 275.597 353.865 274.798 353.613 273.916C353.482 273.047 353.22 272.204 352.835 271.415C352.245 270.692 351.45 270.165 350.555 269.902C346.016 268.073 341.382 266.445 336.696 265.026L333.323 267.023C333.451 268.175 333.817 269.288 334.4 270.291C334.983 271.293 335.768 272.163 336.707 272.844C338.586 274.196 340.678 275.226 342.895 275.891C345.111 276.552 347.26 277.418 349.315 278.476C350.097 278.993 350.941 279.409 351.827 279.716C352.272 279.86 352.748 279.879 353.204 279.772C353.66 279.664 354.077 279.434 354.411 279.106C354.669 278.722 354.827 278.28 354.871 277.819C354.915 277.359 354.844 276.895 354.664 276.469Z" fill="black"/>
</g>
<path d="M364.919 293.764L372.022 269.976H365.791L359.676 292.325L364.919 293.764Z" fill="#E0E0E0"/>
<path d="M438.072 375.038C437.935 375.038 442.054 360.78 447.255 343.296C452.456 325.812 456.796 311.669 456.932 311.7C457.069 311.732 452.95 325.948 447.738 343.443C442.527 360.938 438.208 375.07 438.072 375.038Z" fill="#263238"/>
<path d="M438.07 375.037C437.933 375.037 439.657 360.327 441.926 342.223C444.196 324.119 446.129 309.451 446.297 309.472C446.465 309.493 444.7 324.182 442.431 342.286C440.161 360.39 438.207 375.048 438.07 375.037Z" fill="#263238"/>
<path d="M438.071 375.038C437.935 375.038 437.021 360.328 436.064 342.055C435.108 323.783 434.415 309.052 434.551 309.052C434.688 309.052 435.602 323.762 436.558 342.024C437.514 360.286 438.208 375.027 438.071 375.038Z" fill="#263238"/>
<path d="M438.071 375.038C437.934 375.038 434.572 360.654 430.568 342.854C426.565 325.055 423.423 310.597 423.56 310.565C423.697 310.534 427.059 324.94 431.062 342.749C435.066 360.559 438.207 375.007 438.071 375.038Z" fill="#263238"/>
<path d="M438.071 375.038C437.945 375.091 432.218 361.442 425.294 344.567C418.37 327.692 412.853 313.959 412.937 313.906C413.022 313.854 418.79 327.492 425.714 344.378C432.639 361.263 438.155 374.986 438.071 375.038Z" fill="#263238"/>
<path d="M438.071 375.038C437.955 375.111 430.032 362.618 420.376 347.13C410.72 331.643 402.997 319.034 403.113 318.96C403.228 318.887 411.151 331.38 420.807 346.868C430.463 362.356 438.155 374.964 438.071 375.038Z" fill="#263238"/>
<path d="M438.071 375.038C437.965 375.122 428.068 364.131 416.005 350.482C403.943 336.833 394.16 325.685 394.265 325.601C394.371 325.517 404.268 336.497 416.383 350.146C428.498 363.795 438.155 374.943 438.071 375.038Z" fill="#263238"/>
<path d="M438.07 375.039C437.986 375.144 426.386 365.961 412.159 354.529C397.932 343.097 386.479 333.735 386.574 333.63C386.668 333.525 398.226 342.698 412.485 354.13C426.743 365.562 438.154 374.924 438.07 375.039Z" fill="#263238"/>
<path d="M438.071 375.038C438.008 375.154 425.031 368.041 409.102 359.151C393.173 350.262 380.301 342.949 380.364 342.823C380.428 342.697 393.394 349.81 409.333 358.71C425.273 367.61 438.155 374.912 438.071 375.038Z" fill="#263238"/>
<path d="M438.072 375.039C438.072 375.165 424.045 370.321 406.855 364.216C389.665 358.111 375.753 353.057 375.795 352.931C375.837 352.805 389.822 357.638 407.023 363.743C424.223 369.848 438.156 374.902 438.072 375.039Z" fill="#263238"/>
<path d="M438.071 375.038C438.071 375.175 423.455 372.737 405.498 369.595C387.541 366.454 372.925 363.795 372.988 363.659C373.052 363.522 387.604 365.96 405.561 369.102C423.518 372.243 438.092 374.902 438.071 375.038Z" fill="#263238"/>
<path d="M438.071 375.038C438.071 375.174 423.277 375.216 405.036 375.122C386.795 375.027 371.99 374.849 371.99 374.712C371.99 374.575 386.785 374.533 405.036 374.617C423.287 374.702 438.071 374.891 438.071 375.038Z" fill="#263238"/>
<path d="M438.07 375.038C438.07 375.175 423.517 377.686 405.497 380.649C387.477 383.612 372.925 385.903 372.862 385.766C372.798 385.629 387.414 383.118 405.434 380.155C423.454 377.192 438.049 374.901 438.07 375.038Z" fill="#263238"/>
<path d="M438.071 375.038C438.071 375.164 424.159 380.082 406.906 386.018C389.653 391.955 375.626 396.652 375.584 396.526C375.542 396.399 389.485 391.472 406.749 385.535C424.012 379.598 438.029 374.901 438.071 375.038Z" fill="#263238"/>
<path d="M438.07 375.038C438.133 375.153 425.198 382.393 409.185 391.072C393.172 399.751 380.122 406.833 380.059 406.675C379.996 406.518 392.92 399.373 408.944 390.631C424.967 381.889 438.007 374.912 438.07 375.038Z" fill="#263238"/>
<path d="M438.07 375.037C438.154 375.142 426.606 384.389 412.274 395.674C397.942 406.959 386.248 416.037 386.164 415.932C386.079 415.827 397.627 406.58 411.959 395.285C426.291 383.989 437.986 374.922 438.07 375.037Z" fill="#263238"/>
<path d="M438.072 375.039C438.177 375.123 428.331 386.176 416.09 399.699C403.849 413.222 393.846 424.129 393.741 424.034C393.636 423.94 403.471 412.897 415.722 399.363C427.974 385.83 437.966 374.944 438.072 375.039Z" fill="#263238"/>
<path d="M438.071 375.039C438.186 375.112 430.337 387.647 420.523 403.03C410.709 418.413 402.661 430.832 402.556 430.759C402.451 430.685 410.289 418.15 420.103 402.757C429.917 387.364 437.955 374.954 438.071 375.039Z" fill="#263238"/>
<path d="M438.071 375.038C438.198 375.091 432.555 388.761 425.463 405.573C418.37 422.384 412.507 435.97 412.381 435.918C412.255 435.865 417.897 422.195 424.99 405.373C432.082 388.551 437.945 374.975 438.071 375.038Z" fill="#263238"/>
<path d="M438.07 375.038C438.207 375.038 434.918 389.496 430.715 407.254C426.512 425.011 423.034 439.385 422.898 439.354C422.761 439.322 426.05 424.895 430.253 407.138C434.456 389.381 437.934 375.007 438.07 375.038Z" fill="#263238"/>
<path d="M438.07 375.038C438.207 375.038 437.387 389.811 436.231 408.021C435.075 426.23 434.035 440.993 433.899 440.982C433.762 440.972 434.582 426.209 435.737 407.989C436.893 389.769 437.933 375.028 438.07 375.038Z" fill="#263238"/>
<path d="M438.071 375.038C438.207 375.038 439.867 389.748 441.78 407.863C443.692 425.978 445.131 440.74 444.984 440.751C444.837 440.761 443.188 426.041 441.275 407.916C439.363 389.79 437.934 375.049 438.071 375.038Z" fill="#263238"/>
<path d="M438.072 375.038C438.208 375.038 442.275 389.212 447.224 406.781C452.173 424.349 456.018 438.628 455.882 438.67C455.745 438.713 451.679 424.496 446.74 406.917C441.802 389.339 437.935 375.07 438.072 375.038Z" fill="#263238"/>
<path d="M438.071 375.038C438.197 374.975 444.617 388.309 452.403 404.806C460.189 421.302 466.399 434.73 466.273 434.794C466.147 434.857 459.737 421.523 451.941 405.016C444.144 388.509 437.945 375.143 438.071 375.038Z" fill="#263238"/>
<path d="M438.071 375.039C438.186 374.954 446.739 387.027 457.183 401.99C467.628 416.952 475.981 429.151 475.876 429.235C475.771 429.319 467.207 417.246 456.763 402.274C446.319 387.301 437.955 375.144 438.071 375.039Z" fill="#263238"/>
<path d="M438.071 375.039C438.166 374.934 448.578 385.41 461.418 398.407C474.258 411.405 484.534 422.049 484.408 422.143C484.282 422.238 473.901 411.773 461.061 398.764C448.221 385.756 437.976 375.144 438.071 375.039Z" fill="#263238"/>
<path d="M438.071 375.037C438.155 374.922 450.207 383.496 465.001 394.171C479.795 404.847 491.742 413.62 491.637 413.725C491.532 413.83 479.501 405.267 464.707 394.581C449.912 383.895 437.987 375.142 438.071 375.037Z" fill="#263238"/>
<path d="M438.071 375.038C438.134 374.912 451.457 381.342 467.827 389.401C484.198 397.461 497.416 404.112 497.353 404.227C497.29 404.343 483.977 397.923 467.596 389.853C451.215 381.784 438.007 375.143 438.071 375.038Z" fill="#263238"/>
<path d="M438.07 375.038C438.07 374.902 452.318 379.01 469.803 384.222C487.287 389.434 501.44 393.763 501.398 393.899C501.356 394.036 487.15 389.917 469.666 384.705C452.182 379.494 438.028 375.144 438.07 375.038Z" fill="#263238"/>
<path d="M438.07 375.037C438.07 374.89 452.781 376.571 470.895 378.788C489.01 381.005 503.678 382.897 503.668 382.991C503.657 383.086 488.957 381.457 470.832 379.24C452.707 377.023 438.049 375.142 438.07 375.037Z" fill="#263238"/>
<path d="M438.07 375.038C438.07 374.891 452.833 374.092 471.063 373.241C489.294 372.39 504.067 371.812 504.077 371.949C504.088 372.085 489.315 372.894 471.084 373.745C452.854 374.597 438.081 375.143 438.07 375.038Z" fill="#263238"/>
<path d="M438.07 375.037C438.07 374.901 452.476 371.633 470.296 367.745C488.117 363.858 502.606 360.821 502.627 360.958C502.648 361.094 488.232 364.351 470.401 368.239C452.57 372.127 438.154 375.142 438.07 375.037Z" fill="#263238"/>
<path d="M438.07 375.038C438.018 374.901 451.73 369.27 468.626 362.429C485.522 355.589 499.318 350.188 499.37 350.325C499.423 350.461 485.711 356.083 468.815 362.934C451.919 369.784 438.155 375.143 438.07 375.038Z" fill="#263238"/>
<path d="M438.071 375.038C437.997 374.912 450.543 367.073 466.094 357.522C481.645 347.971 494.306 340.332 494.379 340.448C494.453 340.563 481.907 348.402 466.356 357.953C450.806 367.504 438.155 375.143 438.071 375.038Z" fill="#263238"/>
<path d="M438.071 375.039C437.976 374.934 449.041 365.099 462.763 353.089C476.486 341.079 487.708 331.412 487.802 331.517C487.897 331.623 476.832 341.447 463.099 353.467C449.366 365.488 438.155 375.144 438.071 375.039Z" fill="#263238"/>
<path d="M438.071 375.037C437.966 374.943 447.223 363.406 458.75 349.263C470.276 335.12 479.712 323.719 479.764 323.814C479.817 323.909 470.612 335.435 459.086 349.578C447.559 363.721 438.155 375.142 438.071 375.037Z" fill="#263238"/>
<path d="M438.071 375.038C437.955 374.964 445.153 362.04 454.147 346.174C463.141 330.308 470.538 317.479 470.664 317.552C470.791 317.626 463.583 330.539 454.588 346.416C445.594 362.292 438.155 375.143 438.071 375.038Z" fill="#263238"/>
<path d="M349.468 393.482C353.518 383.577 348.772 372.264 338.867 368.214C328.963 364.164 317.65 368.91 313.6 378.815C309.55 388.72 314.296 400.032 324.201 404.082C334.105 408.133 345.418 403.386 349.468 393.482Z" fill="#263238"/>
<path d="M195.058 375.038C194.931 375.038 199.04 360.78 204.251 343.296C209.463 325.812 213.792 311.669 213.918 311.7C214.044 311.732 209.946 325.948 204.735 343.443C199.523 360.938 195.194 375.07 195.058 375.038Z" fill="#263238"/>
<path d="M195.057 375.037C194.921 375.037 196.654 360.327 198.924 342.223C201.194 324.119 203.127 309.451 203.285 309.472C203.442 309.493 201.687 324.182 199.418 342.286C197.148 360.39 195.194 375.048 195.057 375.037Z" fill="#263238"/>
<path d="M195.057 375.038C194.92 375.038 194.006 360.328 193.05 342.055C192.094 323.783 191.4 309.052 191.537 309.052C191.673 309.052 192.587 323.762 193.554 342.024C194.521 360.286 195.204 375.027 195.057 375.038Z" fill="#263238"/>
<path d="M195.057 375.038C194.921 375.038 191.569 360.654 187.565 342.854C183.562 325.055 180.42 310.597 180.557 310.565C180.694 310.534 184.045 324.94 188.049 342.749C192.052 360.559 195.194 375.007 195.057 375.038Z" fill="#263238"/>
<path d="M195.057 375.038C194.931 375.091 189.215 361.442 182.28 344.567C175.345 327.692 169.84 313.959 169.976 313.906C170.113 313.854 175.818 327.492 182.753 344.378C189.688 361.263 195.194 374.986 195.057 375.038Z" fill="#263238"/>
<path d="M195.058 375.038C194.942 375.111 187.02 362.618 177.363 347.13C167.707 331.643 159.984 319.034 160.1 318.96C160.215 318.887 168.138 331.38 177.794 346.868C187.451 362.356 195.184 374.964 195.058 375.038Z" fill="#263238"/>
<path d="M195.057 375.038C194.952 375.122 185.054 364.131 172.991 350.482C160.929 336.833 151.147 325.685 151.252 325.601C151.357 325.517 161.255 336.497 173.37 350.146C185.485 363.795 195.162 374.943 195.057 375.038Z" fill="#263238"/>
<path d="M195.057 375.039C194.973 375.144 183.373 365.961 169.157 354.529C154.94 343.097 143.477 333.735 143.561 333.63C143.645 333.525 155.245 342.698 169.472 354.14C183.699 365.583 195.152 374.924 195.057 375.039Z" fill="#263238"/>
<path d="M195.056 375.038C194.993 375.154 182.017 368.041 166.088 359.151C150.159 350.262 137.298 342.949 137.361 342.823C137.424 342.697 150.4 349.81 166.34 358.71C182.279 367.61 195.13 374.912 195.056 375.038Z" fill="#263238"/>
<path d="M195.057 375.039C195.057 375.165 181.029 370.321 163.839 364.216C146.649 358.111 132.738 353.057 132.79 352.931C132.843 352.805 146.807 357.638 164.007 363.743C181.208 369.848 195.109 374.902 195.057 375.039Z" fill="#263238"/>
<path d="M195.057 375.038C195.057 375.175 180.442 372.737 162.485 369.595C144.527 366.454 129.912 363.795 129.975 363.659C130.038 363.522 144.591 365.96 162.548 369.102C180.505 372.243 195.089 374.902 195.057 375.038Z" fill="#263238"/>
<path d="M195.057 375.038C195.057 375.174 180.263 375.216 162.022 375.122C143.782 375.027 128.987 374.849 128.987 374.712C128.987 374.575 143.771 374.533 162.022 374.617C180.274 374.702 195.057 374.891 195.057 375.038Z" fill="#263238"/>
<path d="M195.058 375.038C195.058 375.175 180.506 377.686 162.485 380.649C144.465 383.612 129.913 385.903 129.839 385.766C129.766 385.629 144.392 383.118 162.412 380.155C180.432 377.192 195.037 374.901 195.058 375.038Z" fill="#263238"/>
<path d="M195.057 375.038C195.109 375.164 181.155 380.082 163.902 386.018C146.649 391.955 132.622 396.652 132.569 396.526C132.517 396.399 146.481 391.472 163.734 385.535C180.987 379.598 195.015 374.901 195.057 375.038Z" fill="#263238"/>
<path d="M195.057 375.038C195.131 375.153 182.196 382.393 166.172 391.072C150.149 399.751 137.109 406.833 137.046 406.675C136.983 406.518 149.907 399.373 165.931 390.631C181.954 381.889 194.994 374.912 195.057 375.038Z" fill="#263238"/>
<path d="M195.057 375.037C195.152 375.142 183.594 384.389 169.262 395.674C154.93 406.959 143.246 416.037 143.151 415.932C143.056 415.827 154.614 406.58 168.957 395.285C183.299 383.989 194.973 374.922 195.057 375.037Z" fill="#263238"/>
<path d="M195.057 375.039C195.162 375.123 185.327 386.176 173.086 399.699C160.845 413.222 150.831 424.129 150.726 424.034C150.621 423.94 160.467 412.897 172.708 399.363C184.949 385.83 194.962 374.944 195.057 375.039Z" fill="#263238"/>
<path d="M195.057 375.039C195.183 375.112 187.324 387.647 177.52 403.03C167.717 418.413 159.658 430.832 159.553 430.759C159.448 430.685 167.286 418.15 177.09 402.757C186.893 387.364 194.941 374.954 195.057 375.039Z" fill="#263238"/>
<path d="M195.057 375.038C195.194 375.091 189.541 388.761 182.448 405.573C175.356 422.384 169.503 435.97 169.367 435.918C169.23 435.865 174.883 422.195 181.975 405.373C189.068 388.551 194.931 374.975 195.057 375.038Z" fill="#263238"/>
<path d="M195.057 375.038C195.193 375.038 191.904 389.496 187.701 407.254C183.499 425.011 180.021 439.385 179.884 439.354C179.747 439.322 183.036 424.895 187.239 407.138C191.442 389.381 194.92 375.007 195.057 375.038Z" fill="#263238"/>
<path d="M195.057 375.038C195.204 375.038 194.374 389.811 193.229 408.021C192.084 426.23 191.023 440.993 190.886 440.982C190.749 440.972 191.569 426.209 192.725 407.989C193.881 389.769 194.921 375.028 195.057 375.038Z" fill="#263238"/>
<path d="M195.057 375.038C195.204 375.038 196.864 389.748 198.766 407.863C200.668 425.978 202.118 440.74 201.981 440.751C201.845 440.761 200.184 426.041 198.272 407.916C196.36 389.79 194.92 375.049 195.057 375.038Z" fill="#263238"/>
<path d="M195.058 375.038C195.194 375.038 199.261 389.212 204.21 406.781C209.159 424.349 213.004 438.628 212.878 438.67C212.752 438.713 208.675 424.496 203.726 406.917C198.777 389.339 194.932 375.07 195.058 375.038Z" fill="#263238"/>
<path d="M195.059 375.038C195.185 374.975 201.605 388.309 209.391 404.806C217.176 421.302 223.397 434.73 223.271 434.794C223.145 434.857 216.725 421.523 208.939 405.016C201.153 388.509 194.932 375.143 195.059 375.038Z" fill="#263238"/>
<path d="M195.058 375.039C195.173 374.954 203.726 387.027 214.171 401.99C224.615 416.952 232.979 429.151 232.863 429.235C232.748 429.319 224.195 417.246 213.75 402.274C203.306 387.301 194.942 375.144 195.058 375.039Z" fill="#263238"/>
<path d="M195.057 375.039C195.162 374.934 205.617 385.41 218.405 398.407C231.192 411.405 241.521 422.049 241.395 422.143C241.269 422.238 230.887 411.773 218.047 398.764C205.207 385.756 194.963 375.144 195.057 375.039Z" fill="#263238"/>
<path d="M195.057 375.037C195.141 374.922 207.203 383.496 221.987 394.171C236.771 404.847 248.707 413.62 248.623 413.725C248.539 413.83 236.487 405.267 221.704 394.581C206.92 383.895 194.983 375.142 195.057 375.037Z" fill="#263238"/>
<path d="M195.057 375.038C195.12 374.912 208.443 381.342 224.814 389.401C241.184 397.461 254.402 404.112 254.339 404.227C254.276 404.343 240.963 397.923 224.593 389.853C208.223 381.784 194.994 375.143 195.057 375.038Z" fill="#263238"/>
<path d="M195.057 375.038C195.057 374.902 209.315 379.01 226.799 384.222C244.284 389.434 258.426 393.763 258.395 393.899C258.363 394.036 244.147 389.917 226.652 384.705C209.158 379.494 195.025 375.144 195.057 375.038Z" fill="#263238"/>
<path d="M195.057 375.037C195.057 374.89 209.767 376.571 227.882 378.788C245.996 381.005 260.675 382.897 260.654 382.991C260.633 383.086 245.944 381.457 227.829 379.24C209.714 377.023 195.046 375.142 195.057 375.037Z" fill="#263238"/>
<path d="M195.057 375.038C195.057 374.891 209.83 374.092 228.05 373.241C246.269 372.39 261.064 371.812 261.064 371.949C261.064 372.085 246.353 372.894 228.071 373.745C209.788 374.597 195.067 375.143 195.057 375.038Z" fill="#263238"/>
<path d="M195.057 375.037C195.057 374.901 209.462 371.633 227.283 367.745C245.103 363.858 259.593 360.821 259.624 360.958C259.656 361.094 245.229 364.351 227.398 368.239C209.567 372.127 195.088 375.142 195.057 375.037Z" fill="#263238"/>
<path d="M195.057 375.038C195.057 374.901 208.716 369.27 225.612 362.429C242.508 355.589 256.304 350.188 256.356 350.325C256.409 350.461 242.697 356.083 225.801 362.934C208.905 369.784 195.109 375.143 195.057 375.038Z" fill="#263238"/>
<path d="M195.057 375.038C194.983 374.912 207.529 367.073 223.08 357.522C238.631 347.971 251.292 340.332 251.366 340.448C251.439 340.563 238.894 348.402 223.343 357.953C207.792 367.504 195.131 375.143 195.057 375.038Z" fill="#263238"/>
<path d="M195.057 375.039C194.973 374.934 206.027 365.099 219.76 353.089C233.493 341.079 244.694 331.412 244.788 331.517C244.883 331.623 233.819 341.447 220.086 353.467C206.353 365.488 195.152 375.144 195.057 375.039Z" fill="#263238"/>
<path d="M195.058 375.037C194.952 374.943 204.209 363.406 215.736 349.263C227.263 335.12 236.698 323.719 236.814 323.814C236.929 323.909 227.662 335.435 216.125 349.578C204.588 363.721 195.173 375.142 195.058 375.037Z" fill="#263238"/>
<path d="M195.058 375.038C194.942 374.964 202.14 362.04 211.134 346.174C220.129 330.308 227.526 317.479 227.652 317.552C227.778 317.626 220.58 330.539 211.576 346.416C202.571 362.292 195.184 375.143 195.058 375.038Z" fill="#263238"/>
<path d="M120.014 375.037C120.014 389.88 124.415 404.389 132.661 416.729C140.907 429.07 152.627 438.689 166.339 444.369C180.052 450.048 195.14 451.534 209.697 448.639C224.254 445.743 237.626 438.596 248.121 428.101C258.616 417.606 265.763 404.235 268.658 389.678C271.554 375.121 270.068 360.032 264.388 346.32C258.708 332.607 249.09 320.887 236.749 312.641C224.408 304.395 209.899 299.994 195.057 299.994C175.155 299.997 156.069 307.904 141.996 321.977C127.924 336.05 120.016 355.136 120.014 375.037ZM126.318 375.037C126.318 361.448 130.348 348.165 137.897 336.866C145.447 325.567 156.178 316.76 168.732 311.56C181.287 306.36 195.102 304.999 208.43 307.65C221.758 310.301 234 316.845 243.609 326.454C253.218 336.063 259.762 348.305 262.413 361.633C265.064 374.961 263.703 388.776 258.503 401.331C253.303 413.885 244.496 424.616 233.197 432.166C221.898 439.715 208.615 443.745 195.026 443.745C176.809 443.737 159.341 436.494 146.462 423.61C133.584 410.726 126.35 393.254 126.35 375.037H126.318Z" fill="#263238"/>
<path d="M126.35 375.037C126.35 388.627 130.379 401.91 137.929 413.209C145.479 424.508 156.209 433.315 168.764 438.515C181.319 443.715 195.133 445.076 208.461 442.425C221.789 439.774 234.032 433.23 243.641 423.621C253.249 414.012 259.793 401.77 262.444 388.442C265.095 375.114 263.735 361.299 258.535 348.744C253.334 336.19 244.528 325.459 233.229 317.909C221.93 310.36 208.646 306.33 195.057 306.33C176.835 306.33 159.359 313.569 146.474 326.454C133.588 339.339 126.35 356.815 126.35 375.037ZM128.987 375.037C128.985 361.97 132.858 349.195 140.117 338.328C147.375 327.462 157.693 318.991 169.766 313.989C181.838 308.987 195.123 307.677 207.94 310.225C220.757 312.773 232.531 319.065 241.772 328.305C251.013 337.544 257.307 349.317 259.857 362.134C262.407 374.95 261.099 388.235 256.099 400.309C251.099 412.382 242.63 422.701 231.765 429.962C220.899 437.222 208.125 441.097 195.057 441.097C177.536 441.097 160.732 434.138 148.342 421.749C135.952 409.361 128.99 392.559 128.987 375.037Z" fill="#E0E0E0"/>
<path d="M363.026 375.037C363.026 389.88 367.428 404.389 375.673 416.729C383.919 429.07 395.64 438.689 409.352 444.369C423.064 450.048 438.153 451.534 452.71 448.639C467.267 445.743 480.638 438.596 491.133 428.101C501.628 417.606 508.776 404.235 511.671 389.678C514.567 375.121 513.081 360.032 507.401 346.32C501.721 332.607 492.102 320.887 479.762 312.641C467.421 304.395 452.912 299.994 438.07 299.994C418.168 299.997 399.082 307.904 385.009 321.977C370.936 336.05 363.029 355.136 363.026 375.037ZM369.331 375.037C369.331 361.448 373.36 348.165 380.91 336.866C388.46 325.567 399.19 316.76 411.745 311.56C424.3 306.36 438.114 304.999 451.442 307.65C464.77 310.301 477.013 316.845 486.622 326.454C496.231 336.063 502.774 348.305 505.426 361.633C508.077 374.961 506.716 388.776 501.516 401.331C496.315 413.885 487.509 424.616 476.21 432.166C464.911 439.715 451.627 443.745 438.038 443.745C419.821 443.737 402.353 436.494 389.475 423.61C376.597 410.726 369.362 393.254 369.362 375.037H369.331Z" fill="#263238"/>
<path d="M369.363 375.037C369.363 388.627 373.393 401.91 380.943 413.209C388.492 424.508 399.223 433.315 411.778 438.515C424.332 443.715 438.147 445.076 451.475 442.425C464.803 439.774 477.045 433.23 486.654 423.621C496.263 414.012 502.807 401.77 505.458 388.442C508.109 375.114 506.748 361.299 501.548 348.744C496.348 336.19 487.541 325.459 476.243 317.909C464.944 310.36 451.66 306.33 438.071 306.33C419.848 306.33 402.372 313.569 389.487 326.454C376.602 339.339 369.363 356.815 369.363 375.037ZM372.001 375.037C371.999 361.97 375.872 349.195 383.13 338.328C390.389 327.462 400.707 318.991 412.78 313.989C424.852 308.987 438.137 307.677 450.954 310.225C463.771 312.773 475.545 319.065 484.786 328.305C494.027 337.544 500.32 349.317 502.871 362.134C505.421 374.95 504.113 388.235 499.113 400.309C494.112 412.382 485.644 422.701 474.778 429.962C463.913 437.222 451.139 441.097 438.071 441.097C429.392 441.103 420.796 439.398 412.776 436.081C404.756 432.764 397.468 427.899 391.329 421.764C385.189 415.63 380.318 408.345 376.995 400.328C373.671 392.31 371.96 383.717 371.959 375.037H372.001Z" fill="#E0E0E0"/>
<path d="M406.823 369.344H402.557V381.585H406.823V369.344Z" fill="#455A64"/>
<path d="M337.043 391.083L318.635 413.884L315.304 413.054L333.692 388.131L337.043 391.083Z" fill="#263238"/>
<path d="M306.935 417.656L325.942 417.68L325.949 412.321L306.941 412.298L306.935 417.656Z" fill="#263238"/>
<path d="M360.889 298.943L358.856 301.041L435.895 375.67L437.927 373.572L360.889 298.943Z" fill="#455A64"/>
<path d="M519.061 356.324C519.061 356.324 502.417 293.638 440.256 293.638C378.094 293.638 355.798 342.749 355.798 381.584L361.283 380.397C361.283 380.397 358.288 298.944 440.497 298.944C496.491 298.944 514.291 358.426 514.291 358.426L519.061 356.324Z" fill="#455A64"/>
<path d="M310.543 384.462C310.543 384.462 314.168 366.368 328.983 363.983C343.799 361.598 403.113 363.983 403.113 363.983C403.113 363.983 409.217 364.225 409.217 371.947L366.389 373.492L348.958 380.395C348.958 380.395 344.755 367.997 328.994 371.99C317.163 374.974 317.11 384.504 317.11 384.504L310.543 384.462Z" fill="#263238"/>
<path d="M345.606 345.543V338.535C331.61 338.535 321.975 335.089 316.353 332.231C313.05 330.645 310.037 328.514 307.443 325.926L307.38 325.853L249.59 263.029L244.431 267.768L302.158 330.56C303.23 331.674 316.08 345.543 345.606 345.543Z" fill="#455A64"/>
<path d="M359.651 290.15L331.513 388.668L338.252 390.593L366.389 292.075L359.651 290.15Z" fill="#455A64"/>
<path d="M333.544 393.353L438.564 378.506L437.577 371.571L336.223 385.903L242.445 283.32L237.275 288.049L333.544 393.353Z" fill="#455A64"/>
<path d="M261.925 227.189H281.963C283.171 227.189 284.159 229.291 284.159 231.939C284.159 234.587 283.171 236.678 281.963 236.678L261.925 235.228C257.701 230.3 261.925 227.189 261.925 227.189Z" fill="#263238"/>
<path d="M274.052 402.135C274.052 402.135 286.85 362.701 263.733 329.855C240.617 297.009 209.326 294.372 196.907 292.712L196.581 297.966C196.581 297.966 229.49 300.141 248.592 318.98C258.959 329.136 266.478 341.835 270.396 355.809C274.315 369.782 274.496 384.54 270.92 398.605L274.052 402.135Z" fill="#455A64"/>
<path d="M197.232 378.012C211.858 366.454 224.488 339.597 225.013 338.462L225.15 338.147L251.103 264.596L245.314 261.443L218.604 335.636C217.553 337.737 205.691 362.419 192.893 372.506L197.232 378.012Z" fill="#455A64"/>
<path d="M373.146 310.807L392.06 287.165H473.964C474.352 287.165 474.723 287.011 474.997 286.737C475.271 286.464 475.425 286.092 475.425 285.705C475.422 285.318 475.267 284.948 474.994 284.675C474.721 284.402 474.351 284.247 473.964 284.244H390.662L371.045 308.768L373.146 310.807Z" fill="#455A64"/>
<path d="M452.985 285.467L437.222 374.775L440.098 375.283L455.862 285.975L452.985 285.467Z" fill="#455A64"/>
<path d="M422.93 375.668C422.93 373.101 423.691 370.592 425.117 368.457C426.544 366.323 428.571 364.66 430.943 363.678C433.315 362.696 435.924 362.44 438.442 362.942C440.959 363.443 443.271 364.68 445.086 366.496C446.9 368.312 448.135 370.625 448.635 373.143C449.134 375.661 448.876 378.27 447.892 380.641C446.908 383.012 445.243 385.038 443.108 386.463C440.973 387.887 438.463 388.647 435.896 388.645C434.192 388.645 432.505 388.309 430.931 387.657C429.358 387.004 427.928 386.048 426.724 384.843C425.519 383.638 424.565 382.207 423.914 380.633C423.263 379.059 422.928 377.372 422.93 375.668Z" fill="#263238"/>
<path d="M182.09 375.668C182.09 373.101 182.851 370.592 184.278 368.457C185.704 366.323 187.731 364.66 190.103 363.678C192.475 362.696 195.084 362.44 197.602 362.942C200.119 363.443 202.432 364.68 204.246 366.496C206.06 368.312 207.295 370.625 207.795 373.143C208.294 375.661 208.036 378.27 207.052 380.641C206.068 383.012 204.404 385.038 202.268 386.463C200.133 387.887 197.623 388.647 195.056 388.645C191.616 388.642 188.318 387.273 185.887 384.84C183.456 382.407 182.09 379.108 182.09 375.668Z" fill="#263238"/>
<path d="M315.304 396.693C317.966 400.07 321.561 402.591 325.643 403.943C328.529 404.948 331.512 405.653 334.543 406.044C338.203 406.634 341.9 406.968 345.607 407.042C349.861 407.027 354.11 406.753 358.331 406.223C367.273 405.172 377.055 403.691 387.268 401.789C397.482 399.887 407.169 397.849 415.975 395.936L428.457 393.215C432.087 392.495 435.616 391.334 438.965 389.758C440.4 389.036 441.75 388.155 442.989 387.131C444.081 386.212 445.045 385.152 445.857 383.979C447.178 382.107 448.028 379.944 448.337 377.674C448.531 376.231 448.416 374.763 448.001 373.366C447.707 372.41 447.444 371.948 447.486 371.938C447.558 372.043 447.618 372.155 447.665 372.274C447.832 372.614 447.976 372.965 448.095 373.324C448.557 374.729 448.707 376.217 448.537 377.685C448.262 380.013 447.421 382.239 446.089 384.168C445.279 385.381 444.307 386.477 443.199 387.425C441.946 388.479 440.578 389.388 439.122 390.136C435.753 391.745 432.2 392.934 428.541 393.677L416.09 396.357C407.295 398.279 397.608 400.36 387.384 402.241C377.16 404.121 367.336 405.613 358.384 406.664C354.144 407.182 349.878 407.441 345.607 407.442C341.885 407.353 338.173 407.002 334.501 406.391C331.453 405.997 328.453 405.293 325.548 404.29C323.35 403.511 321.281 402.406 319.412 401.011C318.251 400.128 317.193 399.117 316.26 397.996C315.966 397.607 315.735 397.313 315.556 397.092C315.457 396.969 315.373 396.835 315.304 396.693Z" fill="#263238"/>
<path d="M385.46 264.722C384.672 267.117 381.257 277.215 376.13 277.582C371.002 277.95 335.929 272.497 330.665 271.152C327.313 270.301 325.411 264.722 333.354 264.722C344.807 264.722 387.205 259.363 385.46 264.722Z" fill="#F6503B"/>
<path d="M255.243 206.584C255.243 206.584 244.242 208.896 242.949 209.736C241.657 210.577 241.079 213.529 241.898 215.189C242.718 216.85 244.767 217.175 245.923 217.428C247.079 217.68 257.922 211.995 257.922 211.995C257.922 211.995 259.362 207.025 255.243 206.584Z" fill="#263238"/>
<path d="M270.037 241.406C268.167 241.185 263.06 240.975 261.516 239.903C260.883 239.41 260.36 238.79 259.982 238.082C259.604 237.374 259.378 236.595 259.32 235.795C259.2 234.411 259.282 233.016 259.561 231.655C261.011 231.823 261.957 231.96 261.957 231.96V227.21C257.395 226.811 252.807 226.811 248.245 227.21C246.569 225.838 245.012 224.326 243.59 222.692C242.539 221.558 241.436 220.097 241.951 218.658C242.279 218.001 242.724 217.41 243.264 216.913C243.535 216.669 243.747 216.366 243.884 216.027C244.02 215.688 244.078 215.323 244.052 214.959C243.916 214.255 242.729 213.404 242.203 213.908C241.136 214.834 240.193 215.893 239.398 217.06C238.602 218.213 238.293 219.632 238.536 221.011C239.033 222.482 239.941 223.781 241.152 224.752L244.431 227.904C242.329 228.492 240.659 229.396 240.133 230.741C238.095 235.995 243.832 244.831 249.937 247.941L245.996 261.958L250.819 264.207L255.873 247.395C255.934 247.208 255.92 247.005 255.833 246.829C255.747 246.652 255.596 246.516 255.411 246.449L251.523 245.01C251.523 245.01 242.245 236.846 243.411 233.095C244 231.235 248.55 230.93 252.994 231.088C252.606 232.519 252.408 233.996 252.406 235.48C252.626 237.775 253.716 239.899 255.453 241.416C256.508 242.338 257.748 243.026 259.088 243.434C262.961 244.435 266.978 244.762 270.962 244.4C271.329 244.369 271.671 244.201 271.921 243.93C272.17 243.659 272.309 243.303 272.309 242.935C272.309 242.566 272.17 242.211 271.921 241.939C271.671 241.668 271.329 241.5 270.962 241.469L270.037 241.406Z" fill="#E0E0E0"/>
<path d="M270.036 241.406C270.036 241.406 270.236 241.406 270.614 241.406C270.904 241.388 271.194 241.446 271.455 241.573C271.717 241.7 271.941 241.892 272.106 242.131C272.219 242.316 272.293 242.523 272.324 242.738C272.354 242.953 272.341 243.171 272.285 243.381C272.221 243.635 272.089 243.866 271.904 244.051C271.72 244.236 271.488 244.368 271.234 244.432C269.989 244.613 268.731 244.691 267.473 244.663C265.897 244.655 264.323 244.532 262.765 244.295C261.914 244.169 261.021 244.012 260.107 243.812C259.133 243.66 258.191 243.344 257.323 242.877C256.4 242.371 255.549 241.746 254.79 241.017C254.012 240.197 253.383 239.247 252.931 238.211C252.412 237.125 252.174 235.925 252.237 234.723C252.312 233.482 252.506 232.25 252.815 231.045L253.004 231.287C251.111 231.201 249.214 231.261 247.33 231.466C246.361 231.558 245.415 231.817 244.535 232.233C244.327 232.326 244.141 232.46 243.987 232.629C243.833 232.797 243.716 232.995 243.642 233.21C243.521 233.679 243.521 234.17 243.642 234.639C244.366 236.637 245.492 238.464 246.952 240.008C248.42 241.719 249.999 243.33 251.68 244.831H251.596L254.118 245.756L255.389 246.229C255.532 246.268 255.664 246.337 255.779 246.431C255.893 246.525 255.986 246.642 256.051 246.775C256.111 246.909 256.141 247.054 256.141 247.2C256.141 247.347 256.111 247.492 256.051 247.626C255.526 249.398 254.986 251.199 254.433 253.027C253.382 256.694 252.206 260.476 251.039 264.343L250.955 264.637L250.671 264.511L245.87 262.242L245.659 262.147L245.722 261.927L249.652 247.931L249.789 248.256C245.776 245.992 242.586 242.511 240.679 238.317C239.668 236.3 239.276 234.03 239.555 231.791C239.667 231.23 239.862 230.688 240.133 230.184C240.449 229.706 240.861 229.299 241.341 228.986C242.265 228.405 243.276 227.976 244.336 227.715L244.22 228.156L240.742 224.752C239.454 223.712 238.554 222.268 238.189 220.654C238.088 219.024 238.631 217.42 239.702 216.188C240.182 215.584 240.706 215.015 241.267 214.486C241.562 214.223 241.772 213.992 242.139 213.698C242.351 213.601 242.586 213.567 242.817 213.598C243.047 213.63 243.264 213.726 243.442 213.876C243.802 214.111 244.078 214.453 244.23 214.854C244.336 215.268 244.296 215.706 244.115 216.094C243.765 216.754 243.307 217.351 242.759 217.859C242.523 218.087 242.338 218.361 242.215 218.666C242.092 218.97 242.034 219.296 242.045 219.624C242.126 220.283 242.384 220.907 242.791 221.431C243.628 222.492 244.522 223.505 245.47 224.468C246.374 225.41 247.339 226.291 248.36 227.105H248.202C252.774 226.684 257.374 226.684 261.946 227.105H262.114V227.263C262.114 228.997 262.114 230.541 262.114 232.012V232.201H261.925L259.54 231.886L259.708 231.76C259.449 233.046 259.357 234.359 259.435 235.669C259.512 236.819 259.901 237.927 260.559 238.873C260.846 239.281 261.202 239.637 261.61 239.924C262.013 240.167 262.453 240.344 262.912 240.45C263.725 240.662 264.549 240.824 265.382 240.933C266.874 241.143 268.03 241.238 268.807 241.322L269.7 241.427C269.8 241.43 269.899 241.448 269.994 241.479C269.994 241.479 268.366 241.427 265.361 241.09C264.519 240.996 263.683 240.849 262.86 240.649C262.377 240.54 261.913 240.359 261.483 240.113C261.033 239.816 260.639 239.443 260.317 239.01C259.63 238.025 259.217 236.876 259.119 235.679C259.031 234.347 259.112 233.009 259.361 231.697V231.55H259.508L261.914 231.844L261.725 232.012C261.725 230.541 261.725 228.997 261.725 227.263L261.883 227.441C257.337 227.053 252.765 227.078 248.223 227.515H248.139H248.066C247.029 226.693 246.049 225.802 245.134 224.846C244.155 223.876 243.236 222.848 242.381 221.767C241.932 221.173 241.649 220.469 241.562 219.729C241.542 219.341 241.605 218.953 241.746 218.591C241.888 218.228 242.104 217.9 242.381 217.628C242.89 217.149 243.319 216.592 243.653 215.978C243.786 215.696 243.82 215.378 243.747 215.074C243.628 214.779 243.419 214.528 243.148 214.36C242.896 214.171 242.539 214.066 242.371 214.192C242.203 214.318 241.845 214.675 241.593 214.917C241.051 215.431 240.545 215.982 240.08 216.566C239.093 217.695 238.591 219.168 238.683 220.664C239.028 222.164 239.873 223.501 241.078 224.457L244.567 227.851L244.903 228.177L244.451 228.303C243.471 228.523 242.532 228.896 241.667 229.406C241.25 229.683 240.893 230.04 240.616 230.457C240.387 230.905 240.221 231.382 240.122 231.876C239.857 234.004 240.222 236.163 241.173 238.085C243.036 242.162 246.14 245.545 250.041 247.752L250.241 247.857L250.178 248.067C248.822 252.859 247.498 257.576 246.237 262.063L246.09 261.737L250.903 263.996L250.535 264.165L253.95 252.859C254.507 251.03 255 249.223 255.578 247.468C255.615 247.394 255.635 247.311 255.636 247.228C255.637 247.144 255.619 247.062 255.584 246.986C255.549 246.91 255.497 246.844 255.432 246.791C255.367 246.738 255.292 246.7 255.211 246.68L253.929 246.208L251.417 245.272C249.722 243.753 248.129 242.125 246.647 240.397C245.149 238.789 243.997 236.89 243.264 234.818C243.122 234.277 243.122 233.709 243.264 233.168C243.354 232.897 243.498 232.648 243.688 232.434C243.878 232.221 244.109 232.049 244.367 231.928C245.3 231.487 246.303 231.213 247.33 231.119C249.235 230.916 251.154 230.864 253.067 230.961H253.225V231.193C252.636 233.609 252.248 236.078 253.288 238.117C253.72 239.113 254.316 240.03 255.053 240.828C255.765 241.531 256.563 242.142 257.428 242.646C258.269 243.096 259.177 243.408 260.118 243.57C261.032 243.77 261.904 243.938 262.755 244.075C264.299 244.314 265.858 244.45 267.42 244.484C268.662 244.52 269.906 244.464 271.14 244.316C271.372 244.261 271.586 244.144 271.758 243.977C271.93 243.811 272.054 243.601 272.117 243.371C272.225 242.982 272.176 242.567 271.98 242.215C271.825 241.987 271.614 241.802 271.368 241.677C271.122 241.552 270.848 241.491 270.572 241.5L270.036 241.406Z" fill="#263238"/>
<path d="M376.761 408.021C376.761 408.021 374.722 434.751 374.764 436.044L369.511 440.509L356.282 437.557L355.883 408.021H376.761Z" fill="#FFBE9D"/>
<path d="M356.083 435.937V437.114C356.083 437.114 336.119 444.858 335.835 448.672L375.343 448.945L374.891 435.801C371.95 437.173 368.747 437.896 365.502 437.92C362.256 437.943 359.043 437.267 356.083 435.937Z" fill="#455A64"/>
<g opacity="0.6">
<path opacity="0.6" d="M375.321 448.904L375.216 445.752L337.389 446.656C337.389 446.656 335.624 447.402 335.813 448.641L375.321 448.904Z" fill="white"/>
</g>
<path d="M355.924 437.22C355.924 437.419 356.891 437.514 357.836 438.134C358.782 438.754 359.276 439.573 359.454 439.5C359.633 439.426 359.36 438.312 358.204 437.577C357.048 436.841 355.882 437.041 355.924 437.22Z" fill="#263238"/>
<path d="M351.765 438.911C351.765 439.09 352.553 439.426 353.204 440.246C353.856 441.065 354.034 441.937 354.255 441.927C354.476 441.916 354.57 440.824 353.751 439.825C352.931 438.827 351.775 438.722 351.765 438.911Z" fill="#263238"/>
<path d="M349.377 443.851C349.556 443.851 349.829 442.926 349.377 441.875C348.925 440.825 347.98 440.383 347.906 440.541C347.833 440.698 348.379 441.276 348.757 442.148C349.136 443.021 349.188 443.83 349.377 443.851Z" fill="#263238"/>
<path d="M343.778 261.127L348.096 275.775L350.408 298.239L352.74 362.061L354.915 364.383L355.493 432.681H375.793C375.793 432.681 383.716 377.444 382.907 363.584C382.434 354.249 382.452 344.895 382.959 335.561L393.225 290.222C393.225 290.222 398.353 269.67 398.479 258.637C398.595 252.951 398.322 247.264 397.659 241.615C397.659 241.615 363.342 249.17 355.462 246.953C350.442 245.518 345.593 243.538 341.004 241.048C341.004 241.048 337.915 238.694 336.748 242.183C336.307 243.465 337.253 246.133 337.253 246.133L343.778 261.127Z" fill="#263238"/>
<path d="M366.704 353.077C366.213 353.805 365.638 354.471 364.991 355.063C363.499 356.563 361.897 357.951 360.199 359.213C358.498 360.472 356.703 361.6 354.83 362.586C354.074 363.026 353.27 363.379 352.435 363.637C353.139 363.119 353.884 362.659 354.662 362.261C356.471 361.194 358.224 360.037 359.916 358.793C361.6 357.545 363.216 356.208 364.76 354.79C365.361 354.168 366.011 353.595 366.704 353.077Z" fill="#455A64"/>
<path d="M244.264 209.495C244.264 209.495 248.277 201.089 249.433 200.437C250.589 199.786 256.053 198.945 256.053 198.945C256.053 198.945 264.658 202.476 266.15 202.203C267.642 201.929 275.25 202.203 275.25 202.203L276.899 212.016H269.208C269.208 212.016 265.982 213.908 263.671 214.044C261.624 214.327 259.622 214.871 257.713 215.662C257.713 215.662 252.134 221.326 251.472 221.484C250.81 221.641 249.486 221.484 249.318 219.498C249.15 217.512 253.247 214.044 253.247 214.044C253.247 214.044 255.223 213.225 254.067 210.966C252.911 208.707 252.785 207.645 251.293 207.814C249.801 207.982 244.264 209.495 244.264 209.495Z" fill="#FFBE9D"/>
<path d="M409.164 164.249C408.114 158.996 401.925 150.043 399.708 148.415C397.491 146.786 381.036 142.762 381.036 142.762L379.313 139.357L378.546 141.711C378.451 142.131 373.818 151.714 360.568 150.8C356.659 150.537 356.06 148.1 356.06 148.1L355.493 151.619C355.493 151.619 340.72 157.924 338.334 159.122C335.182 160.729 311.015 196.654 311.015 196.654L272.727 201.655L271.771 217.416L312.339 218.982C315.024 219.167 317.719 218.807 320.261 217.924C322.804 217.041 325.141 215.653 327.134 213.844L340.793 199.386V200.542C340.793 206.846 338.692 236.729 338.692 236.729C335.392 247.583 347.865 249.401 357.353 253.824C362.647 256.025 368.144 257.704 373.765 258.836C390.293 262.209 399.781 252.532 399.781 252.532L400.696 247.142C400.696 247.142 410.247 169.503 409.164 164.249Z" fill="#F6503B"/>
<g opacity="0.3">
<path opacity="0.3" d="M344.734 217.397L349.042 222.808C349.042 222.808 389.664 239.62 401.999 236.678V230.751L351.123 214.738L344.734 215.432V217.397Z" fill="black"/>
</g>
<path d="M389.915 155.225C389.915 155.225 385.859 167.918 385.859 174.012C385.859 180.106 387.351 197.622 388.812 200.816C389.613 202.624 390.603 204.343 391.764 205.944L389.516 208.129L352.267 203.59L351.122 219.929C351.122 219.929 392.563 232.244 396.524 232.244C400.486 232.244 408.713 231.781 411.749 229.806C414.786 227.83 416.929 219.593 416.929 212.437C416.929 205.282 414.156 156.528 400.044 148.343C393.13 144.266 389.915 155.225 389.915 155.225Z" fill="#F6503B"/>
<path d="M406.17 210.946C406.097 210.998 405.55 210.147 404.373 209.075C402.844 207.682 400.997 206.683 398.994 206.165C396.987 205.66 394.886 205.66 392.878 206.165C391.334 206.543 390.451 207.026 390.409 206.953C390.367 206.879 390.598 206.774 390.998 206.554C391.566 206.248 392.165 206.002 392.784 205.818C394.84 205.182 397.031 205.124 399.118 205.65C401.205 206.176 403.107 207.267 404.615 208.802C405.076 209.253 405.485 209.753 405.834 210.294C405.988 210.487 406.103 210.708 406.17 210.946Z" fill="#263238"/>
<path d="M400.749 200.521C397.105 201.383 393.878 203.495 391.629 206.49C391.795 205.953 392.075 205.459 392.448 205.04C393.264 203.96 394.259 203.029 395.391 202.287C396.524 201.549 397.775 201.009 399.089 200.689C399.624 200.513 400.19 200.456 400.749 200.521Z" fill="#263238"/>
<path d="M329.929 200.848L334.468 198.063H342.537L349.746 204.631L351.9 205.681L351.101 217.019L346.404 216.441C346.404 216.441 336.401 216.872 335.435 216.231C334.524 215.446 333.725 214.541 333.06 213.541C333.06 213.541 327.354 211.923 327.039 211.282C326.946 211.079 326.898 210.859 326.898 210.635C326.898 210.412 326.946 210.192 327.039 209.989L324.885 208.592C324.339 207.626 323.872 206.617 323.488 205.576L323.372 204.925C322.916 204.757 322.514 204.467 322.211 204.088C321.907 203.708 321.713 203.253 321.649 202.771C321.554 202.109 324.265 202.256 324.265 202.256L331.042 202.35L329.929 200.848Z" fill="#FFBE9D"/>
<path d="M331.148 202.549L326.461 196.171H316.731V197.001L321.638 202.685L331.148 202.549Z" fill="#455A64"/>
<path d="M342.159 256.957C341.004 255.348 340.09 253.578 339.448 251.703C338.251 248.667 337.137 246.282 337.252 246.208C338.402 247.819 339.312 249.589 339.953 251.462C341.161 254.509 342.275 256.894 342.159 256.957Z" fill="#455A64"/>
<path d="M348.17 276.625C348.004 276.273 347.877 275.903 347.792 275.522C347.582 274.797 347.298 273.757 346.983 272.454C346.342 269.848 345.554 266.234 344.881 262.199C344.209 258.164 343.757 254.486 343.505 251.818C343.379 250.483 343.295 249.401 343.263 248.665C343.209 248.278 343.209 247.886 343.263 247.499C343.375 247.872 343.445 248.256 343.473 248.644C343.589 249.506 343.726 250.546 343.894 251.797C344.24 254.444 344.745 258.101 345.417 262.125C346.09 266.15 346.825 269.775 347.372 272.391C347.624 273.61 347.834 274.639 348.013 275.491C348.11 275.861 348.162 276.242 348.17 276.625Z" fill="#455A64"/>
<path d="M390.419 264.06C390.13 264.261 389.816 264.423 389.484 264.543C389.109 264.729 388.718 264.883 388.318 265.005C387.804 265.204 387.277 265.369 386.742 265.499C385.349 265.86 383.923 266.082 382.486 266.161C380.729 266.242 378.968 266.136 377.233 265.846C375.498 265.526 373.803 265.018 372.178 264.333C370.852 263.764 369.588 263.059 368.406 262.231C367.949 261.925 367.51 261.592 367.093 261.233C366.763 260.982 366.454 260.704 366.168 260.403C365.674 259.92 365.422 259.646 365.454 259.615C365.485 259.583 366.599 260.603 368.606 261.916C369.794 262.672 371.045 263.323 372.347 263.86C373.949 264.499 375.61 264.981 377.306 265.299C379.01 265.585 380.738 265.702 382.465 265.646C383.879 265.595 385.286 265.415 386.668 265.11C389.001 264.595 390.377 263.955 390.419 264.06Z" fill="#455A64"/>
<path d="M397.607 148.469C397.607 148.564 396.557 148.679 394.907 149.299C392.789 150.08 390.897 151.373 389.4 153.064C387.904 154.754 386.85 156.789 386.333 158.987C385.923 160.679 385.923 161.771 385.829 161.771C385.754 161.523 385.729 161.262 385.755 161.004C385.749 160.299 385.816 159.594 385.955 158.903C386.387 156.597 387.436 154.451 388.99 152.694C390.544 150.936 392.545 149.632 394.781 148.921C395.448 148.707 396.134 148.555 396.83 148.469C397.324 148.427 397.597 148.427 397.607 148.469Z" fill="#263238"/>
<path d="M338.744 165.206C338.744 165.258 338.744 165.342 338.796 165.458C338.849 165.573 338.87 165.994 338.912 166.414C338.996 167.244 339.112 168.442 339.227 169.934C339.469 172.918 339.742 177.026 340.015 181.576C340.288 186.126 340.509 190.245 340.635 193.229C340.635 194.637 340.73 195.824 340.761 196.77C340.815 197.202 340.815 197.64 340.761 198.073C340.662 197.648 340.603 197.215 340.583 196.78C340.499 195.834 340.404 194.679 340.288 193.26C340.057 190.276 339.784 186.157 339.511 181.608C339.238 177.058 339.007 172.939 338.87 169.955C338.87 168.557 338.765 167.37 338.733 166.424C338.733 166.067 338.733 165.752 338.733 165.468V165.185C338.807 165.185 338.733 165.185 338.733 165.185L338.744 165.206Z" fill="#263238"/>
<path d="M381.078 142.763C381.064 143.201 380.993 143.635 380.868 144.055C380.585 145.218 380.165 146.343 379.618 147.407C378.809 148.996 377.744 150.441 376.466 151.683C374.893 153.203 373.06 154.427 371.054 155.298C369.231 156.093 367.264 156.503 365.275 156.503C363.287 156.503 361.319 156.093 359.496 155.298C358.402 154.807 357.392 154.148 356.502 153.344C356.163 153.061 355.866 152.732 355.619 152.366C356.832 153.415 358.191 154.283 359.654 154.941C361.437 155.667 363.346 156.031 365.27 156.013C367.195 155.995 369.097 155.595 370.865 154.836C372.801 153.982 374.577 152.806 376.119 151.358C377.372 150.16 378.435 148.778 379.271 147.26C379.999 145.814 380.604 144.31 381.078 142.763Z" fill="#263238"/>
<path d="M385.618 169.944C385.662 170.12 385.69 170.299 385.702 170.48L385.881 172.046C386.028 173.454 386.227 175.461 386.49 178.014C386.994 183.268 387.709 190.623 388.592 199.628V199.522C389.474 200.93 390.42 202.454 391.408 204.02L391.492 204.156L391.397 204.293L389.296 207.098L389.212 207.214H389.075L358.152 203.473L351.847 202.696L352.152 202.444C351.753 208.149 351.364 213.644 350.996 218.782L350.807 218.52L383.38 227.43L392.763 230.046L395.253 230.761L395.894 230.95L396.104 231.034C396.104 231.034 396.031 231.034 395.884 231.034L395.232 230.887L392.71 230.246L383.254 227.777L350.597 219.056L350.397 219.003V218.793C350.755 213.644 351.133 208.159 351.532 202.444V202.16H351.816L358.12 202.927L389.033 206.72L388.812 206.815L390.914 204.009V204.282L388.119 199.775V199.722C387.331 190.717 386.679 183.299 386.227 178.098L385.734 172.119C385.734 171.457 385.65 170.932 385.629 170.554C385.602 170.352 385.598 170.147 385.618 169.944Z" fill="#263238"/>
</svg>
