<svg width="455" height="829" viewBox="0 0 455 829" fill="none" xmlns="http://www.w3.org/2000/svg">
<g clip-path="url(#clip0)">
<rect width="455" height="829" fill="#B2B0A8"/>
<circle cx="228" cy="292" r="391" fill="#FBF4E2"/>
<circle cx="228" cy="292" r="390.5" stroke="#FCEAAC" stroke-opacity="0.5"/>
<circle cx="235.298" cy="252.467" r="109.467" fill="#FBF3CE"/>
<circle cx="235.298" cy="252.467" r="108.967" stroke="#FCEAAC" stroke-opacity="0.5"/>
<circle cx="235.298" cy="252.467" r="93.047" fill="#FDEBAB"/>
<circle cx="239.859" cy="252.467" r="60.2069" fill="#FFDF92"/>
<ellipse cx="248.981" cy="252.467" rx="41.0502" ry="40.1379" fill="#FFD56C"/>
<circle cx="251.718" cy="252.467" r="31.0157" fill="#FFC22F"/>
<path d="M77.3295 411.4L75.9704 413.461L83.4043 487.29H41L49.2616 413.315L47.8506 411.4H77.3295Z" fill="#DFDFDF"/>
<path d="M47.5001 429H77.5001L76.7987 422H48.2226L47.5001 429Z" fill="#C9272C"/>
<path d="M73.7379 406.33L73.5791 396.532H50.8254V405.942L73.7379 406.33Z" fill="#DFDFDF"/>
<path d="M45 451H79.7095L79 444H46L45 451Z" fill="#434343"/>
<path d="M42.7218 472H81.8988L81.1958 465H43.5L42.7218 472Z" fill="#C9272C"/>
<path d="M77.3295 411.4L77.5433 408.135L79.3789 406.416V405.169H45.0102V406.431L46.9771 407.802L47.8506 411.4H77.3295Z" fill="#C9272C"/>
<path d="M63.5704 403.172H60.8033V400.683C60.8033 400.683 62.0464 398.609 63.5704 400.683V403.172Z" fill="white"/>
<path d="M74.9414 401.997H79.0737V405.729H74.9414V401.997Z" stroke="#434343" stroke-width="2" stroke-miterlimit="10"/>
<path d="M70.6654 401.997H74.7977V405.729H70.6654V401.997Z" stroke="#434343" stroke-width="2" stroke-miterlimit="10"/>
<path d="M66.3895 401.997H70.5219V405.729H66.3895V401.997Z" stroke="#434343" stroke-width="2" stroke-miterlimit="10"/>
<path d="M62.1135 401.997H66.2458V405.729H62.1135V401.997Z" stroke="#434343" stroke-width="2" stroke-miterlimit="10"/>
<path d="M58.1433 401.997H62.2756V405.729H58.1433V401.997Z" stroke="#434343" stroke-width="2" stroke-miterlimit="10"/>
<path d="M53.8673 401.997H57.9996V405.729H53.8673V401.997Z" stroke="#434343" stroke-width="2" stroke-miterlimit="10"/>
<path d="M49.5914 401.997H53.7238V405.729H49.5914V401.997Z" stroke="#434343" stroke-width="2" stroke-miterlimit="10"/>
<path d="M45.3156 401.997H49.4479V405.729H45.3156V401.997Z" stroke="#434343" stroke-width="2" stroke-miterlimit="10"/>
<path d="M73.8812 396.505L74.9441 396.199C75.2495 396.074 75.5977 395.589 75.3625 395.372L64.1842 384.752C64.1064 384.68 64.0569 384.582 64.0446 384.476C64.0323 384.37 64.058 384.264 64.117 384.175C64.3705 383.815 64.5965 383.204 63.5459 382.911C61.9974 382.477 62.8281 380 62.5136 380C62.199 380 62.6144 381.982 61.9974 382.477C61.3805 382.972 60.0824 383.127 60.8613 384.221C60.9238 384.31 60.9518 384.418 60.94 384.526C60.9282 384.634 60.8774 384.734 60.7971 384.807L49.631 395.192C49.5791 395.24 49.5394 395.3 49.515 395.367C49.4905 395.434 49.4821 395.506 49.4905 395.577C49.4988 395.647 49.5236 395.715 49.5628 395.774C49.6021 395.834 49.6547 395.883 49.7165 395.918L50.7214 396.486C50.7897 396.524 50.8663 396.544 50.9443 396.545H73.5789C73.6814 396.557 73.7854 396.543 73.8812 396.505Z" fill="#C9272C"/>
<path d="M107.64 492.195C66.2789 473.159 41.5738 473.879 -5.60693 499.874V691H283.393V663.697C241.789 653.158 226.034 646.629 216.474 636.393C194.551 609.119 177.65 581.548 164.216 554.479C145.144 516.049 122.662 499.108 107.64 492.195Z" fill="#079ACD"/>
<path d="M39.0808 483.405L38.9993 483.259C23.5336 487.307 14.0212 491.181 -4.44482 500.296V621.258L38.9993 595.703C26.1322 579.757 27.7913 567.136 38.9993 541.185C55.4505 512.731 49.5536 502.167 39.0808 483.405Z" fill="#008DBA"/>
<path d="M337.997 610.073C382.78 628.674 407.111 587.126 463.219 583.666V665.867H-5.2963V579.408C39.8517 566.204 65.4069 560.208 106.295 574.297C143.055 586.964 162.575 594.224 207.665 583.666C258.776 571.699 293.215 591.473 337.997 610.073Z" fill="#68C3FC"/>
<path d="M123.332 630.517C78.5497 649.117 50.8117 654.422 -5.29626 650.961V713.998H463.219V614.332C418.071 601.128 392.516 595.132 351.627 609.221C314.867 621.888 292.792 624.89 247.702 614.332C196.591 602.365 171.036 610.704 123.332 630.517Z" fill="#92D3F9"/>
<path d="M245.998 629.666C194.035 617.087 162.123 632.251 136.11 660.333V740.403L462.367 740.406V633.925C447.808 641.029 438.734 640.739 422.33 633.925C394.86 622.515 368.526 628.557 343.96 642.443C324.368 653.517 295.02 643.325 245.998 629.666Z" fill="#68C3FC"/>
<path d="M121.5 658C30.1733 650.441 16.1776 663.764 -7 706.332V765.109H15.9998L234.924 770.22L333.738 713.147C298.785 683.476 270.512 671.455 229.09 656.895C220.2 653.77 210.51 655.402 201.594 658.453C179.711 665.942 155.344 660.801 121.5 658Z" fill="#B7E4FA"/>
<path d="M285.481 710.444C228.095 697.101 204.747 700.9 179 728.332L254.814 776.887H339.147L373.221 712.999C369.419 708.384 365.554 704.364 358.739 706.184C332.784 713.119 316.999 717.772 285.481 710.444Z" fill="#D1F1FF"/>
<path d="M234.072 742.968C113.998 696.498 61.8403 697.584 -7 742.968V829.004H462.367V717.412C418.269 680.449 396.045 680.535 361.849 725.079C338.849 755.039 296.681 760.493 234.072 742.968Z" fill="#ECF4F8"/>
</g>
<defs>
<clipPath id="clip0">
<rect width="455" height="829" fill="white"/>
</clipPath>
</defs>
</svg>
