<svg width="1498" height="2183" viewBox="0 0 1498 2183" fill="none" xmlns="http://www.w3.org/2000/svg">
<g clip-path="url(#clip0)">
<rect width="1497.94" height="2183" fill="#ECF4F8"/>
<circle cx="679.243" cy="432.243" r="1287.24" fill="#FBF4E2"/>
<circle cx="679.243" cy="432.243" r="1285.6" stroke="#FCEAAC" stroke-opacity="0.5" stroke-width="3.29218"/>
<circle cx="1129.2" cy="813.731" r="272.731" fill="#FBF3CE"/>
<circle cx="1129.2" cy="813.731" r="271.485" stroke="#FCEAAC" stroke-opacity="0.5" stroke-width="2.49144"/>
<circle cx="1129.2" cy="813.731" r="231.821" fill="#FDEBAB"/>
<circle cx="1140.57" cy="813.73" r="150.002" fill="#FFDF92"/>
<ellipse cx="1163.29" cy="813.732" rx="102.274" ry="100.001" fill="#FFD56C"/>
<circle cx="1170.11" cy="813.731" r="77.2737" fill="#FFC22F"/>
<path d="M232.535 814.61L230.042 818.393L243.681 953.845H165.882L181.039 818.124L178.451 814.61H232.535Z" fill="#DFDFDF"/>
<path d="M177.808 846.899H232.849L231.562 834.057H179.133L177.808 846.899Z" fill="#C9272C"/>
<path d="M225.946 805.308L225.655 787.332H183.909V804.596L225.946 805.308Z" fill="#DFDFDF"/>
<path d="M173.221 887.263H236.902L235.6 874.42H175.056L173.221 887.263Z" fill="#434343"/>
<path d="M169.041 925.791H240.918L239.629 912.948H170.469L169.041 925.791Z" fill="#C9272C"/>
<path d="M232.535 814.61L232.928 808.62L236.295 805.465V803.179H173.24V805.493L176.848 808.009L178.451 814.61H232.535Z" fill="#C9272C"/>
<path d="M207.292 799.513H202.215V794.946C202.215 794.946 204.496 791.141 207.292 794.946V799.513Z" fill="white"/>
<path d="M228.154 797.355H235.736V804.203H228.154V797.355Z" stroke="#434343" stroke-width="3.66938" stroke-miterlimit="10"/>
<path d="M220.309 797.355H227.89V804.203H220.309V797.355Z" stroke="#434343" stroke-width="3.66938" stroke-miterlimit="10"/>
<path d="M212.464 797.355H220.045V804.203H212.464V797.355Z" stroke="#434343" stroke-width="3.66938" stroke-miterlimit="10"/>
<path d="M204.619 797.355H212.2V804.203H204.619V797.355Z" stroke="#434343" stroke-width="3.66938" stroke-miterlimit="10"/>
<path d="M197.335 797.355H204.917V804.203H197.335V797.355Z" stroke="#434343" stroke-width="3.66938" stroke-miterlimit="10"/>
<path d="M189.49 797.355H197.071V804.203H189.49V797.355Z" stroke="#434343" stroke-width="3.66938" stroke-miterlimit="10"/>
<path d="M181.645 797.355H189.227V804.203H181.645V797.355Z" stroke="#434343" stroke-width="3.66938" stroke-miterlimit="10"/>
<path d="M173.799 797.355H181.381V804.203H173.799V797.355Z" stroke="#434343" stroke-width="3.66938" stroke-miterlimit="10"/>
<path d="M226.209 787.281L228.159 786.721C228.719 786.491 229.358 785.6 228.927 785.202L208.418 765.719C208.275 765.586 208.184 765.406 208.162 765.212C208.139 765.018 208.186 764.822 208.295 764.66C208.76 763.999 209.174 762.878 207.247 762.34C204.406 761.544 205.93 757 205.353 757C204.776 757 205.538 760.637 204.406 761.544C203.274 762.452 200.892 762.738 202.321 764.744C202.436 764.907 202.487 765.106 202.466 765.304C202.444 765.502 202.351 765.686 202.204 765.82L181.717 784.872C181.622 784.961 181.549 785.072 181.504 785.194C181.46 785.317 181.444 785.448 181.459 785.578C181.475 785.708 181.52 785.832 181.592 785.941C181.664 786.05 181.761 786.14 181.874 786.205L183.718 787.248C183.843 787.317 183.984 787.353 184.127 787.354H225.654C225.842 787.377 226.033 787.352 226.209 787.281Z" fill="#C9272C"/>
<path d="M354.37 983.438C218.202 920.77 136.869 923.138 -18.459 1008.72V1637.94H932.981V1548.05C796.012 1513.36 744.146 1491.86 712.673 1458.16C640.496 1368.37 584.856 1277.61 540.629 1188.49C477.839 1061.97 403.825 1006.2 354.37 983.438Z" fill="#079ACD"/>
<path d="M128.661 954.5L128.393 954.02C77.4774 967.344 46.1608 980.098 -14.6328 1010.11V1408.34L128.393 1324.2C86.0323 1271.71 91.4944 1230.16 128.393 1144.72C182.553 1051.04 163.14 1016.27 128.661 954.5Z" fill="#008DBA"/>
<path d="M1113.07 1279.53C1260.56 1334.02 1340.69 1212.29 1525.47 1202.16V1443H-17.5293V1189.68C131.161 1150.99 215.323 1133.42 349.985 1174.7C471.05 1211.82 535.336 1233.09 683.834 1202.16C852.162 1167.09 965.582 1225.03 1113.07 1279.53Z" fill="#68C3FC"/>
<path d="M406.095 1339.44C258.608 1394.15 167.256 1409.76 -17.5288 1399.58V1585H1525.47V1291.83C1376.78 1252.99 1292.62 1235.35 1157.96 1276.8C1036.89 1314.06 964.19 1322.89 815.691 1291.83C647.364 1256.63 563.2 1281.16 406.095 1339.44Z" fill="#92D3F9"/>
<path d="M810.21 1337.11C639.155 1300.2 534.104 1344.69 448.471 1427.08V1661.99L1522.47 1662V1349.61C1474.55 1370.45 1444.67 1369.6 1390.67 1349.61C1300.25 1316.13 1213.56 1333.86 1132.69 1374.59C1068.19 1407.08 971.584 1377.18 810.21 1337.11Z" fill="#68C3FC"/>
<path d="M399.602 1420.61C98.8775 1398.43 52.7917 1437.53 -23.5288 1562.48V1735H52.2062L773.091 1750L1098.47 1582.48C982.126 1494.44 888.26 1459.35 749.426 1415.98C722.686 1407.62 694.027 1411.98 667.391 1420.67C594.284 1444.49 513.137 1428.99 399.602 1420.61Z" fill="#B7E4FA"/>
<path d="M939.8 1573.86C750.997 1534.67 674.181 1545.83 589.471 1626.4L838.905 1769H1116.37L1228.47 1581.37C1215.96 1567.81 1203.25 1556 1180.83 1561.35C1095.43 1581.72 1043.5 1595.38 939.8 1573.86Z" fill="#D1F1FF"/>
<path d="M770.515 1669.6C375.013 1533.27 203.217 1536.46 -23.5288 1669.6V1922H1522.47V1594.63C1377.22 1486.19 1304.02 1486.44 1191.39 1617.12C1115.63 1705.01 976.737 1721.01 770.515 1669.6Z" fill="#ECF4F8"/>
</g>
<defs>
<clipPath id="clip0">
<rect width="1497.94" height="2183" fill="white"/>
</clipPath>
</defs>
</svg>
