<svg width="1265" height="1169" viewBox="0 0 1265 1169" fill="none" xmlns="http://www.w3.org/2000/svg">
<path d="M453.783 366.162C437.243 306.98 443.823 243.723 472.19 189.213C500.556 134.702 548.587 93.0154 606.546 72.6016L621.436 119.758C576.041 136.279 538.498 169.232 516.23 212.101C493.962 254.969 488.59 304.634 501.176 351.273L453.783 366.162Z" fill="#407BFF"/>
<path d="M574.596 515.135C555.98 505.522 538.716 493.49 523.253 479.353C493.916 452.459 471.657 418.751 458.443 381.21L505.599 366.32C516.622 396.863 535.188 424.122 559.571 445.564C583.955 467.006 613.364 481.935 645.065 488.962C676.766 495.988 709.729 494.885 740.889 485.755C772.05 476.624 800.395 459.763 823.291 436.738L859.744 470.151C823.283 507.173 775.908 531.522 724.581 539.619C673.254 547.716 620.683 539.134 574.596 515.135Z" fill="#407BFF"/>
<path opacity="0.7" d="M574.596 515.135C555.98 505.522 538.716 493.49 523.253 479.353C493.916 452.459 471.657 418.751 458.443 381.21L505.599 366.32C516.622 396.863 535.188 424.122 559.571 445.564C583.955 467.006 613.364 481.935 645.065 488.962C676.766 495.988 709.729 494.885 740.889 485.755C772.05 476.624 800.395 459.763 823.291 436.738L859.744 470.151C823.283 507.173 775.908 531.522 724.581 539.619C673.254 547.716 620.683 539.134 574.596 515.135Z" fill="white"/>
<path d="M834.151 425.088C860.613 393.721 876.363 354.722 879.104 313.777C881.845 272.831 871.435 232.081 849.391 197.467C827.347 162.853 794.822 136.187 756.558 121.355C718.295 106.524 676.294 104.304 636.68 115.019L621.791 67.6255C682.309 50.6765 747.046 57.9212 802.321 87.8284C857.596 117.736 899.077 167.962 917.998 227.893C930.299 267.148 932.426 308.886 924.177 349.188C915.929 389.49 897.576 427.036 870.842 458.302L834.151 425.088Z" fill="#407BFF"/>
<path opacity="0.3" d="M834.151 425.088C860.613 393.721 876.363 354.722 879.104 313.777C881.845 272.831 871.435 232.081 849.391 197.467C827.347 162.853 794.822 136.187 756.558 121.355C718.295 106.524 676.294 104.304 636.68 115.019L621.791 67.6255C682.309 50.6765 747.046 57.9212 802.321 87.8284C857.596 117.736 899.077 167.962 917.998 227.893C930.299 267.148 932.426 308.886 924.177 349.188C915.929 389.49 897.576 427.036 870.842 458.302L834.151 425.088Z" fill="black"/>
<path d="M732.02 242.466C726.439 236.883 719.813 232.453 712.521 229.431C705.228 226.408 697.412 224.851 689.518 224.85C681.624 224.848 673.807 226.401 666.513 229.42C659.219 232.439 652.592 236.866 647.008 242.446C641.425 248.027 636.996 254.652 633.973 261.945C630.951 269.237 629.394 277.054 629.392 284.948C629.39 292.842 630.943 300.659 633.963 307.953C636.982 315.246 641.408 321.874 646.989 327.457L689.484 369.953L732.02 327.457C743.287 316.185 749.617 300.9 749.617 284.962C749.617 269.024 743.287 253.738 732.02 242.466Z" fill="#407BFF"/>
<path opacity="0.3" d="M732.02 242.466C726.439 236.883 719.813 232.453 712.521 229.431C705.228 226.408 697.412 224.851 689.518 224.85C681.624 224.848 673.807 226.401 666.513 229.42C659.219 232.439 652.592 236.866 647.008 242.446C641.425 248.027 636.996 254.652 633.973 261.945C630.951 269.237 629.394 277.054 629.392 284.948C629.39 292.842 630.943 300.659 633.963 307.953C636.982 315.246 641.408 321.874 646.989 327.457L689.484 369.953L732.02 327.457C743.287 316.185 749.617 300.9 749.617 284.962C749.617 269.024 743.287 253.738 732.02 242.466Z" fill="black"/>
<path d="M691.894 382.552H687.154V401.509H691.894V382.552Z" fill="#407BFF"/>
<path opacity="0.3" d="M691.894 382.552H687.154V401.509H691.894V382.552Z" fill="black"/>
<path d="M691.894 416.162H687.154V435.119H691.894V416.162Z" fill="#407BFF"/>
<path opacity="0.3" d="M691.894 416.162H687.154V435.119H691.894V416.162Z" fill="black"/>
<path d="M525.465 569.558H364.605V1152.02H525.465V569.558Z" fill="#407BFF"/>
<path opacity="0.7" d="M525.465 569.558H364.605V1152.02H525.465V569.558Z" fill="white"/>
<path d="M602.676 569.558H525.465V1152.02H602.676V569.558Z" fill="#407BFF"/>
<path opacity="0.5" d="M602.676 569.558H525.465V1152.02H602.676V569.558Z" fill="white"/>
<path d="M822.896 783.932H818.789V874.61H822.896V783.932Z" fill="#263238"/>
<path d="M822.896 730.615H818.789V767.068H822.896V730.615Z" fill="#263238"/>
<path d="M937.152 930.851H776.292V1152.02H937.152V930.851Z" fill="#407BFF"/>
<path opacity="0.5" d="M937.152 930.851H776.292V1152.02H937.152V930.851Z" fill="black"/>
<path d="M1014.36 930.851H937.152V1152.02H1014.36V930.851Z" fill="#407BFF"/>
<path opacity="0.6" d="M1014.36 930.851H937.152V1152.02H1014.36V930.851Z" fill="black"/>
<path d="M731.309 446.414H570.449V1152.02H731.309V446.414Z" fill="#407BFF"/>
<path opacity="0.7" d="M731.309 446.414H570.449V1152.02H731.309V446.414Z" fill="black"/>
<path d="M808.52 446.414H731.309V1152.02H808.52V446.414Z" fill="#407BFF"/>
<path opacity="0.8" d="M808.52 446.414H731.309V1152.02H808.52V446.414Z" fill="black"/>
<path d="M1047.1 283.659C1041.58 327.34 1034.62 371.139 1028.42 414.464C1027.65 420.793 1026.51 427.071 1024.99 433.263C1023.21 439.606 1020.94 445.799 1018.19 451.786C1012.96 463.048 1006.41 473.653 998.685 483.381C991.327 492.73 983.217 501.461 974.435 509.487C970.17 513.437 965.628 517.386 961.047 520.822C956.465 524.258 951.924 527.812 946.671 531.248L932.65 513.752C935.928 510.119 939.641 505.854 942.998 501.904C946.355 497.955 949.672 493.689 952.911 489.503C959.242 481.318 965.033 472.73 970.249 463.792C975.273 455.409 979.416 446.528 982.611 437.292C984.08 433.018 985.202 428.633 985.968 424.18C986.659 419.506 987.107 414.8 987.31 410.08C988.772 387.647 990.983 365.452 993.432 343.295C995.881 321.139 998.803 299.259 1002.28 277.222L1047.1 283.659Z" fill="#E58A7B"/>
<path d="M1056.94 268.652C1067.01 295.389 1016.02 374.101 1016.02 374.101L956.268 341.676C965.258 317.181 976.871 293.73 990.904 271.732C1011.91 240.216 1045.92 239.307 1056.94 268.652Z" fill="#407BFF"/>
<path opacity="0.2" d="M1056.94 268.652C1067.01 295.389 1016.02 374.101 1016.02 374.101L956.268 341.676C965.258 317.181 976.871 293.73 990.904 271.732C1011.91 240.216 1045.92 239.307 1056.94 268.652Z" fill="black"/>
<path d="M1021.47 248.194C1021.47 248.194 986.204 338.439 1019.7 506.447H1179.53C1180.63 481.921 1165.19 362.254 1188.85 246.694C1171.19 243.269 1153.33 241 1135.37 239.901C1112.75 238.596 1090.07 238.596 1067.44 239.901C1051.93 241.464 1036.56 244.237 1021.47 248.194Z" fill="#407BFF"/>
<path opacity="0.2" d="M1021.47 248.194C1021.47 248.194 986.204 338.439 1019.7 506.447H1179.53C1180.63 481.921 1165.19 362.254 1188.85 246.694C1171.19 243.269 1153.33 241 1135.37 239.901C1112.75 238.596 1090.07 238.596 1067.44 239.901C1051.93 241.464 1036.56 244.237 1021.47 248.194Z" fill="black"/>
<path d="M1042.68 1137.88H1012.82L1004.85 1068.69H1034.74L1042.68 1137.88Z" fill="#E58A7B"/>
<path d="M1252.95 1137.88H1223.09L1199.79 1068.69H1229.69L1252.95 1137.88Z" fill="#E58A7B"/>
<path d="M1219.1 1134.25H1255.52C1256.11 1134.24 1256.69 1134.45 1257.15 1134.82C1257.61 1135.2 1257.92 1135.72 1258.04 1136.3L1263.97 1162.88C1264.1 1163.53 1264.08 1164.19 1263.92 1164.83C1263.76 1165.47 1263.46 1166.06 1263.04 1166.57C1262.62 1167.08 1262.09 1167.48 1261.49 1167.76C1260.89 1168.04 1260.24 1168.18 1259.58 1168.17C1247.73 1167.97 1239.32 1167.3 1224.55 1167.3C1215.47 1167.3 1196.91 1168.25 1184.23 1168.25C1171.55 1168.25 1170.05 1155.85 1175.18 1154.7C1198.21 1149.69 1206.78 1142.86 1214.24 1136.1C1215.58 1134.9 1217.31 1134.24 1219.1 1134.25Z" fill="#263238"/>
<path d="M1013.02 1134.25H1045.64C1046.24 1134.25 1046.82 1134.45 1047.28 1134.83C1047.75 1135.2 1048.08 1135.72 1048.21 1136.3L1054.09 1162.88C1054.24 1163.52 1054.23 1164.19 1054.08 1164.82C1053.93 1165.46 1053.64 1166.06 1053.23 1166.57C1052.81 1167.08 1052.29 1167.49 1051.69 1167.76C1051.1 1168.04 1050.45 1168.18 1049.79 1168.17C1037.94 1167.97 1021 1167.3 1006.35 1167.3C989.048 1167.3 974.119 1168.25 953.819 1168.25C941.536 1168.25 938.022 1155.85 943.274 1154.7C966.655 1149.61 985.731 1149.06 1005.95 1136.58C1008.05 1135.17 1010.5 1134.36 1013.02 1134.25Z" fill="#263238"/>
<path d="M943.511 502.339L918.472 523.271L951.37 542.583C956.22 538.839 959.744 533.641 961.428 527.75C963.112 521.86 962.868 515.585 960.73 509.843L943.511 502.339Z" fill="#E58A7B"/>
<path d="M1004.88 1068.73L1008.95 1104.39H1038.85L1034.74 1068.73H1004.88Z" fill="#CF6F64"/>
<path d="M1229.69 1068.73H1199.79L1211.8 1104.39H1241.69L1229.69 1068.73Z" fill="#CF6F64"/>
<path opacity="0.2" d="M1156.31 301.906C1161.52 275.524 1171.67 280.105 1181.31 293.099C1177.19 328.067 1175.29 363.261 1175.62 398.469C1169.06 387.292 1147.58 346.1 1156.31 301.906Z" fill="black"/>
<path d="M1128.62 163.439C1124.36 185.28 1120.09 225.327 1135.37 239.9C1135.37 239.9 1129.41 262.096 1088.77 262.096C1044.1 262.096 1067.44 239.94 1067.44 239.94C1091.81 234.095 1091.14 216.006 1086.91 199.024L1128.62 163.439Z" fill="#E58A7B"/>
<path d="M1111.64 177.973L1086.95 199.023C1088.01 202.968 1088.71 206.999 1089.05 211.069C1098.37 209.726 1111.16 199.497 1112.15 189.742C1112.69 185.82 1112.51 181.833 1111.64 177.973Z" fill="#CF6F64"/>
<path d="M1059.15 96.1807C1044.46 102.421 1036.48 143.574 1055.2 153.092C1073.92 162.61 1086.99 84.4114 1059.15 96.1807Z" fill="#263238"/>
<path d="M1131.23 130.541C1129.41 160.122 1129.84 177.539 1114.92 192.744C1092.44 215.572 1055.87 202.025 1048.84 172.484C1042.48 145.904 1046.51 101.947 1075.5 90.1778C1081.88 87.5537 1088.82 86.603 1095.66 87.416C1102.51 88.2289 1109.03 90.7786 1114.62 94.8228C1120.2 98.867 1124.66 104.271 1127.56 110.523C1130.47 116.774 1131.73 123.665 1131.23 130.541Z" fill="#E58A7B"/>
<path d="M1039.96 77.6187C1057.85 50.4862 1060.65 63.5587 1060.37 76.4733C1076.17 61.5445 1105.36 42.5083 1119.62 59.8858C1121.3 61.6787 1122.4 63.946 1122.76 66.3822C1123.12 68.8185 1122.73 71.3066 1121.63 73.5113C1139.99 68.614 1158.52 67.2317 1155.16 87.0578C1152.2 104.593 1139.68 111.031 1122.14 111.149C1090.71 115.494 1014.6 115.928 1039.96 77.6187Z" fill="#263238"/>
<path d="M1129.13 159.53C1113.34 165.968 1081.54 107.951 1129.37 101.118C1177.2 94.2858 1154.45 149.143 1129.13 159.53Z" fill="#263238"/>
<path d="M1144.62 163.163C1140.62 169.456 1134.3 173.925 1127.04 175.604C1117.4 177.736 1113.1 168.969 1116.26 160.122C1119.1 152.223 1127.51 141.52 1136.99 143.337C1139.06 143.778 1140.98 144.726 1142.58 146.097C1144.18 147.467 1145.42 149.216 1146.18 151.185C1146.93 153.154 1147.19 155.28 1146.91 157.372C1146.64 159.463 1145.85 161.454 1144.62 163.163Z" fill="#E58A7B"/>
<path d="M1160.22 110.082C1158.02 107.636 1155.25 105.777 1152.15 104.674C1149.05 103.57 1145.73 103.257 1142.48 103.763C1142.48 103.763 1157.92 91.5989 1160.22 110.082Z" fill="#263238"/>
<path d="M1019.7 506.289C1019.7 506.289 935.612 719.953 938.693 811.105C942.05 905.891 997.934 1097.48 997.934 1097.48H1048.57C1048.57 1097.48 1027.83 911.381 1030.08 818.333C1032.53 716.833 1124.87 506.329 1124.87 506.329L1019.7 506.289Z" fill="#407BFF"/>
<path opacity="0.2" d="M1086.83 577.022L1091.69 588.041C1073.97 633.704 1058.57 680.235 1045.56 727.456C1044.18 673.586 1055.32 614.187 1086.83 577.022Z" fill="black"/>
<path d="M1076.41 506.289C1076.41 506.289 1059.39 724.771 1077.99 810.394C1098.37 904.075 1197.74 1097.4 1197.74 1097.4H1252.47C1252.47 1097.4 1179.25 911.776 1167.6 818.886C1155 718.215 1179.45 506.368 1179.45 506.368L1076.41 506.289Z" fill="#407BFF"/>
<path d="M1086.36 138.993C1086.36 141.402 1085.06 143.377 1083.48 143.377C1081.9 143.377 1080.63 141.402 1080.63 138.993C1080.63 136.584 1081.9 134.648 1083.48 134.648C1085.06 134.648 1086.36 136.386 1086.36 138.993Z" fill="#263238"/>
<path d="M1059.11 138.993C1059.11 141.402 1057.81 143.377 1056.27 143.377C1054.73 143.377 1053.38 141.402 1053.38 138.993C1053.38 136.584 1054.69 134.648 1056.27 134.648C1057.85 134.648 1059.11 136.386 1059.11 138.993Z" fill="#263238"/>
<path d="M1067.76 140.02C1064.89 147.371 1061.02 154.294 1056.27 160.596C1057.91 161.776 1059.79 162.582 1061.77 162.958C1063.76 163.333 1065.8 163.268 1067.76 162.768V140.02Z" fill="#DF5753"/>
<path d="M1074.79 169.443C1074.6 169.443 1074.42 169.368 1074.29 169.235C1074.15 169.101 1074.08 168.921 1074.08 168.732C1074.08 168.543 1074.15 168.363 1074.29 168.229C1074.42 168.096 1074.6 168.021 1074.79 168.021C1077.79 168.088 1080.76 167.446 1083.46 166.149C1086.17 164.852 1088.53 162.936 1090.35 160.557C1090.4 160.479 1090.47 160.412 1090.55 160.36C1090.62 160.308 1090.71 160.271 1090.8 160.253C1090.9 160.235 1090.99 160.235 1091.08 160.253C1091.17 160.271 1091.26 160.307 1091.34 160.359C1091.48 160.463 1091.59 160.619 1091.62 160.794C1091.66 160.97 1091.63 161.153 1091.54 161.307C1089.61 163.915 1087.08 166.018 1084.16 167.435C1081.25 168.852 1078.03 169.541 1074.79 169.443Z" fill="#263238"/>
<path d="M1094.54 130.028C1094.32 130.022 1094.11 129.969 1093.92 129.874C1093.73 129.778 1093.56 129.642 1093.43 129.475C1092.4 128.022 1091.04 126.836 1089.46 126.012C1087.88 125.188 1086.13 124.75 1084.35 124.735C1084.16 124.752 1083.97 124.729 1083.79 124.67C1083.61 124.61 1083.45 124.514 1083.31 124.388C1083.17 124.263 1083.05 124.109 1082.97 123.938C1082.9 123.767 1082.85 123.581 1082.85 123.393C1082.83 123.022 1082.95 122.657 1083.19 122.377C1083.44 122.096 1083.78 121.922 1084.15 121.892C1086.4 121.879 1088.62 122.402 1090.62 123.419C1092.63 124.436 1094.36 125.916 1095.68 127.737C1095.91 128.043 1096 128.424 1095.95 128.8C1095.9 129.176 1095.7 129.517 1095.41 129.751C1095.15 129.919 1094.85 130.014 1094.54 130.028Z" fill="#263238"/>
<path d="M1047.18 129.435C1046.97 129.473 1046.76 129.473 1046.55 129.435C1046.38 129.356 1046.23 129.242 1046.11 129.103C1045.98 128.963 1045.89 128.8 1045.83 128.623C1045.77 128.445 1045.75 128.258 1045.76 128.072C1045.78 127.886 1045.83 127.705 1045.92 127.54C1046.85 125.505 1048.26 123.725 1050.03 122.35C1051.8 120.975 1053.87 120.046 1056.07 119.641C1056.42 119.635 1056.76 119.759 1057.02 119.988C1057.29 120.217 1057.46 120.536 1057.5 120.884C1057.55 121.231 1057.46 121.582 1057.26 121.871C1057.06 122.159 1056.76 122.363 1056.42 122.445C1054.7 122.82 1053.09 123.594 1051.71 124.705C1050.34 125.816 1049.25 127.233 1048.53 128.843C1048.38 129.058 1048.18 129.227 1047.94 129.332C1047.7 129.437 1047.44 129.473 1047.18 129.435Z" fill="#263238"/>
<path d="M1200.22 269.916C1202.79 275.445 1204.96 280.382 1207.02 285.714C1209.07 291.045 1210.97 296.101 1213.06 301.511C1217.01 312.017 1220.29 322.68 1223.29 333.541C1226.29 344.402 1228.78 355.5 1230.83 366.795L1232.25 375.287L1233.28 383.975C1233.67 386.858 1233.83 389.82 1234.07 392.782L1234.35 397.206V398.312V400.168C1234.35 401.55 1234.35 402.814 1234.35 404.117C1233.56 411.895 1231.31 419.454 1227.71 426.392C1224.9 431.971 1221.72 437.355 1218.19 442.506C1211.65 451.925 1204.49 460.897 1196.75 469.362C1181.86 485.755 1165.71 500.954 1148.45 514.82L1132.65 499.022C1145.56 482.513 1158.44 465.452 1170.17 448.509C1175.88 440.26 1181.15 431.718 1185.97 422.917C1188.17 418.966 1190.08 414.861 1191.69 410.634C1192.86 407.934 1193.53 405.043 1193.67 402.103C1193.67 402.103 1193.67 402.34 1193.67 402.103V401.195L1193.11 397.64C1192.76 395.231 1192.44 392.861 1191.89 390.452L1190.47 383.225L1188.77 375.958C1186.36 366.242 1183.64 356.487 1180.48 346.772C1177.32 337.056 1173.96 327.38 1170.37 317.704C1166.77 308.028 1162.82 298.273 1159.15 289.347L1200.22 269.916Z" fill="#E58A7B"/>
<path d="M1209.19 1139.66C1207.16 1139.81 1205.14 1139.27 1203.46 1138.12C1202.9 1137.64 1202.47 1137.03 1202.21 1136.34C1201.95 1135.64 1201.88 1134.9 1202 1134.17C1202 1133.76 1202.11 1133.36 1202.32 1133.01C1202.52 1132.67 1202.83 1132.38 1203.18 1132.19C1206.54 1130.5 1216.14 1136.42 1217.24 1137.09C1217.36 1137.17 1217.45 1137.27 1217.51 1137.4C1217.56 1137.53 1217.58 1137.67 1217.56 1137.8C1217.54 1137.94 1217.47 1138.07 1217.37 1138.18C1217.27 1138.28 1217.15 1138.36 1217.01 1138.39C1214.45 1139.1 1211.83 1139.52 1209.19 1139.66ZM1204.76 1133.46C1204.45 1133.43 1204.13 1133.5 1203.86 1133.65C1203.66 1133.65 1203.42 1133.93 1203.38 1134.48C1203.33 1134.96 1203.4 1135.44 1203.57 1135.89C1203.74 1136.33 1204.01 1136.73 1204.37 1137.05C1207.71 1138.55 1211.49 1138.74 1214.95 1137.56C1211.85 1135.55 1208.39 1134.16 1204.76 1133.46Z" fill="#407BFF"/>
<path d="M1216.85 1138.59H1216.53C1213.41 1136.89 1207.45 1130.38 1208.08 1127.02C1208.19 1126.5 1208.47 1126.03 1208.88 1125.7C1209.29 1125.36 1209.8 1125.17 1210.33 1125.16C1210.87 1125.1 1211.41 1125.15 1211.93 1125.31C1212.44 1125.46 1212.92 1125.72 1213.34 1126.07C1216.81 1128.92 1217.52 1137.53 1217.56 1137.92C1217.56 1138.04 1217.54 1138.17 1217.48 1138.28C1217.43 1138.39 1217.35 1138.48 1217.25 1138.55C1217.12 1138.6 1216.98 1138.62 1216.85 1138.59ZM1210.85 1126.35H1210.49C1209.58 1126.35 1209.5 1126.86 1209.46 1127.06C1209.11 1129.03 1212.9 1133.97 1215.98 1136.3C1215.77 1132.9 1214.54 1129.64 1212.47 1126.94C1212.01 1126.56 1211.44 1126.35 1210.85 1126.35Z" fill="#407BFF"/>
<path d="M1000.58 1139.66C998.029 1139.88 995.478 1139.23 993.353 1137.8C992.866 1137.38 992.489 1136.85 992.255 1136.25C992.021 1135.65 991.937 1135 992.01 1134.36C992.032 1133.98 992.148 1133.6 992.347 1133.27C992.547 1132.94 992.824 1132.67 993.155 1132.47C996.828 1130.45 1008.95 1136.42 1010.18 1137.25C1010.31 1137.31 1010.43 1137.42 1010.5 1137.55C1010.57 1137.69 1010.59 1137.84 1010.57 1137.99C1010.55 1138.14 1010.48 1138.28 1010.37 1138.39C1010.27 1138.5 1010.13 1138.57 1009.98 1138.59C1006.88 1139.22 1003.74 1139.58 1000.58 1139.66ZM995.169 1133.46C994.718 1133.43 994.267 1133.52 993.866 1133.73C993.725 1133.8 993.607 1133.9 993.529 1134.04C993.452 1134.17 993.417 1134.33 993.432 1134.48C993.373 1134.9 993.417 1135.32 993.562 1135.71C993.707 1136.11 993.947 1136.46 994.261 1136.73C996.117 1138.39 1001.05 1138.67 1007.61 1137.56C1003.73 1135.49 999.52 1134.11 995.169 1133.46Z" fill="#407BFF"/>
<path d="M1009.86 1138.59C1009.76 1138.63 1009.65 1138.63 1009.54 1138.59C1005.95 1136.97 998.803 1130.69 999.356 1127.14C999.356 1126.35 1000.03 1125.36 1002 1125.16C1002.71 1125.09 1003.42 1125.16 1004.1 1125.37C1004.78 1125.58 1005.41 1125.93 1005.95 1126.39C1009.9 1129.51 1010.57 1137.56 1010.57 1137.88C1010.59 1138.01 1010.57 1138.14 1010.53 1138.25C1010.48 1138.37 1010.4 1138.47 1010.3 1138.55C1010.16 1138.61 1010.01 1138.62 1009.86 1138.59ZM1002.75 1126.35H1002.32C1001.05 1126.35 1000.97 1126.98 1000.94 1127.14C1000.62 1129.15 1005.48 1134.25 1009.15 1136.46C1008.82 1133.06 1007.44 1129.84 1005.2 1127.26C1004.52 1126.66 1003.65 1126.34 1002.75 1126.35Z" fill="#407BFF"/>
<path d="M1139.56 494.638L1110.26 502.537L1134.54 531.999C1134.54 531.999 1158.04 519.795 1152.99 506.644L1139.56 494.638Z" fill="#E58A7B"/>
<path d="M1095.09 522.244L1116.3 545.625L1134.54 531.881L1110.26 502.418L1095.09 522.244Z" fill="#E58A7B"/>
<path d="M1188.06 1098.66H1259.62V1079.39L1179.65 1078.16L1188.06 1098.66Z" fill="#407BFF"/>
<path opacity="0.4" d="M1188.06 1098.66H1259.62V1079.39L1179.65 1078.16L1188.06 1098.66Z" fill="black"/>
<path d="M986.442 1098.66H1058.01V1079.19L978.029 1078.16L986.442 1098.66Z" fill="#407BFF"/>
<path opacity="0.4" d="M986.442 1098.66H1058.01V1079.19L978.029 1078.16L986.442 1098.66Z" fill="black"/>
<path d="M1195.09 248.629C1221.75 258.898 1248.41 353.447 1248.41 353.447L1177.32 381.409C1177.32 381.409 1156.11 332.515 1148.88 296.18C1141.46 258.068 1164.88 237.018 1195.09 248.629Z" fill="#407BFF"/>
<path opacity="0.2" d="M1195.09 248.629C1221.75 258.898 1248.41 353.447 1248.41 353.447L1177.32 381.409C1177.32 381.409 1156.11 332.515 1148.88 296.18C1141.46 258.068 1164.88 237.018 1195.09 248.629Z" fill="black"/>
<path d="M906.9 398.667C899.328 425.068 900.087 453.162 909.072 479.117C917.292 503.272 932.291 524.551 952.279 540.412C978.904 561.491 1012.54 571.673 1046.39 568.896C1080.23 566.12 1111.76 550.593 1134.59 525.456C1157.43 500.319 1169.86 467.448 1169.39 433.492C1168.91 399.536 1155.55 367.029 1132.02 342.546C1115.85 325.712 1095.52 313.449 1073.09 307.001C1052.35 301.001 1030.47 300.083 1009.29 304.325C988.121 308.566 968.281 317.842 951.45 331.369C948.385 333.84 945.458 336.477 942.682 339.268C925.732 355.571 913.388 376.062 906.9 398.667Z" fill="#407BFF"/>
<path opacity="0.6" d="M906.9 398.667C899.328 425.068 900.087 453.162 909.072 479.117C917.292 503.272 932.291 524.551 952.279 540.412C978.904 561.491 1012.54 571.673 1046.39 568.896C1080.23 566.12 1111.76 550.593 1134.59 525.456C1157.43 500.319 1169.86 467.448 1169.39 433.492C1168.91 399.536 1155.55 367.029 1132.02 342.546C1115.85 325.712 1095.52 313.449 1073.09 307.001C1052.35 301.001 1030.47 300.083 1009.29 304.325C988.121 308.566 968.281 317.842 951.45 331.369C948.385 333.84 945.458 336.477 942.682 339.268C925.732 355.571 913.388 376.062 906.9 398.667Z" fill="black"/>
<path d="M1115.19 337.293L1018.83 430.302L981.899 559.053C1010.24 567.19 1040.47 565.747 1067.91 554.947C1095.35 544.147 1118.45 524.595 1133.64 499.323C1148.83 474.051 1155.26 444.472 1151.92 415.176C1148.59 385.879 1135.68 358.503 1115.19 337.293Z" fill="#407BFF"/>
<path opacity="0.9" d="M1115.19 337.293L1018.83 430.302L981.899 559.053C1010.24 567.19 1040.47 565.747 1067.91 554.947C1095.35 544.147 1118.45 524.595 1133.64 499.323C1148.83 474.051 1155.26 444.472 1151.92 415.176C1148.59 385.879 1135.68 358.503 1115.19 337.293Z" fill="white"/>
<g opacity="0.7">
<path opacity="0.7" d="M1018.83 430.301L1115.19 337.253C1098.86 320.332 1078.36 308.01 1055.75 301.526C1033.15 295.042 1009.23 294.626 986.414 300.319C963.596 306.011 942.679 317.612 925.768 333.954C908.856 350.296 896.546 370.804 890.075 393.414L1018.83 430.301Z" fill="#407BFF"/>
<path opacity="0.44" d="M1018.83 430.301L1115.19 337.253C1098.86 320.332 1078.36 308.01 1055.75 301.526C1033.15 295.042 1009.23 294.626 986.414 300.319C963.596 306.011 942.679 317.612 925.768 333.954C908.856 350.296 896.546 370.804 890.075 393.414L1018.83 430.301Z" fill="white"/>
</g>
<path d="M916.418 541.044L945.446 550.206L951.252 542.702L918.353 523.39L916.418 541.044Z" fill="#E58A7B"/>
<path d="M1018.83 430.302L890.115 393.414C880.339 427.556 884.52 464.181 901.739 495.241C918.957 526.301 947.804 549.253 981.939 559.053L1018.83 430.302Z" fill="#407BFF"/>
<path opacity="0.6" d="M1018.83 430.302L890.115 393.414C880.339 427.556 884.52 464.181 901.739 495.241C918.957 526.301 947.804 549.253 981.939 559.053L1018.83 430.302Z" fill="black"/>
<path d="M280.956 249.023C274.044 256.093 266.62 263.913 259.787 271.732C252.955 279.552 246.082 287.53 239.645 295.705C233.207 303.881 227.125 312.293 221.28 320.784L217.015 327.222L213.065 333.738C211.723 335.91 210.459 338.122 209.116 340.334L205.838 346.376C204.505 349.824 203.745 353.466 203.587 357.158C203.271 361.919 203.271 366.695 203.587 371.455C204.325 381.698 205.644 391.891 207.536 401.984C209.313 412.332 211.486 422.719 214.053 433.027C216.62 443.335 219.147 453.84 221.952 464.03L206.746 469.717C197.535 449.597 189.838 428.818 183.721 407.553C180.569 396.63 178.154 385.507 176.494 374.259C175.662 368.252 175.24 362.196 175.23 356.132C175.121 348.982 176.326 341.874 178.784 335.16C179.732 332.869 180.246 331.922 180.878 330.579L182.734 326.629C183.958 324.023 185.261 321.456 186.683 318.968L190.633 311.424L194.977 304.078C200.783 294.417 207.098 285.07 213.895 276.077C220.609 267.112 227.56 258.344 234.906 249.932C242.252 241.519 249.716 233.463 258.207 225.366L280.956 249.023Z" fill="#E58A7B"/>
<path d="M217.765 457.592L244.779 465.491L226.809 483.737C226.809 483.737 207.339 477.734 204.614 464.464L217.765 457.592Z" fill="#E58A7B"/>
<path d="M261.17 486.422L256.588 503.839L226.81 483.855L244.779 465.648L261.17 486.422Z" fill="#E58A7B"/>
<path d="M19.3462 976.072L41.4629 999.808L101.494 956.838L79.3379 933.103L19.3462 976.072Z" fill="#E58A7B"/>
<path d="M312.828 1063.04L307.536 1103.87L275.901 1098.58L280.798 1060.67L312.828 1063.04Z" fill="#CF6F64"/>
<path d="M79.3378 933.103L101.455 956.878L76.6127 974.65L53.7061 951.428L79.3378 933.103Z" fill="#CF6F64"/>
<path d="M368.238 412.964C368.238 412.964 305.68 622.481 275.111 743.254C242.884 870.544 88.9749 974.335 88.9749 974.335L56.1157 941.673C56.1157 941.673 158.998 854.786 190.396 736.027C253.824 494.836 223.334 443.77 273.887 394.718L368.238 412.964Z" fill="#407BFF"/>
<path opacity="0.6" d="M368.238 412.964C368.238 412.964 305.68 622.481 275.111 743.254C242.884 870.544 88.9749 974.335 88.9749 974.335L56.1157 941.673C56.1157 941.673 158.998 854.786 190.396 736.027C253.824 494.836 223.334 443.77 273.887 394.718L368.238 412.964Z" fill="black"/>
<path d="M51.1393 996.017L32.6955 964.422C32.3935 963.874 31.9017 963.455 31.3126 963.244C30.7235 963.033 30.0777 963.045 29.4965 963.276L3.19338 973.861C2.54043 974.171 1.95967 974.614 1.48853 975.162C1.01739 975.71 0.666304 976.351 0.457933 977.043C0.249562 977.735 0.188531 978.463 0.27874 979.18C0.368949 979.898 0.608396 980.588 0.981682 981.207C7.61671 992.068 11.3292 997.004 19.465 1010.87C24.4807 1019.4 30.9183 1032.35 37.7903 1044.12C44.6623 1055.89 56.3921 1049.89 54.5358 1044.4C46.2421 1019.71 50.5864 1012.57 52.2057 1001.59C52.4988 999.662 52.1223 997.696 51.1393 996.017Z" fill="#263238"/>
<path d="M91.7787 978.995L50.7837 938.198L61.9211 925.836L111.842 968.332L91.7787 978.995Z" fill="#F5F5F5"/>
<path opacity="0.3" d="M338.854 457.593C297.82 489.188 295.055 609.882 296.003 664.384C316.896 588.2 341.58 503.406 355.995 454.394C352.046 450.997 346.398 451.748 338.854 457.593Z" fill="black"/>
<path d="M57.7746 1013.24C57.3852 1013.23 56.9992 1013.16 56.6293 1013.04C52.6799 1011.85 49.9548 1004.71 48.7304 1000.56C48.6853 1000.41 48.6836 1000.26 48.7257 1000.11C48.7678 999.961 48.8517 999.83 48.9674 999.729C49.0882 999.642 49.2333 999.596 49.3821 999.596C49.5309 999.596 49.6759 999.642 49.7968 999.729C50.9816 1000.32 61.3686 1005.73 61.645 1009.84C61.6874 1010.28 61.6153 1010.73 61.4355 1011.14C61.2557 1011.55 60.9743 1011.9 60.6182 1012.17C59.8175 1012.84 58.8155 1013.21 57.7746 1013.24ZM50.7051 1001.9C52.6404 1007.39 54.9705 1010.95 57.0637 1011.62C57.5287 1011.73 58.0162 1011.73 58.4795 1011.61C58.9428 1011.48 59.3664 1011.24 59.7098 1010.91C59.8774 1010.81 60.0119 1010.66 60.0962 1010.48C60.1806 1010.31 60.211 1010.11 60.1837 1009.92C59.9468 1007.87 54.8915 1004.19 50.7051 1001.9Z" fill="#407BFF"/>
<path d="M58.841 1003.24C55.4237 1003.23 52.0512 1002.47 48.9674 1000.99C48.8614 1000.92 48.7751 1000.82 48.7155 1000.7C48.656 1000.58 48.625 1000.45 48.625 1000.32C48.625 1000.19 48.656 1000.06 48.7155 999.945C48.7751 999.828 48.8614 999.727 48.9674 999.65C49.3229 999.65 57.1033 994.95 61.5266 996.412C62.0996 996.575 62.6282 996.866 63.0727 997.263C63.5173 997.659 63.8663 998.151 64.0937 998.702C64.3978 999.231 64.5126 999.848 64.4192 1000.45C64.3259 1001.05 64.03 1001.61 63.5803 1002.02C62.1856 1002.95 60.514 1003.39 58.841 1003.24ZM50.9422 1000.28C54.5756 1001.74 60.8552 1002.34 62.514 1000.87C62.7904 1000.64 63.0274 1000.24 62.514 999.334C62.3662 998.977 62.1407 998.656 61.8537 998.397C61.5668 998.137 61.2258 997.945 60.8552 997.833C57.38 997.636 53.9258 998.489 50.9422 1000.28Z" fill="#407BFF"/>
<path d="M271.32 1134.17L303.35 1136.54L312.828 1063L280.838 1060.63L271.32 1134.17Z" fill="#E58A7B"/>
<path d="M400.229 419.401C400.229 419.401 408.127 672.914 390.316 768.411C371.674 867.739 314.921 1093.65 314.921 1093.65L268.752 1087.68C268.752 1087.68 297.978 859.446 310.34 760.789C323.886 653.207 306.153 401.194 306.153 401.194L400.229 419.401Z" fill="#407BFF"/>
<path opacity="0.6" d="M400.229 419.401C400.229 419.401 408.127 672.914 390.316 768.411C371.674 867.739 314.921 1093.65 314.921 1093.65L268.752 1087.68C268.752 1087.68 297.978 859.446 310.34 760.789C323.886 653.207 306.153 401.194 306.153 401.194L400.229 419.401Z" fill="black"/>
<path d="M435.773 117.823C435.339 120.39 436.366 122.681 438.024 123.036C439.683 123.391 441.381 121.535 441.974 119.087C442.566 116.638 441.381 114.229 439.723 113.913C438.064 113.597 436.208 115.295 435.773 117.823Z" fill="#263238"/>
<path d="M438.775 113.834L445.212 113.241C445.212 113.241 441.263 117.428 438.775 113.834Z" fill="#263238"/>
<path d="M437.511 120.706C438.834 126.959 441 133.005 443.948 138.676C442.474 139.351 440.871 139.7 439.249 139.7C437.627 139.7 436.024 139.351 434.549 138.676L437.511 120.706Z" fill="#DF5753"/>
<path d="M441.935 107.397C441.641 107.398 441.353 107.312 441.107 107.15C440.862 106.989 440.669 106.759 440.553 106.489C439.807 104.697 438.661 103.101 437.203 101.821C435.745 100.54 434.013 99.6109 432.14 99.1032C431.946 99.0698 431.76 98.9983 431.593 98.8928C431.426 98.7873 431.281 98.6499 431.167 98.4885C431.054 98.327 430.973 98.1448 430.93 97.9521C430.887 97.7594 430.882 97.56 430.916 97.3655C430.993 96.9693 431.222 96.619 431.554 96.39C431.887 96.1611 432.296 96.0717 432.693 96.1411C435.055 96.723 437.247 97.8518 439.093 99.4365C440.938 101.021 442.385 103.018 443.317 105.264C443.479 105.632 443.492 106.048 443.351 106.424C443.211 106.8 442.93 107.107 442.567 107.279L441.935 107.397Z" fill="#263238"/>
<path d="M354.731 138.992C355.324 158.344 353.349 193.257 338.183 203.17C338.183 203.17 340.158 222.917 375.031 229.829C413.38 237.254 396.516 214.466 396.516 214.466C376.374 205.421 379.494 190.098 385.537 176.314L354.731 138.992Z" fill="#E58A7B"/>
<path d="M453.467 242.546C461.365 248.549 470.054 254.908 478.624 260.713C487.195 266.519 495.962 272.561 504.888 277.814C513.814 283.067 522.858 288.241 531.942 293.098C540.993 297.777 550.287 301.969 559.785 305.658C560.614 305.974 560.338 305.658 560.535 305.934H561.049C561.56 306.008 562.078 306.008 562.589 305.934C564.168 305.942 565.743 305.783 567.289 305.46C571.481 304.437 575.547 302.953 579.414 301.037C588.359 296.497 596.907 291.213 604.966 285.239C613.418 279.276 621.672 272.759 629.769 265.966C637.865 259.173 645.922 252.103 653.663 245.074L665.511 255.934C651.968 273.584 636.845 289.963 620.33 304.868C611.668 312.609 602.293 319.512 592.328 325.484C586.72 328.776 580.758 331.426 574.556 333.383C570.897 334.478 567.116 335.114 563.3 335.278C561.111 335.398 558.915 335.306 556.744 335.002C555.573 334.864 554.413 334.653 553.268 334.37C552.242 334.093 550.622 333.659 550.188 333.462C528.675 326.364 507.971 317.018 488.419 305.579C478.782 299.97 469.264 294.165 460.023 287.925C450.781 281.685 441.934 275.326 432.89 267.941L453.467 242.546Z" fill="#E58A7B"/>
<path d="M651.254 248.075L660.654 223.865L680.401 243.612C680.401 243.612 671.041 261.622 657.612 261.661L651.254 248.075Z" fill="#E58A7B"/>
<path d="M680.124 216.875L698.884 222.76L680.559 243.573L660.732 223.865L680.124 216.875Z" fill="#E58A7B"/>
<path d="M305.324 1131.96H269.345C268.717 1131.95 268.107 1132.17 267.629 1132.57C267.15 1132.98 266.834 1133.55 266.738 1134.17L261.881 1162.64C261.784 1163.35 261.842 1164.08 262.051 1164.77C262.26 1165.46 262.614 1166.09 263.089 1166.63C263.565 1167.17 264.151 1167.6 264.808 1167.89C265.465 1168.19 266.177 1168.34 266.896 1168.33C279.455 1168.13 285.498 1167.38 301.335 1167.38C311.051 1167.38 331.193 1168.41 344.779 1168.41C358.365 1168.41 359.273 1155.1 353.705 1153.87C328.744 1148.5 319.068 1141.04 310.774 1133.93C309.262 1132.62 307.322 1131.92 305.324 1131.96Z" fill="#263238"/>
<path d="M351.572 94.3635C348.373 125.959 346.319 139.11 359.471 158.186C379.218 186.819 418.712 185.042 431.469 155.382C442.804 128.723 446.2 81.6464 417.567 63.3211C411.478 59.1861 404.417 56.7082 397.08 56.1313C389.742 55.5545 382.381 56.8986 375.721 60.0314C369.061 63.1642 363.332 67.9775 359.097 73.9975C354.863 80.0175 352.269 87.0365 351.572 94.3635Z" fill="#E58A7B"/>
<path d="M355.047 163.084C340.04 156.962 326.019 132.792 326.572 94.9956C327.125 57.1996 355.284 35.2803 405.56 51.1965C455.837 67.1127 404.099 183.147 355.047 163.084Z" fill="#263238"/>
<path d="M397.622 54.6715C412.432 48.8659 445.213 56.0538 445.213 86.8988L413.341 112.768L397.622 54.6715Z" fill="#263238"/>
<path d="M393.475 54.3954C413.222 53.2501 420.884 53.3291 438.775 58.3448C427.006 44.2059 404.968 48.8662 393.475 54.3954Z" fill="#263238"/>
<path d="M410.576 110.793C409.964 116.659 411.163 122.572 414.012 127.736C417.961 135.003 423.925 134.016 426.137 128.131C428.151 122.839 428.506 112.689 422.977 107.239C417.448 101.789 411.524 104.277 410.576 110.793Z" fill="#E58A7B"/>
<path d="M329.692 67.0733C341.145 74.1033 380.087 68.2976 388.499 53.3293C396.911 38.361 367.843 13.3217 341.501 14.2301C315.158 15.1385 304.179 51.3546 329.692 67.0733Z" fill="#407BFF"/>
<path d="M324.755 1096.41L258.918 1087.92L259.748 1072.28L331.351 1075.4L324.755 1096.41Z" fill="#F5F5F5"/>
<path d="M317.251 1137.56C313.865 1137.5 310.493 1137.12 307.18 1136.42C307.026 1136.39 306.884 1136.32 306.777 1136.2C306.669 1136.09 306.603 1135.94 306.588 1135.79C306.567 1135.63 306.594 1135.47 306.664 1135.33C306.735 1135.19 306.846 1135.07 306.983 1135C308.444 1134.25 321.398 1127.69 325.268 1129.9C325.633 1130.1 325.939 1130.39 326.154 1130.74C326.369 1131.1 326.486 1131.5 326.493 1131.92C326.571 1132.6 326.478 1133.3 326.223 1133.94C325.968 1134.58 325.559 1135.14 325.031 1135.59C322.747 1137.13 319.995 1137.83 317.251 1137.56ZM309.708 1135.35C316.777 1136.54 322.03 1136.22 324.044 1134.48C324.385 1134.18 324.648 1133.8 324.813 1133.37C324.978 1132.95 325.039 1132.49 324.992 1132.03C324.993 1131.87 324.95 1131.7 324.867 1131.56C324.784 1131.41 324.663 1131.29 324.518 1131.21C322.425 1130.02 315.039 1132.82 309.708 1135.35Z" fill="#407BFF"/>
<path d="M307.338 1136.42C307.182 1136.45 307.02 1136.45 306.865 1136.42C306.762 1136.33 306.683 1136.22 306.635 1136.1C306.586 1135.97 306.57 1135.84 306.588 1135.71C306.588 1135.15 308.128 1122.04 315.277 1122.04H315.909C317.962 1122.24 318.555 1123.31 318.713 1124.14C319.305 1127.77 311.525 1134.72 307.654 1136.46L307.338 1136.42ZM315.237 1123.46C310.616 1123.46 308.8 1131.05 308.207 1134.32C312.157 1131.92 317.488 1126.43 317.133 1124.29C317.133 1124.29 317.133 1123.62 315.672 1123.46H315.237Z" fill="#407BFF"/>
<path d="M282.733 199.576C260.498 200.603 239.29 237.451 239.29 237.451L268.634 297.404C268.634 297.404 308.404 264.268 308.918 231.685C309.352 210.516 304.573 198.589 282.733 199.576Z" fill="#407BFF"/>
<path opacity="0.8" d="M282.733 199.576C260.498 200.603 239.29 237.451 239.29 237.451L268.634 297.404C268.634 297.404 308.404 264.268 308.918 231.685C309.352 210.516 304.573 198.589 282.733 199.576Z" fill="white"/>
<path d="M273.729 394.639L402.164 419.52C462.827 240.848 448.332 235.082 448.332 235.082C438.897 229.987 429.164 225.464 419.186 221.536L417.408 220.864C409.233 217.902 407.495 217.428 396.477 214.229C377.559 209.766 359.944 206.133 338.144 202.973L333.997 202.381C330.047 201.907 326.098 201.473 322.346 201.117C319.818 200.841 317.251 200.683 314.842 200.485L306.548 200.051C292.488 199.34 282.457 199.577 282.457 199.577C289.803 311.069 284.431 343.099 273.729 394.639Z" fill="#407BFF"/>
<path opacity="0.6" d="M273.729 394.639L402.164 419.52C462.827 240.848 448.332 235.082 448.332 235.082C438.897 229.987 429.164 225.464 419.186 221.536L417.408 220.864C409.233 217.902 407.495 217.428 396.477 214.229C377.559 209.766 359.944 206.133 338.144 202.973L333.997 202.381C330.047 201.907 326.098 201.473 322.346 201.117C319.818 200.841 317.251 200.683 314.842 200.485L306.548 200.051C292.488 199.34 282.457 199.577 282.457 199.577C289.803 311.069 284.431 343.099 273.729 394.639Z" fill="white"/>
<path opacity="0.2" d="M417.014 278.052C422.108 288.083 428.151 301.393 436.247 310.595C438.577 302.143 440.513 294.797 442.171 287.965L417.014 278.052Z" fill="#407BFF"/>
<path d="M314.052 304.868C346.082 279.552 352.836 256.014 348.373 235.437C343.91 214.861 338.776 178.96 342.449 166.954C346.122 154.948 358.918 130.027 356.311 108.74C353.704 87.4523 347.622 57.8711 353.467 45.075C359.313 32.2789 377.875 24.696 362.828 6.52866C355.521 -2.27855 324.558 -3.62134 316.461 20.944C308.365 45.5094 275.111 56.1334 262.038 58.582C248.966 61.0307 225.941 75.7225 221.952 99.656C217.963 123.589 201.889 133.029 179.811 145.311C157.734 157.594 125.981 205.737 138.619 248.47C155.68 306.961 266.343 342.703 314.052 304.868Z" fill="#263238"/>
<path d="M410.339 224.259C420.291 216.361 463.143 242.348 476.255 253.209L468.593 309.527C468.593 309.527 407.377 284.172 403.19 266.834C398.688 248.785 402.44 230.302 410.339 224.259Z" fill="#407BFF"/>
<path opacity="0.6" d="M410.339 224.259C420.291 216.361 463.143 242.348 476.255 253.209L468.593 309.527C468.593 309.527 407.377 284.172 403.19 266.834C398.688 248.785 402.44 230.302 410.339 224.259Z" fill="white"/>
<path d="M273.018 386.779L265.356 397.087C264.763 397.877 265.672 398.983 267.133 399.299L401.848 425.365C402.993 425.602 404.06 425.365 404.257 424.496L407.298 413.28C407.495 412.529 406.627 411.661 405.363 411.424L275.269 386.226C274.878 386.11 274.464 386.1 274.068 386.197C273.672 386.294 273.31 386.495 273.018 386.779Z" fill="#407BFF"/>
<path d="M288.105 404.631L284.629 403.959C283.958 403.959 283.484 403.367 283.602 402.933L287.552 388.399C287.552 387.964 288.341 387.727 289.052 387.846L292.528 388.517C293.199 388.517 293.673 389.11 293.555 389.544L289.605 404.078C289.487 404.512 288.815 404.749 288.105 404.631Z" fill="#407BFF"/>
<path d="M376.098 421.849L372.583 421.178C371.911 421.178 371.437 420.586 371.556 420.151L375.505 405.617C375.505 405.222 376.295 404.985 377.006 405.104L380.482 405.775C381.192 405.775 381.666 406.368 381.548 406.802L377.598 421.336C377.44 421.77 376.769 422.007 376.098 421.849Z" fill="#407BFF"/>
<path opacity="0.6" d="M288.105 404.631L284.629 403.959C283.958 403.959 283.484 403.367 283.602 402.933L287.552 388.399C287.552 387.964 288.341 387.727 289.052 387.846L292.528 388.517C293.199 388.517 293.673 389.11 293.555 389.544L289.605 404.078C289.487 404.512 288.815 404.749 288.105 404.631Z" fill="black"/>
<path opacity="0.6" d="M376.098 421.849L372.583 421.178C371.911 421.178 371.437 420.586 371.556 420.151L375.505 405.617C375.505 405.222 376.295 404.985 377.006 405.104L380.482 405.775C381.192 405.775 381.666 406.368 381.548 406.802L377.598 421.336C377.44 421.77 376.769 422.007 376.098 421.849Z" fill="black"/>
</svg>
